%TF.GenerationSoftware,KiCad,Pcbnew,9.0.5*%
%TF.CreationDate,2025-11-24T02:23:27-06:00*%
%TF.ProjectId,drv10964,64727631-3039-4363-942e-6b696361645f,rev?*%
%TF.SameCoordinates,Original*%
%TF.FileFunction,Copper,L1,Top*%
%TF.FilePolarity,Positive*%
%FSLAX46Y46*%
G04 Gerber Fmt 4.6, Leading zero omitted, Abs format (unit mm)*
G04 Created by KiCad (PCBNEW 9.0.5) date 2025-11-24 02:23:27*
%MOMM*%
%LPD*%
G01*
G04 APERTURE LIST*
G04 Aperture macros list*
%AMRoundRect*
0 Rectangle with rounded corners*
0 $1 Rounding radius*
0 $2 $3 $4 $5 $6 $7 $8 $9 X,Y pos of 4 corners*
0 Add a 4 corners polygon primitive as box body*
4,1,4,$2,$3,$4,$5,$6,$7,$8,$9,$2,$3,0*
0 Add four circle primitives for the rounded corners*
1,1,$1+$1,$2,$3*
1,1,$1+$1,$4,$5*
1,1,$1+$1,$6,$7*
1,1,$1+$1,$8,$9*
0 Add four rect primitives between the rounded corners*
20,1,$1+$1,$2,$3,$4,$5,0*
20,1,$1+$1,$4,$5,$6,$7,0*
20,1,$1+$1,$6,$7,$8,$9,0*
20,1,$1+$1,$8,$9,$2,$3,0*%
%AMFreePoly0*
4,1,14,-0.375000,0.120000,-0.345000,0.150000,0.225000,0.150000,0.282403,0.138582,0.331066,0.106066,0.363582,0.057403,0.375000,0.000000,0.363582,-0.057403,0.331066,-0.106066,0.282403,-0.138582,0.225000,-0.150000,-0.345000,-0.150000,-0.375000,-0.120000,-0.375000,0.120000,-0.375000,0.120000,$1*%
%AMFreePoly1*
4,1,15,-0.375000,0.000000,-0.363582,0.057403,-0.331066,0.106066,-0.282403,0.138582,-0.225000,0.150000,0.345000,0.150000,0.375000,0.120000,0.375000,-0.120000,0.345000,-0.150000,-0.225000,-0.150000,-0.282403,-0.138582,-0.331066,-0.106066,-0.363582,-0.057403,-0.375000,0.000000,-0.375000,0.000000,-0.375000,0.000000,$1*%
G04 Aperture macros list end*
%TA.AperFunction,ComponentPad*%
%ADD10C,1.700000*%
%TD*%
%TA.AperFunction,SMDPad,CuDef*%
%ADD11RoundRect,0.225000X-0.250000X0.225000X-0.250000X-0.225000X0.250000X-0.225000X0.250000X0.225000X0*%
%TD*%
%TA.AperFunction,ComponentPad*%
%ADD12R,1.700000X1.700000*%
%TD*%
%TA.AperFunction,SMDPad,CuDef*%
%ADD13RoundRect,0.200000X-0.275000X0.200000X-0.275000X-0.200000X0.275000X-0.200000X0.275000X0.200000X0*%
%TD*%
%TA.AperFunction,SMDPad,CuDef*%
%ADD14FreePoly0,0.000000*%
%TD*%
%TA.AperFunction,SMDPad,CuDef*%
%ADD15RoundRect,0.165000X-0.660000X-1.025000X0.660000X-1.025000X0.660000X1.025000X-0.660000X1.025000X0*%
%TD*%
%TA.AperFunction,SMDPad,CuDef*%
%ADD16FreePoly1,0.000000*%
%TD*%
%TA.AperFunction,ViaPad*%
%ADD17C,0.600000*%
%TD*%
%TA.AperFunction,Conductor*%
%ADD18C,0.300000*%
%TD*%
%TA.AperFunction,Conductor*%
%ADD19C,0.600000*%
%TD*%
%TA.AperFunction,Conductor*%
%ADD20C,0.900000*%
%TD*%
%TA.AperFunction,Conductor*%
%ADD21C,0.200000*%
%TD*%
G04 APERTURE END LIST*
D10*
%TO.P,J1,1,Pin_1*%
%TO.N,/V*%
X116750000Y-110160000D03*
%TO.P,J1,2,Pin_2*%
%TO.N,/U*%
X116750000Y-107620000D03*
%TO.P,J1,3,Pin_3*%
%TO.N,/FR*%
X116750000Y-105080000D03*
%TO.P,J1,4,Pin_4*%
%TO.N,/CFG*%
X116750000Y-102540000D03*
%TO.P,J1,5,Pin_5*%
%TO.N,/PWM*%
X116750000Y-100000000D03*
%TD*%
D11*
%TO.P,C1,1*%
%TO.N,VDD*%
X107750000Y-104975000D03*
%TO.P,C1,2*%
%TO.N,GND*%
X107750000Y-106525000D03*
%TD*%
D10*
%TO.P,J2,1,Pin_1*%
%TO.N,/FG*%
X104000000Y-100000000D03*
%TO.P,J2,2,Pin_2*%
%TO.N,/FGS*%
X104000000Y-102540000D03*
%TO.P,J2,3,Pin_3*%
%TO.N,VDD*%
X104000000Y-105080000D03*
%TO.P,J2,4,Pin_4*%
%TO.N,/W*%
X104000000Y-107620000D03*
D12*
%TO.P,J2,5,Pin_5*%
%TO.N,GND*%
X104000000Y-110160000D03*
%TD*%
D13*
%TO.P,R1,1*%
%TO.N,VDD*%
X109500000Y-100850000D03*
%TO.P,R1,2*%
%TO.N,/FG*%
X109500000Y-102500000D03*
%TD*%
D14*
%TO.P,DRV10964,1,FG*%
%TO.N,/FG*%
X109600000Y-104000000D03*
%TO.P,DRV10964,2,FGS*%
%TO.N,/FGS*%
X109600000Y-104500000D03*
%TO.P,DRV10964,3,VCC*%
%TO.N,VDD*%
X109600000Y-105000000D03*
%TO.P,DRV10964,4,W*%
%TO.N,/W*%
X109600000Y-105500000D03*
%TO.P,DRV10964,5,GND*%
%TO.N,GND*%
X109600000Y-106000000D03*
D15*
X111000000Y-105000000D03*
D16*
%TO.P,DRV10964,6,V*%
%TO.N,/V*%
X112400000Y-106000000D03*
%TO.P,DRV10964,7,U*%
%TO.N,/U*%
X112400000Y-105500000D03*
%TO.P,DRV10964,8,FR*%
%TO.N,/FR*%
X112400000Y-105000000D03*
%TO.P,DRV10964,9,CFG*%
%TO.N,/CFG*%
X112400000Y-104500000D03*
%TO.P,DRV10964,10,PWM*%
%TO.N,/PWM*%
X112400000Y-104000000D03*
%TD*%
D17*
%TO.N,VDD*%
X109500000Y-99500000D03*
%TD*%
D18*
%TO.N,VDD*%
X109600000Y-105000000D02*
X107775000Y-105000000D01*
D19*
X109500000Y-100850000D02*
X109500000Y-99500000D01*
D20*
X107750000Y-104975000D02*
X104105000Y-104975000D01*
D18*
%TO.N,/PWM*%
X112400000Y-104000000D02*
X112750000Y-104000000D01*
X112750000Y-104000000D02*
X116750000Y-100000000D01*
%TO.N,/FGS*%
X108750000Y-104500000D02*
X109600000Y-104500000D01*
X106790000Y-102540000D02*
X108750000Y-104500000D01*
X104000000Y-102540000D02*
X106790000Y-102540000D01*
%TO.N,/FR*%
X112400000Y-105000000D02*
X116670000Y-105000000D01*
%TO.N,/V*%
X112590000Y-106000000D02*
X112750000Y-106000000D01*
X112750000Y-106000000D02*
X116750000Y-110000000D01*
%TO.N,/FG*%
X109500000Y-102500000D02*
X107000000Y-100000000D01*
X107000000Y-100000000D02*
X104000000Y-100000000D01*
X109600000Y-104000000D02*
X109600000Y-102600000D01*
%TO.N,/W*%
X108750000Y-105500000D02*
X108500000Y-105750000D01*
D21*
X108500000Y-105750000D02*
X106750000Y-105750000D01*
D18*
X109600000Y-105500000D02*
X108750000Y-105500000D01*
D21*
X106750000Y-105750000D02*
X106500000Y-106000000D01*
D18*
X104880000Y-107620000D02*
X104000000Y-107620000D01*
X106500000Y-106000000D02*
X104880000Y-107620000D01*
%TO.N,/U*%
X113750000Y-105500000D02*
X115870000Y-107620000D01*
X112400000Y-105500000D02*
X113750000Y-105500000D01*
X115870000Y-107620000D02*
X116750000Y-107620000D01*
%TO.N,/CFG*%
X113750000Y-104500000D02*
X115750000Y-102500000D01*
X115750000Y-102500000D02*
X116710000Y-102500000D01*
X112400000Y-104500000D02*
X113750000Y-104500000D01*
%TD*%
%TA.AperFunction,Conductor*%
%TO.N,GND*%
G36*
X118006922Y-98251280D02*
G01*
X118097266Y-98261459D01*
X118124331Y-98267636D01*
X118203540Y-98295352D01*
X118228553Y-98307398D01*
X118299606Y-98352043D01*
X118321313Y-98369355D01*
X118380644Y-98428686D01*
X118397957Y-98450395D01*
X118442600Y-98521444D01*
X118454648Y-98546462D01*
X118482362Y-98625666D01*
X118488540Y-98652735D01*
X118498720Y-98743076D01*
X118499500Y-98756961D01*
X118499500Y-111243038D01*
X118498720Y-111256922D01*
X118498720Y-111256923D01*
X118488540Y-111347264D01*
X118482362Y-111374333D01*
X118454648Y-111453537D01*
X118442600Y-111478555D01*
X118397957Y-111549604D01*
X118380644Y-111571313D01*
X118321313Y-111630644D01*
X118299604Y-111647957D01*
X118228555Y-111692600D01*
X118203537Y-111704648D01*
X118124333Y-111732362D01*
X118097264Y-111738540D01*
X118017075Y-111747576D01*
X118006921Y-111748720D01*
X117993038Y-111749500D01*
X102756962Y-111749500D01*
X102743078Y-111748720D01*
X102730553Y-111747308D01*
X102652735Y-111738540D01*
X102625666Y-111732362D01*
X102546462Y-111704648D01*
X102521444Y-111692600D01*
X102450395Y-111647957D01*
X102428686Y-111630644D01*
X102369355Y-111571313D01*
X102352042Y-111549604D01*
X102307399Y-111478555D01*
X102295351Y-111453537D01*
X102267637Y-111374333D01*
X102261459Y-111347263D01*
X102251280Y-111256922D01*
X102250500Y-111243038D01*
X102250500Y-99913389D01*
X102899500Y-99913389D01*
X102899500Y-100086611D01*
X102926598Y-100257701D01*
X102980127Y-100422445D01*
X103058768Y-100576788D01*
X103160586Y-100716928D01*
X103283072Y-100839414D01*
X103423212Y-100941232D01*
X103577555Y-101019873D01*
X103742299Y-101073402D01*
X103913389Y-101100500D01*
X103913390Y-101100500D01*
X104086610Y-101100500D01*
X104086611Y-101100500D01*
X104257701Y-101073402D01*
X104422445Y-101019873D01*
X104576788Y-100941232D01*
X104576802Y-100941221D01*
X104579247Y-100939724D01*
X104592249Y-100932783D01*
X105725794Y-100411828D01*
X105777575Y-100400500D01*
X106782745Y-100400500D01*
X106849784Y-100420185D01*
X106870426Y-100436819D01*
X108503685Y-102070078D01*
X108529224Y-102107190D01*
X108763720Y-102632208D01*
X108774500Y-102682777D01*
X108774500Y-102754269D01*
X108777353Y-102784699D01*
X108777353Y-102784701D01*
X108822206Y-102912880D01*
X108822207Y-102912882D01*
X108902850Y-103022150D01*
X108947591Y-103055170D01*
X108974070Y-103081774D01*
X109175616Y-103357567D01*
X109199278Y-103423308D01*
X109199500Y-103430730D01*
X109199500Y-103755034D01*
X109196995Y-103779833D01*
X109189693Y-103815603D01*
X109170238Y-103835059D01*
X109158590Y-103852493D01*
X109154500Y-103873057D01*
X109154500Y-103988023D01*
X109151995Y-104000299D01*
X109141270Y-104020553D01*
X109134815Y-104042539D01*
X109125234Y-104050840D01*
X109119301Y-104062047D01*
X109099328Y-104073288D01*
X109082011Y-104088294D01*
X109066780Y-104091607D01*
X109058413Y-104096317D01*
X109047950Y-104095703D01*
X109030500Y-104099500D01*
X108967254Y-104099500D01*
X108900215Y-104079815D01*
X108879573Y-104063181D01*
X107035915Y-102219522D01*
X107035914Y-102219521D01*
X107035913Y-102219520D01*
X106990250Y-102193156D01*
X106944589Y-102166793D01*
X106855371Y-102142888D01*
X106842727Y-102139500D01*
X106842726Y-102139500D01*
X105777577Y-102139500D01*
X105725796Y-102128171D01*
X105680143Y-102107190D01*
X105119435Y-101849500D01*
X104592260Y-101607221D01*
X104579246Y-101600274D01*
X104576784Y-101598765D01*
X104422450Y-101520129D01*
X104422447Y-101520128D01*
X104422445Y-101520127D01*
X104257701Y-101466598D01*
X104257699Y-101466597D01*
X104257698Y-101466597D01*
X104126271Y-101445781D01*
X104086611Y-101439500D01*
X103913389Y-101439500D01*
X103873728Y-101445781D01*
X103742302Y-101466597D01*
X103577552Y-101520128D01*
X103423211Y-101598768D01*
X103411577Y-101607221D01*
X103283072Y-101700586D01*
X103283070Y-101700588D01*
X103283069Y-101700588D01*
X103160588Y-101823069D01*
X103160588Y-101823070D01*
X103160586Y-101823072D01*
X103116859Y-101883256D01*
X103058768Y-101963211D01*
X102980128Y-102117552D01*
X102926597Y-102282302D01*
X102899500Y-102453389D01*
X102899500Y-102626611D01*
X102904209Y-102656344D01*
X102924538Y-102784699D01*
X102926598Y-102797701D01*
X102980127Y-102962445D01*
X103058768Y-103116788D01*
X103160586Y-103256928D01*
X103283072Y-103379414D01*
X103423212Y-103481232D01*
X103577555Y-103559873D01*
X103742299Y-103613402D01*
X103913389Y-103640500D01*
X103913390Y-103640500D01*
X104086610Y-103640500D01*
X104086611Y-103640500D01*
X104257701Y-103613402D01*
X104422445Y-103559873D01*
X104576788Y-103481232D01*
X104576802Y-103481221D01*
X104579247Y-103479724D01*
X104592249Y-103472783D01*
X105725794Y-102951828D01*
X105777575Y-102940500D01*
X106572745Y-102940500D01*
X106639784Y-102960185D01*
X106660426Y-102976819D01*
X107746426Y-104062819D01*
X107779911Y-104124142D01*
X107774927Y-104193834D01*
X107733055Y-104249767D01*
X107667591Y-104274184D01*
X107658745Y-104274500D01*
X105745448Y-104274500D01*
X105723057Y-104272462D01*
X105720221Y-104271941D01*
X105720218Y-104271940D01*
X104223288Y-103997112D01*
X104223285Y-103997112D01*
X104209863Y-103997257D01*
X104189128Y-103995737D01*
X104131404Y-103986594D01*
X104086611Y-103979500D01*
X103913389Y-103979500D01*
X103873728Y-103985781D01*
X103742302Y-104006597D01*
X103577552Y-104060128D01*
X103423211Y-104138768D01*
X103347420Y-104193834D01*
X103283072Y-104240586D01*
X103283070Y-104240588D01*
X103283069Y-104240588D01*
X103160588Y-104363069D01*
X103160588Y-104363070D01*
X103160586Y-104363072D01*
X103137900Y-104394297D01*
X103058768Y-104503211D01*
X102980128Y-104657552D01*
X102926597Y-104822302D01*
X102899500Y-104993389D01*
X102899500Y-105166610D01*
X102926594Y-105337681D01*
X102926598Y-105337701D01*
X102951629Y-105414739D01*
X102980128Y-105502447D01*
X103004794Y-105550858D01*
X103058768Y-105656788D01*
X103160586Y-105796928D01*
X103283072Y-105919414D01*
X103423212Y-106021232D01*
X103577555Y-106099873D01*
X103742299Y-106153402D01*
X103913389Y-106180500D01*
X103913390Y-106180500D01*
X104086610Y-106180500D01*
X104086611Y-106180500D01*
X104257701Y-106153402D01*
X104422445Y-106099873D01*
X104422447Y-106099871D01*
X104422693Y-106099792D01*
X104431666Y-106096493D01*
X105720779Y-105681465D01*
X105722894Y-105681133D01*
X105723845Y-105680523D01*
X105758780Y-105675500D01*
X105958745Y-105675500D01*
X106025784Y-105695185D01*
X106071539Y-105747989D01*
X106081483Y-105817147D01*
X106052458Y-105880703D01*
X106046426Y-105887181D01*
X105300728Y-106632877D01*
X105239405Y-106666362D01*
X105196405Y-106668074D01*
X104211013Y-106534619D01*
X104211001Y-106534618D01*
X104201229Y-106535070D01*
X104176112Y-106533675D01*
X104086616Y-106519500D01*
X104086611Y-106519500D01*
X103913389Y-106519500D01*
X103873728Y-106525781D01*
X103742302Y-106546597D01*
X103577552Y-106600128D01*
X103423211Y-106678768D01*
X103343256Y-106736859D01*
X103283072Y-106780586D01*
X103283070Y-106780588D01*
X103283069Y-106780588D01*
X103160588Y-106903069D01*
X103160588Y-106903070D01*
X103160586Y-106903072D01*
X103116859Y-106963256D01*
X103058768Y-107043211D01*
X102980128Y-107197552D01*
X102926597Y-107362302D01*
X102904707Y-107500514D01*
X102899500Y-107533389D01*
X102899500Y-107706611D01*
X102926598Y-107877701D01*
X102980127Y-108042445D01*
X103058768Y-108196788D01*
X103160586Y-108336928D01*
X103283072Y-108459414D01*
X103423212Y-108561232D01*
X103577555Y-108639873D01*
X103742299Y-108693402D01*
X103913389Y-108720500D01*
X103913390Y-108720500D01*
X104086610Y-108720500D01*
X104086611Y-108720500D01*
X104257701Y-108693402D01*
X104422445Y-108639873D01*
X104576788Y-108561232D01*
X104716928Y-108459414D01*
X104839414Y-108336928D01*
X104881037Y-108279637D01*
X104899121Y-108261479D01*
X104898249Y-108260516D01*
X104902751Y-108256436D01*
X104902764Y-108256428D01*
X105736103Y-107337699D01*
X105740404Y-107330722D01*
X105758270Y-107308121D01*
X106820480Y-106245913D01*
X106868639Y-106162500D01*
X106919206Y-106114284D01*
X106976026Y-106100500D01*
X108272856Y-106100500D01*
X108334856Y-106117113D01*
X108345408Y-106123205D01*
X108345409Y-106123205D01*
X108345412Y-106123207D01*
X108447273Y-106150500D01*
X108447275Y-106150500D01*
X108552725Y-106150500D01*
X108552727Y-106150500D01*
X108654588Y-106123207D01*
X108745913Y-106070480D01*
X108879574Y-105936819D01*
X108940897Y-105903334D01*
X108967255Y-105900500D01*
X109652725Y-105900500D01*
X109652727Y-105900500D01*
X109754587Y-105873207D01*
X109845913Y-105820480D01*
X109920480Y-105745913D01*
X109947866Y-105698477D01*
X109976080Y-105668355D01*
X109975335Y-105667610D01*
X109983969Y-105658975D01*
X109983970Y-105658973D01*
X109983972Y-105658972D01*
X110032707Y-105586035D01*
X110045500Y-105521719D01*
X110045499Y-105478282D01*
X110032707Y-105413965D01*
X110032705Y-105413963D01*
X110032705Y-105413961D01*
X109983971Y-105341027D01*
X109980625Y-105337681D01*
X109947140Y-105276358D01*
X109952124Y-105206666D01*
X109980628Y-105162315D01*
X109983965Y-105158976D01*
X109983972Y-105158972D01*
X110032707Y-105086035D01*
X110045500Y-105021719D01*
X110045499Y-104978282D01*
X110032707Y-104913965D01*
X110032705Y-104913963D01*
X110032705Y-104913961D01*
X109983971Y-104841027D01*
X109980625Y-104837681D01*
X109947140Y-104776358D01*
X109952124Y-104706666D01*
X109980628Y-104662315D01*
X109983965Y-104658976D01*
X109983972Y-104658972D01*
X110032707Y-104586035D01*
X110045500Y-104521719D01*
X110045499Y-104478282D01*
X110032707Y-104413965D01*
X110032705Y-104413963D01*
X110032705Y-104413961D01*
X109983971Y-104341027D01*
X109980625Y-104337681D01*
X109947140Y-104276358D01*
X109952124Y-104206666D01*
X109980628Y-104162315D01*
X109983965Y-104158976D01*
X109983972Y-104158972D01*
X110032707Y-104086035D01*
X110045500Y-104021719D01*
X110045499Y-103978282D01*
X111954500Y-103978282D01*
X111954500Y-104021715D01*
X111954501Y-104021717D01*
X111967293Y-104086035D01*
X111967294Y-104086038D01*
X112016028Y-104158972D01*
X112019374Y-104162318D01*
X112052859Y-104223641D01*
X112047875Y-104293333D01*
X112019378Y-104337677D01*
X112016028Y-104341026D01*
X111967293Y-104413965D01*
X111954500Y-104478282D01*
X111954500Y-104521715D01*
X111954501Y-104521717D01*
X111967293Y-104586035D01*
X111967294Y-104586038D01*
X112016028Y-104658972D01*
X112019374Y-104662318D01*
X112052859Y-104723641D01*
X112047875Y-104793333D01*
X112019378Y-104837677D01*
X112016028Y-104841026D01*
X111967293Y-104913965D01*
X111954500Y-104978282D01*
X111954500Y-105021715D01*
X111954501Y-105021717D01*
X111967293Y-105086035D01*
X111967294Y-105086038D01*
X112016028Y-105158972D01*
X112019374Y-105162318D01*
X112052859Y-105223641D01*
X112047875Y-105293333D01*
X112019378Y-105337677D01*
X112016028Y-105341026D01*
X111967293Y-105413965D01*
X111954500Y-105478282D01*
X111954500Y-105521715D01*
X111954501Y-105521717D01*
X111967293Y-105586035D01*
X111967294Y-105586038D01*
X112016028Y-105658972D01*
X112019375Y-105662319D01*
X112052860Y-105723642D01*
X112047876Y-105793334D01*
X112019375Y-105837681D01*
X112016028Y-105841027D01*
X111967293Y-105913965D01*
X111954500Y-105978282D01*
X111954500Y-106021715D01*
X111954501Y-106021717D01*
X111967293Y-106086035D01*
X111967294Y-106086038D01*
X112016027Y-106158971D01*
X112016028Y-106158972D01*
X112088965Y-106207707D01*
X112088966Y-106207707D01*
X112088967Y-106207708D01*
X112136981Y-106217257D01*
X112153281Y-106220500D01*
X112192743Y-106220499D01*
X112259781Y-106240182D01*
X112280425Y-106256818D01*
X112344087Y-106320480D01*
X112435413Y-106373207D01*
X112537273Y-106400500D01*
X112537281Y-106400500D01*
X112545333Y-106401561D01*
X112544998Y-106404098D01*
X112599784Y-106420185D01*
X112620426Y-106436819D01*
X115280625Y-109097018D01*
X115312105Y-109150398D01*
X115667830Y-110386178D01*
X115669526Y-110390581D01*
X115676287Y-110415743D01*
X115676596Y-110417692D01*
X115676597Y-110417697D01*
X115676598Y-110417701D01*
X115730127Y-110582445D01*
X115808768Y-110736788D01*
X115910586Y-110876928D01*
X116033072Y-110999414D01*
X116173212Y-111101232D01*
X116327555Y-111179873D01*
X116492299Y-111233402D01*
X116663389Y-111260500D01*
X116663390Y-111260500D01*
X116836610Y-111260500D01*
X116836611Y-111260500D01*
X117007701Y-111233402D01*
X117172445Y-111179873D01*
X117326788Y-111101232D01*
X117466928Y-110999414D01*
X117589414Y-110876928D01*
X117691232Y-110736788D01*
X117769873Y-110582445D01*
X117823402Y-110417701D01*
X117850500Y-110246611D01*
X117850500Y-110073389D01*
X117823402Y-109902299D01*
X117769873Y-109737555D01*
X117691232Y-109583212D01*
X117589414Y-109443072D01*
X117466928Y-109320586D01*
X117326788Y-109218768D01*
X117172445Y-109140126D01*
X117101475Y-109117066D01*
X117088571Y-109112061D01*
X116747670Y-108957425D01*
X116694750Y-108911805D01*
X116674894Y-108844816D01*
X116694408Y-108777726D01*
X116747095Y-108731837D01*
X116798894Y-108720500D01*
X116836610Y-108720500D01*
X116836611Y-108720500D01*
X117007701Y-108693402D01*
X117172445Y-108639873D01*
X117326788Y-108561232D01*
X117466928Y-108459414D01*
X117589414Y-108336928D01*
X117691232Y-108196788D01*
X117769873Y-108042445D01*
X117823402Y-107877701D01*
X117850500Y-107706611D01*
X117850500Y-107533389D01*
X117823402Y-107362299D01*
X117769873Y-107197555D01*
X117691232Y-107043212D01*
X117589414Y-106903072D01*
X117466928Y-106780586D01*
X117326788Y-106678768D01*
X117172445Y-106600127D01*
X117007701Y-106546598D01*
X117007699Y-106546597D01*
X117007698Y-106546597D01*
X116876271Y-106525781D01*
X116836611Y-106519500D01*
X116663389Y-106519500D01*
X116663385Y-106519500D01*
X116573261Y-106533774D01*
X116546218Y-106535065D01*
X116538994Y-106534618D01*
X116538984Y-106534619D01*
X115553593Y-106668074D01*
X115484518Y-106657565D01*
X115449270Y-106632877D01*
X114428574Y-105612181D01*
X114395089Y-105550858D01*
X114400073Y-105481166D01*
X114441945Y-105425233D01*
X114507409Y-105400816D01*
X114516255Y-105400500D01*
X114963161Y-105400500D01*
X115020852Y-105414738D01*
X116093008Y-105978282D01*
X116154245Y-106010469D01*
X116154160Y-106010629D01*
X116168903Y-106018946D01*
X116169062Y-106018688D01*
X116173204Y-106021226D01*
X116173212Y-106021232D01*
X116327555Y-106099873D01*
X116492299Y-106153402D01*
X116663389Y-106180500D01*
X116663390Y-106180500D01*
X116836610Y-106180500D01*
X116836611Y-106180500D01*
X117007701Y-106153402D01*
X117172445Y-106099873D01*
X117326788Y-106021232D01*
X117466928Y-105919414D01*
X117589414Y-105796928D01*
X117691232Y-105656788D01*
X117769873Y-105502445D01*
X117823402Y-105337701D01*
X117850500Y-105166611D01*
X117850500Y-104993389D01*
X117823402Y-104822299D01*
X117769873Y-104657555D01*
X117691232Y-104503212D01*
X117589414Y-104363072D01*
X117466928Y-104240586D01*
X117326788Y-104138768D01*
X117244157Y-104096666D01*
X117172447Y-104060128D01*
X117172446Y-104060127D01*
X117172445Y-104060127D01*
X117007701Y-104006598D01*
X117007699Y-104006597D01*
X117007698Y-104006597D01*
X116876271Y-103985781D01*
X116836611Y-103979500D01*
X116663389Y-103979500D01*
X116623728Y-103985781D01*
X116492302Y-104006597D01*
X116327557Y-104060126D01*
X116327547Y-104060130D01*
X116213715Y-104118130D01*
X116203246Y-104122867D01*
X115026889Y-104590722D01*
X114981064Y-104599500D01*
X114516255Y-104599500D01*
X114449216Y-104579815D01*
X114403461Y-104527011D01*
X114393517Y-104457853D01*
X114422542Y-104394297D01*
X114428574Y-104387819D01*
X114657424Y-104158969D01*
X115398219Y-103418172D01*
X115459540Y-103384689D01*
X115514214Y-103385131D01*
X115564395Y-103396902D01*
X116513960Y-103619633D01*
X116514032Y-103619649D01*
X116514048Y-103619653D01*
X116518145Y-103620578D01*
X116518527Y-103620661D01*
X116522786Y-103621549D01*
X116534095Y-103621555D01*
X116553414Y-103623081D01*
X116663389Y-103640500D01*
X116663390Y-103640500D01*
X116836610Y-103640500D01*
X116836611Y-103640500D01*
X117007701Y-103613402D01*
X117172445Y-103559873D01*
X117326788Y-103481232D01*
X117466928Y-103379414D01*
X117589414Y-103256928D01*
X117691232Y-103116788D01*
X117769873Y-102962445D01*
X117823402Y-102797701D01*
X117850500Y-102626611D01*
X117850500Y-102453389D01*
X117823402Y-102282299D01*
X117769873Y-102117555D01*
X117691232Y-101963212D01*
X117589414Y-101823072D01*
X117466928Y-101700586D01*
X117326788Y-101598768D01*
X117172445Y-101520127D01*
X117007701Y-101466598D01*
X117007699Y-101466597D01*
X117007698Y-101466597D01*
X116876271Y-101445781D01*
X116836611Y-101439500D01*
X116707443Y-101439500D01*
X116640404Y-101419815D01*
X116594649Y-101367011D01*
X116584705Y-101297853D01*
X116613730Y-101234297D01*
X116664385Y-101199216D01*
X116990801Y-101078358D01*
X117004905Y-101074072D01*
X117007687Y-101073404D01*
X117007701Y-101073402D01*
X117172445Y-101019873D01*
X117326788Y-100941232D01*
X117466928Y-100839414D01*
X117589414Y-100716928D01*
X117691232Y-100576788D01*
X117769873Y-100422445D01*
X117823402Y-100257701D01*
X117850500Y-100086611D01*
X117850500Y-99913389D01*
X117823402Y-99742299D01*
X117769873Y-99577555D01*
X117691232Y-99423212D01*
X117589414Y-99283072D01*
X117466928Y-99160586D01*
X117326788Y-99058768D01*
X117172445Y-98980127D01*
X117007701Y-98926598D01*
X117007699Y-98926597D01*
X117007698Y-98926597D01*
X116876271Y-98905781D01*
X116836611Y-98899500D01*
X116663389Y-98899500D01*
X116623728Y-98905781D01*
X116492302Y-98926597D01*
X116327552Y-98980128D01*
X116173211Y-99058768D01*
X116161577Y-99067221D01*
X116033072Y-99160586D01*
X116033070Y-99160588D01*
X116033069Y-99160588D01*
X115910588Y-99283069D01*
X115910588Y-99283070D01*
X115910586Y-99283072D01*
X115907361Y-99287511D01*
X115808768Y-99423211D01*
X115730128Y-99577552D01*
X115676596Y-99742303D01*
X115675919Y-99745125D01*
X115671635Y-99759212D01*
X115238470Y-100929113D01*
X115209866Y-100973739D01*
X112620426Y-103563181D01*
X112559103Y-103596666D01*
X112532745Y-103599500D01*
X112347273Y-103599500D01*
X112245413Y-103626793D01*
X112245410Y-103626794D01*
X112154087Y-103679520D01*
X112079518Y-103754088D01*
X112052127Y-103801529D01*
X112023915Y-103831652D01*
X112024660Y-103832397D01*
X112016026Y-103841030D01*
X111967293Y-103913965D01*
X111954500Y-103978282D01*
X110045499Y-103978282D01*
X110032707Y-103913965D01*
X110011469Y-103882180D01*
X110006141Y-103865123D01*
X110005835Y-103847334D01*
X110000520Y-103830359D01*
X110000500Y-103828148D01*
X110000500Y-103383622D01*
X110008809Y-103338994D01*
X110040466Y-103256928D01*
X110162133Y-102941529D01*
X110176021Y-102916234D01*
X110177793Y-102912882D01*
X110222645Y-102784701D01*
X110222646Y-102784699D01*
X110225500Y-102754269D01*
X110225500Y-102245730D01*
X110222646Y-102215300D01*
X110222646Y-102215298D01*
X110177793Y-102087119D01*
X110177792Y-102087117D01*
X110097150Y-101977850D01*
X109987882Y-101897207D01*
X109987880Y-101897206D01*
X109859700Y-101852353D01*
X109829270Y-101849500D01*
X109829266Y-101849500D01*
X109765943Y-101849500D01*
X109753143Y-101846452D01*
X109743517Y-101847455D01*
X109710066Y-101836197D01*
X109509976Y-101735197D01*
X109458999Y-101687415D01*
X109441948Y-101619658D01*
X109464235Y-101553438D01*
X109518785Y-101509780D01*
X109565853Y-101500500D01*
X109829270Y-101500500D01*
X109859699Y-101497646D01*
X109859701Y-101497646D01*
X109943468Y-101468334D01*
X109987882Y-101452793D01*
X110097150Y-101372150D01*
X110177793Y-101262882D01*
X110200219Y-101198790D01*
X110222646Y-101134701D01*
X110222646Y-101134699D01*
X110225500Y-101104269D01*
X110225500Y-100595730D01*
X110222646Y-100565300D01*
X110222646Y-100565298D01*
X110177793Y-100437118D01*
X110165296Y-100420185D01*
X110151014Y-100400833D01*
X110129768Y-100354240D01*
X110053482Y-100012777D01*
X110050500Y-99985743D01*
X110050500Y-99427527D01*
X110050500Y-99427525D01*
X110012984Y-99287515D01*
X109940509Y-99161985D01*
X109838015Y-99059491D01*
X109838013Y-99059490D01*
X109838011Y-99059488D01*
X109712488Y-98987017D01*
X109712489Y-98987017D01*
X109701006Y-98983940D01*
X109572475Y-98949500D01*
X109427525Y-98949500D01*
X109298993Y-98983940D01*
X109287511Y-98987017D01*
X109161988Y-99059488D01*
X109161982Y-99059493D01*
X109059493Y-99161982D01*
X109059488Y-99161988D01*
X108987017Y-99287511D01*
X108987016Y-99287515D01*
X108949500Y-99427525D01*
X108949500Y-99427527D01*
X108949500Y-99985742D01*
X108946517Y-100012779D01*
X108870229Y-100354241D01*
X108848983Y-100400836D01*
X108822209Y-100437114D01*
X108822206Y-100437119D01*
X108777353Y-100565298D01*
X108777353Y-100565300D01*
X108774500Y-100595730D01*
X108774500Y-100908745D01*
X108754815Y-100975784D01*
X108702011Y-101021539D01*
X108632853Y-101031483D01*
X108569297Y-101002458D01*
X108562819Y-100996426D01*
X107245915Y-99679522D01*
X107245913Y-99679520D01*
X107200250Y-99653156D01*
X107154589Y-99626793D01*
X107103657Y-99613146D01*
X107052727Y-99599500D01*
X107052726Y-99599500D01*
X105777577Y-99599500D01*
X105725796Y-99588171D01*
X104592260Y-99067221D01*
X104579246Y-99060274D01*
X104576784Y-99058765D01*
X104422450Y-98980129D01*
X104422447Y-98980128D01*
X104422445Y-98980127D01*
X104257701Y-98926598D01*
X104257699Y-98926597D01*
X104257698Y-98926597D01*
X104126271Y-98905781D01*
X104086611Y-98899500D01*
X103913389Y-98899500D01*
X103873728Y-98905781D01*
X103742302Y-98926597D01*
X103577552Y-98980128D01*
X103423211Y-99058768D01*
X103411577Y-99067221D01*
X103283072Y-99160586D01*
X103283070Y-99160588D01*
X103283069Y-99160588D01*
X103160588Y-99283069D01*
X103160588Y-99283070D01*
X103160586Y-99283072D01*
X103157361Y-99287511D01*
X103058768Y-99423211D01*
X102980128Y-99577552D01*
X102926597Y-99742302D01*
X102926597Y-99742303D01*
X102899500Y-99913389D01*
X102250500Y-99913389D01*
X102250500Y-98756961D01*
X102251280Y-98743077D01*
X102251280Y-98743076D01*
X102261460Y-98652729D01*
X102267635Y-98625670D01*
X102295353Y-98546456D01*
X102307396Y-98521450D01*
X102352046Y-98450389D01*
X102369351Y-98428690D01*
X102428690Y-98369351D01*
X102450389Y-98352046D01*
X102521450Y-98307396D01*
X102546456Y-98295353D01*
X102625670Y-98267635D01*
X102652733Y-98261459D01*
X102715419Y-98254396D01*
X102743079Y-98251280D01*
X102756962Y-98250500D01*
X102815892Y-98250500D01*
X117934108Y-98250500D01*
X117993038Y-98250500D01*
X118006922Y-98251280D01*
G37*
%TD.AperFunction*%
%TD*%
%TA.AperFunction,Conductor*%
%TO.N,VDD*%
G36*
X108094755Y-104546649D02*
G01*
X108525300Y-104771737D01*
X108528149Y-104773831D01*
X108534788Y-104780470D01*
X108534789Y-104780471D01*
X108534791Y-104780472D01*
X108614709Y-104826613D01*
X108614711Y-104826613D01*
X108614712Y-104826614D01*
X108645376Y-104834830D01*
X108647763Y-104835761D01*
X108668721Y-104846718D01*
X108674465Y-104853587D01*
X108675000Y-104857086D01*
X108675000Y-105142350D01*
X108671573Y-105150623D01*
X108667993Y-105153068D01*
X108633250Y-105168281D01*
X108631585Y-105168864D01*
X108614713Y-105173384D01*
X108614712Y-105173385D01*
X108593656Y-105185540D01*
X108592500Y-105186124D01*
X108094438Y-105404223D01*
X108085485Y-105404403D01*
X108080514Y-105400695D01*
X107879325Y-105142350D01*
X107754597Y-104982188D01*
X107752218Y-104973556D01*
X107754597Y-104967812D01*
X108080106Y-104549828D01*
X108087891Y-104545408D01*
X108094755Y-104546649D01*
G37*
%TD.AperFunction*%
%TD*%
%TA.AperFunction,Conductor*%
%TO.N,VDD*%
G36*
X109798898Y-100053427D02*
G01*
X109802044Y-100059149D01*
X109898493Y-100490862D01*
X109896952Y-100499683D01*
X109894821Y-100502181D01*
X109507747Y-100844155D01*
X109499278Y-100847065D01*
X109492253Y-100844155D01*
X109105178Y-100502181D01*
X109101247Y-100494135D01*
X109101505Y-100490866D01*
X109197956Y-100059148D01*
X109203105Y-100051822D01*
X109209375Y-100050000D01*
X109790625Y-100050000D01*
X109798898Y-100053427D01*
G37*
%TD.AperFunction*%
%TD*%
%TA.AperFunction,Conductor*%
%TO.N,VDD*%
G36*
X105674081Y-104523240D02*
G01*
X105681598Y-104528104D01*
X105683667Y-104534747D01*
X105683667Y-105416475D01*
X105680240Y-105424748D01*
X105675553Y-105427612D01*
X104178312Y-105909647D01*
X104169386Y-105908920D01*
X104163589Y-105902096D01*
X104163253Y-105900806D01*
X104068561Y-105427612D01*
X103999459Y-105082293D01*
X103999459Y-105077704D01*
X104163567Y-104257622D01*
X104168551Y-104250184D01*
X104177151Y-104248412D01*
X105674081Y-104523240D01*
G37*
%TD.AperFunction*%
%TD*%
%TA.AperFunction,Conductor*%
%TO.N,/PWM*%
G36*
X116681201Y-99985538D02*
G01*
X116743021Y-99997772D01*
X116750472Y-100002739D01*
X116752227Y-100006978D01*
X116913891Y-100823886D01*
X116912136Y-100832667D01*
X116906476Y-100837129D01*
X115672566Y-101293994D01*
X115663618Y-101293653D01*
X115660231Y-101291295D01*
X115458704Y-101089768D01*
X115455277Y-101081495D01*
X115456004Y-101077438D01*
X115912871Y-99843521D01*
X115918956Y-99836954D01*
X115926111Y-99836108D01*
X116681201Y-99985538D01*
G37*
%TD.AperFunction*%
%TD*%
%TA.AperFunction,Conductor*%
%TO.N,/FGS*%
G36*
X104481292Y-101837413D02*
G01*
X105676853Y-102386868D01*
X105682939Y-102393437D01*
X105683667Y-102397499D01*
X105683667Y-102682500D01*
X105680240Y-102690773D01*
X105676853Y-102693131D01*
X104481295Y-103242585D01*
X104472347Y-103242926D01*
X104466687Y-103238464D01*
X104101535Y-102693131D01*
X104003358Y-102546509D01*
X104001604Y-102537729D01*
X104003359Y-102533490D01*
X104094418Y-102397499D01*
X104466688Y-101841533D01*
X104474138Y-101836568D01*
X104481292Y-101837413D01*
G37*
%TD.AperFunction*%
%TD*%
%TA.AperFunction,Conductor*%
%TO.N,/FR*%
G36*
X116580084Y-104251647D02*
G01*
X116586326Y-104258068D01*
X116586927Y-104260096D01*
X116750046Y-105075233D01*
X116748309Y-105084018D01*
X116748295Y-105084039D01*
X116283618Y-105778007D01*
X116276167Y-105782974D01*
X116268452Y-105781854D01*
X115072589Y-105153288D01*
X115066861Y-105146405D01*
X115066333Y-105142931D01*
X115066333Y-104857938D01*
X115069760Y-104849665D01*
X115073707Y-104847067D01*
X116571130Y-104251520D01*
X116580084Y-104251647D01*
G37*
%TD.AperFunction*%
%TD*%
%TA.AperFunction,Conductor*%
%TO.N,/V*%
G36*
X115752909Y-108786747D02*
G01*
X117209696Y-109447563D01*
X117215815Y-109454101D01*
X117215518Y-109463051D01*
X117214599Y-109464707D01*
X116753402Y-110156662D01*
X116745962Y-110161646D01*
X116745937Y-110161650D01*
X115926874Y-110323740D01*
X115918093Y-110321985D01*
X115913360Y-110315499D01*
X115867638Y-110156662D01*
X115535310Y-109002162D01*
X115536314Y-108993266D01*
X115538276Y-108990659D01*
X115739806Y-108789129D01*
X115748078Y-108785703D01*
X115752909Y-108786747D01*
G37*
%TD.AperFunction*%
%TD*%
%TA.AperFunction,Conductor*%
%TO.N,/FG*%
G36*
X108959319Y-101743445D02*
G01*
X109656013Y-102095118D01*
X109661855Y-102101905D01*
X109661560Y-102110017D01*
X109503121Y-102494843D01*
X109496802Y-102501189D01*
X109494476Y-102501885D01*
X109034085Y-102588966D01*
X109025320Y-102587137D01*
X109021229Y-102582242D01*
X108742913Y-101959112D01*
X108742668Y-101950161D01*
X108745321Y-101946070D01*
X108945775Y-101745616D01*
X108954047Y-101742190D01*
X108959319Y-101743445D01*
G37*
%TD.AperFunction*%
%TD*%
%TA.AperFunction,Conductor*%
%TO.N,/FG*%
G36*
X104481292Y-99297413D02*
G01*
X105676853Y-99846868D01*
X105682939Y-99853437D01*
X105683667Y-99857499D01*
X105683667Y-100142500D01*
X105680240Y-100150773D01*
X105676853Y-100153131D01*
X104481295Y-100702585D01*
X104472347Y-100702926D01*
X104466687Y-100698464D01*
X104101535Y-100153131D01*
X104003358Y-100006509D01*
X104001604Y-99997729D01*
X104003359Y-99993490D01*
X104094418Y-99857499D01*
X104466688Y-99301533D01*
X104474138Y-99296568D01*
X104481292Y-99297413D01*
G37*
%TD.AperFunction*%
%TD*%
%TA.AperFunction,Conductor*%
%TO.N,/FG*%
G36*
X109508341Y-102504772D02*
G01*
X109933646Y-102799064D01*
X109938500Y-102806589D01*
X109937905Y-102812896D01*
X109752889Y-103292511D01*
X109746714Y-103298996D01*
X109741973Y-103300000D01*
X109455940Y-103300000D01*
X109447667Y-103296573D01*
X109446494Y-103295203D01*
X109150434Y-102890076D01*
X109148319Y-102881375D01*
X109151297Y-102875223D01*
X109493105Y-102506439D01*
X109501240Y-102502701D01*
X109508341Y-102504772D01*
G37*
%TD.AperFunction*%
%TD*%
%TA.AperFunction,Conductor*%
%TO.N,/W*%
G36*
X105338300Y-106945126D02*
G01*
X105345003Y-106948447D01*
X105546464Y-107149908D01*
X105549891Y-107158181D01*
X105546857Y-107166042D01*
X104713518Y-108084771D01*
X104705422Y-108088596D01*
X104698363Y-108086646D01*
X104005811Y-107625051D01*
X104000827Y-107617611D01*
X104000826Y-107613025D01*
X104091609Y-107158181D01*
X104163675Y-106797110D01*
X104168655Y-106789670D01*
X104176718Y-106787808D01*
X105338300Y-106945126D01*
G37*
%TD.AperFunction*%
%TD*%
%TA.AperFunction,Conductor*%
%TO.N,/U*%
G36*
X116581938Y-106790093D02*
G01*
X116586324Y-106797112D01*
X116749173Y-107613025D01*
X116747431Y-107621809D01*
X116744188Y-107625051D01*
X116051636Y-108086646D01*
X116042851Y-108088383D01*
X116036481Y-108084771D01*
X115619489Y-107625051D01*
X115203141Y-107166040D01*
X115200122Y-107157611D01*
X115203534Y-107149909D01*
X115404997Y-106948446D01*
X115411698Y-106945126D01*
X116573280Y-106787808D01*
X116581938Y-106790093D01*
G37*
%TD.AperFunction*%
%TD*%
%TA.AperFunction,Conductor*%
%TO.N,/CFG*%
G36*
X116284249Y-101843204D02*
G01*
X116285422Y-101844682D01*
X116748003Y-102535256D01*
X116749760Y-102544036D01*
X116749756Y-102544057D01*
X116586540Y-103361803D01*
X116581560Y-103369245D01*
X116572776Y-103370987D01*
X116572394Y-103370904D01*
X115375884Y-103090251D01*
X115370283Y-103087133D01*
X115169066Y-102885916D01*
X115165639Y-102877643D01*
X115169066Y-102869370D01*
X115169295Y-102869147D01*
X116267713Y-101842644D01*
X116276097Y-101839500D01*
X116284249Y-101843204D01*
G37*
%TD.AperFunction*%
%TD*%
M02*
