%TF.GenerationSoftware,KiCad,Pcbnew,9.0.5*%
%TF.CreationDate,2025-11-24T02:23:27-06:00*%
%TF.ProjectId,drv10964,64727631-3039-4363-942e-6b696361645f,rev?*%
%TF.SameCoordinates,Original*%
%TF.FileFunction,Copper,L2,Bot*%
%TF.FilePolarity,Positive*%
%FSLAX46Y46*%
G04 Gerber Fmt 4.6, Leading zero omitted, Abs format (unit mm)*
G04 Created by KiCad (PCBNEW 9.0.5) date 2025-11-24 02:23:27*
%MOMM*%
%LPD*%
G01*
G04 APERTURE LIST*
%TA.AperFunction,ComponentPad*%
%ADD10C,1.700000*%
%TD*%
%TA.AperFunction,ComponentPad*%
%ADD11R,1.700000X1.700000*%
%TD*%
%TA.AperFunction,ViaPad*%
%ADD12C,0.600000*%
%TD*%
G04 APERTURE END LIST*
D10*
%TO.P,J1,1,Pin_1*%
%TO.N,/V*%
X116750000Y-110160000D03*
%TO.P,J1,2,Pin_2*%
%TO.N,/U*%
X116750000Y-107620000D03*
%TO.P,J1,3,Pin_3*%
%TO.N,/FR*%
X116750000Y-105080000D03*
%TO.P,J1,4,Pin_4*%
%TO.N,/CFG*%
X116750000Y-102540000D03*
%TO.P,J1,5,Pin_5*%
%TO.N,/PWM*%
X116750000Y-100000000D03*
%TD*%
%TO.P,J2,1,Pin_1*%
%TO.N,/FG*%
X104000000Y-100000000D03*
%TO.P,J2,2,Pin_2*%
%TO.N,/FGS*%
X104000000Y-102540000D03*
%TO.P,J2,3,Pin_3*%
%TO.N,VDD*%
X104000000Y-105080000D03*
%TO.P,J2,4,Pin_4*%
%TO.N,/W*%
X104000000Y-107620000D03*
D11*
%TO.P,J2,5,Pin_5*%
%TO.N,GND*%
X104000000Y-110160000D03*
%TD*%
D12*
%TO.N,VDD*%
X109500000Y-99500000D03*
%TD*%
%TA.AperFunction,Conductor*%
%TO.N,VDD*%
G36*
X118006922Y-98251280D02*
G01*
X118097266Y-98261459D01*
X118124331Y-98267636D01*
X118203540Y-98295352D01*
X118228553Y-98307398D01*
X118299606Y-98352043D01*
X118321313Y-98369355D01*
X118380644Y-98428686D01*
X118397957Y-98450395D01*
X118442600Y-98521444D01*
X118454648Y-98546462D01*
X118482362Y-98625666D01*
X118488540Y-98652735D01*
X118498720Y-98743076D01*
X118499500Y-98756961D01*
X118499500Y-111243038D01*
X118498720Y-111256922D01*
X118498720Y-111256923D01*
X118488540Y-111347264D01*
X118482362Y-111374333D01*
X118454648Y-111453537D01*
X118442600Y-111478555D01*
X118397957Y-111549604D01*
X118380644Y-111571313D01*
X118321313Y-111630644D01*
X118299604Y-111647957D01*
X118228555Y-111692600D01*
X118203537Y-111704648D01*
X118124333Y-111732362D01*
X118097264Y-111738540D01*
X118017075Y-111747576D01*
X118006921Y-111748720D01*
X117993038Y-111749500D01*
X102756962Y-111749500D01*
X102743078Y-111748720D01*
X102730553Y-111747308D01*
X102652735Y-111738540D01*
X102625666Y-111732362D01*
X102546462Y-111704648D01*
X102521444Y-111692600D01*
X102450395Y-111647957D01*
X102428686Y-111630644D01*
X102369355Y-111571313D01*
X102352042Y-111549604D01*
X102307399Y-111478555D01*
X102295351Y-111453537D01*
X102267637Y-111374333D01*
X102261459Y-111347263D01*
X102251280Y-111256922D01*
X102250500Y-111243038D01*
X102250500Y-109285321D01*
X102899500Y-109285321D01*
X102899500Y-111034678D01*
X102914032Y-111107735D01*
X102914033Y-111107739D01*
X102914034Y-111107740D01*
X102969399Y-111190601D01*
X103047878Y-111243038D01*
X103052260Y-111245966D01*
X103052264Y-111245967D01*
X103125321Y-111260499D01*
X103125324Y-111260500D01*
X103125326Y-111260500D01*
X104874676Y-111260500D01*
X104874677Y-111260499D01*
X104947740Y-111245966D01*
X105030601Y-111190601D01*
X105085966Y-111107740D01*
X105100500Y-111034674D01*
X105100500Y-110073389D01*
X115649500Y-110073389D01*
X115649500Y-110246611D01*
X115676598Y-110417701D01*
X115730127Y-110582445D01*
X115808768Y-110736788D01*
X115910586Y-110876928D01*
X116033072Y-110999414D01*
X116173212Y-111101232D01*
X116327555Y-111179873D01*
X116492299Y-111233402D01*
X116663389Y-111260500D01*
X116663390Y-111260500D01*
X116836610Y-111260500D01*
X116836611Y-111260500D01*
X117007701Y-111233402D01*
X117172445Y-111179873D01*
X117326788Y-111101232D01*
X117466928Y-110999414D01*
X117589414Y-110876928D01*
X117691232Y-110736788D01*
X117769873Y-110582445D01*
X117823402Y-110417701D01*
X117850500Y-110246611D01*
X117850500Y-110073389D01*
X117823402Y-109902299D01*
X117769873Y-109737555D01*
X117691232Y-109583212D01*
X117589414Y-109443072D01*
X117466928Y-109320586D01*
X117326788Y-109218768D01*
X117172445Y-109140127D01*
X117007701Y-109086598D01*
X117007699Y-109086597D01*
X117007698Y-109086597D01*
X116876271Y-109065781D01*
X116836611Y-109059500D01*
X116663389Y-109059500D01*
X116623728Y-109065781D01*
X116492302Y-109086597D01*
X116327552Y-109140128D01*
X116173211Y-109218768D01*
X116093256Y-109276859D01*
X116033072Y-109320586D01*
X116033070Y-109320588D01*
X116033069Y-109320588D01*
X115910588Y-109443069D01*
X115910588Y-109443070D01*
X115910586Y-109443072D01*
X115866859Y-109503256D01*
X115808768Y-109583211D01*
X115730128Y-109737552D01*
X115676597Y-109902302D01*
X115649500Y-110073389D01*
X105100500Y-110073389D01*
X105100500Y-109285326D01*
X105100500Y-109285323D01*
X105100499Y-109285321D01*
X105085967Y-109212264D01*
X105085966Y-109212260D01*
X105030601Y-109129399D01*
X104947740Y-109074034D01*
X104947739Y-109074033D01*
X104947735Y-109074032D01*
X104874677Y-109059500D01*
X104874674Y-109059500D01*
X103125326Y-109059500D01*
X103125323Y-109059500D01*
X103052264Y-109074032D01*
X103052260Y-109074033D01*
X102969399Y-109129399D01*
X102914033Y-109212260D01*
X102914032Y-109212264D01*
X102899500Y-109285321D01*
X102250500Y-109285321D01*
X102250500Y-107533389D01*
X102899500Y-107533389D01*
X102899500Y-107706611D01*
X102926598Y-107877701D01*
X102980127Y-108042445D01*
X103058768Y-108196788D01*
X103160586Y-108336928D01*
X103283072Y-108459414D01*
X103423212Y-108561232D01*
X103577555Y-108639873D01*
X103742299Y-108693402D01*
X103913389Y-108720500D01*
X103913390Y-108720500D01*
X104086610Y-108720500D01*
X104086611Y-108720500D01*
X104257701Y-108693402D01*
X104422445Y-108639873D01*
X104576788Y-108561232D01*
X104716928Y-108459414D01*
X104839414Y-108336928D01*
X104941232Y-108196788D01*
X105019873Y-108042445D01*
X105073402Y-107877701D01*
X105100500Y-107706611D01*
X105100500Y-107533389D01*
X115649500Y-107533389D01*
X115649500Y-107706611D01*
X115676598Y-107877701D01*
X115730127Y-108042445D01*
X115808768Y-108196788D01*
X115910586Y-108336928D01*
X116033072Y-108459414D01*
X116173212Y-108561232D01*
X116327555Y-108639873D01*
X116492299Y-108693402D01*
X116663389Y-108720500D01*
X116663390Y-108720500D01*
X116836610Y-108720500D01*
X116836611Y-108720500D01*
X117007701Y-108693402D01*
X117172445Y-108639873D01*
X117326788Y-108561232D01*
X117466928Y-108459414D01*
X117589414Y-108336928D01*
X117691232Y-108196788D01*
X117769873Y-108042445D01*
X117823402Y-107877701D01*
X117850500Y-107706611D01*
X117850500Y-107533389D01*
X117823402Y-107362299D01*
X117769873Y-107197555D01*
X117691232Y-107043212D01*
X117589414Y-106903072D01*
X117466928Y-106780586D01*
X117326788Y-106678768D01*
X117172445Y-106600127D01*
X117007701Y-106546598D01*
X117007699Y-106546597D01*
X117007698Y-106546597D01*
X116876271Y-106525781D01*
X116836611Y-106519500D01*
X116663389Y-106519500D01*
X116623728Y-106525781D01*
X116492302Y-106546597D01*
X116327552Y-106600128D01*
X116173211Y-106678768D01*
X116093256Y-106736859D01*
X116033072Y-106780586D01*
X116033070Y-106780588D01*
X116033069Y-106780588D01*
X115910588Y-106903069D01*
X115910588Y-106903070D01*
X115910586Y-106903072D01*
X115866859Y-106963256D01*
X115808768Y-107043211D01*
X115730128Y-107197552D01*
X115676597Y-107362302D01*
X115649500Y-107533389D01*
X105100500Y-107533389D01*
X105073402Y-107362299D01*
X105019873Y-107197555D01*
X104941232Y-107043212D01*
X104839414Y-106903072D01*
X104716928Y-106780586D01*
X104576788Y-106678768D01*
X104422445Y-106600127D01*
X104257701Y-106546598D01*
X104257699Y-106546597D01*
X104257698Y-106546597D01*
X104126271Y-106525781D01*
X104086611Y-106519500D01*
X103913389Y-106519500D01*
X103873728Y-106525781D01*
X103742302Y-106546597D01*
X103577552Y-106600128D01*
X103423211Y-106678768D01*
X103343256Y-106736859D01*
X103283072Y-106780586D01*
X103283070Y-106780588D01*
X103283069Y-106780588D01*
X103160588Y-106903069D01*
X103160588Y-106903070D01*
X103160586Y-106903072D01*
X103116859Y-106963256D01*
X103058768Y-107043211D01*
X102980128Y-107197552D01*
X102926597Y-107362302D01*
X102899500Y-107533389D01*
X102250500Y-107533389D01*
X102250500Y-104993389D01*
X115649500Y-104993389D01*
X115649500Y-105166611D01*
X115676598Y-105337701D01*
X115730127Y-105502445D01*
X115808768Y-105656788D01*
X115910586Y-105796928D01*
X116033072Y-105919414D01*
X116173212Y-106021232D01*
X116327555Y-106099873D01*
X116492299Y-106153402D01*
X116663389Y-106180500D01*
X116663390Y-106180500D01*
X116836610Y-106180500D01*
X116836611Y-106180500D01*
X117007701Y-106153402D01*
X117172445Y-106099873D01*
X117326788Y-106021232D01*
X117466928Y-105919414D01*
X117589414Y-105796928D01*
X117691232Y-105656788D01*
X117769873Y-105502445D01*
X117823402Y-105337701D01*
X117850500Y-105166611D01*
X117850500Y-104993389D01*
X117823402Y-104822299D01*
X117769873Y-104657555D01*
X117691232Y-104503212D01*
X117589414Y-104363072D01*
X117466928Y-104240586D01*
X117326788Y-104138768D01*
X117172445Y-104060127D01*
X117007701Y-104006598D01*
X117007699Y-104006597D01*
X117007698Y-104006597D01*
X116876271Y-103985781D01*
X116836611Y-103979500D01*
X116663389Y-103979500D01*
X116623728Y-103985781D01*
X116492302Y-104006597D01*
X116327552Y-104060128D01*
X116173211Y-104138768D01*
X116093256Y-104196859D01*
X116033072Y-104240586D01*
X116033070Y-104240588D01*
X116033069Y-104240588D01*
X115910588Y-104363069D01*
X115910588Y-104363070D01*
X115910586Y-104363072D01*
X115866859Y-104423256D01*
X115808768Y-104503211D01*
X115730128Y-104657552D01*
X115676597Y-104822302D01*
X115649500Y-104993389D01*
X102250500Y-104993389D01*
X102250500Y-102453389D01*
X102899500Y-102453389D01*
X102899500Y-102626611D01*
X102926598Y-102797701D01*
X102980127Y-102962445D01*
X103058768Y-103116788D01*
X103160586Y-103256928D01*
X103283072Y-103379414D01*
X103423212Y-103481232D01*
X103577555Y-103559873D01*
X103742299Y-103613402D01*
X103913389Y-103640500D01*
X103913390Y-103640500D01*
X104086610Y-103640500D01*
X104086611Y-103640500D01*
X104257701Y-103613402D01*
X104422445Y-103559873D01*
X104576788Y-103481232D01*
X104716928Y-103379414D01*
X104839414Y-103256928D01*
X104941232Y-103116788D01*
X105019873Y-102962445D01*
X105073402Y-102797701D01*
X105100500Y-102626611D01*
X105100500Y-102453389D01*
X115649500Y-102453389D01*
X115649500Y-102626611D01*
X115676598Y-102797701D01*
X115730127Y-102962445D01*
X115808768Y-103116788D01*
X115910586Y-103256928D01*
X116033072Y-103379414D01*
X116173212Y-103481232D01*
X116327555Y-103559873D01*
X116492299Y-103613402D01*
X116663389Y-103640500D01*
X116663390Y-103640500D01*
X116836610Y-103640500D01*
X116836611Y-103640500D01*
X117007701Y-103613402D01*
X117172445Y-103559873D01*
X117326788Y-103481232D01*
X117466928Y-103379414D01*
X117589414Y-103256928D01*
X117691232Y-103116788D01*
X117769873Y-102962445D01*
X117823402Y-102797701D01*
X117850500Y-102626611D01*
X117850500Y-102453389D01*
X117823402Y-102282299D01*
X117769873Y-102117555D01*
X117691232Y-101963212D01*
X117589414Y-101823072D01*
X117466928Y-101700586D01*
X117326788Y-101598768D01*
X117172445Y-101520127D01*
X117007701Y-101466598D01*
X117007699Y-101466597D01*
X117007698Y-101466597D01*
X116876271Y-101445781D01*
X116836611Y-101439500D01*
X116663389Y-101439500D01*
X116623728Y-101445781D01*
X116492302Y-101466597D01*
X116327552Y-101520128D01*
X116173211Y-101598768D01*
X116093256Y-101656859D01*
X116033072Y-101700586D01*
X116033070Y-101700588D01*
X116033069Y-101700588D01*
X115910588Y-101823069D01*
X115910588Y-101823070D01*
X115910586Y-101823072D01*
X115866859Y-101883256D01*
X115808768Y-101963211D01*
X115730128Y-102117552D01*
X115676597Y-102282302D01*
X115649500Y-102453389D01*
X105100500Y-102453389D01*
X105073402Y-102282299D01*
X105019873Y-102117555D01*
X104941232Y-101963212D01*
X104839414Y-101823072D01*
X104716928Y-101700586D01*
X104576788Y-101598768D01*
X104422445Y-101520127D01*
X104257701Y-101466598D01*
X104257699Y-101466597D01*
X104257698Y-101466597D01*
X104126271Y-101445781D01*
X104086611Y-101439500D01*
X103913389Y-101439500D01*
X103873728Y-101445781D01*
X103742302Y-101466597D01*
X103577552Y-101520128D01*
X103423211Y-101598768D01*
X103343256Y-101656859D01*
X103283072Y-101700586D01*
X103283070Y-101700588D01*
X103283069Y-101700588D01*
X103160588Y-101823069D01*
X103160588Y-101823070D01*
X103160586Y-101823072D01*
X103116859Y-101883256D01*
X103058768Y-101963211D01*
X102980128Y-102117552D01*
X102926597Y-102282302D01*
X102899500Y-102453389D01*
X102250500Y-102453389D01*
X102250500Y-99913389D01*
X102899500Y-99913389D01*
X102899500Y-100086611D01*
X102926598Y-100257701D01*
X102980127Y-100422445D01*
X103058768Y-100576788D01*
X103160586Y-100716928D01*
X103283072Y-100839414D01*
X103423212Y-100941232D01*
X103577555Y-101019873D01*
X103742299Y-101073402D01*
X103913389Y-101100500D01*
X103913390Y-101100500D01*
X104086610Y-101100500D01*
X104086611Y-101100500D01*
X104257701Y-101073402D01*
X104422445Y-101019873D01*
X104576788Y-100941232D01*
X104716928Y-100839414D01*
X104839414Y-100716928D01*
X104941232Y-100576788D01*
X105019873Y-100422445D01*
X105073402Y-100257701D01*
X105100500Y-100086611D01*
X105100500Y-99913389D01*
X115649500Y-99913389D01*
X115649500Y-100086611D01*
X115676598Y-100257701D01*
X115730127Y-100422445D01*
X115808768Y-100576788D01*
X115910586Y-100716928D01*
X116033072Y-100839414D01*
X116173212Y-100941232D01*
X116327555Y-101019873D01*
X116492299Y-101073402D01*
X116663389Y-101100500D01*
X116663390Y-101100500D01*
X116836610Y-101100500D01*
X116836611Y-101100500D01*
X117007701Y-101073402D01*
X117172445Y-101019873D01*
X117326788Y-100941232D01*
X117466928Y-100839414D01*
X117589414Y-100716928D01*
X117691232Y-100576788D01*
X117769873Y-100422445D01*
X117823402Y-100257701D01*
X117850500Y-100086611D01*
X117850500Y-99913389D01*
X117823402Y-99742299D01*
X117769873Y-99577555D01*
X117691232Y-99423212D01*
X117589414Y-99283072D01*
X117466928Y-99160586D01*
X117326788Y-99058768D01*
X117172445Y-98980127D01*
X117007701Y-98926598D01*
X117007699Y-98926597D01*
X117007698Y-98926597D01*
X116876271Y-98905781D01*
X116836611Y-98899500D01*
X116663389Y-98899500D01*
X116623728Y-98905781D01*
X116492302Y-98926597D01*
X116327552Y-98980128D01*
X116173211Y-99058768D01*
X116093256Y-99116859D01*
X116033072Y-99160586D01*
X116033070Y-99160588D01*
X116033069Y-99160588D01*
X115910588Y-99283069D01*
X115910588Y-99283070D01*
X115910586Y-99283072D01*
X115866859Y-99343256D01*
X115808768Y-99423211D01*
X115730128Y-99577552D01*
X115676597Y-99742302D01*
X115649500Y-99913389D01*
X105100500Y-99913389D01*
X105073402Y-99742299D01*
X105019873Y-99577555D01*
X104941232Y-99423212D01*
X104839414Y-99283072D01*
X104716928Y-99160586D01*
X104576788Y-99058768D01*
X104422445Y-98980127D01*
X104257701Y-98926598D01*
X104257699Y-98926597D01*
X104257698Y-98926597D01*
X104126271Y-98905781D01*
X104086611Y-98899500D01*
X103913389Y-98899500D01*
X103873728Y-98905781D01*
X103742302Y-98926597D01*
X103577552Y-98980128D01*
X103423211Y-99058768D01*
X103343256Y-99116859D01*
X103283072Y-99160586D01*
X103283070Y-99160588D01*
X103283069Y-99160588D01*
X103160588Y-99283069D01*
X103160588Y-99283070D01*
X103160586Y-99283072D01*
X103116859Y-99343256D01*
X103058768Y-99423211D01*
X102980128Y-99577552D01*
X102926597Y-99742302D01*
X102899500Y-99913389D01*
X102250500Y-99913389D01*
X102250500Y-98756961D01*
X102251280Y-98743077D01*
X102251280Y-98743076D01*
X102261460Y-98652729D01*
X102267635Y-98625670D01*
X102295353Y-98546456D01*
X102307396Y-98521450D01*
X102352046Y-98450389D01*
X102369351Y-98428690D01*
X102428690Y-98369351D01*
X102450389Y-98352046D01*
X102521450Y-98307396D01*
X102546456Y-98295353D01*
X102625670Y-98267635D01*
X102652733Y-98261459D01*
X102715419Y-98254396D01*
X102743079Y-98251280D01*
X102756962Y-98250500D01*
X102815892Y-98250500D01*
X117934108Y-98250500D01*
X117993038Y-98250500D01*
X118006922Y-98251280D01*
G37*
%TD.AperFunction*%
%TD*%
M02*
