%TF.GenerationSoftware,KiCad,Pcbnew,9.0.5*%
%TF.CreationDate,2025-11-24T02:23:27-06:00*%
%TF.ProjectId,drv10964,64727631-3039-4363-942e-6b696361645f,rev?*%
%TF.SameCoordinates,Original*%
%TF.FileFunction,Legend,Top*%
%TF.FilePolarity,Positive*%
%FSLAX46Y46*%
G04 Gerber Fmt 4.6, Leading zero omitted, Abs format (unit mm)*
G04 Created by KiCad (PCBNEW 9.0.5) date 2025-11-24 02:23:27*
%MOMM*%
%LPD*%
G01*
G04 APERTURE LIST*
%ADD10C,0.080000*%
%ADD11C,0.150000*%
%ADD12C,0.120000*%
%ADD13C,0.100000*%
G04 APERTURE END LIST*
D10*
X113809274Y-102789744D02*
X113771178Y-102827840D01*
X113771178Y-102827840D02*
X113656893Y-102865935D01*
X113656893Y-102865935D02*
X113580702Y-102865935D01*
X113580702Y-102865935D02*
X113466416Y-102827840D01*
X113466416Y-102827840D02*
X113390226Y-102751649D01*
X113390226Y-102751649D02*
X113352131Y-102675459D01*
X113352131Y-102675459D02*
X113314035Y-102523078D01*
X113314035Y-102523078D02*
X113314035Y-102408792D01*
X113314035Y-102408792D02*
X113352131Y-102256411D01*
X113352131Y-102256411D02*
X113390226Y-102180220D01*
X113390226Y-102180220D02*
X113466416Y-102104030D01*
X113466416Y-102104030D02*
X113580702Y-102065935D01*
X113580702Y-102065935D02*
X113656893Y-102065935D01*
X113656893Y-102065935D02*
X113771178Y-102104030D01*
X113771178Y-102104030D02*
X113809274Y-102142125D01*
X114418797Y-102446887D02*
X114152131Y-102446887D01*
X114152131Y-102865935D02*
X114152131Y-102065935D01*
X114152131Y-102065935D02*
X114533083Y-102065935D01*
X115256892Y-102104030D02*
X115180702Y-102065935D01*
X115180702Y-102065935D02*
X115066416Y-102065935D01*
X115066416Y-102065935D02*
X114952130Y-102104030D01*
X114952130Y-102104030D02*
X114875940Y-102180220D01*
X114875940Y-102180220D02*
X114837845Y-102256411D01*
X114837845Y-102256411D02*
X114799749Y-102408792D01*
X114799749Y-102408792D02*
X114799749Y-102523078D01*
X114799749Y-102523078D02*
X114837845Y-102675459D01*
X114837845Y-102675459D02*
X114875940Y-102751649D01*
X114875940Y-102751649D02*
X114952130Y-102827840D01*
X114952130Y-102827840D02*
X115066416Y-102865935D01*
X115066416Y-102865935D02*
X115142607Y-102865935D01*
X115142607Y-102865935D02*
X115256892Y-102827840D01*
X115256892Y-102827840D02*
X115294988Y-102789744D01*
X115294988Y-102789744D02*
X115294988Y-102523078D01*
X115294988Y-102523078D02*
X115142607Y-102523078D01*
X105662154Y-109854030D02*
X105585964Y-109815935D01*
X105585964Y-109815935D02*
X105471678Y-109815935D01*
X105471678Y-109815935D02*
X105357392Y-109854030D01*
X105357392Y-109854030D02*
X105281202Y-109930220D01*
X105281202Y-109930220D02*
X105243107Y-110006411D01*
X105243107Y-110006411D02*
X105205011Y-110158792D01*
X105205011Y-110158792D02*
X105205011Y-110273078D01*
X105205011Y-110273078D02*
X105243107Y-110425459D01*
X105243107Y-110425459D02*
X105281202Y-110501649D01*
X105281202Y-110501649D02*
X105357392Y-110577840D01*
X105357392Y-110577840D02*
X105471678Y-110615935D01*
X105471678Y-110615935D02*
X105547869Y-110615935D01*
X105547869Y-110615935D02*
X105662154Y-110577840D01*
X105662154Y-110577840D02*
X105700250Y-110539744D01*
X105700250Y-110539744D02*
X105700250Y-110273078D01*
X105700250Y-110273078D02*
X105547869Y-110273078D01*
X106043107Y-110615935D02*
X106043107Y-109815935D01*
X106043107Y-109815935D02*
X106500250Y-110615935D01*
X106500250Y-110615935D02*
X106500250Y-109815935D01*
X106881202Y-110615935D02*
X106881202Y-109815935D01*
X106881202Y-109815935D02*
X107071678Y-109815935D01*
X107071678Y-109815935D02*
X107185964Y-109854030D01*
X107185964Y-109854030D02*
X107262154Y-109930220D01*
X107262154Y-109930220D02*
X107300249Y-110006411D01*
X107300249Y-110006411D02*
X107338345Y-110158792D01*
X107338345Y-110158792D02*
X107338345Y-110273078D01*
X107338345Y-110273078D02*
X107300249Y-110425459D01*
X107300249Y-110425459D02*
X107262154Y-110501649D01*
X107262154Y-110501649D02*
X107185964Y-110577840D01*
X107185964Y-110577840D02*
X107071678Y-110615935D01*
X107071678Y-110615935D02*
X106881202Y-110615935D01*
X114837845Y-109815935D02*
X115104512Y-110615935D01*
X115104512Y-110615935D02*
X115371178Y-109815935D01*
X105166916Y-107315935D02*
X105357392Y-108115935D01*
X105357392Y-108115935D02*
X105509773Y-107544506D01*
X105509773Y-107544506D02*
X105662154Y-108115935D01*
X105662154Y-108115935D02*
X105852631Y-107315935D01*
X114799750Y-107315935D02*
X114799750Y-107963554D01*
X114799750Y-107963554D02*
X114837845Y-108039744D01*
X114837845Y-108039744D02*
X114875940Y-108077840D01*
X114875940Y-108077840D02*
X114952131Y-108115935D01*
X114952131Y-108115935D02*
X115104512Y-108115935D01*
X115104512Y-108115935D02*
X115180702Y-108077840D01*
X115180702Y-108077840D02*
X115218797Y-108039744D01*
X115218797Y-108039744D02*
X115256893Y-107963554D01*
X115256893Y-107963554D02*
X115256893Y-107315935D01*
X105509773Y-99696887D02*
X105243107Y-99696887D01*
X105243107Y-100115935D02*
X105243107Y-99315935D01*
X105243107Y-99315935D02*
X105624059Y-99315935D01*
X106347868Y-99354030D02*
X106271678Y-99315935D01*
X106271678Y-99315935D02*
X106157392Y-99315935D01*
X106157392Y-99315935D02*
X106043106Y-99354030D01*
X106043106Y-99354030D02*
X105966916Y-99430220D01*
X105966916Y-99430220D02*
X105928821Y-99506411D01*
X105928821Y-99506411D02*
X105890725Y-99658792D01*
X105890725Y-99658792D02*
X105890725Y-99773078D01*
X105890725Y-99773078D02*
X105928821Y-99925459D01*
X105928821Y-99925459D02*
X105966916Y-100001649D01*
X105966916Y-100001649D02*
X106043106Y-100077840D01*
X106043106Y-100077840D02*
X106157392Y-100115935D01*
X106157392Y-100115935D02*
X106233583Y-100115935D01*
X106233583Y-100115935D02*
X106347868Y-100077840D01*
X106347868Y-100077840D02*
X106385964Y-100039744D01*
X106385964Y-100039744D02*
X106385964Y-99773078D01*
X106385964Y-99773078D02*
X106233583Y-99773078D01*
X105128821Y-104565935D02*
X105395488Y-105365935D01*
X105395488Y-105365935D02*
X105662154Y-104565935D01*
X105928821Y-105365935D02*
X105928821Y-104565935D01*
X105928821Y-104565935D02*
X106119297Y-104565935D01*
X106119297Y-104565935D02*
X106233583Y-104604030D01*
X106233583Y-104604030D02*
X106309773Y-104680220D01*
X106309773Y-104680220D02*
X106347868Y-104756411D01*
X106347868Y-104756411D02*
X106385964Y-104908792D01*
X106385964Y-104908792D02*
X106385964Y-105023078D01*
X106385964Y-105023078D02*
X106347868Y-105175459D01*
X106347868Y-105175459D02*
X106309773Y-105251649D01*
X106309773Y-105251649D02*
X106233583Y-105327840D01*
X106233583Y-105327840D02*
X106119297Y-105365935D01*
X106119297Y-105365935D02*
X105928821Y-105365935D01*
X106728821Y-105365935D02*
X106728821Y-104565935D01*
X106728821Y-104565935D02*
X106919297Y-104565935D01*
X106919297Y-104565935D02*
X107033583Y-104604030D01*
X107033583Y-104604030D02*
X107109773Y-104680220D01*
X107109773Y-104680220D02*
X107147868Y-104756411D01*
X107147868Y-104756411D02*
X107185964Y-104908792D01*
X107185964Y-104908792D02*
X107185964Y-105023078D01*
X107185964Y-105023078D02*
X107147868Y-105175459D01*
X107147868Y-105175459D02*
X107109773Y-105251649D01*
X107109773Y-105251649D02*
X107033583Y-105327840D01*
X107033583Y-105327840D02*
X106919297Y-105365935D01*
X106919297Y-105365935D02*
X106728821Y-105365935D01*
X113009273Y-100365935D02*
X113009273Y-99565935D01*
X113009273Y-99565935D02*
X113314035Y-99565935D01*
X113314035Y-99565935D02*
X113390225Y-99604030D01*
X113390225Y-99604030D02*
X113428320Y-99642125D01*
X113428320Y-99642125D02*
X113466416Y-99718316D01*
X113466416Y-99718316D02*
X113466416Y-99832601D01*
X113466416Y-99832601D02*
X113428320Y-99908792D01*
X113428320Y-99908792D02*
X113390225Y-99946887D01*
X113390225Y-99946887D02*
X113314035Y-99984982D01*
X113314035Y-99984982D02*
X113009273Y-99984982D01*
X113733082Y-99565935D02*
X113923558Y-100365935D01*
X113923558Y-100365935D02*
X114075939Y-99794506D01*
X114075939Y-99794506D02*
X114228320Y-100365935D01*
X114228320Y-100365935D02*
X114418797Y-99565935D01*
X114723559Y-100365935D02*
X114723559Y-99565935D01*
X114723559Y-99565935D02*
X114990225Y-100137363D01*
X114990225Y-100137363D02*
X115256892Y-99565935D01*
X115256892Y-99565935D02*
X115256892Y-100365935D01*
X114418797Y-104946887D02*
X114152131Y-104946887D01*
X114152131Y-105365935D02*
X114152131Y-104565935D01*
X114152131Y-104565935D02*
X114533083Y-104565935D01*
X115294988Y-105365935D02*
X115028321Y-104984982D01*
X114837845Y-105365935D02*
X114837845Y-104565935D01*
X114837845Y-104565935D02*
X115142607Y-104565935D01*
X115142607Y-104565935D02*
X115218797Y-104604030D01*
X115218797Y-104604030D02*
X115256892Y-104642125D01*
X115256892Y-104642125D02*
X115294988Y-104718316D01*
X115294988Y-104718316D02*
X115294988Y-104832601D01*
X115294988Y-104832601D02*
X115256892Y-104908792D01*
X115256892Y-104908792D02*
X115218797Y-104946887D01*
X115218797Y-104946887D02*
X115142607Y-104984982D01*
X115142607Y-104984982D02*
X114837845Y-104984982D01*
X105509773Y-102446887D02*
X105243107Y-102446887D01*
X105243107Y-102865935D02*
X105243107Y-102065935D01*
X105243107Y-102065935D02*
X105624059Y-102065935D01*
X106347868Y-102104030D02*
X106271678Y-102065935D01*
X106271678Y-102065935D02*
X106157392Y-102065935D01*
X106157392Y-102065935D02*
X106043106Y-102104030D01*
X106043106Y-102104030D02*
X105966916Y-102180220D01*
X105966916Y-102180220D02*
X105928821Y-102256411D01*
X105928821Y-102256411D02*
X105890725Y-102408792D01*
X105890725Y-102408792D02*
X105890725Y-102523078D01*
X105890725Y-102523078D02*
X105928821Y-102675459D01*
X105928821Y-102675459D02*
X105966916Y-102751649D01*
X105966916Y-102751649D02*
X106043106Y-102827840D01*
X106043106Y-102827840D02*
X106157392Y-102865935D01*
X106157392Y-102865935D02*
X106233583Y-102865935D01*
X106233583Y-102865935D02*
X106347868Y-102827840D01*
X106347868Y-102827840D02*
X106385964Y-102789744D01*
X106385964Y-102789744D02*
X106385964Y-102523078D01*
X106385964Y-102523078D02*
X106233583Y-102523078D01*
X106690725Y-102827840D02*
X106805011Y-102865935D01*
X106805011Y-102865935D02*
X106995487Y-102865935D01*
X106995487Y-102865935D02*
X107071678Y-102827840D01*
X107071678Y-102827840D02*
X107109773Y-102789744D01*
X107109773Y-102789744D02*
X107147868Y-102713554D01*
X107147868Y-102713554D02*
X107147868Y-102637363D01*
X107147868Y-102637363D02*
X107109773Y-102561173D01*
X107109773Y-102561173D02*
X107071678Y-102523078D01*
X107071678Y-102523078D02*
X106995487Y-102484982D01*
X106995487Y-102484982D02*
X106843106Y-102446887D01*
X106843106Y-102446887D02*
X106766916Y-102408792D01*
X106766916Y-102408792D02*
X106728821Y-102370697D01*
X106728821Y-102370697D02*
X106690725Y-102294506D01*
X106690725Y-102294506D02*
X106690725Y-102218316D01*
X106690725Y-102218316D02*
X106728821Y-102142125D01*
X106728821Y-102142125D02*
X106766916Y-102104030D01*
X106766916Y-102104030D02*
X106843106Y-102065935D01*
X106843106Y-102065935D02*
X107033583Y-102065935D01*
X107033583Y-102065935D02*
X107147868Y-102104030D01*
D11*
X109359580Y-107666666D02*
X109407200Y-107714285D01*
X109407200Y-107714285D02*
X109454819Y-107857142D01*
X109454819Y-107857142D02*
X109454819Y-107952380D01*
X109454819Y-107952380D02*
X109407200Y-108095237D01*
X109407200Y-108095237D02*
X109311961Y-108190475D01*
X109311961Y-108190475D02*
X109216723Y-108238094D01*
X109216723Y-108238094D02*
X109026247Y-108285713D01*
X109026247Y-108285713D02*
X108883390Y-108285713D01*
X108883390Y-108285713D02*
X108692914Y-108238094D01*
X108692914Y-108238094D02*
X108597676Y-108190475D01*
X108597676Y-108190475D02*
X108502438Y-108095237D01*
X108502438Y-108095237D02*
X108454819Y-107952380D01*
X108454819Y-107952380D02*
X108454819Y-107857142D01*
X108454819Y-107857142D02*
X108502438Y-107714285D01*
X108502438Y-107714285D02*
X108550057Y-107666666D01*
X109454819Y-106714285D02*
X109454819Y-107285713D01*
X109454819Y-106999999D02*
X108454819Y-106999999D01*
X108454819Y-106999999D02*
X108597676Y-107095237D01*
X108597676Y-107095237D02*
X108692914Y-107190475D01*
X108692914Y-107190475D02*
X108740533Y-107285713D01*
X111304819Y-101841666D02*
X110828628Y-102174999D01*
X111304819Y-102413094D02*
X110304819Y-102413094D01*
X110304819Y-102413094D02*
X110304819Y-102032142D01*
X110304819Y-102032142D02*
X110352438Y-101936904D01*
X110352438Y-101936904D02*
X110400057Y-101889285D01*
X110400057Y-101889285D02*
X110495295Y-101841666D01*
X110495295Y-101841666D02*
X110638152Y-101841666D01*
X110638152Y-101841666D02*
X110733390Y-101889285D01*
X110733390Y-101889285D02*
X110781009Y-101936904D01*
X110781009Y-101936904D02*
X110828628Y-102032142D01*
X110828628Y-102032142D02*
X110828628Y-102413094D01*
X111304819Y-100889285D02*
X111304819Y-101460713D01*
X111304819Y-101174999D02*
X110304819Y-101174999D01*
X110304819Y-101174999D02*
X110447676Y-101270237D01*
X110447676Y-101270237D02*
X110542914Y-101365475D01*
X110542914Y-101365475D02*
X110590533Y-101460713D01*
D10*
X107642857Y-109615935D02*
X107642857Y-108815935D01*
X107642857Y-108815935D02*
X107833333Y-108815935D01*
X107833333Y-108815935D02*
X107947619Y-108854030D01*
X107947619Y-108854030D02*
X108023809Y-108930220D01*
X108023809Y-108930220D02*
X108061904Y-109006411D01*
X108061904Y-109006411D02*
X108100000Y-109158792D01*
X108100000Y-109158792D02*
X108100000Y-109273078D01*
X108100000Y-109273078D02*
X108061904Y-109425459D01*
X108061904Y-109425459D02*
X108023809Y-109501649D01*
X108023809Y-109501649D02*
X107947619Y-109577840D01*
X107947619Y-109577840D02*
X107833333Y-109615935D01*
X107833333Y-109615935D02*
X107642857Y-109615935D01*
X108900000Y-109615935D02*
X108633333Y-109234982D01*
X108442857Y-109615935D02*
X108442857Y-108815935D01*
X108442857Y-108815935D02*
X108747619Y-108815935D01*
X108747619Y-108815935D02*
X108823809Y-108854030D01*
X108823809Y-108854030D02*
X108861904Y-108892125D01*
X108861904Y-108892125D02*
X108900000Y-108968316D01*
X108900000Y-108968316D02*
X108900000Y-109082601D01*
X108900000Y-109082601D02*
X108861904Y-109158792D01*
X108861904Y-109158792D02*
X108823809Y-109196887D01*
X108823809Y-109196887D02*
X108747619Y-109234982D01*
X108747619Y-109234982D02*
X108442857Y-109234982D01*
X109128571Y-108815935D02*
X109395238Y-109615935D01*
X109395238Y-109615935D02*
X109661904Y-108815935D01*
X110347618Y-109615935D02*
X109890475Y-109615935D01*
X110119047Y-109615935D02*
X110119047Y-108815935D01*
X110119047Y-108815935D02*
X110042856Y-108930220D01*
X110042856Y-108930220D02*
X109966666Y-109006411D01*
X109966666Y-109006411D02*
X109890475Y-109044506D01*
X110842857Y-108815935D02*
X110919047Y-108815935D01*
X110919047Y-108815935D02*
X110995238Y-108854030D01*
X110995238Y-108854030D02*
X111033333Y-108892125D01*
X111033333Y-108892125D02*
X111071428Y-108968316D01*
X111071428Y-108968316D02*
X111109523Y-109120697D01*
X111109523Y-109120697D02*
X111109523Y-109311173D01*
X111109523Y-109311173D02*
X111071428Y-109463554D01*
X111071428Y-109463554D02*
X111033333Y-109539744D01*
X111033333Y-109539744D02*
X110995238Y-109577840D01*
X110995238Y-109577840D02*
X110919047Y-109615935D01*
X110919047Y-109615935D02*
X110842857Y-109615935D01*
X110842857Y-109615935D02*
X110766666Y-109577840D01*
X110766666Y-109577840D02*
X110728571Y-109539744D01*
X110728571Y-109539744D02*
X110690476Y-109463554D01*
X110690476Y-109463554D02*
X110652380Y-109311173D01*
X110652380Y-109311173D02*
X110652380Y-109120697D01*
X110652380Y-109120697D02*
X110690476Y-108968316D01*
X110690476Y-108968316D02*
X110728571Y-108892125D01*
X110728571Y-108892125D02*
X110766666Y-108854030D01*
X110766666Y-108854030D02*
X110842857Y-108815935D01*
X111490476Y-109615935D02*
X111642857Y-109615935D01*
X111642857Y-109615935D02*
X111719047Y-109577840D01*
X111719047Y-109577840D02*
X111757143Y-109539744D01*
X111757143Y-109539744D02*
X111833333Y-109425459D01*
X111833333Y-109425459D02*
X111871428Y-109273078D01*
X111871428Y-109273078D02*
X111871428Y-108968316D01*
X111871428Y-108968316D02*
X111833333Y-108892125D01*
X111833333Y-108892125D02*
X111795238Y-108854030D01*
X111795238Y-108854030D02*
X111719047Y-108815935D01*
X111719047Y-108815935D02*
X111566666Y-108815935D01*
X111566666Y-108815935D02*
X111490476Y-108854030D01*
X111490476Y-108854030D02*
X111452381Y-108892125D01*
X111452381Y-108892125D02*
X111414285Y-108968316D01*
X111414285Y-108968316D02*
X111414285Y-109158792D01*
X111414285Y-109158792D02*
X111452381Y-109234982D01*
X111452381Y-109234982D02*
X111490476Y-109273078D01*
X111490476Y-109273078D02*
X111566666Y-109311173D01*
X111566666Y-109311173D02*
X111719047Y-109311173D01*
X111719047Y-109311173D02*
X111795238Y-109273078D01*
X111795238Y-109273078D02*
X111833333Y-109234982D01*
X111833333Y-109234982D02*
X111871428Y-109158792D01*
X112557143Y-108815935D02*
X112404762Y-108815935D01*
X112404762Y-108815935D02*
X112328571Y-108854030D01*
X112328571Y-108854030D02*
X112290476Y-108892125D01*
X112290476Y-108892125D02*
X112214286Y-109006411D01*
X112214286Y-109006411D02*
X112176190Y-109158792D01*
X112176190Y-109158792D02*
X112176190Y-109463554D01*
X112176190Y-109463554D02*
X112214286Y-109539744D01*
X112214286Y-109539744D02*
X112252381Y-109577840D01*
X112252381Y-109577840D02*
X112328571Y-109615935D01*
X112328571Y-109615935D02*
X112480952Y-109615935D01*
X112480952Y-109615935D02*
X112557143Y-109577840D01*
X112557143Y-109577840D02*
X112595238Y-109539744D01*
X112595238Y-109539744D02*
X112633333Y-109463554D01*
X112633333Y-109463554D02*
X112633333Y-109273078D01*
X112633333Y-109273078D02*
X112595238Y-109196887D01*
X112595238Y-109196887D02*
X112557143Y-109158792D01*
X112557143Y-109158792D02*
X112480952Y-109120697D01*
X112480952Y-109120697D02*
X112328571Y-109120697D01*
X112328571Y-109120697D02*
X112252381Y-109158792D01*
X112252381Y-109158792D02*
X112214286Y-109196887D01*
X112214286Y-109196887D02*
X112176190Y-109273078D01*
X113319048Y-109082601D02*
X113319048Y-109615935D01*
X113128572Y-108777840D02*
X112938095Y-109349268D01*
X112938095Y-109349268D02*
X113433334Y-109349268D01*
D12*
%TO.C,J1*%
X118130000Y-98620000D02*
X115370000Y-98620000D01*
X118130000Y-111430000D02*
X115370000Y-111430000D01*
%TO.C,C1*%
X107240000Y-105609420D02*
X107240000Y-105890580D01*
X108260000Y-105609420D02*
X108260000Y-105890580D01*
%TO.C,J2*%
X102620000Y-98730000D02*
X105380000Y-98730000D01*
X102730000Y-111430000D02*
X102730000Y-110050000D01*
X104110000Y-111430000D02*
X102730000Y-111430000D01*
%TO.C,R1*%
X108977500Y-101437742D02*
X108977500Y-101912258D01*
X110022500Y-101437742D02*
X110022500Y-101912258D01*
D13*
%TO.C,DRV10964*%
X109500000Y-103500000D02*
X109500000Y-103600000D01*
X109500000Y-103500000D02*
X110250000Y-103500000D01*
X109500000Y-106500000D02*
X112500000Y-106500000D01*
%TD*%
M02*
