%TF.GenerationSoftware,KiCad,Pcbnew,9.0.5*%
%TF.CreationDate,2025-10-13T22:33:19-05:00*%
%TF.ProjectId,jerry,6a657272-792e-46b6-9963-61645f706362,rev?*%
%TF.SameCoordinates,Original*%
%TF.FileFunction,Copper,L2,Bot*%
%TF.FilePolarity,Positive*%
%FSLAX46Y46*%
G04 Gerber Fmt 4.6, Leading zero omitted, Abs format (unit mm)*
G04 Created by KiCad (PCBNEW 9.0.5) date 2025-10-13 22:33:19*
%MOMM*%
%LPD*%
G01*
G04 APERTURE LIST*
G04 Aperture macros list*
%AMRoundRect*
0 Rectangle with rounded corners*
0 $1 Rounding radius*
0 $2 $3 $4 $5 $6 $7 $8 $9 X,Y pos of 4 corners*
0 Add a 4 corners polygon primitive as box body*
4,1,4,$2,$3,$4,$5,$6,$7,$8,$9,$2,$3,0*
0 Add four circle primitives for the rounded corners*
1,1,$1+$1,$2,$3*
1,1,$1+$1,$4,$5*
1,1,$1+$1,$6,$7*
1,1,$1+$1,$8,$9*
0 Add four rect primitives between the rounded corners*
20,1,$1+$1,$2,$3,$4,$5,0*
20,1,$1+$1,$4,$5,$6,$7,0*
20,1,$1+$1,$6,$7,$8,$9,0*
20,1,$1+$1,$8,$9,$2,$3,0*%
G04 Aperture macros list end*
%TA.AperFunction,ComponentPad*%
%ADD10R,1.700000X1.700000*%
%TD*%
%TA.AperFunction,ComponentPad*%
%ADD11C,1.700000*%
%TD*%
%TA.AperFunction,SMDPad,CuDef*%
%ADD12RoundRect,0.225000X0.225000X0.250000X-0.225000X0.250000X-0.225000X-0.250000X0.225000X-0.250000X0*%
%TD*%
%TA.AperFunction,SMDPad,CuDef*%
%ADD13RoundRect,0.150000X-0.150000X0.725000X-0.150000X-0.725000X0.150000X-0.725000X0.150000X0.725000X0*%
%TD*%
%TA.AperFunction,SMDPad,CuDef*%
%ADD14RoundRect,0.200000X-0.200000X-0.275000X0.200000X-0.275000X0.200000X0.275000X-0.200000X0.275000X0*%
%TD*%
%TA.AperFunction,SMDPad,CuDef*%
%ADD15RoundRect,0.200000X0.275000X-0.200000X0.275000X0.200000X-0.275000X0.200000X-0.275000X-0.200000X0*%
%TD*%
%TA.AperFunction,ViaPad*%
%ADD16C,0.600000*%
%TD*%
%TA.AperFunction,Conductor*%
%ADD17C,0.200000*%
%TD*%
%TA.AperFunction,Conductor*%
%ADD18C,2.540000*%
%TD*%
G04 APERTURE END LIST*
D10*
%TO.P,J1,1,Pin_1*%
%TO.N,GND*%
X95250000Y-87630000D03*
D11*
%TO.P,J1,2,Pin_2*%
%TO.N,Net-(J1-Pin_2)*%
X95250000Y-90170000D03*
%TO.P,J1,3,Pin_3*%
%TO.N,Net-(J1-Pin_3)*%
X95250000Y-92710000D03*
%TO.P,J1,4,Pin_4*%
%TO.N,Net-(J1-Pin_4)*%
X95250000Y-95250000D03*
%TO.P,J1,5,Pin_5*%
%TO.N,OUT*%
X95250000Y-97790000D03*
%TO.P,J1,6,Pin_6*%
%TO.N,VCC*%
X95250000Y-100330000D03*
%TD*%
D12*
%TO.P,C3,1*%
%TO.N,GND*%
X140862500Y-105480000D03*
%TO.P,C3,2*%
%TO.N,Net-(U8-CV)*%
X139312500Y-105480000D03*
%TD*%
D13*
%TO.P,U8,1,GND*%
%TO.N,GND*%
X133032500Y-100330000D03*
%TO.P,U8,2,TR*%
%TO.N,Net-(U8-TR)*%
X134302500Y-100330000D03*
%TO.P,U8,3,Q*%
%TO.N,Net-(D3-K)*%
X135572500Y-100330000D03*
%TO.P,U8,4,R*%
%TO.N,VCC*%
X136842500Y-100330000D03*
%TO.P,U8,5,CV*%
%TO.N,Net-(U8-CV)*%
X136842500Y-105480000D03*
%TO.P,U8,6,THR*%
%TO.N,Net-(U8-THR)*%
X135572500Y-105480000D03*
%TO.P,U8,7,DIS*%
%TO.N,Net-(U8-DIS)*%
X134302500Y-105480000D03*
%TO.P,U8,8,VCC*%
%TO.N,VCC*%
X133032500Y-105480000D03*
%TD*%
D14*
%TO.P,R15,1*%
%TO.N,VCC*%
X132652500Y-107950000D03*
%TO.P,R15,2*%
%TO.N,Net-(U8-DIS)*%
X134302500Y-107950000D03*
%TD*%
D12*
%TO.P,C4,1*%
%TO.N,GND*%
X140932500Y-100330000D03*
%TO.P,C4,2*%
%TO.N,Net-(U8-TR)*%
X139382500Y-100330000D03*
%TD*%
D15*
%TO.P,R13,1*%
%TO.N,Net-(U8-DIS)*%
X130492500Y-103250000D03*
%TO.P,R13,2*%
%TO.N,Net-(U8-TR)*%
X130492500Y-101600000D03*
%TD*%
D16*
%TO.N,/MS_CNTR_RST*%
X118110000Y-92710000D03*
%TO.N,GND*%
X131127500Y-86360000D03*
X127317500Y-93980000D03*
X113982500Y-110490000D03*
X111125000Y-78740000D03*
X102235000Y-99060000D03*
X117157500Y-89535000D03*
X131127500Y-99060000D03*
X123787500Y-78705000D03*
X102235000Y-110490000D03*
X102235000Y-83820000D03*
X127317500Y-110490000D03*
X114617500Y-99060000D03*
%TO.N,/CONN*%
X119697500Y-84455000D03*
X118427500Y-85725000D03*
%TO.N,Net-(D1-K)*%
X114617500Y-107950000D03*
X124777500Y-108585000D03*
X114617500Y-105410000D03*
%TO.N,/MS_CNTR_RST*%
X127952500Y-96520000D03*
X119697500Y-93980000D03*
%TO.N,/HIGH_BIT_RST*%
X119697500Y-104140000D03*
X126047500Y-107950000D03*
%TO.N,Net-(D3-K)*%
X136207500Y-98425000D03*
%TO.N,OUT*%
X118427500Y-107950000D03*
X118427500Y-112395000D03*
%TO.N,VCC*%
X141922500Y-89535000D03*
X135572500Y-102870000D03*
X140017500Y-91440000D03*
%TO.N,Net-(U5B-D)*%
X126682500Y-92710000D03*
X123507500Y-105410000D03*
%TO.N,Net-(R6-Pad2)*%
X104140000Y-101600000D03*
X102235000Y-93980000D03*
%TO.N,Net-(R7-Pad2)*%
X100965000Y-97155000D03*
X100965000Y-102235000D03*
%TO.N,Net-(R8-Pad2)*%
X106045000Y-106680000D03*
X110744000Y-96520000D03*
%TO.N,Net-(R9-Pad2)*%
X102235000Y-107950000D03*
X106680000Y-99060000D03*
%TO.N,Net-(U2A-Q1)*%
X114617500Y-95250000D03*
X106045000Y-97790000D03*
%TO.N,Net-(U2B-Q1)*%
X129857500Y-99060000D03*
X129857500Y-97155000D03*
X124142500Y-96520000D03*
X135572500Y-109220000D03*
%TO.N,Net-(U2B-Q2)*%
X126682500Y-95885000D03*
X129857500Y-95885000D03*
%TO.N,Net-(U2A-Q3)*%
X118268750Y-95726250D03*
X111125000Y-92710000D03*
%TO.N,Net-(U2A-Q0)*%
X114617500Y-93980000D03*
X106045000Y-92710000D03*
%TO.N,Net-(U3-QC)*%
X106680000Y-87630000D03*
X107315000Y-98425000D03*
%TO.N,Net-(U3-QB)*%
X106045000Y-89535000D03*
X106045000Y-96520000D03*
%TO.N,Net-(U3-QD)*%
X107315000Y-85725000D03*
X107315000Y-92075000D03*
%TO.N,Net-(U3-QA)*%
X102235000Y-91440000D03*
X102235000Y-86360000D03*
%TO.N,Net-(U5B-C)*%
X123507500Y-106680000D03*
X129857500Y-88900000D03*
X129222500Y-98425000D03*
X131127500Y-93345000D03*
%TO.N,Net-(U6-Pad6)*%
X131127500Y-83820000D03*
X134937500Y-96520000D03*
%TO.N,Net-(U6-Pad4)*%
X134937500Y-83185000D03*
X134937500Y-94615000D03*
%TO.N,Net-(U6-Pad13)*%
X136207500Y-92075000D03*
X136207500Y-86995000D03*
%TO.N,Net-(U7-Pad13)*%
X141922500Y-80010000D03*
X140017500Y-80010000D03*
%TO.N,Net-(U8-THR)*%
X135572500Y-104140000D03*
%TO.N,Net-(U9-Pad10)*%
X107315000Y-107950000D03*
X106045000Y-109220000D03*
%TO.N,Net-(U10-Pad1)*%
X129857500Y-107315000D03*
X129857500Y-104775000D03*
%TD*%
D17*
%TO.N,Net-(U2B-Q1)*%
X129857500Y-99060000D02*
X129857500Y-100330000D01*
X129857500Y-100330000D02*
X128905000Y-101282500D01*
X128905000Y-101282500D02*
X128905000Y-108585000D01*
X128905000Y-108585000D02*
X130175000Y-109855000D01*
X130175000Y-109855000D02*
X134937500Y-109855000D01*
X134937500Y-109855000D02*
X135572500Y-109220000D01*
%TO.N,Net-(U5B-C)*%
X129222500Y-98425000D02*
X129222500Y-99853750D01*
X128270000Y-100806250D02*
X128270000Y-101917500D01*
X129222500Y-99853750D02*
X128270000Y-100806250D01*
X128270000Y-101917500D02*
X123507500Y-106680000D01*
%TO.N,/MS_CNTR_RST*%
X118110000Y-92710000D02*
X118427500Y-92710000D01*
X118427500Y-92710000D02*
X119697500Y-93980000D01*
%TO.N,Net-(U2A-Q3)*%
X115887500Y-93345000D02*
X111760000Y-93345000D01*
X118268750Y-95726250D02*
X115887500Y-93345000D01*
X111760000Y-93345000D02*
X111125000Y-92710000D01*
%TO.N,Net-(U2A-Q1)*%
X114617500Y-95250000D02*
X108585000Y-95250000D01*
X108585000Y-95250000D02*
X106045000Y-97790000D01*
%TO.N,Net-(U2A-Q0)*%
X107315000Y-93980000D02*
X114617500Y-93980000D01*
%TO.N,GND*%
X131127500Y-99060000D02*
X131127500Y-97790000D01*
X130492500Y-93980000D02*
X127317500Y-93980000D01*
X134937500Y-97155000D02*
X133032500Y-99060000D01*
X138747500Y-97155000D02*
X134937500Y-97155000D01*
X131127500Y-94615000D02*
X130492500Y-93980000D01*
X140932500Y-100330000D02*
X140932500Y-99340000D01*
X133032500Y-99060000D02*
X131127500Y-97155000D01*
X133032500Y-99060000D02*
X133032500Y-100330000D01*
D18*
X95250000Y-87630000D02*
X99370000Y-87630000D01*
D17*
X131127500Y-97790000D02*
X131127500Y-94615000D01*
X131127500Y-97155000D02*
X131127500Y-97790000D01*
X140932500Y-99340000D02*
X138747500Y-97155000D01*
%TO.N,/CONN*%
X118427500Y-85725000D02*
X119697500Y-84455000D01*
%TO.N,Net-(U8-CV)*%
X139312500Y-105480000D02*
X139382500Y-105410000D01*
X136842500Y-105480000D02*
X139312500Y-105480000D01*
%TO.N,Net-(U8-TR)*%
X134302500Y-98940000D02*
X134302500Y-100330000D01*
X139382500Y-99060000D02*
X138112500Y-97790000D01*
X139382500Y-100330000D02*
X139382500Y-99060000D01*
X135452500Y-97790000D02*
X134302500Y-98940000D01*
X133907499Y-101600000D02*
X134302500Y-101204999D01*
X138112500Y-97790000D02*
X135452500Y-97790000D01*
X130492500Y-101600000D02*
X133907499Y-101600000D01*
X134302500Y-101204999D02*
X134302500Y-100330000D01*
%TO.N,Net-(D1-K)*%
X120967500Y-108585000D02*
X117792500Y-105410000D01*
X114617500Y-105410000D02*
X114617500Y-107950000D01*
X117792500Y-105410000D02*
X114617500Y-105410000D01*
X124777500Y-108585000D02*
X120967500Y-108585000D01*
%TO.N,/MS_CNTR_RST*%
X124992443Y-96520000D02*
X122452443Y-93980000D01*
X127952500Y-96520000D02*
X124992443Y-96520000D01*
X122452443Y-93980000D02*
X119697500Y-93980000D01*
%TO.N,/HIGH_BIT_RST*%
X119697500Y-104140000D02*
X123507500Y-107950000D01*
X123507500Y-107950000D02*
X126047500Y-107950000D01*
%TO.N,Net-(D3-K)*%
X135572500Y-99060000D02*
X136207500Y-98425000D01*
X135572500Y-100330000D02*
X135572500Y-99060000D01*
%TO.N,OUT*%
X118427500Y-107950000D02*
X118427500Y-112395000D01*
%TO.N,VCC*%
X136842500Y-100330000D02*
X136842500Y-101600000D01*
X135572500Y-102870000D02*
X134302500Y-102870000D01*
X141922500Y-89535000D02*
X140017500Y-91440000D01*
X133032500Y-107570000D02*
X132652500Y-107950000D01*
X133032500Y-104140000D02*
X133032500Y-105480000D01*
X134302500Y-102870000D02*
X133032500Y-104140000D01*
X133032500Y-105480000D02*
X133032500Y-107570000D01*
X136842500Y-101600000D02*
X135572500Y-102870000D01*
%TO.N,Net-(U5B-D)*%
X129857500Y-95035057D02*
X130458500Y-95636057D01*
X126682500Y-92710000D02*
X126682500Y-95035057D01*
X130458500Y-97403943D02*
X130072443Y-97790000D01*
X124777500Y-102020057D02*
X124777500Y-104140000D01*
X129007557Y-97790000D02*
X124777500Y-102020057D01*
X130458500Y-95636057D02*
X130458500Y-97403943D01*
X126682500Y-95035057D02*
X129857500Y-95035057D01*
X124777500Y-104140000D02*
X123507500Y-105410000D01*
X130072443Y-97790000D02*
X129007557Y-97790000D01*
%TO.N,Net-(R6-Pad2)*%
X103505000Y-95250000D02*
X102235000Y-93980000D01*
X103505000Y-100965000D02*
X103505000Y-95250000D01*
X104140000Y-101600000D02*
X103505000Y-100965000D01*
%TO.N,Net-(R7-Pad2)*%
X100965000Y-97155000D02*
X100965000Y-102235000D01*
%TO.N,Net-(R8-Pad2)*%
X110744000Y-96520000D02*
X110744000Y-101981000D01*
X110744000Y-101981000D02*
X106045000Y-106680000D01*
%TO.N,Net-(R9-Pad2)*%
X106680000Y-102870000D02*
X102235000Y-107315000D01*
X102235000Y-107315000D02*
X102235000Y-107950000D01*
X106680000Y-99060000D02*
X106680000Y-102870000D01*
%TO.N,Net-(U8-DIS)*%
X133667500Y-109220000D02*
X134302500Y-108585000D01*
X134302500Y-108585000D02*
X134302500Y-107950000D01*
X134302500Y-107950000D02*
X134302500Y-105480000D01*
X130492500Y-103250000D02*
X130492500Y-108585000D01*
X131127500Y-109220000D02*
X133667500Y-109220000D01*
X130492500Y-108585000D02*
X131127500Y-109220000D01*
%TO.N,Net-(U2B-Q1)*%
X124777500Y-97155000D02*
X129857500Y-97155000D01*
X124142500Y-96520000D02*
X124777500Y-97155000D01*
%TO.N,Net-(U2B-Q2)*%
X126682500Y-95885000D02*
X129857500Y-95885000D01*
%TO.N,Net-(U2A-Q0)*%
X106045000Y-92710000D02*
X107315000Y-93980000D01*
%TO.N,Net-(U3-QC)*%
X107315000Y-98425000D02*
X105410000Y-98425000D01*
X104140000Y-97155000D02*
X104140000Y-90170000D01*
X104140000Y-90170000D02*
X106680000Y-87630000D01*
X105410000Y-98425000D02*
X104140000Y-97155000D01*
%TO.N,Net-(U3-QB)*%
X106045000Y-89535000D02*
X105444000Y-90136000D01*
X105444000Y-90136000D02*
X105444000Y-95919000D01*
X105444000Y-95919000D02*
X106045000Y-96520000D01*
%TO.N,Net-(U3-QD)*%
X107315000Y-92075000D02*
X107315000Y-85725000D01*
%TO.N,Net-(U3-QA)*%
X102235000Y-86360000D02*
X102235000Y-91440000D01*
%TO.N,Net-(U5B-C)*%
X129857500Y-88900000D02*
X131127500Y-90170000D01*
X131127500Y-90170000D02*
X131127500Y-93345000D01*
%TO.N,Net-(U6-Pad6)*%
X134937500Y-96520000D02*
X134302500Y-95885000D01*
X134302500Y-86995000D02*
X131127500Y-83820000D01*
X134302500Y-95885000D02*
X134302500Y-86995000D01*
%TO.N,Net-(U6-Pad4)*%
X134937500Y-94615000D02*
X134937500Y-83185000D01*
%TO.N,Net-(U6-Pad13)*%
X136207500Y-92075000D02*
X136207500Y-86995000D01*
%TO.N,Net-(U7-Pad13)*%
X140017500Y-80010000D02*
X141922500Y-80010000D01*
%TO.N,Net-(U8-THR)*%
X135572500Y-104140000D02*
X135572500Y-105480000D01*
%TO.N,Net-(U9-Pad10)*%
X106045000Y-109220000D02*
X107315000Y-107950000D01*
%TO.N,Net-(U10-Pad1)*%
X129857500Y-107315000D02*
X129857500Y-104775000D01*
%TD*%
%TA.AperFunction,Conductor*%
%TO.N,GND*%
G36*
X144088039Y-76854685D02*
G01*
X144133794Y-76907489D01*
X144145000Y-76959000D01*
X144145000Y-112906000D01*
X144125315Y-112973039D01*
X144072511Y-113018794D01*
X144021000Y-113030000D01*
X119197948Y-113030000D01*
X119130909Y-113010315D01*
X119085154Y-112957511D01*
X119075210Y-112888353D01*
X119094846Y-112837109D01*
X119136890Y-112774185D01*
X119136890Y-112774184D01*
X119136894Y-112774179D01*
X119197237Y-112628497D01*
X119228000Y-112473842D01*
X119228000Y-112316158D01*
X119228000Y-112316155D01*
X119227999Y-112316153D01*
X119197238Y-112161510D01*
X119197237Y-112161503D01*
X119197235Y-112161498D01*
X119136897Y-112015827D01*
X119136890Y-112015814D01*
X119048898Y-111884125D01*
X119028020Y-111817447D01*
X119028000Y-111815234D01*
X119028000Y-108529765D01*
X119047685Y-108462726D01*
X119048898Y-108460874D01*
X119055990Y-108450261D01*
X119136894Y-108329179D01*
X119197237Y-108183497D01*
X119228000Y-108028842D01*
X119228000Y-107994097D01*
X119247685Y-107927058D01*
X119300489Y-107881303D01*
X119369647Y-107871359D01*
X119433203Y-107900384D01*
X119439681Y-107906416D01*
X120482639Y-108949374D01*
X120482649Y-108949385D01*
X120486979Y-108953715D01*
X120486980Y-108953716D01*
X120598784Y-109065520D01*
X120650345Y-109095288D01*
X120685595Y-109115639D01*
X120685597Y-109115641D01*
X120723651Y-109137611D01*
X120735715Y-109144577D01*
X120888443Y-109185500D01*
X124197734Y-109185500D01*
X124264773Y-109205185D01*
X124266625Y-109206398D01*
X124398314Y-109294390D01*
X124398327Y-109294397D01*
X124543998Y-109354735D01*
X124544003Y-109354737D01*
X124698653Y-109385499D01*
X124698656Y-109385500D01*
X124698658Y-109385500D01*
X124856344Y-109385500D01*
X124856345Y-109385499D01*
X125010997Y-109354737D01*
X125145936Y-109298844D01*
X125156672Y-109294397D01*
X125156672Y-109294396D01*
X125156679Y-109294394D01*
X125287789Y-109206789D01*
X125399289Y-109095289D01*
X125486894Y-108964179D01*
X125491228Y-108953717D01*
X125533656Y-108851284D01*
X125547237Y-108818497D01*
X125556216Y-108773359D01*
X125588601Y-108711448D01*
X125649316Y-108676874D01*
X125719086Y-108680613D01*
X125725270Y-108682982D01*
X125814003Y-108719737D01*
X125968653Y-108750499D01*
X125968656Y-108750500D01*
X125968658Y-108750500D01*
X126126344Y-108750500D01*
X126126345Y-108750499D01*
X126280997Y-108719737D01*
X126393666Y-108673067D01*
X126426672Y-108659397D01*
X126426672Y-108659396D01*
X126426679Y-108659394D01*
X126557789Y-108571789D01*
X126669289Y-108460289D01*
X126756894Y-108329179D01*
X126817237Y-108183497D01*
X126848000Y-108028842D01*
X126848000Y-107871158D01*
X126848000Y-107871155D01*
X126847999Y-107871153D01*
X126817238Y-107716510D01*
X126817238Y-107716508D01*
X126817237Y-107716503D01*
X126817235Y-107716498D01*
X126756897Y-107570827D01*
X126756890Y-107570814D01*
X126669289Y-107439711D01*
X126669286Y-107439707D01*
X126557792Y-107328213D01*
X126557788Y-107328210D01*
X126426685Y-107240609D01*
X126426672Y-107240602D01*
X126281001Y-107180264D01*
X126280989Y-107180261D01*
X126126345Y-107149500D01*
X126126342Y-107149500D01*
X125968658Y-107149500D01*
X125968655Y-107149500D01*
X125814010Y-107180261D01*
X125813998Y-107180264D01*
X125668327Y-107240602D01*
X125668314Y-107240609D01*
X125536625Y-107328602D01*
X125469947Y-107349480D01*
X125467734Y-107349500D01*
X124254896Y-107349500D01*
X124187857Y-107329815D01*
X124142102Y-107277011D01*
X124132158Y-107207853D01*
X124151794Y-107156609D01*
X124216890Y-107059185D01*
X124216890Y-107059184D01*
X124216894Y-107059179D01*
X124277237Y-106913497D01*
X124299044Y-106803867D01*
X124308138Y-106758150D01*
X124340523Y-106696239D01*
X124342018Y-106694716D01*
X128092819Y-102943916D01*
X128154142Y-102910431D01*
X128223834Y-102915415D01*
X128279767Y-102957287D01*
X128304184Y-103022751D01*
X128304500Y-103031597D01*
X128304500Y-108498330D01*
X128304499Y-108498348D01*
X128304499Y-108664054D01*
X128304498Y-108664054D01*
X128345424Y-108816789D01*
X128345425Y-108816790D01*
X128365340Y-108851283D01*
X128365341Y-108851284D01*
X128424477Y-108953712D01*
X128424481Y-108953717D01*
X128543349Y-109072585D01*
X128543355Y-109072590D01*
X129690139Y-110219374D01*
X129690149Y-110219385D01*
X129694479Y-110223715D01*
X129694480Y-110223716D01*
X129806284Y-110335520D01*
X129893095Y-110385639D01*
X129893097Y-110385641D01*
X129943213Y-110414576D01*
X129943215Y-110414577D01*
X130095942Y-110455500D01*
X130095943Y-110455500D01*
X134850831Y-110455500D01*
X134850847Y-110455501D01*
X134858443Y-110455501D01*
X135016554Y-110455501D01*
X135016557Y-110455501D01*
X135169285Y-110414577D01*
X135219404Y-110385639D01*
X135306216Y-110335520D01*
X135418020Y-110223716D01*
X135418021Y-110223713D01*
X135587164Y-110054570D01*
X135648483Y-110021089D01*
X135650650Y-110020638D01*
X135708585Y-110009113D01*
X135805997Y-109989737D01*
X135951679Y-109929394D01*
X136082789Y-109841789D01*
X136194289Y-109730289D01*
X136281894Y-109599179D01*
X136342237Y-109453497D01*
X136373000Y-109298842D01*
X136373000Y-109141158D01*
X136373000Y-109141155D01*
X136372999Y-109141153D01*
X136357955Y-109065521D01*
X136342237Y-108986503D01*
X136328655Y-108953712D01*
X136281897Y-108840827D01*
X136281890Y-108840814D01*
X136194289Y-108709711D01*
X136194286Y-108709707D01*
X136082792Y-108598213D01*
X136082788Y-108598210D01*
X135951685Y-108510609D01*
X135951672Y-108510602D01*
X135806001Y-108450264D01*
X135805989Y-108450261D01*
X135651345Y-108419500D01*
X135651342Y-108419500D01*
X135493658Y-108419500D01*
X135493653Y-108419500D01*
X135347582Y-108448555D01*
X135277990Y-108442328D01*
X135222813Y-108399464D01*
X135199569Y-108333575D01*
X135199899Y-108315732D01*
X135203000Y-108281616D01*
X135203000Y-107618384D01*
X135196586Y-107547804D01*
X135145978Y-107385394D01*
X135057972Y-107239815D01*
X135057970Y-107239813D01*
X135057969Y-107239811D01*
X134939319Y-107121161D01*
X134924615Y-107094233D01*
X134908023Y-107068415D01*
X134907131Y-107062214D01*
X134905834Y-107059838D01*
X134903000Y-107033480D01*
X134903000Y-106870906D01*
X134922685Y-106803867D01*
X134975489Y-106758112D01*
X135044647Y-106748168D01*
X135090117Y-106764172D01*
X135162102Y-106806744D01*
X135203724Y-106818836D01*
X135319926Y-106852597D01*
X135319929Y-106852597D01*
X135319931Y-106852598D01*
X135356806Y-106855500D01*
X135356814Y-106855500D01*
X135788186Y-106855500D01*
X135788194Y-106855500D01*
X135825069Y-106852598D01*
X135825071Y-106852597D01*
X135825073Y-106852597D01*
X135887438Y-106834478D01*
X135982898Y-106806744D01*
X136124365Y-106723081D01*
X136124370Y-106723075D01*
X136130531Y-106718298D01*
X136132433Y-106720750D01*
X136181079Y-106694155D01*
X136250774Y-106699104D01*
X136283195Y-106719940D01*
X136284469Y-106718298D01*
X136290632Y-106723078D01*
X136290635Y-106723081D01*
X136432102Y-106806744D01*
X136473724Y-106818836D01*
X136589926Y-106852597D01*
X136589929Y-106852597D01*
X136589931Y-106852598D01*
X136626806Y-106855500D01*
X136626814Y-106855500D01*
X137058186Y-106855500D01*
X137058194Y-106855500D01*
X137095069Y-106852598D01*
X137095071Y-106852597D01*
X137095073Y-106852597D01*
X137157438Y-106834478D01*
X137252898Y-106806744D01*
X137394365Y-106723081D01*
X137510581Y-106606865D01*
X137594244Y-106465398D01*
X137640098Y-106307569D01*
X137643000Y-106270694D01*
X137643000Y-106204500D01*
X137662685Y-106137461D01*
X137715489Y-106091706D01*
X137767000Y-106080500D01*
X138382075Y-106080500D01*
X138449114Y-106100185D01*
X138487613Y-106139402D01*
X138514531Y-106183043D01*
X138634455Y-106302967D01*
X138634459Y-106302970D01*
X138778794Y-106391998D01*
X138778797Y-106391999D01*
X138778803Y-106392003D01*
X138939792Y-106445349D01*
X139039155Y-106455500D01*
X139585844Y-106455499D01*
X139585852Y-106455498D01*
X139585855Y-106455498D01*
X139673842Y-106446510D01*
X139685208Y-106445349D01*
X139846197Y-106392003D01*
X139990544Y-106302968D01*
X140000168Y-106293343D01*
X140061487Y-106259856D01*
X140131179Y-106264835D01*
X140175534Y-106293339D01*
X140184767Y-106302572D01*
X140184771Y-106302575D01*
X140329007Y-106391542D01*
X140329018Y-106391547D01*
X140489893Y-106444855D01*
X140589183Y-106454999D01*
X141112500Y-106454999D01*
X141135808Y-106454999D01*
X141135822Y-106454998D01*
X141235107Y-106444855D01*
X141395981Y-106391547D01*
X141395992Y-106391542D01*
X141540228Y-106302575D01*
X141540232Y-106302572D01*
X141660072Y-106182732D01*
X141660075Y-106182728D01*
X141749042Y-106038492D01*
X141749047Y-106038481D01*
X141802355Y-105877606D01*
X141812499Y-105778322D01*
X141812500Y-105778309D01*
X141812500Y-105730000D01*
X141112500Y-105730000D01*
X141112500Y-106454999D01*
X140589183Y-106454999D01*
X140612500Y-106454998D01*
X140612500Y-105230000D01*
X141112500Y-105230000D01*
X141812499Y-105230000D01*
X141812499Y-105181692D01*
X141812498Y-105181677D01*
X141802355Y-105082392D01*
X141749047Y-104921518D01*
X141749042Y-104921507D01*
X141660075Y-104777271D01*
X141660072Y-104777267D01*
X141540232Y-104657427D01*
X141540228Y-104657424D01*
X141395992Y-104568457D01*
X141395981Y-104568452D01*
X141235106Y-104515144D01*
X141135822Y-104505000D01*
X141112500Y-104505000D01*
X141112500Y-105230000D01*
X140612500Y-105230000D01*
X140612500Y-104504999D01*
X140589193Y-104505000D01*
X140589174Y-104505001D01*
X140489892Y-104515144D01*
X140329018Y-104568452D01*
X140329007Y-104568457D01*
X140184771Y-104657424D01*
X140184765Y-104657428D01*
X140175531Y-104666663D01*
X140114207Y-104700146D01*
X140044515Y-104695159D01*
X140000172Y-104666660D01*
X139990544Y-104657032D01*
X139990540Y-104657029D01*
X139846205Y-104568001D01*
X139846199Y-104567998D01*
X139846197Y-104567997D01*
X139846194Y-104567996D01*
X139685209Y-104514651D01*
X139585846Y-104504500D01*
X139039162Y-104504500D01*
X139039144Y-104504501D01*
X138939792Y-104514650D01*
X138939789Y-104514651D01*
X138778805Y-104567996D01*
X138778794Y-104568001D01*
X138634459Y-104657029D01*
X138634455Y-104657032D01*
X138514531Y-104776956D01*
X138487613Y-104820598D01*
X138435665Y-104867322D01*
X138382075Y-104879500D01*
X137767000Y-104879500D01*
X137699961Y-104859815D01*
X137654206Y-104807011D01*
X137643000Y-104755500D01*
X137643000Y-104689313D01*
X137642999Y-104689298D01*
X137640098Y-104652432D01*
X137640097Y-104652426D01*
X137600069Y-104514651D01*
X137594244Y-104494602D01*
X137510581Y-104353135D01*
X137510579Y-104353133D01*
X137510576Y-104353129D01*
X137394370Y-104236923D01*
X137394362Y-104236917D01*
X137252896Y-104153255D01*
X137252893Y-104153254D01*
X137095073Y-104107402D01*
X137095067Y-104107401D01*
X137058201Y-104104500D01*
X137058194Y-104104500D01*
X136626806Y-104104500D01*
X136626798Y-104104500D01*
X136589932Y-104107401D01*
X136523382Y-104126736D01*
X136453513Y-104126536D01*
X136394843Y-104088593D01*
X136367171Y-104031851D01*
X136342238Y-103906508D01*
X136342237Y-103906507D01*
X136342237Y-103906503D01*
X136333407Y-103885185D01*
X136281897Y-103760827D01*
X136281890Y-103760814D01*
X136194289Y-103629711D01*
X136194286Y-103629707D01*
X136157260Y-103592681D01*
X136123775Y-103531358D01*
X136128759Y-103461666D01*
X136157260Y-103417319D01*
X136194286Y-103380292D01*
X136194289Y-103380289D01*
X136281894Y-103249179D01*
X136342237Y-103103497D01*
X136372957Y-102949058D01*
X136373138Y-102948150D01*
X136405523Y-102886239D01*
X136407020Y-102884714D01*
X137211213Y-102080521D01*
X137211216Y-102080520D01*
X137323020Y-101968716D01*
X137373139Y-101881904D01*
X137402077Y-101831785D01*
X137443000Y-101679058D01*
X137443000Y-101575808D01*
X137462685Y-101508769D01*
X137479320Y-101488126D01*
X137510576Y-101456870D01*
X137510581Y-101456865D01*
X137594244Y-101315398D01*
X137640098Y-101157569D01*
X137643000Y-101120694D01*
X137643000Y-99539306D01*
X137640098Y-99502431D01*
X137636023Y-99488406D01*
X137594245Y-99344606D01*
X137594244Y-99344603D01*
X137594244Y-99344602D01*
X137510581Y-99203135D01*
X137510579Y-99203133D01*
X137510576Y-99203129D01*
X137394370Y-99086923D01*
X137394362Y-99086917D01*
X137290509Y-99025499D01*
X137252898Y-99003256D01*
X137252897Y-99003255D01*
X137252896Y-99003255D01*
X137252893Y-99003254D01*
X137095073Y-98957402D01*
X137095067Y-98957401D01*
X137058201Y-98954500D01*
X137058194Y-98954500D01*
X137040208Y-98954500D01*
X136973169Y-98934815D01*
X136927414Y-98882011D01*
X136917470Y-98812853D01*
X136925647Y-98783048D01*
X136963656Y-98691284D01*
X136977237Y-98658497D01*
X137008000Y-98503842D01*
X137008000Y-98503832D01*
X137008146Y-98502354D01*
X137008442Y-98501618D01*
X137009189Y-98497868D01*
X137009900Y-98498009D01*
X137034303Y-98437565D01*
X137091335Y-98397202D01*
X137131550Y-98390500D01*
X137812403Y-98390500D01*
X137879442Y-98410185D01*
X137900084Y-98426819D01*
X138745681Y-99272416D01*
X138760384Y-99299343D01*
X138776977Y-99325162D01*
X138777868Y-99331362D01*
X138779166Y-99333739D01*
X138782000Y-99360097D01*
X138782000Y-99389995D01*
X138762315Y-99457034D01*
X138723100Y-99495532D01*
X138704454Y-99507033D01*
X138584529Y-99626959D01*
X138495501Y-99771294D01*
X138495496Y-99771305D01*
X138442151Y-99932290D01*
X138432000Y-100031647D01*
X138432000Y-100628337D01*
X138432001Y-100628355D01*
X138442150Y-100727707D01*
X138442151Y-100727710D01*
X138495496Y-100888694D01*
X138495501Y-100888705D01*
X138584529Y-101033040D01*
X138584532Y-101033044D01*
X138704455Y-101152967D01*
X138704459Y-101152970D01*
X138848794Y-101241998D01*
X138848797Y-101241999D01*
X138848803Y-101242003D01*
X139009792Y-101295349D01*
X139109155Y-101305500D01*
X139655844Y-101305499D01*
X139655852Y-101305498D01*
X139655855Y-101305498D01*
X139710260Y-101299940D01*
X139755208Y-101295349D01*
X139916197Y-101242003D01*
X140060544Y-101152968D01*
X140070168Y-101143343D01*
X140131487Y-101109856D01*
X140201179Y-101114835D01*
X140245534Y-101143339D01*
X140254767Y-101152572D01*
X140254771Y-101152575D01*
X140399007Y-101241542D01*
X140399018Y-101241547D01*
X140559893Y-101294855D01*
X140659183Y-101304999D01*
X141182500Y-101304999D01*
X141205808Y-101304999D01*
X141205822Y-101304998D01*
X141305107Y-101294855D01*
X141465981Y-101241547D01*
X141465992Y-101241542D01*
X141610228Y-101152575D01*
X141610232Y-101152572D01*
X141730072Y-101032732D01*
X141730075Y-101032728D01*
X141819042Y-100888492D01*
X141819047Y-100888481D01*
X141872355Y-100727606D01*
X141882499Y-100628322D01*
X141882500Y-100628309D01*
X141882500Y-100580000D01*
X141182500Y-100580000D01*
X141182500Y-101304999D01*
X140659183Y-101304999D01*
X140682500Y-101304998D01*
X140682500Y-100080000D01*
X141182500Y-100080000D01*
X141882499Y-100080000D01*
X141882499Y-100031692D01*
X141882498Y-100031677D01*
X141872355Y-99932392D01*
X141819047Y-99771518D01*
X141819042Y-99771507D01*
X141730075Y-99627271D01*
X141730072Y-99627267D01*
X141610232Y-99507427D01*
X141610228Y-99507424D01*
X141465992Y-99418457D01*
X141465981Y-99418452D01*
X141305106Y-99365144D01*
X141205822Y-99355000D01*
X141182500Y-99355000D01*
X141182500Y-100080000D01*
X140682500Y-100080000D01*
X140682500Y-99354999D01*
X140659193Y-99355000D01*
X140659174Y-99355001D01*
X140559892Y-99365144D01*
X140399018Y-99418452D01*
X140399007Y-99418457D01*
X140254771Y-99507424D01*
X140254764Y-99507430D01*
X140245528Y-99516665D01*
X140244884Y-99517016D01*
X140244526Y-99517656D01*
X140214252Y-99533740D01*
X140184203Y-99550146D01*
X140183472Y-99550093D01*
X140182824Y-99550438D01*
X140148664Y-99547601D01*
X140114511Y-99545157D01*
X140113680Y-99544697D01*
X140113194Y-99544657D01*
X140110838Y-99543124D01*
X140082413Y-99527389D01*
X140075935Y-99522423D01*
X140060544Y-99507032D01*
X140036554Y-99492234D01*
X140031560Y-99488406D01*
X140014503Y-99465071D01*
X139995177Y-99443582D01*
X139993543Y-99436394D01*
X139990330Y-99431998D01*
X139989534Y-99418752D01*
X139983000Y-99389995D01*
X139983000Y-98980946D01*
X139983000Y-98980943D01*
X139962791Y-98905519D01*
X139942077Y-98828215D01*
X139913139Y-98778095D01*
X139863020Y-98691284D01*
X139751216Y-98579480D01*
X139751215Y-98579479D01*
X139746885Y-98575149D01*
X139746874Y-98575139D01*
X138600090Y-97428355D01*
X138600088Y-97428352D01*
X138481217Y-97309481D01*
X138481216Y-97309480D01*
X138394404Y-97259360D01*
X138394404Y-97259359D01*
X138394400Y-97259358D01*
X138344285Y-97230423D01*
X138191557Y-97189499D01*
X138033443Y-97189499D01*
X138025847Y-97189499D01*
X138025831Y-97189500D01*
X135684896Y-97189500D01*
X135617857Y-97169815D01*
X135572102Y-97117011D01*
X135562158Y-97047853D01*
X135581794Y-96996609D01*
X135646890Y-96899185D01*
X135646890Y-96899184D01*
X135646894Y-96899179D01*
X135707237Y-96753497D01*
X135738000Y-96598842D01*
X135738000Y-96441158D01*
X135738000Y-96441155D01*
X135737999Y-96441153D01*
X135722955Y-96365521D01*
X135707237Y-96286503D01*
X135693656Y-96253716D01*
X135646897Y-96140827D01*
X135646890Y-96140814D01*
X135559289Y-96009711D01*
X135559286Y-96009707D01*
X135447792Y-95898213D01*
X135447788Y-95898210D01*
X135316685Y-95810609D01*
X135316672Y-95810602D01*
X135171001Y-95750264D01*
X135170991Y-95750261D01*
X135015651Y-95719362D01*
X134998893Y-95710595D01*
X134980412Y-95706575D01*
X134955376Y-95687832D01*
X134953741Y-95686977D01*
X134952158Y-95685423D01*
X134939315Y-95672579D01*
X134905833Y-95611254D01*
X134903000Y-95584901D01*
X134903000Y-95539050D01*
X134922685Y-95472011D01*
X134975489Y-95426256D01*
X135010399Y-95416846D01*
X135010368Y-95416689D01*
X135012720Y-95416221D01*
X135014854Y-95415646D01*
X135016333Y-95415500D01*
X135016342Y-95415500D01*
X135016351Y-95415498D01*
X135016353Y-95415498D01*
X135072768Y-95404276D01*
X135170997Y-95384737D01*
X135305936Y-95328844D01*
X135316672Y-95324397D01*
X135316672Y-95324396D01*
X135316679Y-95324394D01*
X135447789Y-95236789D01*
X135559289Y-95125289D01*
X135646894Y-94994179D01*
X135707237Y-94848497D01*
X135738000Y-94693842D01*
X135738000Y-94536158D01*
X135738000Y-94536155D01*
X135737999Y-94536153D01*
X135725930Y-94475480D01*
X135707237Y-94381503D01*
X135693655Y-94348713D01*
X135646897Y-94235827D01*
X135646890Y-94235814D01*
X135558898Y-94104125D01*
X135538020Y-94037447D01*
X135538000Y-94035234D01*
X135538000Y-92822395D01*
X135557685Y-92755356D01*
X135610489Y-92709601D01*
X135679647Y-92699657D01*
X135730890Y-92719292D01*
X135828321Y-92784394D01*
X135828323Y-92784395D01*
X135828327Y-92784397D01*
X135920064Y-92822395D01*
X135974003Y-92844737D01*
X136128653Y-92875499D01*
X136128656Y-92875500D01*
X136128658Y-92875500D01*
X136286344Y-92875500D01*
X136286345Y-92875499D01*
X136440997Y-92844737D01*
X136575936Y-92788844D01*
X136586672Y-92784397D01*
X136586672Y-92784396D01*
X136586679Y-92784394D01*
X136717789Y-92696789D01*
X136829289Y-92585289D01*
X136916894Y-92454179D01*
X136977237Y-92308497D01*
X137008000Y-92153842D01*
X137008000Y-91996158D01*
X137008000Y-91996155D01*
X137007999Y-91996153D01*
X136991572Y-91913570D01*
X136977237Y-91841503D01*
X136977235Y-91841498D01*
X136916897Y-91695827D01*
X136916890Y-91695814D01*
X136828898Y-91564125D01*
X136823247Y-91546078D01*
X136813023Y-91530169D01*
X136808571Y-91499207D01*
X136808020Y-91497447D01*
X136808000Y-91495234D01*
X136808000Y-91361153D01*
X139217000Y-91361153D01*
X139217000Y-91518846D01*
X139247761Y-91673489D01*
X139247764Y-91673501D01*
X139308102Y-91819172D01*
X139308109Y-91819185D01*
X139395710Y-91950288D01*
X139395713Y-91950292D01*
X139507207Y-92061786D01*
X139507211Y-92061789D01*
X139638314Y-92149390D01*
X139638327Y-92149397D01*
X139759788Y-92199707D01*
X139784003Y-92209737D01*
X139938653Y-92240499D01*
X139938656Y-92240500D01*
X139938658Y-92240500D01*
X140096344Y-92240500D01*
X140096345Y-92240499D01*
X140250997Y-92209737D01*
X140385936Y-92153844D01*
X140396672Y-92149397D01*
X140396672Y-92149396D01*
X140396679Y-92149394D01*
X140527789Y-92061789D01*
X140639289Y-91950289D01*
X140726894Y-91819179D01*
X140787237Y-91673497D01*
X140809361Y-91562273D01*
X140818138Y-91518150D01*
X140850523Y-91456239D01*
X140852018Y-91454716D01*
X141937162Y-90369572D01*
X141998483Y-90336089D01*
X142000650Y-90335638D01*
X142058585Y-90324113D01*
X142155997Y-90304737D01*
X142290414Y-90249060D01*
X142301672Y-90244397D01*
X142301672Y-90244396D01*
X142301679Y-90244394D01*
X142432789Y-90156789D01*
X142544289Y-90045289D01*
X142631894Y-89914179D01*
X142692237Y-89768497D01*
X142723000Y-89613842D01*
X142723000Y-89456158D01*
X142723000Y-89456155D01*
X142722999Y-89456153D01*
X142692238Y-89301510D01*
X142692238Y-89301508D01*
X142692237Y-89301503D01*
X142682987Y-89279172D01*
X142631897Y-89155827D01*
X142631890Y-89155814D01*
X142544289Y-89024711D01*
X142544286Y-89024707D01*
X142432792Y-88913213D01*
X142432788Y-88913210D01*
X142301685Y-88825609D01*
X142301672Y-88825602D01*
X142156001Y-88765264D01*
X142155989Y-88765261D01*
X142001345Y-88734500D01*
X142001342Y-88734500D01*
X141843658Y-88734500D01*
X141843655Y-88734500D01*
X141689010Y-88765261D01*
X141688998Y-88765264D01*
X141543327Y-88825602D01*
X141543314Y-88825609D01*
X141412211Y-88913210D01*
X141412207Y-88913213D01*
X141300713Y-89024707D01*
X141300710Y-89024711D01*
X141213109Y-89155814D01*
X141213102Y-89155827D01*
X141152764Y-89301498D01*
X141152761Y-89301508D01*
X141121861Y-89456850D01*
X141089476Y-89518761D01*
X141087925Y-89520339D01*
X140002839Y-90605425D01*
X139941516Y-90638910D01*
X139939350Y-90639361D01*
X139784008Y-90670261D01*
X139783998Y-90670264D01*
X139638327Y-90730602D01*
X139638314Y-90730609D01*
X139507211Y-90818210D01*
X139507207Y-90818213D01*
X139395713Y-90929707D01*
X139395710Y-90929711D01*
X139308109Y-91060814D01*
X139308102Y-91060827D01*
X139247764Y-91206498D01*
X139247761Y-91206510D01*
X139217000Y-91361153D01*
X136808000Y-91361153D01*
X136808000Y-87574765D01*
X136827685Y-87507726D01*
X136828898Y-87505874D01*
X136916890Y-87374185D01*
X136916890Y-87374184D01*
X136916894Y-87374179D01*
X136977237Y-87228497D01*
X137008000Y-87073842D01*
X137008000Y-86916158D01*
X137008000Y-86916155D01*
X137007999Y-86916153D01*
X136996881Y-86860261D01*
X136977237Y-86761503D01*
X136954226Y-86705949D01*
X136916897Y-86615827D01*
X136916890Y-86615814D01*
X136829289Y-86484711D01*
X136829286Y-86484707D01*
X136717792Y-86373213D01*
X136717788Y-86373210D01*
X136586685Y-86285609D01*
X136586672Y-86285602D01*
X136441001Y-86225264D01*
X136440989Y-86225261D01*
X136286345Y-86194500D01*
X136286342Y-86194500D01*
X136128658Y-86194500D01*
X136128655Y-86194500D01*
X135974010Y-86225261D01*
X135973998Y-86225264D01*
X135828327Y-86285602D01*
X135828314Y-86285609D01*
X135730891Y-86350706D01*
X135664213Y-86371584D01*
X135596833Y-86353099D01*
X135550143Y-86301121D01*
X135538000Y-86247604D01*
X135538000Y-83764765D01*
X135557685Y-83697726D01*
X135558898Y-83695874D01*
X135565990Y-83685261D01*
X135646894Y-83564179D01*
X135707237Y-83418497D01*
X135738000Y-83263842D01*
X135738000Y-83106158D01*
X135738000Y-83106155D01*
X135737999Y-83106153D01*
X135726881Y-83050261D01*
X135707237Y-82951503D01*
X135707235Y-82951498D01*
X135646897Y-82805827D01*
X135646890Y-82805814D01*
X135559289Y-82674711D01*
X135559286Y-82674707D01*
X135447792Y-82563213D01*
X135447788Y-82563210D01*
X135316685Y-82475609D01*
X135316672Y-82475602D01*
X135171001Y-82415264D01*
X135170989Y-82415261D01*
X135016345Y-82384500D01*
X135016342Y-82384500D01*
X134858658Y-82384500D01*
X134858655Y-82384500D01*
X134704010Y-82415261D01*
X134703998Y-82415264D01*
X134558327Y-82475602D01*
X134558314Y-82475609D01*
X134427211Y-82563210D01*
X134427207Y-82563213D01*
X134315713Y-82674707D01*
X134315710Y-82674711D01*
X134228109Y-82805814D01*
X134228102Y-82805827D01*
X134167764Y-82951498D01*
X134167761Y-82951510D01*
X134137000Y-83106153D01*
X134137000Y-83263846D01*
X134167761Y-83418489D01*
X134167764Y-83418501D01*
X134228102Y-83564172D01*
X134228109Y-83564185D01*
X134307095Y-83682395D01*
X134309010Y-83685261D01*
X134316102Y-83695874D01*
X134336980Y-83762551D01*
X134337000Y-83764765D01*
X134337000Y-85880903D01*
X134317315Y-85947942D01*
X134264511Y-85993697D01*
X134195353Y-86003641D01*
X134131797Y-85974616D01*
X134125319Y-85968584D01*
X131962074Y-83805339D01*
X131928589Y-83744016D01*
X131928138Y-83741849D01*
X131897238Y-83586510D01*
X131897237Y-83586503D01*
X131887987Y-83564172D01*
X131836897Y-83440827D01*
X131836890Y-83440814D01*
X131749289Y-83309711D01*
X131749286Y-83309707D01*
X131637792Y-83198213D01*
X131637788Y-83198210D01*
X131506685Y-83110609D01*
X131506672Y-83110602D01*
X131361001Y-83050264D01*
X131360989Y-83050261D01*
X131206345Y-83019500D01*
X131206342Y-83019500D01*
X131048658Y-83019500D01*
X131048655Y-83019500D01*
X130894010Y-83050261D01*
X130893998Y-83050264D01*
X130748327Y-83110602D01*
X130748314Y-83110609D01*
X130617211Y-83198210D01*
X130617207Y-83198213D01*
X130505713Y-83309707D01*
X130505710Y-83309711D01*
X130418109Y-83440814D01*
X130418102Y-83440827D01*
X130357764Y-83586498D01*
X130357761Y-83586510D01*
X130327000Y-83741153D01*
X130327000Y-83898846D01*
X130357761Y-84053489D01*
X130357764Y-84053501D01*
X130418102Y-84199172D01*
X130418109Y-84199185D01*
X130505710Y-84330288D01*
X130505713Y-84330292D01*
X130617207Y-84441786D01*
X130617211Y-84441789D01*
X130748314Y-84529390D01*
X130748327Y-84529397D01*
X130893998Y-84589735D01*
X130894003Y-84589737D01*
X130958647Y-84602595D01*
X131049349Y-84620638D01*
X131111260Y-84653023D01*
X131112839Y-84654574D01*
X133665681Y-87207416D01*
X133699166Y-87268739D01*
X133702000Y-87295097D01*
X133702000Y-95798330D01*
X133701999Y-95798348D01*
X133701999Y-95964054D01*
X133701998Y-95964054D01*
X133742923Y-96116785D01*
X133756857Y-96140919D01*
X133756856Y-96140919D01*
X133756857Y-96140920D01*
X133821975Y-96253709D01*
X133821981Y-96253717D01*
X133940849Y-96372585D01*
X133940855Y-96372590D01*
X134102925Y-96534660D01*
X134136410Y-96595983D01*
X134136861Y-96598149D01*
X134167761Y-96753491D01*
X134167764Y-96753501D01*
X134228102Y-96899172D01*
X134228109Y-96899185D01*
X134315710Y-97030288D01*
X134315713Y-97030292D01*
X134427207Y-97141786D01*
X134427211Y-97141789D01*
X134558314Y-97229390D01*
X134558327Y-97229397D01*
X134679798Y-97279711D01*
X134704003Y-97289737D01*
X134754545Y-97299790D01*
X134809710Y-97310764D01*
X134871621Y-97343149D01*
X134906195Y-97403864D01*
X134902456Y-97473634D01*
X134873200Y-97520062D01*
X133936945Y-98456318D01*
X133936938Y-98456325D01*
X133933786Y-98459478D01*
X133933784Y-98459480D01*
X133821980Y-98571284D01*
X133796889Y-98614744D01*
X133790989Y-98624962D01*
X133790988Y-98624964D01*
X133742924Y-98708213D01*
X133742923Y-98708215D01*
X133701999Y-98860943D01*
X133701999Y-98860945D01*
X133701999Y-98939673D01*
X133682314Y-99006712D01*
X133629510Y-99052467D01*
X133560352Y-99062411D01*
X133514878Y-99046405D01*
X133442696Y-99003717D01*
X133442693Y-99003716D01*
X133284994Y-98957900D01*
X133284997Y-98957900D01*
X133282500Y-98957703D01*
X133282500Y-100206000D01*
X133262815Y-100273039D01*
X133210011Y-100318794D01*
X133158500Y-100330000D01*
X133032500Y-100330000D01*
X133032500Y-100456000D01*
X133012815Y-100523039D01*
X132960011Y-100568794D01*
X132908500Y-100580000D01*
X132232500Y-100580000D01*
X132232500Y-100875500D01*
X132212815Y-100942539D01*
X132160011Y-100988294D01*
X132108500Y-100999500D01*
X131409020Y-100999500D01*
X131341981Y-100979815D01*
X131321339Y-100963181D01*
X131202688Y-100844530D01*
X131179089Y-100830264D01*
X131057106Y-100756522D01*
X130894696Y-100705914D01*
X130894694Y-100705913D01*
X130894692Y-100705913D01*
X130845278Y-100701423D01*
X130824116Y-100699500D01*
X130824113Y-100699500D01*
X130541776Y-100699500D01*
X130474737Y-100679815D01*
X130428982Y-100627011D01*
X130419038Y-100557853D01*
X130422001Y-100543407D01*
X130427108Y-100524346D01*
X130458000Y-100409057D01*
X130458000Y-99639765D01*
X130463327Y-99621621D01*
X130463665Y-99602712D01*
X130477165Y-99574494D01*
X130477685Y-99572726D01*
X130478898Y-99570874D01*
X130490406Y-99553652D01*
X130499962Y-99539350D01*
X132232500Y-99539350D01*
X132232500Y-100080000D01*
X132782500Y-100080000D01*
X132782500Y-98957703D01*
X132780003Y-98957900D01*
X132622306Y-99003716D01*
X132622303Y-99003717D01*
X132480947Y-99087314D01*
X132480938Y-99087321D01*
X132364821Y-99203438D01*
X132364814Y-99203447D01*
X132281217Y-99344803D01*
X132281216Y-99344806D01*
X132235400Y-99502504D01*
X132235399Y-99502510D01*
X132232500Y-99539350D01*
X130499962Y-99539350D01*
X130566894Y-99439179D01*
X130569869Y-99431998D01*
X130580567Y-99406166D01*
X130627237Y-99293497D01*
X130658000Y-99138842D01*
X130658000Y-98981158D01*
X130658000Y-98981155D01*
X130657999Y-98981153D01*
X130648782Y-98934815D01*
X130627237Y-98826503D01*
X130613655Y-98793713D01*
X130566897Y-98680827D01*
X130566890Y-98680814D01*
X130479289Y-98549711D01*
X130479286Y-98549707D01*
X130402600Y-98473021D01*
X130369115Y-98411698D01*
X130374099Y-98342006D01*
X130405889Y-98294488D01*
X130416144Y-98284961D01*
X130441159Y-98270520D01*
X130552963Y-98158716D01*
X130552964Y-98158713D01*
X130817006Y-97894671D01*
X130817011Y-97894667D01*
X130827214Y-97884463D01*
X130827216Y-97884463D01*
X130939020Y-97772659D01*
X130971958Y-97715609D01*
X131006797Y-97655266D01*
X131006798Y-97655264D01*
X131011374Y-97647336D01*
X131018077Y-97635728D01*
X131059001Y-97483000D01*
X131059001Y-97324886D01*
X131059001Y-97317291D01*
X131059000Y-97317273D01*
X131059000Y-95557001D01*
X131057199Y-95550281D01*
X131057198Y-95550277D01*
X131045284Y-95505814D01*
X131027581Y-95439744D01*
X131027581Y-95439742D01*
X131018078Y-95404276D01*
X131018076Y-95404270D01*
X130939024Y-95267347D01*
X130939021Y-95267343D01*
X130939020Y-95267341D01*
X130827216Y-95155537D01*
X130827215Y-95155536D01*
X130822885Y-95151206D01*
X130822874Y-95151196D01*
X130345090Y-94673412D01*
X130345088Y-94673409D01*
X130226217Y-94554538D01*
X130226216Y-94554537D01*
X130139404Y-94504417D01*
X130139404Y-94504416D01*
X130139400Y-94504415D01*
X130089285Y-94475480D01*
X129936557Y-94434556D01*
X129778443Y-94434556D01*
X129770847Y-94434556D01*
X129770831Y-94434557D01*
X127407000Y-94434557D01*
X127339961Y-94414872D01*
X127294206Y-94362068D01*
X127283000Y-94310557D01*
X127283000Y-93289765D01*
X127302685Y-93222726D01*
X127303898Y-93220874D01*
X127310990Y-93210261D01*
X127391894Y-93089179D01*
X127452237Y-92943497D01*
X127483000Y-92788842D01*
X127483000Y-92631158D01*
X127483000Y-92631155D01*
X127482999Y-92631153D01*
X127473876Y-92585288D01*
X127452237Y-92476503D01*
X127396228Y-92341284D01*
X127391897Y-92330827D01*
X127391890Y-92330814D01*
X127304289Y-92199711D01*
X127304286Y-92199707D01*
X127192792Y-92088213D01*
X127192788Y-92088210D01*
X127061685Y-92000609D01*
X127061672Y-92000602D01*
X126916001Y-91940264D01*
X126915989Y-91940261D01*
X126761345Y-91909500D01*
X126761342Y-91909500D01*
X126603658Y-91909500D01*
X126603655Y-91909500D01*
X126449010Y-91940261D01*
X126448998Y-91940264D01*
X126303327Y-92000602D01*
X126303314Y-92000609D01*
X126172211Y-92088210D01*
X126172207Y-92088213D01*
X126060713Y-92199707D01*
X126060710Y-92199711D01*
X125973109Y-92330814D01*
X125973102Y-92330827D01*
X125912764Y-92476498D01*
X125912761Y-92476510D01*
X125882000Y-92631153D01*
X125882000Y-92788846D01*
X125912761Y-92943489D01*
X125912764Y-92943501D01*
X125973102Y-93089172D01*
X125973109Y-93089185D01*
X126038207Y-93186609D01*
X126054010Y-93210261D01*
X126061102Y-93220874D01*
X126081980Y-93287551D01*
X126082000Y-93289765D01*
X126082000Y-94956000D01*
X126082000Y-95114114D01*
X126114042Y-95233700D01*
X126112380Y-95303547D01*
X126081951Y-95353471D01*
X126060708Y-95374714D01*
X125973109Y-95505814D01*
X125973102Y-95505827D01*
X125912764Y-95651498D01*
X125912761Y-95651510D01*
X125882001Y-95806146D01*
X125881854Y-95807646D01*
X125881557Y-95808381D01*
X125880811Y-95812132D01*
X125880099Y-95811990D01*
X125855697Y-95872435D01*
X125798665Y-95912798D01*
X125758450Y-95919500D01*
X125292540Y-95919500D01*
X125225501Y-95899815D01*
X125204859Y-95883181D01*
X122940033Y-93618355D01*
X122940031Y-93618352D01*
X122821160Y-93499481D01*
X122821159Y-93499480D01*
X122734347Y-93449360D01*
X122734347Y-93449359D01*
X122734343Y-93449358D01*
X122684228Y-93420423D01*
X122531500Y-93379499D01*
X122373386Y-93379499D01*
X122365790Y-93379499D01*
X122365774Y-93379500D01*
X120277266Y-93379500D01*
X120210227Y-93359815D01*
X120208375Y-93358602D01*
X120076685Y-93270609D01*
X120076672Y-93270602D01*
X119931001Y-93210264D01*
X119930991Y-93210261D01*
X119775649Y-93179361D01*
X119713738Y-93146976D01*
X119712160Y-93145425D01*
X118915090Y-92348355D01*
X118915088Y-92348352D01*
X118796217Y-92229481D01*
X118796212Y-92229477D01*
X118728352Y-92190298D01*
X118702671Y-92170592D01*
X118620292Y-92088213D01*
X118620288Y-92088210D01*
X118489185Y-92000609D01*
X118489172Y-92000602D01*
X118343501Y-91940264D01*
X118343489Y-91940261D01*
X118188845Y-91909500D01*
X118188842Y-91909500D01*
X118031158Y-91909500D01*
X118031155Y-91909500D01*
X117876510Y-91940261D01*
X117876498Y-91940264D01*
X117730827Y-92000602D01*
X117730814Y-92000609D01*
X117599711Y-92088210D01*
X117599707Y-92088213D01*
X117488213Y-92199707D01*
X117488210Y-92199711D01*
X117400609Y-92330814D01*
X117400602Y-92330827D01*
X117340264Y-92476498D01*
X117340261Y-92476510D01*
X117309500Y-92631153D01*
X117309500Y-92788846D01*
X117340261Y-92943489D01*
X117340264Y-92943501D01*
X117400602Y-93089172D01*
X117400609Y-93089185D01*
X117488210Y-93220288D01*
X117488213Y-93220292D01*
X117599707Y-93331786D01*
X117599711Y-93331789D01*
X117730814Y-93419390D01*
X117730827Y-93419397D01*
X117852288Y-93469707D01*
X117876503Y-93479737D01*
X118031153Y-93510499D01*
X118031156Y-93510500D01*
X118031158Y-93510500D01*
X118188843Y-93510500D01*
X118228815Y-93502548D01*
X118282248Y-93491920D01*
X118351839Y-93498147D01*
X118394121Y-93525856D01*
X118862925Y-93994660D01*
X118896410Y-94055983D01*
X118896861Y-94058149D01*
X118927761Y-94213491D01*
X118927764Y-94213501D01*
X118988102Y-94359172D01*
X118988109Y-94359185D01*
X119075710Y-94490288D01*
X119075713Y-94490292D01*
X119187207Y-94601786D01*
X119187211Y-94601789D01*
X119318314Y-94689390D01*
X119318327Y-94689397D01*
X119397394Y-94722147D01*
X119464003Y-94749737D01*
X119618653Y-94780499D01*
X119618656Y-94780500D01*
X119618658Y-94780500D01*
X119776344Y-94780500D01*
X119776345Y-94780499D01*
X119930997Y-94749737D01*
X120065936Y-94693844D01*
X120076672Y-94689397D01*
X120076672Y-94689396D01*
X120076679Y-94689394D01*
X120111180Y-94666341D01*
X120208375Y-94601398D01*
X120275053Y-94580520D01*
X120277266Y-94580500D01*
X122152346Y-94580500D01*
X122219385Y-94600185D01*
X122240027Y-94616819D01*
X123493696Y-95870488D01*
X123527181Y-95931811D01*
X123522197Y-96001503D01*
X123509118Y-96027059D01*
X123433108Y-96140816D01*
X123433102Y-96140827D01*
X123372764Y-96286498D01*
X123372761Y-96286510D01*
X123342000Y-96441153D01*
X123342000Y-96598846D01*
X123372761Y-96753489D01*
X123372764Y-96753501D01*
X123433102Y-96899172D01*
X123433109Y-96899185D01*
X123520710Y-97030288D01*
X123520713Y-97030292D01*
X123632207Y-97141786D01*
X123632211Y-97141789D01*
X123763314Y-97229390D01*
X123763327Y-97229397D01*
X123884798Y-97279711D01*
X123909003Y-97289737D01*
X124063658Y-97320500D01*
X124064347Y-97320637D01*
X124126258Y-97353022D01*
X124127837Y-97354573D01*
X124408784Y-97635520D01*
X124408786Y-97635521D01*
X124408790Y-97635524D01*
X124507316Y-97692407D01*
X124545716Y-97714577D01*
X124698443Y-97755501D01*
X124698445Y-97755501D01*
X124864154Y-97755501D01*
X124864170Y-97755500D01*
X127893460Y-97755500D01*
X127960499Y-97775185D01*
X128006254Y-97827989D01*
X128016198Y-97897147D01*
X127987173Y-97960703D01*
X127981141Y-97967181D01*
X124408786Y-101539535D01*
X124296981Y-101651339D01*
X124296979Y-101651342D01*
X124292867Y-101658465D01*
X124267387Y-101702598D01*
X124217923Y-101788272D01*
X124176999Y-101941000D01*
X124176999Y-101941002D01*
X124176999Y-102109103D01*
X124177000Y-102109116D01*
X124177000Y-103839903D01*
X124157315Y-103906942D01*
X124140681Y-103927584D01*
X123492839Y-104575425D01*
X123431516Y-104608910D01*
X123429350Y-104609361D01*
X123274008Y-104640261D01*
X123273998Y-104640264D01*
X123128327Y-104700602D01*
X123128314Y-104700609D01*
X122997211Y-104788210D01*
X122997207Y-104788213D01*
X122885713Y-104899707D01*
X122885710Y-104899711D01*
X122798109Y-105030814D01*
X122798102Y-105030827D01*
X122737764Y-105176498D01*
X122737761Y-105176510D01*
X122707000Y-105331153D01*
X122707000Y-105488846D01*
X122737761Y-105643489D01*
X122737764Y-105643501D01*
X122798102Y-105789172D01*
X122798109Y-105789185D01*
X122885710Y-105920288D01*
X122885713Y-105920292D01*
X122922740Y-105957319D01*
X122923717Y-105959109D01*
X122925476Y-105960143D01*
X122940388Y-105989639D01*
X122956225Y-106018642D01*
X122956079Y-106020676D01*
X122957000Y-106022497D01*
X122953599Y-106055361D01*
X122951241Y-106088334D01*
X122949951Y-106090609D01*
X122949808Y-106091995D01*
X122945468Y-106098517D01*
X122931920Y-106122420D01*
X122927611Y-106127810D01*
X122885711Y-106169711D01*
X122842852Y-106233853D01*
X122839538Y-106238000D01*
X122815080Y-106255125D01*
X122792165Y-106274277D01*
X122786762Y-106274955D01*
X122782305Y-106278077D01*
X122752469Y-106279262D01*
X122722840Y-106282983D01*
X122717930Y-106280633D01*
X122712491Y-106280850D01*
X122686748Y-106265714D01*
X122659813Y-106252827D01*
X122654996Y-106248261D01*
X120532073Y-104125337D01*
X120498588Y-104064014D01*
X120498137Y-104061847D01*
X120471430Y-103927584D01*
X120467237Y-103906503D01*
X120458407Y-103885185D01*
X120406897Y-103760827D01*
X120406890Y-103760814D01*
X120319289Y-103629711D01*
X120319286Y-103629707D01*
X120207792Y-103518213D01*
X120207788Y-103518210D01*
X120076685Y-103430609D01*
X120076672Y-103430602D01*
X119931001Y-103370264D01*
X119930989Y-103370261D01*
X119776345Y-103339500D01*
X119776342Y-103339500D01*
X119618658Y-103339500D01*
X119618655Y-103339500D01*
X119464010Y-103370261D01*
X119463998Y-103370264D01*
X119318327Y-103430602D01*
X119318314Y-103430609D01*
X119187211Y-103518210D01*
X119187207Y-103518213D01*
X119075713Y-103629707D01*
X119075710Y-103629711D01*
X118988109Y-103760814D01*
X118988102Y-103760827D01*
X118927764Y-103906498D01*
X118927761Y-103906510D01*
X118897000Y-104061153D01*
X118897000Y-104218846D01*
X118927761Y-104373489D01*
X118927764Y-104373501D01*
X118988102Y-104519172D01*
X118988109Y-104519185D01*
X119075710Y-104650288D01*
X119075713Y-104650292D01*
X119187207Y-104761786D01*
X119187211Y-104761789D01*
X119318314Y-104849390D01*
X119318327Y-104849397D01*
X119439788Y-104899707D01*
X119464003Y-104909737D01*
X119523230Y-104921518D01*
X119619349Y-104940638D01*
X119681260Y-104973023D01*
X119682839Y-104974574D01*
X122481083Y-107772819D01*
X122514568Y-107834142D01*
X122509584Y-107903834D01*
X122467712Y-107959767D01*
X122402248Y-107984184D01*
X122393402Y-107984500D01*
X121267597Y-107984500D01*
X121200558Y-107964815D01*
X121179916Y-107948181D01*
X118280090Y-105048355D01*
X118280088Y-105048352D01*
X118161217Y-104929481D01*
X118161216Y-104929480D01*
X118074404Y-104879360D01*
X118074404Y-104879359D01*
X118074400Y-104879358D01*
X118024285Y-104850423D01*
X117871557Y-104809499D01*
X117713443Y-104809499D01*
X117705847Y-104809499D01*
X117705831Y-104809500D01*
X115197266Y-104809500D01*
X115130227Y-104789815D01*
X115128375Y-104788602D01*
X114996685Y-104700609D01*
X114996672Y-104700602D01*
X114851001Y-104640264D01*
X114850989Y-104640261D01*
X114696345Y-104609500D01*
X114696342Y-104609500D01*
X114538658Y-104609500D01*
X114538655Y-104609500D01*
X114384010Y-104640261D01*
X114383998Y-104640264D01*
X114238327Y-104700602D01*
X114238314Y-104700609D01*
X114107211Y-104788210D01*
X114107207Y-104788213D01*
X113995713Y-104899707D01*
X113995710Y-104899711D01*
X113908109Y-105030814D01*
X113908102Y-105030827D01*
X113847764Y-105176498D01*
X113847761Y-105176510D01*
X113817000Y-105331153D01*
X113817000Y-105488846D01*
X113847761Y-105643489D01*
X113847764Y-105643501D01*
X113908102Y-105789172D01*
X113908109Y-105789185D01*
X113987095Y-105907395D01*
X113989010Y-105910261D01*
X113996102Y-105920874D01*
X114016980Y-105987551D01*
X114017000Y-105989765D01*
X114017000Y-107370234D01*
X113997315Y-107437273D01*
X113996102Y-107439125D01*
X113908109Y-107570814D01*
X113908102Y-107570827D01*
X113847764Y-107716498D01*
X113847761Y-107716510D01*
X113817000Y-107871153D01*
X113817000Y-108028846D01*
X113847761Y-108183489D01*
X113847764Y-108183501D01*
X113908102Y-108329172D01*
X113908109Y-108329185D01*
X113995710Y-108460288D01*
X113995713Y-108460292D01*
X114107207Y-108571786D01*
X114107211Y-108571789D01*
X114238314Y-108659390D01*
X114238327Y-108659397D01*
X114359788Y-108709707D01*
X114384003Y-108719737D01*
X114538653Y-108750499D01*
X114538656Y-108750500D01*
X114538658Y-108750500D01*
X114696344Y-108750500D01*
X114696345Y-108750499D01*
X114850997Y-108719737D01*
X114963666Y-108673067D01*
X114996672Y-108659397D01*
X114996672Y-108659396D01*
X114996679Y-108659394D01*
X115127789Y-108571789D01*
X115239289Y-108460289D01*
X115326894Y-108329179D01*
X115387237Y-108183497D01*
X115418000Y-108028842D01*
X115418000Y-107871158D01*
X115418000Y-107871155D01*
X115417999Y-107871153D01*
X115387238Y-107716510D01*
X115387238Y-107716508D01*
X115387237Y-107716503D01*
X115387235Y-107716498D01*
X115326897Y-107570827D01*
X115326890Y-107570814D01*
X115238898Y-107439125D01*
X115218020Y-107372447D01*
X115218000Y-107370234D01*
X115218000Y-106134500D01*
X115237685Y-106067461D01*
X115290489Y-106021706D01*
X115342000Y-106010500D01*
X117492403Y-106010500D01*
X117559442Y-106030185D01*
X117580084Y-106046819D01*
X118471084Y-106937819D01*
X118504569Y-106999142D01*
X118499585Y-107068834D01*
X118457713Y-107124767D01*
X118392249Y-107149184D01*
X118383403Y-107149500D01*
X118348655Y-107149500D01*
X118194010Y-107180261D01*
X118193998Y-107180264D01*
X118048327Y-107240602D01*
X118048314Y-107240609D01*
X117917211Y-107328210D01*
X117917207Y-107328213D01*
X117805713Y-107439707D01*
X117805710Y-107439711D01*
X117718109Y-107570814D01*
X117718102Y-107570827D01*
X117657764Y-107716498D01*
X117657761Y-107716510D01*
X117627000Y-107871153D01*
X117627000Y-108028846D01*
X117657761Y-108183489D01*
X117657764Y-108183501D01*
X117718102Y-108329172D01*
X117718109Y-108329185D01*
X117793710Y-108442328D01*
X117799010Y-108450261D01*
X117806102Y-108460874D01*
X117826980Y-108527551D01*
X117827000Y-108529765D01*
X117827000Y-111815234D01*
X117807315Y-111882273D01*
X117806102Y-111884125D01*
X117718109Y-112015814D01*
X117718102Y-112015827D01*
X117657764Y-112161498D01*
X117657761Y-112161510D01*
X117627000Y-112316153D01*
X117627000Y-112473846D01*
X117657761Y-112628489D01*
X117657764Y-112628501D01*
X117718102Y-112774172D01*
X117718109Y-112774185D01*
X117760154Y-112837109D01*
X117781032Y-112903786D01*
X117762548Y-112971167D01*
X117710569Y-113017857D01*
X117657052Y-113030000D01*
X99184000Y-113030000D01*
X99116961Y-113010315D01*
X99071206Y-112957511D01*
X99060000Y-112906000D01*
X99060000Y-97076153D01*
X100164500Y-97076153D01*
X100164500Y-97233846D01*
X100195261Y-97388489D01*
X100195264Y-97388501D01*
X100255602Y-97534172D01*
X100255609Y-97534185D01*
X100323459Y-97635728D01*
X100336510Y-97655261D01*
X100343602Y-97665874D01*
X100364480Y-97732551D01*
X100364500Y-97734765D01*
X100364500Y-101655234D01*
X100344815Y-101722273D01*
X100343602Y-101724125D01*
X100255609Y-101855814D01*
X100255602Y-101855827D01*
X100195264Y-102001498D01*
X100195261Y-102001510D01*
X100164500Y-102156153D01*
X100164500Y-102313846D01*
X100195261Y-102468489D01*
X100195264Y-102468501D01*
X100255602Y-102614172D01*
X100255609Y-102614185D01*
X100343210Y-102745288D01*
X100343213Y-102745292D01*
X100454707Y-102856786D01*
X100454711Y-102856789D01*
X100585814Y-102944390D01*
X100585827Y-102944397D01*
X100704094Y-102993384D01*
X100731503Y-103004737D01*
X100886153Y-103035499D01*
X100886156Y-103035500D01*
X100886158Y-103035500D01*
X101043844Y-103035500D01*
X101043845Y-103035499D01*
X101198497Y-103004737D01*
X101332919Y-102949058D01*
X101344172Y-102944397D01*
X101344172Y-102944396D01*
X101344179Y-102944394D01*
X101475289Y-102856789D01*
X101586789Y-102745289D01*
X101674394Y-102614179D01*
X101734737Y-102468497D01*
X101765500Y-102313842D01*
X101765500Y-102156158D01*
X101765500Y-102156155D01*
X101765499Y-102156153D01*
X101752262Y-102089606D01*
X101734737Y-102001503D01*
X101721156Y-101968716D01*
X101674397Y-101855827D01*
X101674390Y-101855814D01*
X101586398Y-101724125D01*
X101565520Y-101657447D01*
X101565500Y-101655234D01*
X101565500Y-97734765D01*
X101585185Y-97667726D01*
X101586398Y-97665874D01*
X101593490Y-97655261D01*
X101674394Y-97534179D01*
X101734737Y-97388497D01*
X101765500Y-97233842D01*
X101765500Y-97076158D01*
X101765500Y-97076155D01*
X101765499Y-97076153D01*
X101756376Y-97030288D01*
X101734737Y-96921503D01*
X101725487Y-96899172D01*
X101674397Y-96775827D01*
X101674390Y-96775814D01*
X101586789Y-96644711D01*
X101586786Y-96644707D01*
X101475292Y-96533213D01*
X101475288Y-96533210D01*
X101344185Y-96445609D01*
X101344172Y-96445602D01*
X101198501Y-96385264D01*
X101198489Y-96385261D01*
X101043845Y-96354500D01*
X101043842Y-96354500D01*
X100886158Y-96354500D01*
X100886155Y-96354500D01*
X100731510Y-96385261D01*
X100731498Y-96385264D01*
X100585827Y-96445602D01*
X100585814Y-96445609D01*
X100454711Y-96533210D01*
X100454707Y-96533213D01*
X100343213Y-96644707D01*
X100343210Y-96644711D01*
X100255609Y-96775814D01*
X100255602Y-96775827D01*
X100195264Y-96921498D01*
X100195261Y-96921510D01*
X100164500Y-97076153D01*
X99060000Y-97076153D01*
X99060000Y-93901153D01*
X101434500Y-93901153D01*
X101434500Y-94058846D01*
X101465261Y-94213489D01*
X101465264Y-94213501D01*
X101525602Y-94359172D01*
X101525609Y-94359185D01*
X101613210Y-94490288D01*
X101613213Y-94490292D01*
X101724707Y-94601786D01*
X101724711Y-94601789D01*
X101855814Y-94689390D01*
X101855827Y-94689397D01*
X101934894Y-94722147D01*
X102001503Y-94749737D01*
X102066147Y-94762595D01*
X102156849Y-94780638D01*
X102218760Y-94813023D01*
X102220339Y-94814574D01*
X102868181Y-95462416D01*
X102901666Y-95523739D01*
X102904500Y-95550097D01*
X102904500Y-100878330D01*
X102904499Y-100878348D01*
X102904499Y-101044054D01*
X102904498Y-101044054D01*
X102945424Y-101196789D01*
X102945425Y-101196790D01*
X102965340Y-101231283D01*
X102965341Y-101231284D01*
X103024477Y-101333712D01*
X103024481Y-101333717D01*
X103143349Y-101452585D01*
X103143355Y-101452590D01*
X103305425Y-101614660D01*
X103338910Y-101675983D01*
X103339361Y-101678149D01*
X103370261Y-101833491D01*
X103370264Y-101833501D01*
X103430602Y-101979172D01*
X103430609Y-101979185D01*
X103518210Y-102110288D01*
X103518213Y-102110292D01*
X103629707Y-102221786D01*
X103629711Y-102221789D01*
X103760814Y-102309390D01*
X103760827Y-102309397D01*
X103858170Y-102349717D01*
X103906503Y-102369737D01*
X104061153Y-102400499D01*
X104061156Y-102400500D01*
X104061158Y-102400500D01*
X104218844Y-102400500D01*
X104218845Y-102400499D01*
X104373497Y-102369737D01*
X104508436Y-102313844D01*
X104519172Y-102309397D01*
X104519172Y-102309396D01*
X104519179Y-102309394D01*
X104650289Y-102221789D01*
X104761789Y-102110289D01*
X104849394Y-101979179D01*
X104909737Y-101833497D01*
X104940500Y-101678842D01*
X104940500Y-101521158D01*
X104940500Y-101521155D01*
X104940499Y-101521153D01*
X104938036Y-101508769D01*
X104909737Y-101366503D01*
X104884468Y-101305498D01*
X104849397Y-101220827D01*
X104849390Y-101220814D01*
X104761789Y-101089711D01*
X104761786Y-101089707D01*
X104650292Y-100978213D01*
X104650288Y-100978210D01*
X104519185Y-100890609D01*
X104519172Y-100890602D01*
X104373501Y-100830264D01*
X104373491Y-100830261D01*
X104218151Y-100799362D01*
X104201393Y-100790595D01*
X104182912Y-100786575D01*
X104157876Y-100767832D01*
X104156241Y-100766977D01*
X104154658Y-100765423D01*
X104141815Y-100752579D01*
X104108333Y-100691254D01*
X104105500Y-100664901D01*
X104105500Y-98269097D01*
X104125185Y-98202058D01*
X104177989Y-98156303D01*
X104247147Y-98146359D01*
X104310703Y-98175384D01*
X104317181Y-98181416D01*
X104925139Y-98789374D01*
X104925149Y-98789385D01*
X104929479Y-98793715D01*
X104929480Y-98793716D01*
X105041284Y-98905520D01*
X105126121Y-98954500D01*
X105178215Y-98984577D01*
X105330942Y-99025500D01*
X105330943Y-99025500D01*
X105755950Y-99025500D01*
X105822989Y-99045185D01*
X105868744Y-99097989D01*
X105878153Y-99132899D01*
X105878311Y-99132868D01*
X105878778Y-99135220D01*
X105879354Y-99137354D01*
X105879501Y-99138853D01*
X105910261Y-99293489D01*
X105910264Y-99293501D01*
X105970602Y-99439172D01*
X105970609Y-99439185D01*
X106058602Y-99570874D01*
X106079480Y-99637551D01*
X106079500Y-99639765D01*
X106079500Y-102569902D01*
X106059815Y-102636941D01*
X106043181Y-102657583D01*
X101754481Y-106946282D01*
X101754475Y-106946290D01*
X101717450Y-107010421D01*
X101717450Y-107010423D01*
X101675423Y-107083214D01*
X101671311Y-107098560D01*
X101634499Y-107235943D01*
X101634499Y-107235945D01*
X101634499Y-107370235D01*
X101614814Y-107437274D01*
X101613601Y-107439126D01*
X101525609Y-107570814D01*
X101525602Y-107570827D01*
X101465264Y-107716498D01*
X101465261Y-107716510D01*
X101434500Y-107871153D01*
X101434500Y-108028846D01*
X101465261Y-108183489D01*
X101465264Y-108183501D01*
X101525602Y-108329172D01*
X101525609Y-108329185D01*
X101613210Y-108460288D01*
X101613213Y-108460292D01*
X101724707Y-108571786D01*
X101724711Y-108571789D01*
X101855814Y-108659390D01*
X101855827Y-108659397D01*
X101977288Y-108709707D01*
X102001503Y-108719737D01*
X102156153Y-108750499D01*
X102156156Y-108750500D01*
X102156158Y-108750500D01*
X102313844Y-108750500D01*
X102313845Y-108750499D01*
X102468497Y-108719737D01*
X102581166Y-108673067D01*
X102614172Y-108659397D01*
X102614172Y-108659396D01*
X102614179Y-108659394D01*
X102745289Y-108571789D01*
X102856789Y-108460289D01*
X102944394Y-108329179D01*
X103004737Y-108183497D01*
X103035500Y-108028842D01*
X103035500Y-107871158D01*
X103035500Y-107871155D01*
X103035499Y-107871153D01*
X103004738Y-107716510D01*
X103004738Y-107716508D01*
X103004737Y-107716503D01*
X102944394Y-107570821D01*
X102944392Y-107570818D01*
X102942130Y-107565357D01*
X102934661Y-107495887D01*
X102965936Y-107433408D01*
X102968982Y-107430251D01*
X107048713Y-103350521D01*
X107048716Y-103350520D01*
X107160520Y-103238716D01*
X107210639Y-103151904D01*
X107239577Y-103101785D01*
X107280500Y-102949058D01*
X107280500Y-102790943D01*
X107280500Y-99639765D01*
X107300185Y-99572726D01*
X107301398Y-99570874D01*
X107312906Y-99553652D01*
X107389394Y-99439179D01*
X107392369Y-99431998D01*
X107403067Y-99406166D01*
X107449737Y-99293497D01*
X107449956Y-99292391D01*
X107450230Y-99291867D01*
X107451506Y-99287664D01*
X107452302Y-99287905D01*
X107482335Y-99230481D01*
X107543047Y-99195901D01*
X107547330Y-99194968D01*
X107548497Y-99194737D01*
X107683436Y-99138844D01*
X107694172Y-99134397D01*
X107694172Y-99134396D01*
X107694179Y-99134394D01*
X107825289Y-99046789D01*
X107936789Y-98935289D01*
X108024394Y-98804179D01*
X108084737Y-98658497D01*
X108115500Y-98503842D01*
X108115500Y-98346158D01*
X108115500Y-98346155D01*
X108115499Y-98346153D01*
X108105222Y-98294488D01*
X108084737Y-98191503D01*
X108066038Y-98146359D01*
X108024397Y-98045827D01*
X108024390Y-98045814D01*
X107936789Y-97914711D01*
X107936786Y-97914707D01*
X107825292Y-97803213D01*
X107825288Y-97803210D01*
X107694185Y-97715609D01*
X107694172Y-97715602D01*
X107548501Y-97655264D01*
X107548489Y-97655261D01*
X107393845Y-97624500D01*
X107393842Y-97624500D01*
X107359096Y-97624500D01*
X107292057Y-97604815D01*
X107246302Y-97552011D01*
X107236358Y-97482853D01*
X107265383Y-97419297D01*
X107271415Y-97412819D01*
X107930734Y-96753501D01*
X108797416Y-95886819D01*
X108858739Y-95853334D01*
X108885097Y-95850500D01*
X109996604Y-95850500D01*
X110063643Y-95870185D01*
X110109398Y-95922989D01*
X110119342Y-95992147D01*
X110099706Y-96043391D01*
X110034609Y-96140814D01*
X110034602Y-96140827D01*
X109974264Y-96286498D01*
X109974261Y-96286510D01*
X109943500Y-96441153D01*
X109943500Y-96598846D01*
X109974261Y-96753489D01*
X109974264Y-96753501D01*
X110034602Y-96899172D01*
X110034609Y-96899185D01*
X110122602Y-97030874D01*
X110143480Y-97097551D01*
X110143500Y-97099765D01*
X110143500Y-101680902D01*
X110123815Y-101747941D01*
X110107181Y-101768583D01*
X106030339Y-105845425D01*
X105969016Y-105878910D01*
X105966850Y-105879361D01*
X105811508Y-105910261D01*
X105811498Y-105910264D01*
X105665827Y-105970602D01*
X105665814Y-105970609D01*
X105534711Y-106058210D01*
X105534707Y-106058213D01*
X105423213Y-106169707D01*
X105423210Y-106169711D01*
X105335609Y-106300814D01*
X105335602Y-106300827D01*
X105275264Y-106446498D01*
X105275261Y-106446510D01*
X105244500Y-106601153D01*
X105244500Y-106758846D01*
X105275261Y-106913489D01*
X105275264Y-106913501D01*
X105335602Y-107059172D01*
X105335609Y-107059185D01*
X105423210Y-107190288D01*
X105423213Y-107190292D01*
X105534707Y-107301786D01*
X105534711Y-107301789D01*
X105665814Y-107389390D01*
X105665827Y-107389397D01*
X105787288Y-107439707D01*
X105811503Y-107449737D01*
X105966153Y-107480499D01*
X105966156Y-107480500D01*
X105966158Y-107480500D01*
X106123844Y-107480500D01*
X106123845Y-107480499D01*
X106278497Y-107449737D01*
X106412914Y-107394060D01*
X106424172Y-107389397D01*
X106424172Y-107389396D01*
X106424179Y-107389394D01*
X106452607Y-107370398D01*
X106519283Y-107349520D01*
X106586664Y-107368003D01*
X106633355Y-107419981D01*
X106644533Y-107488951D01*
X106624602Y-107542389D01*
X106605611Y-107570811D01*
X106605602Y-107570827D01*
X106545264Y-107716498D01*
X106545261Y-107716508D01*
X106514361Y-107871850D01*
X106481976Y-107933761D01*
X106480425Y-107935339D01*
X106030339Y-108385425D01*
X105969016Y-108418910D01*
X105966850Y-108419361D01*
X105811508Y-108450261D01*
X105811498Y-108450264D01*
X105665827Y-108510602D01*
X105665814Y-108510609D01*
X105534711Y-108598210D01*
X105534707Y-108598213D01*
X105423213Y-108709707D01*
X105423210Y-108709711D01*
X105335609Y-108840814D01*
X105335602Y-108840827D01*
X105275264Y-108986498D01*
X105275261Y-108986510D01*
X105244500Y-109141153D01*
X105244500Y-109298846D01*
X105275261Y-109453489D01*
X105275264Y-109453501D01*
X105335602Y-109599172D01*
X105335609Y-109599185D01*
X105423210Y-109730288D01*
X105423213Y-109730292D01*
X105534707Y-109841786D01*
X105534711Y-109841789D01*
X105665814Y-109929390D01*
X105665827Y-109929397D01*
X105811498Y-109989735D01*
X105811503Y-109989737D01*
X105966153Y-110020499D01*
X105966156Y-110020500D01*
X105966158Y-110020500D01*
X106123844Y-110020500D01*
X106123845Y-110020499D01*
X106278497Y-109989737D01*
X106424179Y-109929394D01*
X106555289Y-109841789D01*
X106666789Y-109730289D01*
X106754394Y-109599179D01*
X106814737Y-109453497D01*
X106834382Y-109354735D01*
X106845638Y-109298150D01*
X106878023Y-109236239D01*
X106879518Y-109234716D01*
X107329662Y-108784572D01*
X107390983Y-108751089D01*
X107393150Y-108750638D01*
X107451085Y-108739113D01*
X107548497Y-108719737D01*
X107661166Y-108673067D01*
X107694172Y-108659397D01*
X107694172Y-108659396D01*
X107694179Y-108659394D01*
X107825289Y-108571789D01*
X107936789Y-108460289D01*
X108024394Y-108329179D01*
X108084737Y-108183497D01*
X108115500Y-108028842D01*
X108115500Y-107871158D01*
X108115500Y-107871155D01*
X108115499Y-107871153D01*
X108084738Y-107716510D01*
X108084738Y-107716508D01*
X108084737Y-107716503D01*
X108084735Y-107716498D01*
X108024397Y-107570827D01*
X108024390Y-107570814D01*
X107936789Y-107439711D01*
X107936786Y-107439707D01*
X107825292Y-107328213D01*
X107825288Y-107328210D01*
X107694185Y-107240609D01*
X107694172Y-107240602D01*
X107548501Y-107180264D01*
X107548489Y-107180261D01*
X107393845Y-107149500D01*
X107393842Y-107149500D01*
X107236158Y-107149500D01*
X107236155Y-107149500D01*
X107081510Y-107180261D01*
X107081498Y-107180264D01*
X106935827Y-107240602D01*
X106935811Y-107240611D01*
X106907389Y-107259602D01*
X106840712Y-107280479D01*
X106773332Y-107261994D01*
X106726642Y-107210014D01*
X106715467Y-107141044D01*
X106735398Y-107087608D01*
X106754394Y-107059179D01*
X106814737Y-106913497D01*
X106836544Y-106803867D01*
X106845638Y-106758150D01*
X106878023Y-106696239D01*
X106879518Y-106694716D01*
X111224520Y-102349716D01*
X111303577Y-102212784D01*
X111344501Y-102060057D01*
X111344501Y-101901942D01*
X111344501Y-101894347D01*
X111344500Y-101894329D01*
X111344500Y-97099765D01*
X111364185Y-97032726D01*
X111365398Y-97030874D01*
X111453390Y-96899185D01*
X111453390Y-96899184D01*
X111453394Y-96899179D01*
X111513737Y-96753497D01*
X111544500Y-96598842D01*
X111544500Y-96441158D01*
X111544500Y-96441155D01*
X111544499Y-96441153D01*
X111529455Y-96365521D01*
X111513737Y-96286503D01*
X111500156Y-96253716D01*
X111453397Y-96140827D01*
X111453390Y-96140814D01*
X111388294Y-96043391D01*
X111367416Y-95976713D01*
X111385901Y-95909333D01*
X111437879Y-95862643D01*
X111491396Y-95850500D01*
X114037734Y-95850500D01*
X114104773Y-95870185D01*
X114106625Y-95871398D01*
X114238314Y-95959390D01*
X114238327Y-95959397D01*
X114359798Y-96009711D01*
X114384003Y-96019737D01*
X114502919Y-96043391D01*
X114538653Y-96050499D01*
X114538656Y-96050500D01*
X114538658Y-96050500D01*
X114696344Y-96050500D01*
X114696345Y-96050499D01*
X114850997Y-96019737D01*
X114963666Y-95973067D01*
X114996672Y-95959397D01*
X114996672Y-95959396D01*
X114996679Y-95959394D01*
X115127789Y-95871789D01*
X115239289Y-95760289D01*
X115326894Y-95629179D01*
X115387237Y-95483497D01*
X115418000Y-95328842D01*
X115418000Y-95171158D01*
X115418000Y-95171155D01*
X115417999Y-95171153D01*
X115406653Y-95114114D01*
X115387237Y-95016503D01*
X115362176Y-94956000D01*
X115326897Y-94870827D01*
X115326890Y-94870814D01*
X115239289Y-94739711D01*
X115239286Y-94739707D01*
X115202260Y-94702681D01*
X115168775Y-94641358D01*
X115173759Y-94571666D01*
X115202260Y-94527319D01*
X115239286Y-94490292D01*
X115239289Y-94490289D01*
X115326894Y-94359179D01*
X115387237Y-94213497D01*
X115418000Y-94058842D01*
X115418000Y-94058832D01*
X115418146Y-94057354D01*
X115418442Y-94056618D01*
X115419054Y-94053542D01*
X115418812Y-94051853D01*
X115432220Y-94022492D01*
X115444303Y-93992565D01*
X115446644Y-93990907D01*
X115447837Y-93988297D01*
X115474990Y-93970846D01*
X115501335Y-93952202D01*
X115504936Y-93951601D01*
X115506615Y-93950523D01*
X115541550Y-93945500D01*
X115587403Y-93945500D01*
X115654442Y-93965185D01*
X115675084Y-93981819D01*
X117434175Y-95740910D01*
X117467660Y-95802233D01*
X117468111Y-95804399D01*
X117499011Y-95959741D01*
X117499014Y-95959751D01*
X117559352Y-96105422D01*
X117559359Y-96105435D01*
X117646960Y-96236538D01*
X117646963Y-96236542D01*
X117758457Y-96348036D01*
X117758461Y-96348039D01*
X117889564Y-96435640D01*
X117889577Y-96435647D01*
X118009935Y-96485500D01*
X118035253Y-96495987D01*
X118155974Y-96520000D01*
X118189903Y-96526749D01*
X118189906Y-96526750D01*
X118189908Y-96526750D01*
X118347594Y-96526750D01*
X118347595Y-96526749D01*
X118502247Y-96495987D01*
X118647929Y-96435644D01*
X118779039Y-96348039D01*
X118890539Y-96236539D01*
X118978144Y-96105429D01*
X119038487Y-95959747D01*
X119069250Y-95805092D01*
X119069250Y-95647408D01*
X119069250Y-95647405D01*
X119069249Y-95647403D01*
X119060208Y-95601953D01*
X119038487Y-95492753D01*
X119034650Y-95483489D01*
X118978147Y-95347077D01*
X118978137Y-95347059D01*
X118890539Y-95215961D01*
X118890536Y-95215957D01*
X118779042Y-95104463D01*
X118779038Y-95104460D01*
X118647935Y-95016859D01*
X118647922Y-95016852D01*
X118502251Y-94956514D01*
X118502241Y-94956511D01*
X118346899Y-94925611D01*
X118284988Y-94893226D01*
X118283410Y-94891675D01*
X116375090Y-92983355D01*
X116375088Y-92983352D01*
X116256217Y-92864481D01*
X116256216Y-92864480D01*
X116169404Y-92814360D01*
X116169404Y-92814359D01*
X116169400Y-92814358D01*
X116119285Y-92785423D01*
X115966557Y-92744499D01*
X115808443Y-92744499D01*
X115800847Y-92744499D01*
X115800831Y-92744500D01*
X112060098Y-92744500D01*
X112030657Y-92735855D01*
X112000671Y-92729332D01*
X111995655Y-92725577D01*
X111993059Y-92724815D01*
X111972417Y-92708181D01*
X111959573Y-92695337D01*
X111926088Y-92634014D01*
X111925637Y-92631847D01*
X111925499Y-92631153D01*
X111894737Y-92476503D01*
X111838728Y-92341284D01*
X111834397Y-92330827D01*
X111834390Y-92330814D01*
X111746789Y-92199711D01*
X111746786Y-92199707D01*
X111635292Y-92088213D01*
X111635288Y-92088210D01*
X111504185Y-92000609D01*
X111504172Y-92000602D01*
X111358501Y-91940264D01*
X111358489Y-91940261D01*
X111203845Y-91909500D01*
X111203842Y-91909500D01*
X111046158Y-91909500D01*
X111046155Y-91909500D01*
X110891510Y-91940261D01*
X110891498Y-91940264D01*
X110745827Y-92000602D01*
X110745814Y-92000609D01*
X110614711Y-92088210D01*
X110614707Y-92088213D01*
X110503213Y-92199707D01*
X110503210Y-92199711D01*
X110415609Y-92330814D01*
X110415602Y-92330827D01*
X110355264Y-92476498D01*
X110355261Y-92476510D01*
X110324500Y-92631153D01*
X110324500Y-92788846D01*
X110355261Y-92943489D01*
X110355264Y-92943501D01*
X110415602Y-93089172D01*
X110415609Y-93089185D01*
X110480706Y-93186609D01*
X110501584Y-93253287D01*
X110483099Y-93320667D01*
X110431121Y-93367357D01*
X110377604Y-93379500D01*
X107615097Y-93379500D01*
X107548058Y-93359815D01*
X107527416Y-93343181D01*
X107271416Y-93087181D01*
X107237931Y-93025858D01*
X107242915Y-92956166D01*
X107284787Y-92900233D01*
X107350251Y-92875816D01*
X107359097Y-92875500D01*
X107393844Y-92875500D01*
X107393845Y-92875499D01*
X107548497Y-92844737D01*
X107683436Y-92788844D01*
X107694172Y-92784397D01*
X107694172Y-92784396D01*
X107694179Y-92784394D01*
X107825289Y-92696789D01*
X107936789Y-92585289D01*
X108024394Y-92454179D01*
X108084737Y-92308497D01*
X108115500Y-92153842D01*
X108115500Y-91996158D01*
X108115500Y-91996155D01*
X108115499Y-91996153D01*
X108099072Y-91913570D01*
X108084737Y-91841503D01*
X108084735Y-91841498D01*
X108024397Y-91695827D01*
X108024390Y-91695814D01*
X107936398Y-91564125D01*
X107915520Y-91497447D01*
X107915500Y-91495234D01*
X107915500Y-88821153D01*
X129057000Y-88821153D01*
X129057000Y-88978846D01*
X129087761Y-89133489D01*
X129087764Y-89133501D01*
X129148102Y-89279172D01*
X129148109Y-89279185D01*
X129235710Y-89410288D01*
X129235713Y-89410292D01*
X129347207Y-89521786D01*
X129347211Y-89521789D01*
X129478314Y-89609390D01*
X129478327Y-89609397D01*
X129623998Y-89669735D01*
X129624003Y-89669737D01*
X129688647Y-89682595D01*
X129779349Y-89700638D01*
X129841260Y-89733023D01*
X129842839Y-89734574D01*
X130490681Y-90382416D01*
X130524166Y-90443739D01*
X130527000Y-90470097D01*
X130527000Y-92765234D01*
X130507315Y-92832273D01*
X130506102Y-92834125D01*
X130418109Y-92965814D01*
X130418102Y-92965827D01*
X130357764Y-93111498D01*
X130357761Y-93111510D01*
X130327000Y-93266153D01*
X130327000Y-93423846D01*
X130357761Y-93578489D01*
X130357764Y-93578501D01*
X130418102Y-93724172D01*
X130418109Y-93724185D01*
X130505710Y-93855288D01*
X130505713Y-93855292D01*
X130617207Y-93966786D01*
X130617211Y-93966789D01*
X130748314Y-94054390D01*
X130748327Y-94054397D01*
X130818401Y-94083422D01*
X130894003Y-94114737D01*
X131048653Y-94145499D01*
X131048656Y-94145500D01*
X131048658Y-94145500D01*
X131206344Y-94145500D01*
X131206345Y-94145499D01*
X131360997Y-94114737D01*
X131495931Y-94058846D01*
X131506672Y-94054397D01*
X131506672Y-94054396D01*
X131506679Y-94054394D01*
X131637789Y-93966789D01*
X131749289Y-93855289D01*
X131836894Y-93724179D01*
X131897237Y-93578497D01*
X131928000Y-93423842D01*
X131928000Y-93266158D01*
X131928000Y-93266155D01*
X131927999Y-93266153D01*
X131916881Y-93210261D01*
X131897237Y-93111503D01*
X131841228Y-92976284D01*
X131836897Y-92965827D01*
X131836890Y-92965814D01*
X131748898Y-92834125D01*
X131728020Y-92767447D01*
X131728000Y-92765234D01*
X131728000Y-90090945D01*
X131728000Y-90090943D01*
X131687077Y-89938216D01*
X131687077Y-89938215D01*
X131687077Y-89938214D01*
X131658139Y-89888095D01*
X131658137Y-89888092D01*
X131608020Y-89801284D01*
X131496216Y-89689480D01*
X131496215Y-89689479D01*
X131491885Y-89685149D01*
X131491874Y-89685139D01*
X130692074Y-88885339D01*
X130658589Y-88824016D01*
X130658138Y-88821849D01*
X130627238Y-88666510D01*
X130627237Y-88666503D01*
X130627235Y-88666498D01*
X130566897Y-88520827D01*
X130566890Y-88520814D01*
X130479289Y-88389711D01*
X130479286Y-88389707D01*
X130367792Y-88278213D01*
X130367788Y-88278210D01*
X130236685Y-88190609D01*
X130236672Y-88190602D01*
X130091001Y-88130264D01*
X130090989Y-88130261D01*
X129936345Y-88099500D01*
X129936342Y-88099500D01*
X129778658Y-88099500D01*
X129778655Y-88099500D01*
X129624010Y-88130261D01*
X129623998Y-88130264D01*
X129478327Y-88190602D01*
X129478314Y-88190609D01*
X129347211Y-88278210D01*
X129347207Y-88278213D01*
X129235713Y-88389707D01*
X129235710Y-88389711D01*
X129148109Y-88520814D01*
X129148102Y-88520827D01*
X129087764Y-88666498D01*
X129087761Y-88666510D01*
X129057000Y-88821153D01*
X107915500Y-88821153D01*
X107915500Y-86304765D01*
X107935185Y-86237726D01*
X107936398Y-86235874D01*
X107943490Y-86225261D01*
X108024394Y-86104179D01*
X108084737Y-85958497D01*
X108115500Y-85803842D01*
X108115500Y-85646158D01*
X108115500Y-85646155D01*
X108115499Y-85646153D01*
X117627000Y-85646153D01*
X117627000Y-85803846D01*
X117657761Y-85958489D01*
X117657764Y-85958501D01*
X117718102Y-86104172D01*
X117718109Y-86104185D01*
X117805710Y-86235288D01*
X117805713Y-86235292D01*
X117917207Y-86346786D01*
X117917211Y-86346789D01*
X118048314Y-86434390D01*
X118048327Y-86434397D01*
X118169788Y-86484707D01*
X118194003Y-86494737D01*
X118348653Y-86525499D01*
X118348656Y-86525500D01*
X118348658Y-86525500D01*
X118506344Y-86525500D01*
X118506345Y-86525499D01*
X118660997Y-86494737D01*
X118795936Y-86438844D01*
X118806672Y-86434397D01*
X118806672Y-86434396D01*
X118806679Y-86434394D01*
X118937789Y-86346789D01*
X119049289Y-86235289D01*
X119136894Y-86104179D01*
X119197237Y-85958497D01*
X119218877Y-85849707D01*
X119228138Y-85803150D01*
X119260523Y-85741239D01*
X119262018Y-85739716D01*
X119712162Y-85289572D01*
X119773483Y-85256089D01*
X119775650Y-85255638D01*
X119833585Y-85244113D01*
X119930997Y-85224737D01*
X120076679Y-85164394D01*
X120207789Y-85076789D01*
X120319289Y-84965289D01*
X120406894Y-84834179D01*
X120467237Y-84688497D01*
X120498000Y-84533842D01*
X120498000Y-84376158D01*
X120498000Y-84376155D01*
X120497999Y-84376153D01*
X120467238Y-84221510D01*
X120467238Y-84221508D01*
X120467237Y-84221503D01*
X120457987Y-84199172D01*
X120406897Y-84075827D01*
X120406890Y-84075814D01*
X120319289Y-83944711D01*
X120319286Y-83944707D01*
X120207792Y-83833213D01*
X120207788Y-83833210D01*
X120076685Y-83745609D01*
X120076672Y-83745602D01*
X119931001Y-83685264D01*
X119930989Y-83685261D01*
X119776345Y-83654500D01*
X119776342Y-83654500D01*
X119618658Y-83654500D01*
X119618655Y-83654500D01*
X119464010Y-83685261D01*
X119463998Y-83685264D01*
X119318327Y-83745602D01*
X119318314Y-83745609D01*
X119187211Y-83833210D01*
X119187207Y-83833213D01*
X119075713Y-83944707D01*
X119075710Y-83944711D01*
X118988109Y-84075814D01*
X118988102Y-84075827D01*
X118927764Y-84221498D01*
X118927761Y-84221508D01*
X118896861Y-84376850D01*
X118864476Y-84438761D01*
X118862925Y-84440339D01*
X118412839Y-84890425D01*
X118351516Y-84923910D01*
X118349350Y-84924361D01*
X118194008Y-84955261D01*
X118193998Y-84955264D01*
X118048327Y-85015602D01*
X118048314Y-85015609D01*
X117917211Y-85103210D01*
X117917207Y-85103213D01*
X117805713Y-85214707D01*
X117805710Y-85214711D01*
X117718109Y-85345814D01*
X117718102Y-85345827D01*
X117657764Y-85491498D01*
X117657761Y-85491510D01*
X117627000Y-85646153D01*
X108115499Y-85646153D01*
X108104381Y-85590261D01*
X108084737Y-85491503D01*
X108084735Y-85491498D01*
X108024397Y-85345827D01*
X108024390Y-85345814D01*
X107936789Y-85214711D01*
X107936786Y-85214707D01*
X107825292Y-85103213D01*
X107825288Y-85103210D01*
X107694185Y-85015609D01*
X107694172Y-85015602D01*
X107548501Y-84955264D01*
X107548489Y-84955261D01*
X107393845Y-84924500D01*
X107393842Y-84924500D01*
X107236158Y-84924500D01*
X107236155Y-84924500D01*
X107081510Y-84955261D01*
X107081498Y-84955264D01*
X106935827Y-85015602D01*
X106935814Y-85015609D01*
X106804711Y-85103210D01*
X106804707Y-85103213D01*
X106693213Y-85214707D01*
X106693210Y-85214711D01*
X106605609Y-85345814D01*
X106605602Y-85345827D01*
X106545264Y-85491498D01*
X106545261Y-85491510D01*
X106514500Y-85646153D01*
X106514500Y-85803846D01*
X106545261Y-85958489D01*
X106545264Y-85958501D01*
X106605602Y-86104172D01*
X106605609Y-86104185D01*
X106684595Y-86222395D01*
X106686510Y-86225261D01*
X106693602Y-86235874D01*
X106714480Y-86302551D01*
X106714500Y-86304765D01*
X106714500Y-86705949D01*
X106694815Y-86772988D01*
X106642011Y-86818743D01*
X106607100Y-86828154D01*
X106607132Y-86828311D01*
X106604796Y-86828775D01*
X106602662Y-86829351D01*
X106601158Y-86829499D01*
X106446510Y-86860261D01*
X106446498Y-86860264D01*
X106300827Y-86920602D01*
X106300814Y-86920609D01*
X106169711Y-87008210D01*
X106169707Y-87008213D01*
X106058213Y-87119707D01*
X106058210Y-87119711D01*
X105970609Y-87250814D01*
X105970602Y-87250827D01*
X105910264Y-87396498D01*
X105910261Y-87396508D01*
X105879361Y-87551850D01*
X105846976Y-87613761D01*
X105845425Y-87615339D01*
X103659481Y-89801282D01*
X103659479Y-89801285D01*
X103609361Y-89888094D01*
X103609359Y-89888096D01*
X103580425Y-89938209D01*
X103580424Y-89938210D01*
X103570865Y-89973884D01*
X103539499Y-90090943D01*
X103539499Y-90090945D01*
X103539499Y-90259046D01*
X103539500Y-90259059D01*
X103539500Y-94135903D01*
X103519815Y-94202942D01*
X103467011Y-94248697D01*
X103397853Y-94258641D01*
X103334297Y-94229616D01*
X103327819Y-94223584D01*
X103069574Y-93965339D01*
X103036089Y-93904016D01*
X103035638Y-93901849D01*
X103017595Y-93811147D01*
X103004737Y-93746503D01*
X102948728Y-93611284D01*
X102944397Y-93600827D01*
X102944390Y-93600814D01*
X102856789Y-93469711D01*
X102856786Y-93469707D01*
X102745292Y-93358213D01*
X102745288Y-93358210D01*
X102614185Y-93270609D01*
X102614172Y-93270602D01*
X102468501Y-93210264D01*
X102468489Y-93210261D01*
X102313845Y-93179500D01*
X102313842Y-93179500D01*
X102156158Y-93179500D01*
X102156155Y-93179500D01*
X102001510Y-93210261D01*
X102001498Y-93210264D01*
X101855827Y-93270602D01*
X101855814Y-93270609D01*
X101724711Y-93358210D01*
X101724707Y-93358213D01*
X101613213Y-93469707D01*
X101613210Y-93469711D01*
X101525609Y-93600814D01*
X101525602Y-93600827D01*
X101465264Y-93746498D01*
X101465261Y-93746510D01*
X101434500Y-93901153D01*
X99060000Y-93901153D01*
X99060000Y-86281153D01*
X101434500Y-86281153D01*
X101434500Y-86438846D01*
X101465261Y-86593489D01*
X101465264Y-86593501D01*
X101525602Y-86739172D01*
X101525609Y-86739185D01*
X101604595Y-86857395D01*
X101606510Y-86860261D01*
X101613602Y-86870874D01*
X101634480Y-86937551D01*
X101634500Y-86939765D01*
X101634500Y-90860234D01*
X101614815Y-90927273D01*
X101613602Y-90929125D01*
X101525609Y-91060814D01*
X101525602Y-91060827D01*
X101465264Y-91206498D01*
X101465261Y-91206510D01*
X101434500Y-91361153D01*
X101434500Y-91518846D01*
X101465261Y-91673489D01*
X101465264Y-91673501D01*
X101525602Y-91819172D01*
X101525609Y-91819185D01*
X101613210Y-91950288D01*
X101613213Y-91950292D01*
X101724707Y-92061786D01*
X101724711Y-92061789D01*
X101855814Y-92149390D01*
X101855827Y-92149397D01*
X101977288Y-92199707D01*
X102001503Y-92209737D01*
X102156153Y-92240499D01*
X102156156Y-92240500D01*
X102156158Y-92240500D01*
X102313844Y-92240500D01*
X102313845Y-92240499D01*
X102468497Y-92209737D01*
X102603436Y-92153844D01*
X102614172Y-92149397D01*
X102614172Y-92149396D01*
X102614179Y-92149394D01*
X102745289Y-92061789D01*
X102856789Y-91950289D01*
X102944394Y-91819179D01*
X103004737Y-91673497D01*
X103035500Y-91518842D01*
X103035500Y-91361158D01*
X103035500Y-91361155D01*
X103035499Y-91361153D01*
X103004738Y-91206510D01*
X103004737Y-91206503D01*
X103004735Y-91206498D01*
X102944397Y-91060827D01*
X102944390Y-91060814D01*
X102856398Y-90929125D01*
X102835520Y-90862447D01*
X102835500Y-90860234D01*
X102835500Y-86939765D01*
X102855185Y-86872726D01*
X102856398Y-86870874D01*
X102863490Y-86860261D01*
X102944394Y-86739179D01*
X103004737Y-86593497D01*
X103035500Y-86438842D01*
X103035500Y-86281158D01*
X103035500Y-86281155D01*
X103035499Y-86281153D01*
X103024381Y-86225261D01*
X103004737Y-86126503D01*
X102995487Y-86104172D01*
X102944397Y-85980827D01*
X102944390Y-85980814D01*
X102856789Y-85849711D01*
X102856786Y-85849707D01*
X102745292Y-85738213D01*
X102745288Y-85738210D01*
X102614185Y-85650609D01*
X102614172Y-85650602D01*
X102468501Y-85590264D01*
X102468489Y-85590261D01*
X102313845Y-85559500D01*
X102313842Y-85559500D01*
X102156158Y-85559500D01*
X102156155Y-85559500D01*
X102001510Y-85590261D01*
X102001498Y-85590264D01*
X101855827Y-85650602D01*
X101855814Y-85650609D01*
X101724711Y-85738210D01*
X101724707Y-85738213D01*
X101613213Y-85849707D01*
X101613210Y-85849711D01*
X101525609Y-85980814D01*
X101525602Y-85980827D01*
X101465264Y-86126498D01*
X101465261Y-86126510D01*
X101434500Y-86281153D01*
X99060000Y-86281153D01*
X99060000Y-79931153D01*
X139217000Y-79931153D01*
X139217000Y-80088846D01*
X139247761Y-80243489D01*
X139247764Y-80243501D01*
X139308102Y-80389172D01*
X139308109Y-80389185D01*
X139395710Y-80520288D01*
X139395713Y-80520292D01*
X139507207Y-80631786D01*
X139507211Y-80631789D01*
X139638314Y-80719390D01*
X139638327Y-80719397D01*
X139783998Y-80779735D01*
X139784003Y-80779737D01*
X139938653Y-80810499D01*
X139938656Y-80810500D01*
X139938658Y-80810500D01*
X140096344Y-80810500D01*
X140096345Y-80810499D01*
X140250997Y-80779737D01*
X140396679Y-80719394D01*
X140396685Y-80719390D01*
X140528375Y-80631398D01*
X140595053Y-80610520D01*
X140597266Y-80610500D01*
X141342734Y-80610500D01*
X141409773Y-80630185D01*
X141411625Y-80631398D01*
X141543314Y-80719390D01*
X141543327Y-80719397D01*
X141688998Y-80779735D01*
X141689003Y-80779737D01*
X141843653Y-80810499D01*
X141843656Y-80810500D01*
X141843658Y-80810500D01*
X142001344Y-80810500D01*
X142001345Y-80810499D01*
X142155997Y-80779737D01*
X142301679Y-80719394D01*
X142432789Y-80631789D01*
X142544289Y-80520289D01*
X142631894Y-80389179D01*
X142692237Y-80243497D01*
X142723000Y-80088842D01*
X142723000Y-79931158D01*
X142723000Y-79931155D01*
X142722999Y-79931153D01*
X142692238Y-79776510D01*
X142692237Y-79776503D01*
X142692235Y-79776498D01*
X142631897Y-79630827D01*
X142631890Y-79630814D01*
X142544289Y-79499711D01*
X142544286Y-79499707D01*
X142432792Y-79388213D01*
X142432788Y-79388210D01*
X142301685Y-79300609D01*
X142301672Y-79300602D01*
X142156001Y-79240264D01*
X142155989Y-79240261D01*
X142001345Y-79209500D01*
X142001342Y-79209500D01*
X141843658Y-79209500D01*
X141843655Y-79209500D01*
X141689010Y-79240261D01*
X141688998Y-79240264D01*
X141543327Y-79300602D01*
X141543314Y-79300609D01*
X141411625Y-79388602D01*
X141344947Y-79409480D01*
X141342734Y-79409500D01*
X140597266Y-79409500D01*
X140530227Y-79389815D01*
X140528375Y-79388602D01*
X140396685Y-79300609D01*
X140396672Y-79300602D01*
X140251001Y-79240264D01*
X140250989Y-79240261D01*
X140096345Y-79209500D01*
X140096342Y-79209500D01*
X139938658Y-79209500D01*
X139938655Y-79209500D01*
X139784010Y-79240261D01*
X139783998Y-79240264D01*
X139638327Y-79300602D01*
X139638314Y-79300609D01*
X139507211Y-79388210D01*
X139507207Y-79388213D01*
X139395713Y-79499707D01*
X139395710Y-79499711D01*
X139308109Y-79630814D01*
X139308102Y-79630827D01*
X139247764Y-79776498D01*
X139247761Y-79776510D01*
X139217000Y-79931153D01*
X99060000Y-79931153D01*
X99060000Y-76959000D01*
X99079685Y-76891961D01*
X99132489Y-76846206D01*
X99184000Y-76835000D01*
X144021000Y-76835000D01*
X144088039Y-76854685D01*
G37*
%TD.AperFunction*%
%TD*%
M02*
