M48
; DRILL file {KiCad 9.0.5} date 2025-10-13T22:33:17-0500
; FORMAT={-:-/ absolute / metric / decimal}
; #@! TF.CreationDate,2025-10-13T22:33:17-05:00
; #@! TF.GenerationSoftware,Kicad,Pcbnew,9.0.5
; #@! TF.FileFunction,Plated,1,2,PTH
FMAT,2
METRIC
; #@! TA.AperFunction,Plated,PTH,ViaDrill
T1C0.300
; #@! TA.AperFunction,Plated,PTH,ComponentDrill
T2C1.000
%
G90
G05
T1
X100.965Y-97.155
X100.965Y-102.235
X102.235Y-83.82
X102.235Y-86.36
X102.235Y-91.44
X102.235Y-93.98
X102.235Y-99.06
X102.235Y-107.95
X102.235Y-110.49
X104.14Y-101.6
X106.045Y-89.535
X106.045Y-92.71
X106.045Y-96.52
X106.045Y-97.79
X106.045Y-106.68
X106.045Y-109.22
X106.68Y-87.63
X106.68Y-99.06
X107.315Y-85.725
X107.315Y-92.075
X107.315Y-98.425
X107.315Y-107.95
X110.744Y-96.52
X111.125Y-78.74
X111.125Y-92.71
X113.983Y-110.49
X114.617Y-93.98
X114.617Y-95.25
X114.617Y-99.06
X114.617Y-105.41
X114.617Y-107.95
X117.157Y-89.535
X118.11Y-92.71
X118.269Y-95.726
X118.427Y-85.725
X118.427Y-107.95
X118.427Y-112.395
X119.697Y-84.455
X119.697Y-93.98
X119.697Y-104.14
X123.507Y-105.41
X123.507Y-106.68
X123.787Y-78.705
X124.142Y-96.52
X124.777Y-108.585
X126.047Y-107.95
X126.682Y-92.71
X126.682Y-95.885
X127.317Y-93.98
X127.317Y-110.49
X127.953Y-96.52
X129.222Y-98.425
X129.857Y-88.9
X129.857Y-95.885
X129.857Y-97.155
X129.857Y-99.06
X129.857Y-104.775
X129.857Y-107.315
X131.127Y-83.82
X131.127Y-86.36
X131.127Y-93.345
X131.127Y-99.06
X134.938Y-83.185
X134.938Y-94.615
X134.938Y-96.52
X135.572Y-102.87
X135.572Y-104.14
X135.572Y-109.22
X136.207Y-86.995
X136.207Y-92.075
X136.207Y-98.425
X140.017Y-80.01
X140.017Y-91.44
X141.922Y-80.01
X141.922Y-89.535
T2
X95.25Y-87.63
X95.25Y-90.17
X95.25Y-92.71
X95.25Y-95.25
X95.25Y-97.79
X95.25Y-100.33
M30
