%TF.GenerationSoftware,KiCad,Pcbnew,9.0.5*%
%TF.CreationDate,2025-10-13T22:33:20-05:00*%
%TF.ProjectId,jerry,6a657272-792e-46b6-9963-61645f706362,rev?*%
%TF.SameCoordinates,Original*%
%TF.FileFunction,Legend,Top*%
%TF.FilePolarity,Positive*%
%FSLAX46Y46*%
G04 Gerber Fmt 4.6, Leading zero omitted, Abs format (unit mm)*
G04 Created by KiCad (PCBNEW 9.0.5) date 2025-10-13 22:33:20*
%MOMM*%
%LPD*%
G01*
G04 APERTURE LIST*
%ADD10C,0.150000*%
%ADD11C,0.120000*%
G04 APERTURE END LIST*
D10*
X115117319Y-85851904D02*
X115926842Y-85851904D01*
X115926842Y-85851904D02*
X116022080Y-85804285D01*
X116022080Y-85804285D02*
X116069700Y-85756666D01*
X116069700Y-85756666D02*
X116117319Y-85661428D01*
X116117319Y-85661428D02*
X116117319Y-85470952D01*
X116117319Y-85470952D02*
X116069700Y-85375714D01*
X116069700Y-85375714D02*
X116022080Y-85328095D01*
X116022080Y-85328095D02*
X115926842Y-85280476D01*
X115926842Y-85280476D02*
X115117319Y-85280476D01*
X116117319Y-84280476D02*
X116117319Y-84851904D01*
X116117319Y-84566190D02*
X115117319Y-84566190D01*
X115117319Y-84566190D02*
X115260176Y-84661428D01*
X115260176Y-84661428D02*
X115355414Y-84756666D01*
X115355414Y-84756666D02*
X115403033Y-84851904D01*
X111752142Y-104594819D02*
X111418809Y-104118628D01*
X111180714Y-104594819D02*
X111180714Y-103594819D01*
X111180714Y-103594819D02*
X111561666Y-103594819D01*
X111561666Y-103594819D02*
X111656904Y-103642438D01*
X111656904Y-103642438D02*
X111704523Y-103690057D01*
X111704523Y-103690057D02*
X111752142Y-103785295D01*
X111752142Y-103785295D02*
X111752142Y-103928152D01*
X111752142Y-103928152D02*
X111704523Y-104023390D01*
X111704523Y-104023390D02*
X111656904Y-104071009D01*
X111656904Y-104071009D02*
X111561666Y-104118628D01*
X111561666Y-104118628D02*
X111180714Y-104118628D01*
X112704523Y-104594819D02*
X112133095Y-104594819D01*
X112418809Y-104594819D02*
X112418809Y-103594819D01*
X112418809Y-103594819D02*
X112323571Y-103737676D01*
X112323571Y-103737676D02*
X112228333Y-103832914D01*
X112228333Y-103832914D02*
X112133095Y-103880533D01*
X113656904Y-104594819D02*
X113085476Y-104594819D01*
X113371190Y-104594819D02*
X113371190Y-103594819D01*
X113371190Y-103594819D02*
X113275952Y-103737676D01*
X113275952Y-103737676D02*
X113180714Y-103832914D01*
X113180714Y-103832914D02*
X113085476Y-103880533D01*
X97493333Y-95704819D02*
X97160000Y-95228628D01*
X96921905Y-95704819D02*
X96921905Y-94704819D01*
X96921905Y-94704819D02*
X97302857Y-94704819D01*
X97302857Y-94704819D02*
X97398095Y-94752438D01*
X97398095Y-94752438D02*
X97445714Y-94800057D01*
X97445714Y-94800057D02*
X97493333Y-94895295D01*
X97493333Y-94895295D02*
X97493333Y-95038152D01*
X97493333Y-95038152D02*
X97445714Y-95133390D01*
X97445714Y-95133390D02*
X97398095Y-95181009D01*
X97398095Y-95181009D02*
X97302857Y-95228628D01*
X97302857Y-95228628D02*
X96921905Y-95228628D01*
X97826667Y-94704819D02*
X98493333Y-94704819D01*
X98493333Y-94704819D02*
X98064762Y-95704819D01*
X118235595Y-100854819D02*
X118235595Y-101664342D01*
X118235595Y-101664342D02*
X118283214Y-101759580D01*
X118283214Y-101759580D02*
X118330833Y-101807200D01*
X118330833Y-101807200D02*
X118426071Y-101854819D01*
X118426071Y-101854819D02*
X118616547Y-101854819D01*
X118616547Y-101854819D02*
X118711785Y-101807200D01*
X118711785Y-101807200D02*
X118759404Y-101759580D01*
X118759404Y-101759580D02*
X118807023Y-101664342D01*
X118807023Y-101664342D02*
X118807023Y-100854819D01*
X119759404Y-100854819D02*
X119283214Y-100854819D01*
X119283214Y-100854819D02*
X119235595Y-101331009D01*
X119235595Y-101331009D02*
X119283214Y-101283390D01*
X119283214Y-101283390D02*
X119378452Y-101235771D01*
X119378452Y-101235771D02*
X119616547Y-101235771D01*
X119616547Y-101235771D02*
X119711785Y-101283390D01*
X119711785Y-101283390D02*
X119759404Y-101331009D01*
X119759404Y-101331009D02*
X119807023Y-101426247D01*
X119807023Y-101426247D02*
X119807023Y-101664342D01*
X119807023Y-101664342D02*
X119759404Y-101759580D01*
X119759404Y-101759580D02*
X119711785Y-101807200D01*
X119711785Y-101807200D02*
X119616547Y-101854819D01*
X119616547Y-101854819D02*
X119378452Y-101854819D01*
X119378452Y-101854819D02*
X119283214Y-101807200D01*
X119283214Y-101807200D02*
X119235595Y-101759580D01*
X142377319Y-98568094D02*
X141377319Y-98568094D01*
X141377319Y-98568094D02*
X141377319Y-98329999D01*
X141377319Y-98329999D02*
X141424938Y-98187142D01*
X141424938Y-98187142D02*
X141520176Y-98091904D01*
X141520176Y-98091904D02*
X141615414Y-98044285D01*
X141615414Y-98044285D02*
X141805890Y-97996666D01*
X141805890Y-97996666D02*
X141948747Y-97996666D01*
X141948747Y-97996666D02*
X142139223Y-98044285D01*
X142139223Y-98044285D02*
X142234461Y-98091904D01*
X142234461Y-98091904D02*
X142329700Y-98187142D01*
X142329700Y-98187142D02*
X142377319Y-98329999D01*
X142377319Y-98329999D02*
X142377319Y-98568094D01*
X141377319Y-97663332D02*
X141377319Y-97044285D01*
X141377319Y-97044285D02*
X141758271Y-97377618D01*
X141758271Y-97377618D02*
X141758271Y-97234761D01*
X141758271Y-97234761D02*
X141805890Y-97139523D01*
X141805890Y-97139523D02*
X141853509Y-97091904D01*
X141853509Y-97091904D02*
X141948747Y-97044285D01*
X141948747Y-97044285D02*
X142186842Y-97044285D01*
X142186842Y-97044285D02*
X142282080Y-97091904D01*
X142282080Y-97091904D02*
X142329700Y-97139523D01*
X142329700Y-97139523D02*
X142377319Y-97234761D01*
X142377319Y-97234761D02*
X142377319Y-97520475D01*
X142377319Y-97520475D02*
X142329700Y-97615713D01*
X142329700Y-97615713D02*
X142282080Y-97663332D01*
X126907319Y-98928094D02*
X125907319Y-98928094D01*
X125907319Y-98928094D02*
X125907319Y-98689999D01*
X125907319Y-98689999D02*
X125954938Y-98547142D01*
X125954938Y-98547142D02*
X126050176Y-98451904D01*
X126050176Y-98451904D02*
X126145414Y-98404285D01*
X126145414Y-98404285D02*
X126335890Y-98356666D01*
X126335890Y-98356666D02*
X126478747Y-98356666D01*
X126478747Y-98356666D02*
X126669223Y-98404285D01*
X126669223Y-98404285D02*
X126764461Y-98451904D01*
X126764461Y-98451904D02*
X126859700Y-98547142D01*
X126859700Y-98547142D02*
X126907319Y-98689999D01*
X126907319Y-98689999D02*
X126907319Y-98928094D01*
X126002557Y-97975713D02*
X125954938Y-97928094D01*
X125954938Y-97928094D02*
X125907319Y-97832856D01*
X125907319Y-97832856D02*
X125907319Y-97594761D01*
X125907319Y-97594761D02*
X125954938Y-97499523D01*
X125954938Y-97499523D02*
X126002557Y-97451904D01*
X126002557Y-97451904D02*
X126097795Y-97404285D01*
X126097795Y-97404285D02*
X126193033Y-97404285D01*
X126193033Y-97404285D02*
X126335890Y-97451904D01*
X126335890Y-97451904D02*
X126907319Y-98023332D01*
X126907319Y-98023332D02*
X126907319Y-97404285D01*
X94916666Y-102324819D02*
X94916666Y-103039104D01*
X94916666Y-103039104D02*
X94869047Y-103181961D01*
X94869047Y-103181961D02*
X94773809Y-103277200D01*
X94773809Y-103277200D02*
X94630952Y-103324819D01*
X94630952Y-103324819D02*
X94535714Y-103324819D01*
X95916666Y-103324819D02*
X95345238Y-103324819D01*
X95630952Y-103324819D02*
X95630952Y-102324819D01*
X95630952Y-102324819D02*
X95535714Y-102467676D01*
X95535714Y-102467676D02*
X95440476Y-102562914D01*
X95440476Y-102562914D02*
X95345238Y-102610533D01*
X114125833Y-79929819D02*
X113792500Y-79453628D01*
X113554405Y-79929819D02*
X113554405Y-78929819D01*
X113554405Y-78929819D02*
X113935357Y-78929819D01*
X113935357Y-78929819D02*
X114030595Y-78977438D01*
X114030595Y-78977438D02*
X114078214Y-79025057D01*
X114078214Y-79025057D02*
X114125833Y-79120295D01*
X114125833Y-79120295D02*
X114125833Y-79263152D01*
X114125833Y-79263152D02*
X114078214Y-79358390D01*
X114078214Y-79358390D02*
X114030595Y-79406009D01*
X114030595Y-79406009D02*
X113935357Y-79453628D01*
X113935357Y-79453628D02*
X113554405Y-79453628D01*
X114506786Y-79025057D02*
X114554405Y-78977438D01*
X114554405Y-78977438D02*
X114649643Y-78929819D01*
X114649643Y-78929819D02*
X114887738Y-78929819D01*
X114887738Y-78929819D02*
X114982976Y-78977438D01*
X114982976Y-78977438D02*
X115030595Y-79025057D01*
X115030595Y-79025057D02*
X115078214Y-79120295D01*
X115078214Y-79120295D02*
X115078214Y-79215533D01*
X115078214Y-79215533D02*
X115030595Y-79358390D01*
X115030595Y-79358390D02*
X114459167Y-79929819D01*
X114459167Y-79929819D02*
X115078214Y-79929819D01*
X124800833Y-112214819D02*
X124467500Y-111738628D01*
X124229405Y-112214819D02*
X124229405Y-111214819D01*
X124229405Y-111214819D02*
X124610357Y-111214819D01*
X124610357Y-111214819D02*
X124705595Y-111262438D01*
X124705595Y-111262438D02*
X124753214Y-111310057D01*
X124753214Y-111310057D02*
X124800833Y-111405295D01*
X124800833Y-111405295D02*
X124800833Y-111548152D01*
X124800833Y-111548152D02*
X124753214Y-111643390D01*
X124753214Y-111643390D02*
X124705595Y-111691009D01*
X124705595Y-111691009D02*
X124610357Y-111738628D01*
X124610357Y-111738628D02*
X124229405Y-111738628D01*
X125705595Y-111214819D02*
X125229405Y-111214819D01*
X125229405Y-111214819D02*
X125181786Y-111691009D01*
X125181786Y-111691009D02*
X125229405Y-111643390D01*
X125229405Y-111643390D02*
X125324643Y-111595771D01*
X125324643Y-111595771D02*
X125562738Y-111595771D01*
X125562738Y-111595771D02*
X125657976Y-111643390D01*
X125657976Y-111643390D02*
X125705595Y-111691009D01*
X125705595Y-111691009D02*
X125753214Y-111786247D01*
X125753214Y-111786247D02*
X125753214Y-112024342D01*
X125753214Y-112024342D02*
X125705595Y-112119580D01*
X125705595Y-112119580D02*
X125657976Y-112167200D01*
X125657976Y-112167200D02*
X125562738Y-112214819D01*
X125562738Y-112214819D02*
X125324643Y-112214819D01*
X125324643Y-112214819D02*
X125229405Y-112167200D01*
X125229405Y-112167200D02*
X125181786Y-112119580D01*
X124800833Y-105864819D02*
X124467500Y-105388628D01*
X124229405Y-105864819D02*
X124229405Y-104864819D01*
X124229405Y-104864819D02*
X124610357Y-104864819D01*
X124610357Y-104864819D02*
X124705595Y-104912438D01*
X124705595Y-104912438D02*
X124753214Y-104960057D01*
X124753214Y-104960057D02*
X124800833Y-105055295D01*
X124800833Y-105055295D02*
X124800833Y-105198152D01*
X124800833Y-105198152D02*
X124753214Y-105293390D01*
X124753214Y-105293390D02*
X124705595Y-105341009D01*
X124705595Y-105341009D02*
X124610357Y-105388628D01*
X124610357Y-105388628D02*
X124229405Y-105388628D01*
X125657976Y-105198152D02*
X125657976Y-105864819D01*
X125419881Y-104817200D02*
X125181786Y-105531485D01*
X125181786Y-105531485D02*
X125800833Y-105531485D01*
X134745595Y-76724819D02*
X134745595Y-77534342D01*
X134745595Y-77534342D02*
X134793214Y-77629580D01*
X134793214Y-77629580D02*
X134840833Y-77677200D01*
X134840833Y-77677200D02*
X134936071Y-77724819D01*
X134936071Y-77724819D02*
X135126547Y-77724819D01*
X135126547Y-77724819D02*
X135221785Y-77677200D01*
X135221785Y-77677200D02*
X135269404Y-77629580D01*
X135269404Y-77629580D02*
X135317023Y-77534342D01*
X135317023Y-77534342D02*
X135317023Y-76724819D01*
X135697976Y-76724819D02*
X136364642Y-76724819D01*
X136364642Y-76724819D02*
X135936071Y-77724819D01*
X118235595Y-89424819D02*
X118235595Y-90234342D01*
X118235595Y-90234342D02*
X118283214Y-90329580D01*
X118283214Y-90329580D02*
X118330833Y-90377200D01*
X118330833Y-90377200D02*
X118426071Y-90424819D01*
X118426071Y-90424819D02*
X118616547Y-90424819D01*
X118616547Y-90424819D02*
X118711785Y-90377200D01*
X118711785Y-90377200D02*
X118759404Y-90329580D01*
X118759404Y-90329580D02*
X118807023Y-90234342D01*
X118807023Y-90234342D02*
X118807023Y-89424819D01*
X119235595Y-89520057D02*
X119283214Y-89472438D01*
X119283214Y-89472438D02*
X119378452Y-89424819D01*
X119378452Y-89424819D02*
X119616547Y-89424819D01*
X119616547Y-89424819D02*
X119711785Y-89472438D01*
X119711785Y-89472438D02*
X119759404Y-89520057D01*
X119759404Y-89520057D02*
X119807023Y-89615295D01*
X119807023Y-89615295D02*
X119807023Y-89710533D01*
X119807023Y-89710533D02*
X119759404Y-89853390D01*
X119759404Y-89853390D02*
X119187976Y-90424819D01*
X119187976Y-90424819D02*
X119807023Y-90424819D01*
X125245833Y-77829580D02*
X125198214Y-77877200D01*
X125198214Y-77877200D02*
X125055357Y-77924819D01*
X125055357Y-77924819D02*
X124960119Y-77924819D01*
X124960119Y-77924819D02*
X124817262Y-77877200D01*
X124817262Y-77877200D02*
X124722024Y-77781961D01*
X124722024Y-77781961D02*
X124674405Y-77686723D01*
X124674405Y-77686723D02*
X124626786Y-77496247D01*
X124626786Y-77496247D02*
X124626786Y-77353390D01*
X124626786Y-77353390D02*
X124674405Y-77162914D01*
X124674405Y-77162914D02*
X124722024Y-77067676D01*
X124722024Y-77067676D02*
X124817262Y-76972438D01*
X124817262Y-76972438D02*
X124960119Y-76924819D01*
X124960119Y-76924819D02*
X125055357Y-76924819D01*
X125055357Y-76924819D02*
X125198214Y-76972438D01*
X125198214Y-76972438D02*
X125245833Y-77020057D01*
X125626786Y-77020057D02*
X125674405Y-76972438D01*
X125674405Y-76972438D02*
X125769643Y-76924819D01*
X125769643Y-76924819D02*
X126007738Y-76924819D01*
X126007738Y-76924819D02*
X126102976Y-76972438D01*
X126102976Y-76972438D02*
X126150595Y-77020057D01*
X126150595Y-77020057D02*
X126198214Y-77115295D01*
X126198214Y-77115295D02*
X126198214Y-77210533D01*
X126198214Y-77210533D02*
X126150595Y-77353390D01*
X126150595Y-77353390D02*
X125579167Y-77924819D01*
X125579167Y-77924819D02*
X126198214Y-77924819D01*
X112863333Y-93799819D02*
X112530000Y-93323628D01*
X112291905Y-93799819D02*
X112291905Y-92799819D01*
X112291905Y-92799819D02*
X112672857Y-92799819D01*
X112672857Y-92799819D02*
X112768095Y-92847438D01*
X112768095Y-92847438D02*
X112815714Y-92895057D01*
X112815714Y-92895057D02*
X112863333Y-92990295D01*
X112863333Y-92990295D02*
X112863333Y-93133152D01*
X112863333Y-93133152D02*
X112815714Y-93228390D01*
X112815714Y-93228390D02*
X112768095Y-93276009D01*
X112768095Y-93276009D02*
X112672857Y-93323628D01*
X112672857Y-93323628D02*
X112291905Y-93323628D01*
X113339524Y-93799819D02*
X113530000Y-93799819D01*
X113530000Y-93799819D02*
X113625238Y-93752200D01*
X113625238Y-93752200D02*
X113672857Y-93704580D01*
X113672857Y-93704580D02*
X113768095Y-93561723D01*
X113768095Y-93561723D02*
X113815714Y-93371247D01*
X113815714Y-93371247D02*
X113815714Y-92990295D01*
X113815714Y-92990295D02*
X113768095Y-92895057D01*
X113768095Y-92895057D02*
X113720476Y-92847438D01*
X113720476Y-92847438D02*
X113625238Y-92799819D01*
X113625238Y-92799819D02*
X113434762Y-92799819D01*
X113434762Y-92799819D02*
X113339524Y-92847438D01*
X113339524Y-92847438D02*
X113291905Y-92895057D01*
X113291905Y-92895057D02*
X113244286Y-92990295D01*
X113244286Y-92990295D02*
X113244286Y-93228390D01*
X113244286Y-93228390D02*
X113291905Y-93323628D01*
X113291905Y-93323628D02*
X113339524Y-93371247D01*
X113339524Y-93371247D02*
X113434762Y-93418866D01*
X113434762Y-93418866D02*
X113625238Y-93418866D01*
X113625238Y-93418866D02*
X113720476Y-93371247D01*
X113720476Y-93371247D02*
X113768095Y-93323628D01*
X113768095Y-93323628D02*
X113815714Y-93228390D01*
X112863333Y-98244819D02*
X112530000Y-97768628D01*
X112291905Y-98244819D02*
X112291905Y-97244819D01*
X112291905Y-97244819D02*
X112672857Y-97244819D01*
X112672857Y-97244819D02*
X112768095Y-97292438D01*
X112768095Y-97292438D02*
X112815714Y-97340057D01*
X112815714Y-97340057D02*
X112863333Y-97435295D01*
X112863333Y-97435295D02*
X112863333Y-97578152D01*
X112863333Y-97578152D02*
X112815714Y-97673390D01*
X112815714Y-97673390D02*
X112768095Y-97721009D01*
X112768095Y-97721009D02*
X112672857Y-97768628D01*
X112672857Y-97768628D02*
X112291905Y-97768628D01*
X113434762Y-97673390D02*
X113339524Y-97625771D01*
X113339524Y-97625771D02*
X113291905Y-97578152D01*
X113291905Y-97578152D02*
X113244286Y-97482914D01*
X113244286Y-97482914D02*
X113244286Y-97435295D01*
X113244286Y-97435295D02*
X113291905Y-97340057D01*
X113291905Y-97340057D02*
X113339524Y-97292438D01*
X113339524Y-97292438D02*
X113434762Y-97244819D01*
X113434762Y-97244819D02*
X113625238Y-97244819D01*
X113625238Y-97244819D02*
X113720476Y-97292438D01*
X113720476Y-97292438D02*
X113768095Y-97340057D01*
X113768095Y-97340057D02*
X113815714Y-97435295D01*
X113815714Y-97435295D02*
X113815714Y-97482914D01*
X113815714Y-97482914D02*
X113768095Y-97578152D01*
X113768095Y-97578152D02*
X113720476Y-97625771D01*
X113720476Y-97625771D02*
X113625238Y-97673390D01*
X113625238Y-97673390D02*
X113434762Y-97673390D01*
X113434762Y-97673390D02*
X113339524Y-97721009D01*
X113339524Y-97721009D02*
X113291905Y-97768628D01*
X113291905Y-97768628D02*
X113244286Y-97863866D01*
X113244286Y-97863866D02*
X113244286Y-98054342D01*
X113244286Y-98054342D02*
X113291905Y-98149580D01*
X113291905Y-98149580D02*
X113339524Y-98197200D01*
X113339524Y-98197200D02*
X113434762Y-98244819D01*
X113434762Y-98244819D02*
X113625238Y-98244819D01*
X113625238Y-98244819D02*
X113720476Y-98197200D01*
X113720476Y-98197200D02*
X113768095Y-98149580D01*
X113768095Y-98149580D02*
X113815714Y-98054342D01*
X113815714Y-98054342D02*
X113815714Y-97863866D01*
X113815714Y-97863866D02*
X113768095Y-97768628D01*
X113768095Y-97768628D02*
X113720476Y-97721009D01*
X113720476Y-97721009D02*
X113625238Y-97673390D01*
X105988095Y-76924819D02*
X105988095Y-77734342D01*
X105988095Y-77734342D02*
X106035714Y-77829580D01*
X106035714Y-77829580D02*
X106083333Y-77877200D01*
X106083333Y-77877200D02*
X106178571Y-77924819D01*
X106178571Y-77924819D02*
X106369047Y-77924819D01*
X106369047Y-77924819D02*
X106464285Y-77877200D01*
X106464285Y-77877200D02*
X106511904Y-77829580D01*
X106511904Y-77829580D02*
X106559523Y-77734342D01*
X106559523Y-77734342D02*
X106559523Y-76924819D01*
X106940476Y-76924819D02*
X107559523Y-76924819D01*
X107559523Y-76924819D02*
X107226190Y-77305771D01*
X107226190Y-77305771D02*
X107369047Y-77305771D01*
X107369047Y-77305771D02*
X107464285Y-77353390D01*
X107464285Y-77353390D02*
X107511904Y-77401009D01*
X107511904Y-77401009D02*
X107559523Y-77496247D01*
X107559523Y-77496247D02*
X107559523Y-77734342D01*
X107559523Y-77734342D02*
X107511904Y-77829580D01*
X107511904Y-77829580D02*
X107464285Y-77877200D01*
X107464285Y-77877200D02*
X107369047Y-77924819D01*
X107369047Y-77924819D02*
X107083333Y-77924819D01*
X107083333Y-77924819D02*
X106988095Y-77877200D01*
X106988095Y-77877200D02*
X106940476Y-77829580D01*
X134269405Y-100854819D02*
X134269405Y-101664342D01*
X134269405Y-101664342D02*
X134317024Y-101759580D01*
X134317024Y-101759580D02*
X134364643Y-101807200D01*
X134364643Y-101807200D02*
X134459881Y-101854819D01*
X134459881Y-101854819D02*
X134650357Y-101854819D01*
X134650357Y-101854819D02*
X134745595Y-101807200D01*
X134745595Y-101807200D02*
X134793214Y-101759580D01*
X134793214Y-101759580D02*
X134840833Y-101664342D01*
X134840833Y-101664342D02*
X134840833Y-100854819D01*
X135840833Y-101854819D02*
X135269405Y-101854819D01*
X135555119Y-101854819D02*
X135555119Y-100854819D01*
X135555119Y-100854819D02*
X135459881Y-100997676D01*
X135459881Y-100997676D02*
X135364643Y-101092914D01*
X135364643Y-101092914D02*
X135269405Y-101140533D01*
X136459881Y-100854819D02*
X136555119Y-100854819D01*
X136555119Y-100854819D02*
X136650357Y-100902438D01*
X136650357Y-100902438D02*
X136697976Y-100950057D01*
X136697976Y-100950057D02*
X136745595Y-101045295D01*
X136745595Y-101045295D02*
X136793214Y-101235771D01*
X136793214Y-101235771D02*
X136793214Y-101473866D01*
X136793214Y-101473866D02*
X136745595Y-101664342D01*
X136745595Y-101664342D02*
X136697976Y-101759580D01*
X136697976Y-101759580D02*
X136650357Y-101807200D01*
X136650357Y-101807200D02*
X136555119Y-101854819D01*
X136555119Y-101854819D02*
X136459881Y-101854819D01*
X136459881Y-101854819D02*
X136364643Y-101807200D01*
X136364643Y-101807200D02*
X136317024Y-101759580D01*
X136317024Y-101759580D02*
X136269405Y-101664342D01*
X136269405Y-101664342D02*
X136221786Y-101473866D01*
X136221786Y-101473866D02*
X136221786Y-101235771D01*
X136221786Y-101235771D02*
X136269405Y-101045295D01*
X136269405Y-101045295D02*
X136317024Y-100950057D01*
X136317024Y-100950057D02*
X136364643Y-100902438D01*
X136364643Y-100902438D02*
X136459881Y-100854819D01*
X118882319Y-78271666D02*
X118406128Y-78604999D01*
X118882319Y-78843094D02*
X117882319Y-78843094D01*
X117882319Y-78843094D02*
X117882319Y-78462142D01*
X117882319Y-78462142D02*
X117929938Y-78366904D01*
X117929938Y-78366904D02*
X117977557Y-78319285D01*
X117977557Y-78319285D02*
X118072795Y-78271666D01*
X118072795Y-78271666D02*
X118215652Y-78271666D01*
X118215652Y-78271666D02*
X118310890Y-78319285D01*
X118310890Y-78319285D02*
X118358509Y-78366904D01*
X118358509Y-78366904D02*
X118406128Y-78462142D01*
X118406128Y-78462142D02*
X118406128Y-78843094D01*
X118882319Y-77319285D02*
X118882319Y-77890713D01*
X118882319Y-77604999D02*
X117882319Y-77604999D01*
X117882319Y-77604999D02*
X118025176Y-77700237D01*
X118025176Y-77700237D02*
X118120414Y-77795475D01*
X118120414Y-77795475D02*
X118168033Y-77890713D01*
X124324642Y-95704819D02*
X123991309Y-95228628D01*
X123753214Y-95704819D02*
X123753214Y-94704819D01*
X123753214Y-94704819D02*
X124134166Y-94704819D01*
X124134166Y-94704819D02*
X124229404Y-94752438D01*
X124229404Y-94752438D02*
X124277023Y-94800057D01*
X124277023Y-94800057D02*
X124324642Y-94895295D01*
X124324642Y-94895295D02*
X124324642Y-95038152D01*
X124324642Y-95038152D02*
X124277023Y-95133390D01*
X124277023Y-95133390D02*
X124229404Y-95181009D01*
X124229404Y-95181009D02*
X124134166Y-95228628D01*
X124134166Y-95228628D02*
X123753214Y-95228628D01*
X125277023Y-95704819D02*
X124705595Y-95704819D01*
X124991309Y-95704819D02*
X124991309Y-94704819D01*
X124991309Y-94704819D02*
X124896071Y-94847676D01*
X124896071Y-94847676D02*
X124800833Y-94942914D01*
X124800833Y-94942914D02*
X124705595Y-94990533D01*
X126134166Y-94704819D02*
X125943690Y-94704819D01*
X125943690Y-94704819D02*
X125848452Y-94752438D01*
X125848452Y-94752438D02*
X125800833Y-94800057D01*
X125800833Y-94800057D02*
X125705595Y-94942914D01*
X125705595Y-94942914D02*
X125657976Y-95133390D01*
X125657976Y-95133390D02*
X125657976Y-95514342D01*
X125657976Y-95514342D02*
X125705595Y-95609580D01*
X125705595Y-95609580D02*
X125753214Y-95657200D01*
X125753214Y-95657200D02*
X125848452Y-95704819D01*
X125848452Y-95704819D02*
X126038928Y-95704819D01*
X126038928Y-95704819D02*
X126134166Y-95657200D01*
X126134166Y-95657200D02*
X126181785Y-95609580D01*
X126181785Y-95609580D02*
X126229404Y-95514342D01*
X126229404Y-95514342D02*
X126229404Y-95276247D01*
X126229404Y-95276247D02*
X126181785Y-95181009D01*
X126181785Y-95181009D02*
X126134166Y-95133390D01*
X126134166Y-95133390D02*
X126038928Y-95085771D01*
X126038928Y-95085771D02*
X125848452Y-95085771D01*
X125848452Y-95085771D02*
X125753214Y-95133390D01*
X125753214Y-95133390D02*
X125705595Y-95181009D01*
X125705595Y-95181009D02*
X125657976Y-95276247D01*
X105918095Y-89624819D02*
X105918095Y-90434342D01*
X105918095Y-90434342D02*
X105965714Y-90529580D01*
X105965714Y-90529580D02*
X106013333Y-90577200D01*
X106013333Y-90577200D02*
X106108571Y-90624819D01*
X106108571Y-90624819D02*
X106299047Y-90624819D01*
X106299047Y-90624819D02*
X106394285Y-90577200D01*
X106394285Y-90577200D02*
X106441904Y-90529580D01*
X106441904Y-90529580D02*
X106489523Y-90434342D01*
X106489523Y-90434342D02*
X106489523Y-89624819D01*
X107394285Y-89958152D02*
X107394285Y-90624819D01*
X107156190Y-89577200D02*
X106918095Y-90291485D01*
X106918095Y-90291485D02*
X107537142Y-90291485D01*
X105918095Y-101054819D02*
X105918095Y-101864342D01*
X105918095Y-101864342D02*
X105965714Y-101959580D01*
X105965714Y-101959580D02*
X106013333Y-102007200D01*
X106013333Y-102007200D02*
X106108571Y-102054819D01*
X106108571Y-102054819D02*
X106299047Y-102054819D01*
X106299047Y-102054819D02*
X106394285Y-102007200D01*
X106394285Y-102007200D02*
X106441904Y-101959580D01*
X106441904Y-101959580D02*
X106489523Y-101864342D01*
X106489523Y-101864342D02*
X106489523Y-101054819D01*
X107013333Y-102054819D02*
X107203809Y-102054819D01*
X107203809Y-102054819D02*
X107299047Y-102007200D01*
X107299047Y-102007200D02*
X107346666Y-101959580D01*
X107346666Y-101959580D02*
X107441904Y-101816723D01*
X107441904Y-101816723D02*
X107489523Y-101626247D01*
X107489523Y-101626247D02*
X107489523Y-101245295D01*
X107489523Y-101245295D02*
X107441904Y-101150057D01*
X107441904Y-101150057D02*
X107394285Y-101102438D01*
X107394285Y-101102438D02*
X107299047Y-101054819D01*
X107299047Y-101054819D02*
X107108571Y-101054819D01*
X107108571Y-101054819D02*
X107013333Y-101102438D01*
X107013333Y-101102438D02*
X106965714Y-101150057D01*
X106965714Y-101150057D02*
X106918095Y-101245295D01*
X106918095Y-101245295D02*
X106918095Y-101483390D01*
X106918095Y-101483390D02*
X106965714Y-101578628D01*
X106965714Y-101578628D02*
X107013333Y-101626247D01*
X107013333Y-101626247D02*
X107108571Y-101673866D01*
X107108571Y-101673866D02*
X107299047Y-101673866D01*
X107299047Y-101673866D02*
X107394285Y-101626247D01*
X107394285Y-101626247D02*
X107441904Y-101578628D01*
X107441904Y-101578628D02*
X107489523Y-101483390D01*
X134745595Y-89424819D02*
X134745595Y-90234342D01*
X134745595Y-90234342D02*
X134793214Y-90329580D01*
X134793214Y-90329580D02*
X134840833Y-90377200D01*
X134840833Y-90377200D02*
X134936071Y-90424819D01*
X134936071Y-90424819D02*
X135126547Y-90424819D01*
X135126547Y-90424819D02*
X135221785Y-90377200D01*
X135221785Y-90377200D02*
X135269404Y-90329580D01*
X135269404Y-90329580D02*
X135317023Y-90234342D01*
X135317023Y-90234342D02*
X135317023Y-89424819D01*
X136221785Y-89424819D02*
X136031309Y-89424819D01*
X136031309Y-89424819D02*
X135936071Y-89472438D01*
X135936071Y-89472438D02*
X135888452Y-89520057D01*
X135888452Y-89520057D02*
X135793214Y-89662914D01*
X135793214Y-89662914D02*
X135745595Y-89853390D01*
X135745595Y-89853390D02*
X135745595Y-90234342D01*
X135745595Y-90234342D02*
X135793214Y-90329580D01*
X135793214Y-90329580D02*
X135840833Y-90377200D01*
X135840833Y-90377200D02*
X135936071Y-90424819D01*
X135936071Y-90424819D02*
X136126547Y-90424819D01*
X136126547Y-90424819D02*
X136221785Y-90377200D01*
X136221785Y-90377200D02*
X136269404Y-90329580D01*
X136269404Y-90329580D02*
X136317023Y-90234342D01*
X136317023Y-90234342D02*
X136317023Y-89996247D01*
X136317023Y-89996247D02*
X136269404Y-89901009D01*
X136269404Y-89901009D02*
X136221785Y-89853390D01*
X136221785Y-89853390D02*
X136126547Y-89805771D01*
X136126547Y-89805771D02*
X135936071Y-89805771D01*
X135936071Y-89805771D02*
X135840833Y-89853390D01*
X135840833Y-89853390D02*
X135793214Y-89901009D01*
X135793214Y-89901009D02*
X135745595Y-89996247D01*
X97493333Y-93799819D02*
X97160000Y-93323628D01*
X96921905Y-93799819D02*
X96921905Y-92799819D01*
X96921905Y-92799819D02*
X97302857Y-92799819D01*
X97302857Y-92799819D02*
X97398095Y-92847438D01*
X97398095Y-92847438D02*
X97445714Y-92895057D01*
X97445714Y-92895057D02*
X97493333Y-92990295D01*
X97493333Y-92990295D02*
X97493333Y-93133152D01*
X97493333Y-93133152D02*
X97445714Y-93228390D01*
X97445714Y-93228390D02*
X97398095Y-93276009D01*
X97398095Y-93276009D02*
X97302857Y-93323628D01*
X97302857Y-93323628D02*
X96921905Y-93323628D01*
X98350476Y-92799819D02*
X98160000Y-92799819D01*
X98160000Y-92799819D02*
X98064762Y-92847438D01*
X98064762Y-92847438D02*
X98017143Y-92895057D01*
X98017143Y-92895057D02*
X97921905Y-93037914D01*
X97921905Y-93037914D02*
X97874286Y-93228390D01*
X97874286Y-93228390D02*
X97874286Y-93609342D01*
X97874286Y-93609342D02*
X97921905Y-93704580D01*
X97921905Y-93704580D02*
X97969524Y-93752200D01*
X97969524Y-93752200D02*
X98064762Y-93799819D01*
X98064762Y-93799819D02*
X98255238Y-93799819D01*
X98255238Y-93799819D02*
X98350476Y-93752200D01*
X98350476Y-93752200D02*
X98398095Y-93704580D01*
X98398095Y-93704580D02*
X98445714Y-93609342D01*
X98445714Y-93609342D02*
X98445714Y-93371247D01*
X98445714Y-93371247D02*
X98398095Y-93276009D01*
X98398095Y-93276009D02*
X98350476Y-93228390D01*
X98350476Y-93228390D02*
X98255238Y-93180771D01*
X98255238Y-93180771D02*
X98064762Y-93180771D01*
X98064762Y-93180771D02*
X97969524Y-93228390D01*
X97969524Y-93228390D02*
X97921905Y-93276009D01*
X97921905Y-93276009D02*
X97874286Y-93371247D01*
X111752142Y-102054819D02*
X111418809Y-101578628D01*
X111180714Y-102054819D02*
X111180714Y-101054819D01*
X111180714Y-101054819D02*
X111561666Y-101054819D01*
X111561666Y-101054819D02*
X111656904Y-101102438D01*
X111656904Y-101102438D02*
X111704523Y-101150057D01*
X111704523Y-101150057D02*
X111752142Y-101245295D01*
X111752142Y-101245295D02*
X111752142Y-101388152D01*
X111752142Y-101388152D02*
X111704523Y-101483390D01*
X111704523Y-101483390D02*
X111656904Y-101531009D01*
X111656904Y-101531009D02*
X111561666Y-101578628D01*
X111561666Y-101578628D02*
X111180714Y-101578628D01*
X112704523Y-102054819D02*
X112133095Y-102054819D01*
X112418809Y-102054819D02*
X112418809Y-101054819D01*
X112418809Y-101054819D02*
X112323571Y-101197676D01*
X112323571Y-101197676D02*
X112228333Y-101292914D01*
X112228333Y-101292914D02*
X112133095Y-101340533D01*
X113323571Y-101054819D02*
X113418809Y-101054819D01*
X113418809Y-101054819D02*
X113514047Y-101102438D01*
X113514047Y-101102438D02*
X113561666Y-101150057D01*
X113561666Y-101150057D02*
X113609285Y-101245295D01*
X113609285Y-101245295D02*
X113656904Y-101435771D01*
X113656904Y-101435771D02*
X113656904Y-101673866D01*
X113656904Y-101673866D02*
X113609285Y-101864342D01*
X113609285Y-101864342D02*
X113561666Y-101959580D01*
X113561666Y-101959580D02*
X113514047Y-102007200D01*
X113514047Y-102007200D02*
X113418809Y-102054819D01*
X113418809Y-102054819D02*
X113323571Y-102054819D01*
X113323571Y-102054819D02*
X113228333Y-102007200D01*
X113228333Y-102007200D02*
X113180714Y-101959580D01*
X113180714Y-101959580D02*
X113133095Y-101864342D01*
X113133095Y-101864342D02*
X113085476Y-101673866D01*
X113085476Y-101673866D02*
X113085476Y-101435771D01*
X113085476Y-101435771D02*
X113133095Y-101245295D01*
X113133095Y-101245295D02*
X113180714Y-101150057D01*
X113180714Y-101150057D02*
X113228333Y-101102438D01*
X113228333Y-101102438D02*
X113323571Y-101054819D01*
X129907319Y-104608094D02*
X128907319Y-104608094D01*
X128907319Y-104608094D02*
X128907319Y-104369999D01*
X128907319Y-104369999D02*
X128954938Y-104227142D01*
X128954938Y-104227142D02*
X129050176Y-104131904D01*
X129050176Y-104131904D02*
X129145414Y-104084285D01*
X129145414Y-104084285D02*
X129335890Y-104036666D01*
X129335890Y-104036666D02*
X129478747Y-104036666D01*
X129478747Y-104036666D02*
X129669223Y-104084285D01*
X129669223Y-104084285D02*
X129764461Y-104131904D01*
X129764461Y-104131904D02*
X129859700Y-104227142D01*
X129859700Y-104227142D02*
X129907319Y-104369999D01*
X129907319Y-104369999D02*
X129907319Y-104608094D01*
X129907319Y-103084285D02*
X129907319Y-103655713D01*
X129907319Y-103369999D02*
X128907319Y-103369999D01*
X128907319Y-103369999D02*
X129050176Y-103465237D01*
X129050176Y-103465237D02*
X129145414Y-103560475D01*
X129145414Y-103560475D02*
X129193033Y-103655713D01*
X125245833Y-80369580D02*
X125198214Y-80417200D01*
X125198214Y-80417200D02*
X125055357Y-80464819D01*
X125055357Y-80464819D02*
X124960119Y-80464819D01*
X124960119Y-80464819D02*
X124817262Y-80417200D01*
X124817262Y-80417200D02*
X124722024Y-80321961D01*
X124722024Y-80321961D02*
X124674405Y-80226723D01*
X124674405Y-80226723D02*
X124626786Y-80036247D01*
X124626786Y-80036247D02*
X124626786Y-79893390D01*
X124626786Y-79893390D02*
X124674405Y-79702914D01*
X124674405Y-79702914D02*
X124722024Y-79607676D01*
X124722024Y-79607676D02*
X124817262Y-79512438D01*
X124817262Y-79512438D02*
X124960119Y-79464819D01*
X124960119Y-79464819D02*
X125055357Y-79464819D01*
X125055357Y-79464819D02*
X125198214Y-79512438D01*
X125198214Y-79512438D02*
X125245833Y-79560057D01*
X126198214Y-80464819D02*
X125626786Y-80464819D01*
X125912500Y-80464819D02*
X125912500Y-79464819D01*
X125912500Y-79464819D02*
X125817262Y-79607676D01*
X125817262Y-79607676D02*
X125722024Y-79702914D01*
X125722024Y-79702914D02*
X125626786Y-79750533D01*
X111752142Y-107134819D02*
X111418809Y-106658628D01*
X111180714Y-107134819D02*
X111180714Y-106134819D01*
X111180714Y-106134819D02*
X111561666Y-106134819D01*
X111561666Y-106134819D02*
X111656904Y-106182438D01*
X111656904Y-106182438D02*
X111704523Y-106230057D01*
X111704523Y-106230057D02*
X111752142Y-106325295D01*
X111752142Y-106325295D02*
X111752142Y-106468152D01*
X111752142Y-106468152D02*
X111704523Y-106563390D01*
X111704523Y-106563390D02*
X111656904Y-106611009D01*
X111656904Y-106611009D02*
X111561666Y-106658628D01*
X111561666Y-106658628D02*
X111180714Y-106658628D01*
X112704523Y-107134819D02*
X112133095Y-107134819D01*
X112418809Y-107134819D02*
X112418809Y-106134819D01*
X112418809Y-106134819D02*
X112323571Y-106277676D01*
X112323571Y-106277676D02*
X112228333Y-106372914D01*
X112228333Y-106372914D02*
X112133095Y-106420533D01*
X113085476Y-106230057D02*
X113133095Y-106182438D01*
X113133095Y-106182438D02*
X113228333Y-106134819D01*
X113228333Y-106134819D02*
X113466428Y-106134819D01*
X113466428Y-106134819D02*
X113561666Y-106182438D01*
X113561666Y-106182438D02*
X113609285Y-106230057D01*
X113609285Y-106230057D02*
X113656904Y-106325295D01*
X113656904Y-106325295D02*
X113656904Y-106420533D01*
X113656904Y-106420533D02*
X113609285Y-106563390D01*
X113609285Y-106563390D02*
X113037857Y-107134819D01*
X113037857Y-107134819D02*
X113656904Y-107134819D01*
D11*
%TO.C,U1*%
X116502500Y-83030000D02*
X116597500Y-83030000D01*
X116502500Y-87150000D02*
X116502500Y-83030000D01*
X116597500Y-87150000D02*
X116502500Y-87150000D01*
X121527500Y-83030000D02*
X121622500Y-83030000D01*
X121622500Y-83030000D02*
X121622500Y-87150000D01*
X121622500Y-87150000D02*
X121527500Y-87150000D01*
X116592500Y-87690000D02*
X116262500Y-87930000D01*
X116262500Y-87450000D01*
X116592500Y-87690000D01*
G36*
X116592500Y-87690000D02*
G01*
X116262500Y-87930000D01*
X116262500Y-87450000D01*
X116592500Y-87690000D01*
G37*
%TO.C,R11*%
X112285242Y-104887500D02*
X112759758Y-104887500D01*
X112285242Y-105932500D02*
X112759758Y-105932500D01*
%TO.C,R7*%
X100407742Y-94727500D02*
X100882258Y-94727500D01*
X100407742Y-95772500D02*
X100882258Y-95772500D01*
%TO.C,U5*%
X116937500Y-102245000D02*
X121057500Y-102245000D01*
X116937500Y-102310000D02*
X116937500Y-102245000D01*
X116937500Y-111115000D02*
X116937500Y-111050000D01*
X121057500Y-102245000D02*
X121057500Y-102310000D01*
X121057500Y-111050000D02*
X121057500Y-111115000D01*
X121057500Y-111115000D02*
X116937500Y-111115000D01*
X116397500Y-102310000D02*
X116157500Y-101980000D01*
X116637500Y-101980000D01*
X116397500Y-102310000D01*
G36*
X116397500Y-102310000D02*
G01*
X116157500Y-101980000D01*
X116637500Y-101980000D01*
X116397500Y-102310000D01*
G37*
%TO.C,D3*%
X141322500Y-101730000D02*
X141322500Y-99770000D01*
X142522500Y-99770000D02*
X141322500Y-99770000D01*
X142522500Y-101730000D02*
X142522500Y-99770000D01*
%TO.C,D2*%
X127352500Y-99190000D02*
X127352500Y-97230000D01*
X128552500Y-97230000D02*
X127352500Y-97230000D01*
X128552500Y-99190000D02*
X128552500Y-97230000D01*
%TO.C,J1*%
X93870000Y-86250000D02*
X95250000Y-86250000D01*
X93870000Y-87630000D02*
X93870000Y-86250000D01*
X93870000Y-88900000D02*
X93870000Y-101710000D01*
X93870000Y-88900000D02*
X96630000Y-88900000D01*
X93870000Y-101710000D02*
X96630000Y-101710000D01*
X96630000Y-88900000D02*
X96630000Y-101710000D01*
%TO.C,R2*%
X117204758Y-79452500D02*
X116730242Y-79452500D01*
X117204758Y-80497500D02*
X116730242Y-80497500D01*
%TO.C,R5*%
X125204758Y-109967500D02*
X124730242Y-109967500D01*
X125204758Y-111012500D02*
X124730242Y-111012500D01*
%TO.C,R4*%
X125204758Y-103617500D02*
X124730242Y-103617500D01*
X125204758Y-104662500D02*
X124730242Y-104662500D01*
%TO.C,U7*%
X133447500Y-78115000D02*
X137567500Y-78115000D01*
X133447500Y-78180000D02*
X133447500Y-78115000D01*
X133447500Y-86985000D02*
X133447500Y-86920000D01*
X137567500Y-78115000D02*
X137567500Y-78180000D01*
X137567500Y-86920000D02*
X137567500Y-86985000D01*
X137567500Y-86985000D02*
X133447500Y-86985000D01*
X132907500Y-78180000D02*
X132667500Y-77850000D01*
X133147500Y-77850000D01*
X132907500Y-78180000D01*
G36*
X132907500Y-78180000D02*
G01*
X132667500Y-77850000D01*
X133147500Y-77850000D01*
X132907500Y-78180000D01*
G37*
%TO.C,U2*%
X116937500Y-90815000D02*
X121057500Y-90815000D01*
X116937500Y-90880000D02*
X116937500Y-90815000D01*
X116937500Y-99685000D02*
X116937500Y-99620000D01*
X121057500Y-90815000D02*
X121057500Y-90880000D01*
X121057500Y-99620000D02*
X121057500Y-99685000D01*
X121057500Y-99685000D02*
X116937500Y-99685000D01*
X116397500Y-90880000D02*
X116157500Y-90550000D01*
X116637500Y-90550000D01*
X116397500Y-90880000D01*
G36*
X116397500Y-90880000D02*
G01*
X116157500Y-90550000D01*
X116637500Y-90550000D01*
X116397500Y-90880000D01*
G37*
%TO.C,C2*%
X122871920Y-76925000D02*
X123153080Y-76925000D01*
X122871920Y-77945000D02*
X123153080Y-77945000D01*
%TO.C,R9*%
X112822258Y-94092500D02*
X112347742Y-94092500D01*
X112822258Y-95137500D02*
X112347742Y-95137500D01*
%TO.C,R8*%
X112822258Y-95997500D02*
X112347742Y-95997500D01*
X112822258Y-97042500D02*
X112347742Y-97042500D01*
%TO.C,U3*%
X104655000Y-78125000D02*
X108775000Y-78125000D01*
X104655000Y-78180000D02*
X104655000Y-78125000D01*
X104655000Y-88245000D02*
X104655000Y-88190000D01*
X108775000Y-78125000D02*
X108775000Y-78180000D01*
X108775000Y-88190000D02*
X108775000Y-88245000D01*
X108775000Y-88245000D02*
X104655000Y-88245000D01*
X109555000Y-88525000D02*
X109075000Y-88525000D01*
X109315000Y-88195000D01*
X109555000Y-88525000D01*
G36*
X109555000Y-88525000D02*
G01*
X109075000Y-88525000D01*
X109315000Y-88195000D01*
X109555000Y-88525000D01*
G37*
%TO.C,U10*%
X133447500Y-102245000D02*
X137567500Y-102245000D01*
X133447500Y-102310000D02*
X133447500Y-102245000D01*
X133447500Y-111115000D02*
X133447500Y-111050000D01*
X137567500Y-102245000D02*
X137567500Y-102310000D01*
X137567500Y-111050000D02*
X137567500Y-111115000D01*
X137567500Y-111115000D02*
X133447500Y-111115000D01*
X132907500Y-102310000D02*
X132667500Y-101980000D01*
X133147500Y-101980000D01*
X132907500Y-102310000D01*
G36*
X132907500Y-102310000D02*
G01*
X132667500Y-101980000D01*
X133147500Y-101980000D01*
X132907500Y-102310000D01*
G37*
%TO.C,R1*%
X119175000Y-79387258D02*
X119175000Y-78912742D01*
X120220000Y-79387258D02*
X120220000Y-78912742D01*
%TO.C,R16*%
X124730242Y-93457500D02*
X125204758Y-93457500D01*
X124730242Y-94502500D02*
X125204758Y-94502500D01*
%TO.C,U4*%
X104685000Y-90815000D02*
X108805000Y-90815000D01*
X104685000Y-90880000D02*
X104685000Y-90815000D01*
X104685000Y-99685000D02*
X104685000Y-99620000D01*
X108805000Y-90815000D02*
X108805000Y-90880000D01*
X108805000Y-99620000D02*
X108805000Y-99685000D01*
X108805000Y-99685000D02*
X104685000Y-99685000D01*
X104145000Y-90880000D02*
X103905000Y-90550000D01*
X104385000Y-90550000D01*
X104145000Y-90880000D01*
G36*
X104145000Y-90880000D02*
G01*
X103905000Y-90550000D01*
X104385000Y-90550000D01*
X104145000Y-90880000D01*
G37*
%TO.C,U9*%
X104555000Y-102245000D02*
X108675000Y-102245000D01*
X104555000Y-102310000D02*
X104555000Y-102245000D01*
X104555000Y-111115000D02*
X104555000Y-111050000D01*
X108675000Y-102245000D02*
X108675000Y-102310000D01*
X108675000Y-111050000D02*
X108675000Y-111115000D01*
X108675000Y-111115000D02*
X104555000Y-111115000D01*
X104015000Y-102310000D02*
X103775000Y-101980000D01*
X104255000Y-101980000D01*
X104015000Y-102310000D01*
G36*
X104015000Y-102310000D02*
G01*
X103775000Y-101980000D01*
X104255000Y-101980000D01*
X104015000Y-102310000D01*
G37*
%TO.C,U6*%
X133447500Y-90815000D02*
X137567500Y-90815000D01*
X133447500Y-90880000D02*
X133447500Y-90815000D01*
X133447500Y-99685000D02*
X133447500Y-99620000D01*
X137567500Y-90815000D02*
X137567500Y-90880000D01*
X137567500Y-99620000D02*
X137567500Y-99685000D01*
X137567500Y-99685000D02*
X133447500Y-99685000D01*
X132907500Y-90880000D02*
X132667500Y-90550000D01*
X133147500Y-90550000D01*
X132907500Y-90880000D01*
G36*
X132907500Y-90880000D02*
G01*
X132667500Y-90550000D01*
X133147500Y-90550000D01*
X132907500Y-90880000D01*
G37*
%TO.C,R6*%
X100407742Y-92822500D02*
X100882258Y-92822500D01*
X100407742Y-93867500D02*
X100882258Y-93867500D01*
%TO.C,R10*%
X112759758Y-102347500D02*
X112285242Y-102347500D01*
X112759758Y-103392500D02*
X112285242Y-103392500D01*
%TO.C,D1*%
X127352500Y-102870000D02*
X127352500Y-104830000D01*
X127352500Y-104830000D02*
X128552500Y-104830000D01*
X128552500Y-102870000D02*
X128552500Y-104830000D01*
%TO.C,C1*%
X123153080Y-79465000D02*
X122871920Y-79465000D01*
X123153080Y-80485000D02*
X122871920Y-80485000D01*
%TO.C,R12*%
X112285242Y-107427500D02*
X112759758Y-107427500D01*
X112285242Y-108472500D02*
X112759758Y-108472500D01*
%TD*%
M02*
