%TF.GenerationSoftware,KiCad,Pcbnew,9.0.5*%
%TF.CreationDate,2025-10-13T22:33:20-05:00*%
%TF.ProjectId,jerry,6a657272-792e-46b6-9963-61645f706362,rev?*%
%TF.SameCoordinates,Original*%
%TF.FileFunction,Legend,Bot*%
%TF.FilePolarity,Positive*%
%FSLAX46Y46*%
G04 Gerber Fmt 4.6, Leading zero omitted, Abs format (unit mm)*
G04 Created by KiCad (PCBNEW 9.0.5) date 2025-10-13 22:33:20*
%MOMM*%
%LPD*%
G01*
G04 APERTURE LIST*
%ADD10C,0.150000*%
%ADD11C,0.120000*%
G04 APERTURE END LIST*
D10*
X140254166Y-104409580D02*
X140301785Y-104457200D01*
X140301785Y-104457200D02*
X140444642Y-104504819D01*
X140444642Y-104504819D02*
X140539880Y-104504819D01*
X140539880Y-104504819D02*
X140682737Y-104457200D01*
X140682737Y-104457200D02*
X140777975Y-104361961D01*
X140777975Y-104361961D02*
X140825594Y-104266723D01*
X140825594Y-104266723D02*
X140873213Y-104076247D01*
X140873213Y-104076247D02*
X140873213Y-103933390D01*
X140873213Y-103933390D02*
X140825594Y-103742914D01*
X140825594Y-103742914D02*
X140777975Y-103647676D01*
X140777975Y-103647676D02*
X140682737Y-103552438D01*
X140682737Y-103552438D02*
X140539880Y-103504819D01*
X140539880Y-103504819D02*
X140444642Y-103504819D01*
X140444642Y-103504819D02*
X140301785Y-103552438D01*
X140301785Y-103552438D02*
X140254166Y-103600057D01*
X139920832Y-103504819D02*
X139301785Y-103504819D01*
X139301785Y-103504819D02*
X139635118Y-103885771D01*
X139635118Y-103885771D02*
X139492261Y-103885771D01*
X139492261Y-103885771D02*
X139397023Y-103933390D01*
X139397023Y-103933390D02*
X139349404Y-103981009D01*
X139349404Y-103981009D02*
X139301785Y-104076247D01*
X139301785Y-104076247D02*
X139301785Y-104314342D01*
X139301785Y-104314342D02*
X139349404Y-104409580D01*
X139349404Y-104409580D02*
X139397023Y-104457200D01*
X139397023Y-104457200D02*
X139492261Y-104504819D01*
X139492261Y-104504819D02*
X139777975Y-104504819D01*
X139777975Y-104504819D02*
X139873213Y-104457200D01*
X139873213Y-104457200D02*
X139920832Y-104409580D01*
X133122319Y-102108095D02*
X133931842Y-102108095D01*
X133931842Y-102108095D02*
X134027080Y-102155714D01*
X134027080Y-102155714D02*
X134074700Y-102203333D01*
X134074700Y-102203333D02*
X134122319Y-102298571D01*
X134122319Y-102298571D02*
X134122319Y-102489047D01*
X134122319Y-102489047D02*
X134074700Y-102584285D01*
X134074700Y-102584285D02*
X134027080Y-102631904D01*
X134027080Y-102631904D02*
X133931842Y-102679523D01*
X133931842Y-102679523D02*
X133122319Y-102679523D01*
X133550890Y-103298571D02*
X133503271Y-103203333D01*
X133503271Y-103203333D02*
X133455652Y-103155714D01*
X133455652Y-103155714D02*
X133360414Y-103108095D01*
X133360414Y-103108095D02*
X133312795Y-103108095D01*
X133312795Y-103108095D02*
X133217557Y-103155714D01*
X133217557Y-103155714D02*
X133169938Y-103203333D01*
X133169938Y-103203333D02*
X133122319Y-103298571D01*
X133122319Y-103298571D02*
X133122319Y-103489047D01*
X133122319Y-103489047D02*
X133169938Y-103584285D01*
X133169938Y-103584285D02*
X133217557Y-103631904D01*
X133217557Y-103631904D02*
X133312795Y-103679523D01*
X133312795Y-103679523D02*
X133360414Y-103679523D01*
X133360414Y-103679523D02*
X133455652Y-103631904D01*
X133455652Y-103631904D02*
X133503271Y-103584285D01*
X133503271Y-103584285D02*
X133550890Y-103489047D01*
X133550890Y-103489047D02*
X133550890Y-103298571D01*
X133550890Y-103298571D02*
X133598509Y-103203333D01*
X133598509Y-103203333D02*
X133646128Y-103155714D01*
X133646128Y-103155714D02*
X133741366Y-103108095D01*
X133741366Y-103108095D02*
X133931842Y-103108095D01*
X133931842Y-103108095D02*
X134027080Y-103155714D01*
X134027080Y-103155714D02*
X134074700Y-103203333D01*
X134074700Y-103203333D02*
X134122319Y-103298571D01*
X134122319Y-103298571D02*
X134122319Y-103489047D01*
X134122319Y-103489047D02*
X134074700Y-103584285D01*
X134074700Y-103584285D02*
X134027080Y-103631904D01*
X134027080Y-103631904D02*
X133931842Y-103679523D01*
X133931842Y-103679523D02*
X133741366Y-103679523D01*
X133741366Y-103679523D02*
X133646128Y-103631904D01*
X133646128Y-103631904D02*
X133598509Y-103584285D01*
X133598509Y-103584285D02*
X133550890Y-103489047D01*
X134120357Y-109834819D02*
X134453690Y-109358628D01*
X134691785Y-109834819D02*
X134691785Y-108834819D01*
X134691785Y-108834819D02*
X134310833Y-108834819D01*
X134310833Y-108834819D02*
X134215595Y-108882438D01*
X134215595Y-108882438D02*
X134167976Y-108930057D01*
X134167976Y-108930057D02*
X134120357Y-109025295D01*
X134120357Y-109025295D02*
X134120357Y-109168152D01*
X134120357Y-109168152D02*
X134167976Y-109263390D01*
X134167976Y-109263390D02*
X134215595Y-109311009D01*
X134215595Y-109311009D02*
X134310833Y-109358628D01*
X134310833Y-109358628D02*
X134691785Y-109358628D01*
X133167976Y-109834819D02*
X133739404Y-109834819D01*
X133453690Y-109834819D02*
X133453690Y-108834819D01*
X133453690Y-108834819D02*
X133548928Y-108977676D01*
X133548928Y-108977676D02*
X133644166Y-109072914D01*
X133644166Y-109072914D02*
X133739404Y-109120533D01*
X132263214Y-108834819D02*
X132739404Y-108834819D01*
X132739404Y-108834819D02*
X132787023Y-109311009D01*
X132787023Y-109311009D02*
X132739404Y-109263390D01*
X132739404Y-109263390D02*
X132644166Y-109215771D01*
X132644166Y-109215771D02*
X132406071Y-109215771D01*
X132406071Y-109215771D02*
X132310833Y-109263390D01*
X132310833Y-109263390D02*
X132263214Y-109311009D01*
X132263214Y-109311009D02*
X132215595Y-109406247D01*
X132215595Y-109406247D02*
X132215595Y-109644342D01*
X132215595Y-109644342D02*
X132263214Y-109739580D01*
X132263214Y-109739580D02*
X132310833Y-109787200D01*
X132310833Y-109787200D02*
X132406071Y-109834819D01*
X132406071Y-109834819D02*
X132644166Y-109834819D01*
X132644166Y-109834819D02*
X132739404Y-109787200D01*
X132739404Y-109787200D02*
X132787023Y-109739580D01*
X140324166Y-99259580D02*
X140371785Y-99307200D01*
X140371785Y-99307200D02*
X140514642Y-99354819D01*
X140514642Y-99354819D02*
X140609880Y-99354819D01*
X140609880Y-99354819D02*
X140752737Y-99307200D01*
X140752737Y-99307200D02*
X140847975Y-99211961D01*
X140847975Y-99211961D02*
X140895594Y-99116723D01*
X140895594Y-99116723D02*
X140943213Y-98926247D01*
X140943213Y-98926247D02*
X140943213Y-98783390D01*
X140943213Y-98783390D02*
X140895594Y-98592914D01*
X140895594Y-98592914D02*
X140847975Y-98497676D01*
X140847975Y-98497676D02*
X140752737Y-98402438D01*
X140752737Y-98402438D02*
X140609880Y-98354819D01*
X140609880Y-98354819D02*
X140514642Y-98354819D01*
X140514642Y-98354819D02*
X140371785Y-98402438D01*
X140371785Y-98402438D02*
X140324166Y-98450057D01*
X139467023Y-98688152D02*
X139467023Y-99354819D01*
X139705118Y-98307200D02*
X139943213Y-99021485D01*
X139943213Y-99021485D02*
X139324166Y-99021485D01*
X130947319Y-104767142D02*
X130471128Y-104433809D01*
X130947319Y-104195714D02*
X129947319Y-104195714D01*
X129947319Y-104195714D02*
X129947319Y-104576666D01*
X129947319Y-104576666D02*
X129994938Y-104671904D01*
X129994938Y-104671904D02*
X130042557Y-104719523D01*
X130042557Y-104719523D02*
X130137795Y-104767142D01*
X130137795Y-104767142D02*
X130280652Y-104767142D01*
X130280652Y-104767142D02*
X130375890Y-104719523D01*
X130375890Y-104719523D02*
X130423509Y-104671904D01*
X130423509Y-104671904D02*
X130471128Y-104576666D01*
X130471128Y-104576666D02*
X130471128Y-104195714D01*
X130947319Y-105719523D02*
X130947319Y-105148095D01*
X130947319Y-105433809D02*
X129947319Y-105433809D01*
X129947319Y-105433809D02*
X130090176Y-105338571D01*
X130090176Y-105338571D02*
X130185414Y-105243333D01*
X130185414Y-105243333D02*
X130233033Y-105148095D01*
X129947319Y-106052857D02*
X129947319Y-106671904D01*
X129947319Y-106671904D02*
X130328271Y-106338571D01*
X130328271Y-106338571D02*
X130328271Y-106481428D01*
X130328271Y-106481428D02*
X130375890Y-106576666D01*
X130375890Y-106576666D02*
X130423509Y-106624285D01*
X130423509Y-106624285D02*
X130518747Y-106671904D01*
X130518747Y-106671904D02*
X130756842Y-106671904D01*
X130756842Y-106671904D02*
X130852080Y-106624285D01*
X130852080Y-106624285D02*
X130899700Y-106576666D01*
X130899700Y-106576666D02*
X130947319Y-106481428D01*
X130947319Y-106481428D02*
X130947319Y-106195714D01*
X130947319Y-106195714D02*
X130899700Y-106100476D01*
X130899700Y-106100476D02*
X130852080Y-106052857D01*
D11*
%TO.C,C3*%
X140228080Y-104970000D02*
X139946920Y-104970000D01*
X140228080Y-105990000D02*
X139946920Y-105990000D01*
%TO.C,U8*%
X132377500Y-100845000D02*
X132377500Y-104965000D01*
X132377500Y-104965000D02*
X132472500Y-104965000D01*
X132472500Y-100845000D02*
X132377500Y-100845000D01*
X137402500Y-104965000D02*
X137497500Y-104965000D01*
X137497500Y-100845000D02*
X137402500Y-100845000D01*
X137497500Y-104965000D02*
X137497500Y-100845000D01*
X132467500Y-100305000D02*
X132137500Y-100545000D01*
X132137500Y-100065000D01*
X132467500Y-100305000D01*
G36*
X132467500Y-100305000D02*
G01*
X132137500Y-100545000D01*
X132137500Y-100065000D01*
X132467500Y-100305000D01*
G37*
%TO.C,R15*%
X133240242Y-107427500D02*
X133714758Y-107427500D01*
X133240242Y-108472500D02*
X133714758Y-108472500D01*
%TO.C,C4*%
X140298080Y-99820000D02*
X140016920Y-99820000D01*
X140298080Y-100840000D02*
X140016920Y-100840000D01*
%TO.C,R13*%
X129970000Y-102662258D02*
X129970000Y-102187742D01*
X131015000Y-102662258D02*
X131015000Y-102187742D01*
%TD*%
M02*
