M48
; DRILL file {KiCad 9.0.5} date 2025-10-13T21:35:43-0500
; FORMAT={-:-/ absolute / metric / decimal}
; #@! TF.CreationDate,2025-10-13T21:35:43-05:00
; #@! TF.GenerationSoftware,Kicad,Pcbnew,9.0.5
; #@! TF.FileFunction,Plated,1,2,PTH
FMAT,2
METRIC
; #@! TA.AperFunction,Plated,PTH,ViaDrill
T1C0.300
; #@! TA.AperFunction,Plated,PTH,ComponentDrill
T2C1.000
%
G90
G05
T1
X100.965Y-97.155
X100.965Y-102.235
X102.235Y-83.82
X102.235Y-86.36
X102.235Y-91.44
X102.235Y-93.98
X102.235Y-99.06
X102.235Y-107.95
X102.235Y-110.49
X104.14Y-101.6
X106.045Y-89.535
X106.045Y-92.71
X106.045Y-96.52
X106.045Y-97.79
X106.045Y-106.68
X106.045Y-109.22
X106.68Y-87.63
X106.68Y-99.06
X107.315Y-85.725
X107.315Y-92.075
X107.315Y-98.425
X107.315Y-107.95
X110.744Y-96.52
X111.125Y-78.74
X111.125Y-92.71
X118.11Y-110.49
X118.745Y-92.71
X118.745Y-93.98
X118.745Y-95.25
X118.745Y-99.06
X118.745Y-105.41
X118.745Y-107.95
X121.285Y-89.535
X122.555Y-85.725
X122.555Y-107.95
X122.555Y-112.395
X123.19Y-96.52
X123.825Y-84.455
X123.825Y-93.98
X123.825Y-104.14
X127.635Y-105.41
X127.635Y-106.68
X127.915Y-78.705
X128.27Y-96.52
X128.905Y-108.585
X130.175Y-107.95
X130.81Y-92.71
X130.81Y-95.885
X131.445Y-93.98
X131.445Y-110.49
X132.08Y-96.52
X133.35Y-98.425
X133.985Y-88.9
X133.985Y-95.885
X133.985Y-97.155
X133.985Y-104.775
X133.985Y-107.315
X134.62Y-99.695
X135.255Y-83.82
X135.255Y-86.36
X135.255Y-93.345
X135.255Y-99.06
X139.065Y-83.185
X139.065Y-94.615
X139.065Y-96.52
X139.7Y-102.87
X139.7Y-104.14
X139.7Y-109.22
X140.335Y-86.995
X140.335Y-92.075
X140.335Y-98.425
X144.145Y-80.01
X144.145Y-91.44
X146.05Y-80.01
X146.05Y-89.535
T2
X95.25Y-87.63
X95.25Y-90.17
X95.25Y-92.71
X95.25Y-95.25
X95.25Y-97.79
X95.25Y-100.33
M30
