%TF.GenerationSoftware,KiCad,Pcbnew,9.0.5*%
%TF.CreationDate,2025-10-13T21:35:55-05:00*%
%TF.ProjectId,jerry,6a657272-792e-46b6-9963-61645f706362,rev?*%
%TF.SameCoordinates,Original*%
%TF.FileFunction,Legend,Top*%
%TF.FilePolarity,Positive*%
%FSLAX46Y46*%
G04 Gerber Fmt 4.6, Leading zero omitted, Abs format (unit mm)*
G04 Created by KiCad (PCBNEW 9.0.5) date 2025-10-13 21:35:55*
%MOMM*%
%LPD*%
G01*
G04 APERTURE LIST*
%ADD10C,0.150000*%
%ADD11C,0.120000*%
G04 APERTURE END LIST*
D10*
X105918095Y-89624819D02*
X105918095Y-90434342D01*
X105918095Y-90434342D02*
X105965714Y-90529580D01*
X105965714Y-90529580D02*
X106013333Y-90577200D01*
X106013333Y-90577200D02*
X106108571Y-90624819D01*
X106108571Y-90624819D02*
X106299047Y-90624819D01*
X106299047Y-90624819D02*
X106394285Y-90577200D01*
X106394285Y-90577200D02*
X106441904Y-90529580D01*
X106441904Y-90529580D02*
X106489523Y-90434342D01*
X106489523Y-90434342D02*
X106489523Y-89624819D01*
X107394285Y-89958152D02*
X107394285Y-90624819D01*
X107156190Y-89577200D02*
X106918095Y-90291485D01*
X106918095Y-90291485D02*
X107537142Y-90291485D01*
X119244819Y-85851904D02*
X120054342Y-85851904D01*
X120054342Y-85851904D02*
X120149580Y-85804285D01*
X120149580Y-85804285D02*
X120197200Y-85756666D01*
X120197200Y-85756666D02*
X120244819Y-85661428D01*
X120244819Y-85661428D02*
X120244819Y-85470952D01*
X120244819Y-85470952D02*
X120197200Y-85375714D01*
X120197200Y-85375714D02*
X120149580Y-85328095D01*
X120149580Y-85328095D02*
X120054342Y-85280476D01*
X120054342Y-85280476D02*
X119244819Y-85280476D01*
X120244819Y-84280476D02*
X120244819Y-84851904D01*
X120244819Y-84566190D02*
X119244819Y-84566190D01*
X119244819Y-84566190D02*
X119387676Y-84661428D01*
X119387676Y-84661428D02*
X119482914Y-84756666D01*
X119482914Y-84756666D02*
X119530533Y-84851904D01*
X113022142Y-105864819D02*
X112688809Y-105388628D01*
X112450714Y-105864819D02*
X112450714Y-104864819D01*
X112450714Y-104864819D02*
X112831666Y-104864819D01*
X112831666Y-104864819D02*
X112926904Y-104912438D01*
X112926904Y-104912438D02*
X112974523Y-104960057D01*
X112974523Y-104960057D02*
X113022142Y-105055295D01*
X113022142Y-105055295D02*
X113022142Y-105198152D01*
X113022142Y-105198152D02*
X112974523Y-105293390D01*
X112974523Y-105293390D02*
X112926904Y-105341009D01*
X112926904Y-105341009D02*
X112831666Y-105388628D01*
X112831666Y-105388628D02*
X112450714Y-105388628D01*
X113974523Y-105864819D02*
X113403095Y-105864819D01*
X113688809Y-105864819D02*
X113688809Y-104864819D01*
X113688809Y-104864819D02*
X113593571Y-105007676D01*
X113593571Y-105007676D02*
X113498333Y-105102914D01*
X113498333Y-105102914D02*
X113403095Y-105150533D01*
X114926904Y-105864819D02*
X114355476Y-105864819D01*
X114641190Y-105864819D02*
X114641190Y-104864819D01*
X114641190Y-104864819D02*
X114545952Y-105007676D01*
X114545952Y-105007676D02*
X114450714Y-105102914D01*
X114450714Y-105102914D02*
X114355476Y-105150533D01*
X97493333Y-95704819D02*
X97160000Y-95228628D01*
X96921905Y-95704819D02*
X96921905Y-94704819D01*
X96921905Y-94704819D02*
X97302857Y-94704819D01*
X97302857Y-94704819D02*
X97398095Y-94752438D01*
X97398095Y-94752438D02*
X97445714Y-94800057D01*
X97445714Y-94800057D02*
X97493333Y-94895295D01*
X97493333Y-94895295D02*
X97493333Y-95038152D01*
X97493333Y-95038152D02*
X97445714Y-95133390D01*
X97445714Y-95133390D02*
X97398095Y-95181009D01*
X97398095Y-95181009D02*
X97302857Y-95228628D01*
X97302857Y-95228628D02*
X96921905Y-95228628D01*
X97826667Y-94704819D02*
X98493333Y-94704819D01*
X98493333Y-94704819D02*
X98064762Y-95704819D01*
X122363095Y-100854819D02*
X122363095Y-101664342D01*
X122363095Y-101664342D02*
X122410714Y-101759580D01*
X122410714Y-101759580D02*
X122458333Y-101807200D01*
X122458333Y-101807200D02*
X122553571Y-101854819D01*
X122553571Y-101854819D02*
X122744047Y-101854819D01*
X122744047Y-101854819D02*
X122839285Y-101807200D01*
X122839285Y-101807200D02*
X122886904Y-101759580D01*
X122886904Y-101759580D02*
X122934523Y-101664342D01*
X122934523Y-101664342D02*
X122934523Y-100854819D01*
X123886904Y-100854819D02*
X123410714Y-100854819D01*
X123410714Y-100854819D02*
X123363095Y-101331009D01*
X123363095Y-101331009D02*
X123410714Y-101283390D01*
X123410714Y-101283390D02*
X123505952Y-101235771D01*
X123505952Y-101235771D02*
X123744047Y-101235771D01*
X123744047Y-101235771D02*
X123839285Y-101283390D01*
X123839285Y-101283390D02*
X123886904Y-101331009D01*
X123886904Y-101331009D02*
X123934523Y-101426247D01*
X123934523Y-101426247D02*
X123934523Y-101664342D01*
X123934523Y-101664342D02*
X123886904Y-101759580D01*
X123886904Y-101759580D02*
X123839285Y-101807200D01*
X123839285Y-101807200D02*
X123744047Y-101854819D01*
X123744047Y-101854819D02*
X123505952Y-101854819D01*
X123505952Y-101854819D02*
X123410714Y-101807200D01*
X123410714Y-101807200D02*
X123363095Y-101759580D01*
X146504819Y-98568094D02*
X145504819Y-98568094D01*
X145504819Y-98568094D02*
X145504819Y-98329999D01*
X145504819Y-98329999D02*
X145552438Y-98187142D01*
X145552438Y-98187142D02*
X145647676Y-98091904D01*
X145647676Y-98091904D02*
X145742914Y-98044285D01*
X145742914Y-98044285D02*
X145933390Y-97996666D01*
X145933390Y-97996666D02*
X146076247Y-97996666D01*
X146076247Y-97996666D02*
X146266723Y-98044285D01*
X146266723Y-98044285D02*
X146361961Y-98091904D01*
X146361961Y-98091904D02*
X146457200Y-98187142D01*
X146457200Y-98187142D02*
X146504819Y-98329999D01*
X146504819Y-98329999D02*
X146504819Y-98568094D01*
X145504819Y-97663332D02*
X145504819Y-97044285D01*
X145504819Y-97044285D02*
X145885771Y-97377618D01*
X145885771Y-97377618D02*
X145885771Y-97234761D01*
X145885771Y-97234761D02*
X145933390Y-97139523D01*
X145933390Y-97139523D02*
X145981009Y-97091904D01*
X145981009Y-97091904D02*
X146076247Y-97044285D01*
X146076247Y-97044285D02*
X146314342Y-97044285D01*
X146314342Y-97044285D02*
X146409580Y-97091904D01*
X146409580Y-97091904D02*
X146457200Y-97139523D01*
X146457200Y-97139523D02*
X146504819Y-97234761D01*
X146504819Y-97234761D02*
X146504819Y-97520475D01*
X146504819Y-97520475D02*
X146457200Y-97615713D01*
X146457200Y-97615713D02*
X146409580Y-97663332D01*
X131034819Y-98928094D02*
X130034819Y-98928094D01*
X130034819Y-98928094D02*
X130034819Y-98689999D01*
X130034819Y-98689999D02*
X130082438Y-98547142D01*
X130082438Y-98547142D02*
X130177676Y-98451904D01*
X130177676Y-98451904D02*
X130272914Y-98404285D01*
X130272914Y-98404285D02*
X130463390Y-98356666D01*
X130463390Y-98356666D02*
X130606247Y-98356666D01*
X130606247Y-98356666D02*
X130796723Y-98404285D01*
X130796723Y-98404285D02*
X130891961Y-98451904D01*
X130891961Y-98451904D02*
X130987200Y-98547142D01*
X130987200Y-98547142D02*
X131034819Y-98689999D01*
X131034819Y-98689999D02*
X131034819Y-98928094D01*
X130130057Y-97975713D02*
X130082438Y-97928094D01*
X130082438Y-97928094D02*
X130034819Y-97832856D01*
X130034819Y-97832856D02*
X130034819Y-97594761D01*
X130034819Y-97594761D02*
X130082438Y-97499523D01*
X130082438Y-97499523D02*
X130130057Y-97451904D01*
X130130057Y-97451904D02*
X130225295Y-97404285D01*
X130225295Y-97404285D02*
X130320533Y-97404285D01*
X130320533Y-97404285D02*
X130463390Y-97451904D01*
X130463390Y-97451904D02*
X131034819Y-98023332D01*
X131034819Y-98023332D02*
X131034819Y-97404285D01*
X94916666Y-102324819D02*
X94916666Y-103039104D01*
X94916666Y-103039104D02*
X94869047Y-103181961D01*
X94869047Y-103181961D02*
X94773809Y-103277200D01*
X94773809Y-103277200D02*
X94630952Y-103324819D01*
X94630952Y-103324819D02*
X94535714Y-103324819D01*
X95916666Y-103324819D02*
X95345238Y-103324819D01*
X95630952Y-103324819D02*
X95630952Y-102324819D01*
X95630952Y-102324819D02*
X95535714Y-102467676D01*
X95535714Y-102467676D02*
X95440476Y-102562914D01*
X95440476Y-102562914D02*
X95345238Y-102610533D01*
X118253333Y-79929819D02*
X117920000Y-79453628D01*
X117681905Y-79929819D02*
X117681905Y-78929819D01*
X117681905Y-78929819D02*
X118062857Y-78929819D01*
X118062857Y-78929819D02*
X118158095Y-78977438D01*
X118158095Y-78977438D02*
X118205714Y-79025057D01*
X118205714Y-79025057D02*
X118253333Y-79120295D01*
X118253333Y-79120295D02*
X118253333Y-79263152D01*
X118253333Y-79263152D02*
X118205714Y-79358390D01*
X118205714Y-79358390D02*
X118158095Y-79406009D01*
X118158095Y-79406009D02*
X118062857Y-79453628D01*
X118062857Y-79453628D02*
X117681905Y-79453628D01*
X118634286Y-79025057D02*
X118681905Y-78977438D01*
X118681905Y-78977438D02*
X118777143Y-78929819D01*
X118777143Y-78929819D02*
X119015238Y-78929819D01*
X119015238Y-78929819D02*
X119110476Y-78977438D01*
X119110476Y-78977438D02*
X119158095Y-79025057D01*
X119158095Y-79025057D02*
X119205714Y-79120295D01*
X119205714Y-79120295D02*
X119205714Y-79215533D01*
X119205714Y-79215533D02*
X119158095Y-79358390D01*
X119158095Y-79358390D02*
X118586667Y-79929819D01*
X118586667Y-79929819D02*
X119205714Y-79929819D01*
X128928333Y-112214819D02*
X128595000Y-111738628D01*
X128356905Y-112214819D02*
X128356905Y-111214819D01*
X128356905Y-111214819D02*
X128737857Y-111214819D01*
X128737857Y-111214819D02*
X128833095Y-111262438D01*
X128833095Y-111262438D02*
X128880714Y-111310057D01*
X128880714Y-111310057D02*
X128928333Y-111405295D01*
X128928333Y-111405295D02*
X128928333Y-111548152D01*
X128928333Y-111548152D02*
X128880714Y-111643390D01*
X128880714Y-111643390D02*
X128833095Y-111691009D01*
X128833095Y-111691009D02*
X128737857Y-111738628D01*
X128737857Y-111738628D02*
X128356905Y-111738628D01*
X129833095Y-111214819D02*
X129356905Y-111214819D01*
X129356905Y-111214819D02*
X129309286Y-111691009D01*
X129309286Y-111691009D02*
X129356905Y-111643390D01*
X129356905Y-111643390D02*
X129452143Y-111595771D01*
X129452143Y-111595771D02*
X129690238Y-111595771D01*
X129690238Y-111595771D02*
X129785476Y-111643390D01*
X129785476Y-111643390D02*
X129833095Y-111691009D01*
X129833095Y-111691009D02*
X129880714Y-111786247D01*
X129880714Y-111786247D02*
X129880714Y-112024342D01*
X129880714Y-112024342D02*
X129833095Y-112119580D01*
X129833095Y-112119580D02*
X129785476Y-112167200D01*
X129785476Y-112167200D02*
X129690238Y-112214819D01*
X129690238Y-112214819D02*
X129452143Y-112214819D01*
X129452143Y-112214819D02*
X129356905Y-112167200D01*
X129356905Y-112167200D02*
X129309286Y-112119580D01*
X128928333Y-105864819D02*
X128595000Y-105388628D01*
X128356905Y-105864819D02*
X128356905Y-104864819D01*
X128356905Y-104864819D02*
X128737857Y-104864819D01*
X128737857Y-104864819D02*
X128833095Y-104912438D01*
X128833095Y-104912438D02*
X128880714Y-104960057D01*
X128880714Y-104960057D02*
X128928333Y-105055295D01*
X128928333Y-105055295D02*
X128928333Y-105198152D01*
X128928333Y-105198152D02*
X128880714Y-105293390D01*
X128880714Y-105293390D02*
X128833095Y-105341009D01*
X128833095Y-105341009D02*
X128737857Y-105388628D01*
X128737857Y-105388628D02*
X128356905Y-105388628D01*
X129785476Y-105198152D02*
X129785476Y-105864819D01*
X129547381Y-104817200D02*
X129309286Y-105531485D01*
X129309286Y-105531485D02*
X129928333Y-105531485D01*
X138873095Y-76724819D02*
X138873095Y-77534342D01*
X138873095Y-77534342D02*
X138920714Y-77629580D01*
X138920714Y-77629580D02*
X138968333Y-77677200D01*
X138968333Y-77677200D02*
X139063571Y-77724819D01*
X139063571Y-77724819D02*
X139254047Y-77724819D01*
X139254047Y-77724819D02*
X139349285Y-77677200D01*
X139349285Y-77677200D02*
X139396904Y-77629580D01*
X139396904Y-77629580D02*
X139444523Y-77534342D01*
X139444523Y-77534342D02*
X139444523Y-76724819D01*
X139825476Y-76724819D02*
X140492142Y-76724819D01*
X140492142Y-76724819D02*
X140063571Y-77724819D01*
X122363095Y-89424819D02*
X122363095Y-90234342D01*
X122363095Y-90234342D02*
X122410714Y-90329580D01*
X122410714Y-90329580D02*
X122458333Y-90377200D01*
X122458333Y-90377200D02*
X122553571Y-90424819D01*
X122553571Y-90424819D02*
X122744047Y-90424819D01*
X122744047Y-90424819D02*
X122839285Y-90377200D01*
X122839285Y-90377200D02*
X122886904Y-90329580D01*
X122886904Y-90329580D02*
X122934523Y-90234342D01*
X122934523Y-90234342D02*
X122934523Y-89424819D01*
X123363095Y-89520057D02*
X123410714Y-89472438D01*
X123410714Y-89472438D02*
X123505952Y-89424819D01*
X123505952Y-89424819D02*
X123744047Y-89424819D01*
X123744047Y-89424819D02*
X123839285Y-89472438D01*
X123839285Y-89472438D02*
X123886904Y-89520057D01*
X123886904Y-89520057D02*
X123934523Y-89615295D01*
X123934523Y-89615295D02*
X123934523Y-89710533D01*
X123934523Y-89710533D02*
X123886904Y-89853390D01*
X123886904Y-89853390D02*
X123315476Y-90424819D01*
X123315476Y-90424819D02*
X123934523Y-90424819D01*
X129373333Y-77829580D02*
X129325714Y-77877200D01*
X129325714Y-77877200D02*
X129182857Y-77924819D01*
X129182857Y-77924819D02*
X129087619Y-77924819D01*
X129087619Y-77924819D02*
X128944762Y-77877200D01*
X128944762Y-77877200D02*
X128849524Y-77781961D01*
X128849524Y-77781961D02*
X128801905Y-77686723D01*
X128801905Y-77686723D02*
X128754286Y-77496247D01*
X128754286Y-77496247D02*
X128754286Y-77353390D01*
X128754286Y-77353390D02*
X128801905Y-77162914D01*
X128801905Y-77162914D02*
X128849524Y-77067676D01*
X128849524Y-77067676D02*
X128944762Y-76972438D01*
X128944762Y-76972438D02*
X129087619Y-76924819D01*
X129087619Y-76924819D02*
X129182857Y-76924819D01*
X129182857Y-76924819D02*
X129325714Y-76972438D01*
X129325714Y-76972438D02*
X129373333Y-77020057D01*
X129754286Y-77020057D02*
X129801905Y-76972438D01*
X129801905Y-76972438D02*
X129897143Y-76924819D01*
X129897143Y-76924819D02*
X130135238Y-76924819D01*
X130135238Y-76924819D02*
X130230476Y-76972438D01*
X130230476Y-76972438D02*
X130278095Y-77020057D01*
X130278095Y-77020057D02*
X130325714Y-77115295D01*
X130325714Y-77115295D02*
X130325714Y-77210533D01*
X130325714Y-77210533D02*
X130278095Y-77353390D01*
X130278095Y-77353390D02*
X129706667Y-77924819D01*
X129706667Y-77924819D02*
X130325714Y-77924819D01*
X112863333Y-93799819D02*
X112530000Y-93323628D01*
X112291905Y-93799819D02*
X112291905Y-92799819D01*
X112291905Y-92799819D02*
X112672857Y-92799819D01*
X112672857Y-92799819D02*
X112768095Y-92847438D01*
X112768095Y-92847438D02*
X112815714Y-92895057D01*
X112815714Y-92895057D02*
X112863333Y-92990295D01*
X112863333Y-92990295D02*
X112863333Y-93133152D01*
X112863333Y-93133152D02*
X112815714Y-93228390D01*
X112815714Y-93228390D02*
X112768095Y-93276009D01*
X112768095Y-93276009D02*
X112672857Y-93323628D01*
X112672857Y-93323628D02*
X112291905Y-93323628D01*
X113339524Y-93799819D02*
X113530000Y-93799819D01*
X113530000Y-93799819D02*
X113625238Y-93752200D01*
X113625238Y-93752200D02*
X113672857Y-93704580D01*
X113672857Y-93704580D02*
X113768095Y-93561723D01*
X113768095Y-93561723D02*
X113815714Y-93371247D01*
X113815714Y-93371247D02*
X113815714Y-92990295D01*
X113815714Y-92990295D02*
X113768095Y-92895057D01*
X113768095Y-92895057D02*
X113720476Y-92847438D01*
X113720476Y-92847438D02*
X113625238Y-92799819D01*
X113625238Y-92799819D02*
X113434762Y-92799819D01*
X113434762Y-92799819D02*
X113339524Y-92847438D01*
X113339524Y-92847438D02*
X113291905Y-92895057D01*
X113291905Y-92895057D02*
X113244286Y-92990295D01*
X113244286Y-92990295D02*
X113244286Y-93228390D01*
X113244286Y-93228390D02*
X113291905Y-93323628D01*
X113291905Y-93323628D02*
X113339524Y-93371247D01*
X113339524Y-93371247D02*
X113434762Y-93418866D01*
X113434762Y-93418866D02*
X113625238Y-93418866D01*
X113625238Y-93418866D02*
X113720476Y-93371247D01*
X113720476Y-93371247D02*
X113768095Y-93323628D01*
X113768095Y-93323628D02*
X113815714Y-93228390D01*
X112863333Y-98244819D02*
X112530000Y-97768628D01*
X112291905Y-98244819D02*
X112291905Y-97244819D01*
X112291905Y-97244819D02*
X112672857Y-97244819D01*
X112672857Y-97244819D02*
X112768095Y-97292438D01*
X112768095Y-97292438D02*
X112815714Y-97340057D01*
X112815714Y-97340057D02*
X112863333Y-97435295D01*
X112863333Y-97435295D02*
X112863333Y-97578152D01*
X112863333Y-97578152D02*
X112815714Y-97673390D01*
X112815714Y-97673390D02*
X112768095Y-97721009D01*
X112768095Y-97721009D02*
X112672857Y-97768628D01*
X112672857Y-97768628D02*
X112291905Y-97768628D01*
X113434762Y-97673390D02*
X113339524Y-97625771D01*
X113339524Y-97625771D02*
X113291905Y-97578152D01*
X113291905Y-97578152D02*
X113244286Y-97482914D01*
X113244286Y-97482914D02*
X113244286Y-97435295D01*
X113244286Y-97435295D02*
X113291905Y-97340057D01*
X113291905Y-97340057D02*
X113339524Y-97292438D01*
X113339524Y-97292438D02*
X113434762Y-97244819D01*
X113434762Y-97244819D02*
X113625238Y-97244819D01*
X113625238Y-97244819D02*
X113720476Y-97292438D01*
X113720476Y-97292438D02*
X113768095Y-97340057D01*
X113768095Y-97340057D02*
X113815714Y-97435295D01*
X113815714Y-97435295D02*
X113815714Y-97482914D01*
X113815714Y-97482914D02*
X113768095Y-97578152D01*
X113768095Y-97578152D02*
X113720476Y-97625771D01*
X113720476Y-97625771D02*
X113625238Y-97673390D01*
X113625238Y-97673390D02*
X113434762Y-97673390D01*
X113434762Y-97673390D02*
X113339524Y-97721009D01*
X113339524Y-97721009D02*
X113291905Y-97768628D01*
X113291905Y-97768628D02*
X113244286Y-97863866D01*
X113244286Y-97863866D02*
X113244286Y-98054342D01*
X113244286Y-98054342D02*
X113291905Y-98149580D01*
X113291905Y-98149580D02*
X113339524Y-98197200D01*
X113339524Y-98197200D02*
X113434762Y-98244819D01*
X113434762Y-98244819D02*
X113625238Y-98244819D01*
X113625238Y-98244819D02*
X113720476Y-98197200D01*
X113720476Y-98197200D02*
X113768095Y-98149580D01*
X113768095Y-98149580D02*
X113815714Y-98054342D01*
X113815714Y-98054342D02*
X113815714Y-97863866D01*
X113815714Y-97863866D02*
X113768095Y-97768628D01*
X113768095Y-97768628D02*
X113720476Y-97721009D01*
X113720476Y-97721009D02*
X113625238Y-97673390D01*
X105988095Y-76924819D02*
X105988095Y-77734342D01*
X105988095Y-77734342D02*
X106035714Y-77829580D01*
X106035714Y-77829580D02*
X106083333Y-77877200D01*
X106083333Y-77877200D02*
X106178571Y-77924819D01*
X106178571Y-77924819D02*
X106369047Y-77924819D01*
X106369047Y-77924819D02*
X106464285Y-77877200D01*
X106464285Y-77877200D02*
X106511904Y-77829580D01*
X106511904Y-77829580D02*
X106559523Y-77734342D01*
X106559523Y-77734342D02*
X106559523Y-76924819D01*
X106940476Y-76924819D02*
X107559523Y-76924819D01*
X107559523Y-76924819D02*
X107226190Y-77305771D01*
X107226190Y-77305771D02*
X107369047Y-77305771D01*
X107369047Y-77305771D02*
X107464285Y-77353390D01*
X107464285Y-77353390D02*
X107511904Y-77401009D01*
X107511904Y-77401009D02*
X107559523Y-77496247D01*
X107559523Y-77496247D02*
X107559523Y-77734342D01*
X107559523Y-77734342D02*
X107511904Y-77829580D01*
X107511904Y-77829580D02*
X107464285Y-77877200D01*
X107464285Y-77877200D02*
X107369047Y-77924819D01*
X107369047Y-77924819D02*
X107083333Y-77924819D01*
X107083333Y-77924819D02*
X106988095Y-77877200D01*
X106988095Y-77877200D02*
X106940476Y-77829580D01*
X138396905Y-100854819D02*
X138396905Y-101664342D01*
X138396905Y-101664342D02*
X138444524Y-101759580D01*
X138444524Y-101759580D02*
X138492143Y-101807200D01*
X138492143Y-101807200D02*
X138587381Y-101854819D01*
X138587381Y-101854819D02*
X138777857Y-101854819D01*
X138777857Y-101854819D02*
X138873095Y-101807200D01*
X138873095Y-101807200D02*
X138920714Y-101759580D01*
X138920714Y-101759580D02*
X138968333Y-101664342D01*
X138968333Y-101664342D02*
X138968333Y-100854819D01*
X139968333Y-101854819D02*
X139396905Y-101854819D01*
X139682619Y-101854819D02*
X139682619Y-100854819D01*
X139682619Y-100854819D02*
X139587381Y-100997676D01*
X139587381Y-100997676D02*
X139492143Y-101092914D01*
X139492143Y-101092914D02*
X139396905Y-101140533D01*
X140587381Y-100854819D02*
X140682619Y-100854819D01*
X140682619Y-100854819D02*
X140777857Y-100902438D01*
X140777857Y-100902438D02*
X140825476Y-100950057D01*
X140825476Y-100950057D02*
X140873095Y-101045295D01*
X140873095Y-101045295D02*
X140920714Y-101235771D01*
X140920714Y-101235771D02*
X140920714Y-101473866D01*
X140920714Y-101473866D02*
X140873095Y-101664342D01*
X140873095Y-101664342D02*
X140825476Y-101759580D01*
X140825476Y-101759580D02*
X140777857Y-101807200D01*
X140777857Y-101807200D02*
X140682619Y-101854819D01*
X140682619Y-101854819D02*
X140587381Y-101854819D01*
X140587381Y-101854819D02*
X140492143Y-101807200D01*
X140492143Y-101807200D02*
X140444524Y-101759580D01*
X140444524Y-101759580D02*
X140396905Y-101664342D01*
X140396905Y-101664342D02*
X140349286Y-101473866D01*
X140349286Y-101473866D02*
X140349286Y-101235771D01*
X140349286Y-101235771D02*
X140396905Y-101045295D01*
X140396905Y-101045295D02*
X140444524Y-100950057D01*
X140444524Y-100950057D02*
X140492143Y-100902438D01*
X140492143Y-100902438D02*
X140587381Y-100854819D01*
X123009819Y-78271666D02*
X122533628Y-78604999D01*
X123009819Y-78843094D02*
X122009819Y-78843094D01*
X122009819Y-78843094D02*
X122009819Y-78462142D01*
X122009819Y-78462142D02*
X122057438Y-78366904D01*
X122057438Y-78366904D02*
X122105057Y-78319285D01*
X122105057Y-78319285D02*
X122200295Y-78271666D01*
X122200295Y-78271666D02*
X122343152Y-78271666D01*
X122343152Y-78271666D02*
X122438390Y-78319285D01*
X122438390Y-78319285D02*
X122486009Y-78366904D01*
X122486009Y-78366904D02*
X122533628Y-78462142D01*
X122533628Y-78462142D02*
X122533628Y-78843094D01*
X123009819Y-77319285D02*
X123009819Y-77890713D01*
X123009819Y-77604999D02*
X122009819Y-77604999D01*
X122009819Y-77604999D02*
X122152676Y-77700237D01*
X122152676Y-77700237D02*
X122247914Y-77795475D01*
X122247914Y-77795475D02*
X122295533Y-77890713D01*
X128452142Y-95704819D02*
X128118809Y-95228628D01*
X127880714Y-95704819D02*
X127880714Y-94704819D01*
X127880714Y-94704819D02*
X128261666Y-94704819D01*
X128261666Y-94704819D02*
X128356904Y-94752438D01*
X128356904Y-94752438D02*
X128404523Y-94800057D01*
X128404523Y-94800057D02*
X128452142Y-94895295D01*
X128452142Y-94895295D02*
X128452142Y-95038152D01*
X128452142Y-95038152D02*
X128404523Y-95133390D01*
X128404523Y-95133390D02*
X128356904Y-95181009D01*
X128356904Y-95181009D02*
X128261666Y-95228628D01*
X128261666Y-95228628D02*
X127880714Y-95228628D01*
X129404523Y-95704819D02*
X128833095Y-95704819D01*
X129118809Y-95704819D02*
X129118809Y-94704819D01*
X129118809Y-94704819D02*
X129023571Y-94847676D01*
X129023571Y-94847676D02*
X128928333Y-94942914D01*
X128928333Y-94942914D02*
X128833095Y-94990533D01*
X130261666Y-94704819D02*
X130071190Y-94704819D01*
X130071190Y-94704819D02*
X129975952Y-94752438D01*
X129975952Y-94752438D02*
X129928333Y-94800057D01*
X129928333Y-94800057D02*
X129833095Y-94942914D01*
X129833095Y-94942914D02*
X129785476Y-95133390D01*
X129785476Y-95133390D02*
X129785476Y-95514342D01*
X129785476Y-95514342D02*
X129833095Y-95609580D01*
X129833095Y-95609580D02*
X129880714Y-95657200D01*
X129880714Y-95657200D02*
X129975952Y-95704819D01*
X129975952Y-95704819D02*
X130166428Y-95704819D01*
X130166428Y-95704819D02*
X130261666Y-95657200D01*
X130261666Y-95657200D02*
X130309285Y-95609580D01*
X130309285Y-95609580D02*
X130356904Y-95514342D01*
X130356904Y-95514342D02*
X130356904Y-95276247D01*
X130356904Y-95276247D02*
X130309285Y-95181009D01*
X130309285Y-95181009D02*
X130261666Y-95133390D01*
X130261666Y-95133390D02*
X130166428Y-95085771D01*
X130166428Y-95085771D02*
X129975952Y-95085771D01*
X129975952Y-95085771D02*
X129880714Y-95133390D01*
X129880714Y-95133390D02*
X129833095Y-95181009D01*
X129833095Y-95181009D02*
X129785476Y-95276247D01*
X105918095Y-101054819D02*
X105918095Y-101864342D01*
X105918095Y-101864342D02*
X105965714Y-101959580D01*
X105965714Y-101959580D02*
X106013333Y-102007200D01*
X106013333Y-102007200D02*
X106108571Y-102054819D01*
X106108571Y-102054819D02*
X106299047Y-102054819D01*
X106299047Y-102054819D02*
X106394285Y-102007200D01*
X106394285Y-102007200D02*
X106441904Y-101959580D01*
X106441904Y-101959580D02*
X106489523Y-101864342D01*
X106489523Y-101864342D02*
X106489523Y-101054819D01*
X107013333Y-102054819D02*
X107203809Y-102054819D01*
X107203809Y-102054819D02*
X107299047Y-102007200D01*
X107299047Y-102007200D02*
X107346666Y-101959580D01*
X107346666Y-101959580D02*
X107441904Y-101816723D01*
X107441904Y-101816723D02*
X107489523Y-101626247D01*
X107489523Y-101626247D02*
X107489523Y-101245295D01*
X107489523Y-101245295D02*
X107441904Y-101150057D01*
X107441904Y-101150057D02*
X107394285Y-101102438D01*
X107394285Y-101102438D02*
X107299047Y-101054819D01*
X107299047Y-101054819D02*
X107108571Y-101054819D01*
X107108571Y-101054819D02*
X107013333Y-101102438D01*
X107013333Y-101102438D02*
X106965714Y-101150057D01*
X106965714Y-101150057D02*
X106918095Y-101245295D01*
X106918095Y-101245295D02*
X106918095Y-101483390D01*
X106918095Y-101483390D02*
X106965714Y-101578628D01*
X106965714Y-101578628D02*
X107013333Y-101626247D01*
X107013333Y-101626247D02*
X107108571Y-101673866D01*
X107108571Y-101673866D02*
X107299047Y-101673866D01*
X107299047Y-101673866D02*
X107394285Y-101626247D01*
X107394285Y-101626247D02*
X107441904Y-101578628D01*
X107441904Y-101578628D02*
X107489523Y-101483390D01*
X138873095Y-89424819D02*
X138873095Y-90234342D01*
X138873095Y-90234342D02*
X138920714Y-90329580D01*
X138920714Y-90329580D02*
X138968333Y-90377200D01*
X138968333Y-90377200D02*
X139063571Y-90424819D01*
X139063571Y-90424819D02*
X139254047Y-90424819D01*
X139254047Y-90424819D02*
X139349285Y-90377200D01*
X139349285Y-90377200D02*
X139396904Y-90329580D01*
X139396904Y-90329580D02*
X139444523Y-90234342D01*
X139444523Y-90234342D02*
X139444523Y-89424819D01*
X140349285Y-89424819D02*
X140158809Y-89424819D01*
X140158809Y-89424819D02*
X140063571Y-89472438D01*
X140063571Y-89472438D02*
X140015952Y-89520057D01*
X140015952Y-89520057D02*
X139920714Y-89662914D01*
X139920714Y-89662914D02*
X139873095Y-89853390D01*
X139873095Y-89853390D02*
X139873095Y-90234342D01*
X139873095Y-90234342D02*
X139920714Y-90329580D01*
X139920714Y-90329580D02*
X139968333Y-90377200D01*
X139968333Y-90377200D02*
X140063571Y-90424819D01*
X140063571Y-90424819D02*
X140254047Y-90424819D01*
X140254047Y-90424819D02*
X140349285Y-90377200D01*
X140349285Y-90377200D02*
X140396904Y-90329580D01*
X140396904Y-90329580D02*
X140444523Y-90234342D01*
X140444523Y-90234342D02*
X140444523Y-89996247D01*
X140444523Y-89996247D02*
X140396904Y-89901009D01*
X140396904Y-89901009D02*
X140349285Y-89853390D01*
X140349285Y-89853390D02*
X140254047Y-89805771D01*
X140254047Y-89805771D02*
X140063571Y-89805771D01*
X140063571Y-89805771D02*
X139968333Y-89853390D01*
X139968333Y-89853390D02*
X139920714Y-89901009D01*
X139920714Y-89901009D02*
X139873095Y-89996247D01*
X97493333Y-93799819D02*
X97160000Y-93323628D01*
X96921905Y-93799819D02*
X96921905Y-92799819D01*
X96921905Y-92799819D02*
X97302857Y-92799819D01*
X97302857Y-92799819D02*
X97398095Y-92847438D01*
X97398095Y-92847438D02*
X97445714Y-92895057D01*
X97445714Y-92895057D02*
X97493333Y-92990295D01*
X97493333Y-92990295D02*
X97493333Y-93133152D01*
X97493333Y-93133152D02*
X97445714Y-93228390D01*
X97445714Y-93228390D02*
X97398095Y-93276009D01*
X97398095Y-93276009D02*
X97302857Y-93323628D01*
X97302857Y-93323628D02*
X96921905Y-93323628D01*
X98350476Y-92799819D02*
X98160000Y-92799819D01*
X98160000Y-92799819D02*
X98064762Y-92847438D01*
X98064762Y-92847438D02*
X98017143Y-92895057D01*
X98017143Y-92895057D02*
X97921905Y-93037914D01*
X97921905Y-93037914D02*
X97874286Y-93228390D01*
X97874286Y-93228390D02*
X97874286Y-93609342D01*
X97874286Y-93609342D02*
X97921905Y-93704580D01*
X97921905Y-93704580D02*
X97969524Y-93752200D01*
X97969524Y-93752200D02*
X98064762Y-93799819D01*
X98064762Y-93799819D02*
X98255238Y-93799819D01*
X98255238Y-93799819D02*
X98350476Y-93752200D01*
X98350476Y-93752200D02*
X98398095Y-93704580D01*
X98398095Y-93704580D02*
X98445714Y-93609342D01*
X98445714Y-93609342D02*
X98445714Y-93371247D01*
X98445714Y-93371247D02*
X98398095Y-93276009D01*
X98398095Y-93276009D02*
X98350476Y-93228390D01*
X98350476Y-93228390D02*
X98255238Y-93180771D01*
X98255238Y-93180771D02*
X98064762Y-93180771D01*
X98064762Y-93180771D02*
X97969524Y-93228390D01*
X97969524Y-93228390D02*
X97921905Y-93276009D01*
X97921905Y-93276009D02*
X97874286Y-93371247D01*
X134034819Y-104608094D02*
X133034819Y-104608094D01*
X133034819Y-104608094D02*
X133034819Y-104369999D01*
X133034819Y-104369999D02*
X133082438Y-104227142D01*
X133082438Y-104227142D02*
X133177676Y-104131904D01*
X133177676Y-104131904D02*
X133272914Y-104084285D01*
X133272914Y-104084285D02*
X133463390Y-104036666D01*
X133463390Y-104036666D02*
X133606247Y-104036666D01*
X133606247Y-104036666D02*
X133796723Y-104084285D01*
X133796723Y-104084285D02*
X133891961Y-104131904D01*
X133891961Y-104131904D02*
X133987200Y-104227142D01*
X133987200Y-104227142D02*
X134034819Y-104369999D01*
X134034819Y-104369999D02*
X134034819Y-104608094D01*
X134034819Y-103084285D02*
X134034819Y-103655713D01*
X134034819Y-103369999D02*
X133034819Y-103369999D01*
X133034819Y-103369999D02*
X133177676Y-103465237D01*
X133177676Y-103465237D02*
X133272914Y-103560475D01*
X133272914Y-103560475D02*
X133320533Y-103655713D01*
X129373333Y-80369580D02*
X129325714Y-80417200D01*
X129325714Y-80417200D02*
X129182857Y-80464819D01*
X129182857Y-80464819D02*
X129087619Y-80464819D01*
X129087619Y-80464819D02*
X128944762Y-80417200D01*
X128944762Y-80417200D02*
X128849524Y-80321961D01*
X128849524Y-80321961D02*
X128801905Y-80226723D01*
X128801905Y-80226723D02*
X128754286Y-80036247D01*
X128754286Y-80036247D02*
X128754286Y-79893390D01*
X128754286Y-79893390D02*
X128801905Y-79702914D01*
X128801905Y-79702914D02*
X128849524Y-79607676D01*
X128849524Y-79607676D02*
X128944762Y-79512438D01*
X128944762Y-79512438D02*
X129087619Y-79464819D01*
X129087619Y-79464819D02*
X129182857Y-79464819D01*
X129182857Y-79464819D02*
X129325714Y-79512438D01*
X129325714Y-79512438D02*
X129373333Y-79560057D01*
X130325714Y-80464819D02*
X129754286Y-80464819D01*
X130040000Y-80464819D02*
X130040000Y-79464819D01*
X130040000Y-79464819D02*
X129944762Y-79607676D01*
X129944762Y-79607676D02*
X129849524Y-79702914D01*
X129849524Y-79702914D02*
X129754286Y-79750533D01*
X113022142Y-108404819D02*
X112688809Y-107928628D01*
X112450714Y-108404819D02*
X112450714Y-107404819D01*
X112450714Y-107404819D02*
X112831666Y-107404819D01*
X112831666Y-107404819D02*
X112926904Y-107452438D01*
X112926904Y-107452438D02*
X112974523Y-107500057D01*
X112974523Y-107500057D02*
X113022142Y-107595295D01*
X113022142Y-107595295D02*
X113022142Y-107738152D01*
X113022142Y-107738152D02*
X112974523Y-107833390D01*
X112974523Y-107833390D02*
X112926904Y-107881009D01*
X112926904Y-107881009D02*
X112831666Y-107928628D01*
X112831666Y-107928628D02*
X112450714Y-107928628D01*
X113974523Y-108404819D02*
X113403095Y-108404819D01*
X113688809Y-108404819D02*
X113688809Y-107404819D01*
X113688809Y-107404819D02*
X113593571Y-107547676D01*
X113593571Y-107547676D02*
X113498333Y-107642914D01*
X113498333Y-107642914D02*
X113403095Y-107690533D01*
X114355476Y-107500057D02*
X114403095Y-107452438D01*
X114403095Y-107452438D02*
X114498333Y-107404819D01*
X114498333Y-107404819D02*
X114736428Y-107404819D01*
X114736428Y-107404819D02*
X114831666Y-107452438D01*
X114831666Y-107452438D02*
X114879285Y-107500057D01*
X114879285Y-107500057D02*
X114926904Y-107595295D01*
X114926904Y-107595295D02*
X114926904Y-107690533D01*
X114926904Y-107690533D02*
X114879285Y-107833390D01*
X114879285Y-107833390D02*
X114307857Y-108404819D01*
X114307857Y-108404819D02*
X114926904Y-108404819D01*
X113022142Y-103324819D02*
X112688809Y-102848628D01*
X112450714Y-103324819D02*
X112450714Y-102324819D01*
X112450714Y-102324819D02*
X112831666Y-102324819D01*
X112831666Y-102324819D02*
X112926904Y-102372438D01*
X112926904Y-102372438D02*
X112974523Y-102420057D01*
X112974523Y-102420057D02*
X113022142Y-102515295D01*
X113022142Y-102515295D02*
X113022142Y-102658152D01*
X113022142Y-102658152D02*
X112974523Y-102753390D01*
X112974523Y-102753390D02*
X112926904Y-102801009D01*
X112926904Y-102801009D02*
X112831666Y-102848628D01*
X112831666Y-102848628D02*
X112450714Y-102848628D01*
X113974523Y-103324819D02*
X113403095Y-103324819D01*
X113688809Y-103324819D02*
X113688809Y-102324819D01*
X113688809Y-102324819D02*
X113593571Y-102467676D01*
X113593571Y-102467676D02*
X113498333Y-102562914D01*
X113498333Y-102562914D02*
X113403095Y-102610533D01*
X114593571Y-102324819D02*
X114688809Y-102324819D01*
X114688809Y-102324819D02*
X114784047Y-102372438D01*
X114784047Y-102372438D02*
X114831666Y-102420057D01*
X114831666Y-102420057D02*
X114879285Y-102515295D01*
X114879285Y-102515295D02*
X114926904Y-102705771D01*
X114926904Y-102705771D02*
X114926904Y-102943866D01*
X114926904Y-102943866D02*
X114879285Y-103134342D01*
X114879285Y-103134342D02*
X114831666Y-103229580D01*
X114831666Y-103229580D02*
X114784047Y-103277200D01*
X114784047Y-103277200D02*
X114688809Y-103324819D01*
X114688809Y-103324819D02*
X114593571Y-103324819D01*
X114593571Y-103324819D02*
X114498333Y-103277200D01*
X114498333Y-103277200D02*
X114450714Y-103229580D01*
X114450714Y-103229580D02*
X114403095Y-103134342D01*
X114403095Y-103134342D02*
X114355476Y-102943866D01*
X114355476Y-102943866D02*
X114355476Y-102705771D01*
X114355476Y-102705771D02*
X114403095Y-102515295D01*
X114403095Y-102515295D02*
X114450714Y-102420057D01*
X114450714Y-102420057D02*
X114498333Y-102372438D01*
X114498333Y-102372438D02*
X114593571Y-102324819D01*
D11*
%TO.C,U4*%
X104145000Y-90880000D02*
X103905000Y-90550000D01*
X104385000Y-90550000D01*
X104145000Y-90880000D01*
G36*
X104145000Y-90880000D02*
G01*
X103905000Y-90550000D01*
X104385000Y-90550000D01*
X104145000Y-90880000D01*
G37*
X108805000Y-99685000D02*
X104685000Y-99685000D01*
X108805000Y-99620000D02*
X108805000Y-99685000D01*
X108805000Y-90815000D02*
X108805000Y-90880000D01*
X104685000Y-99685000D02*
X104685000Y-99620000D01*
X104685000Y-90880000D02*
X104685000Y-90815000D01*
X104685000Y-90815000D02*
X108805000Y-90815000D01*
%TO.C,U1*%
X120630000Y-83030000D02*
X120725000Y-83030000D01*
X120630000Y-87150000D02*
X120630000Y-83030000D01*
X120725000Y-87150000D02*
X120630000Y-87150000D01*
X125655000Y-83030000D02*
X125750000Y-83030000D01*
X125750000Y-83030000D02*
X125750000Y-87150000D01*
X125750000Y-87150000D02*
X125655000Y-87150000D01*
X120720000Y-87690000D02*
X120390000Y-87930000D01*
X120390000Y-87450000D01*
X120720000Y-87690000D01*
G36*
X120720000Y-87690000D02*
G01*
X120390000Y-87930000D01*
X120390000Y-87450000D01*
X120720000Y-87690000D01*
G37*
%TO.C,R11*%
X116412742Y-104887500D02*
X116887258Y-104887500D01*
X116412742Y-105932500D02*
X116887258Y-105932500D01*
%TO.C,R7*%
X100407742Y-94727500D02*
X100882258Y-94727500D01*
X100407742Y-95772500D02*
X100882258Y-95772500D01*
%TO.C,U5*%
X121065000Y-102245000D02*
X125185000Y-102245000D01*
X121065000Y-102310000D02*
X121065000Y-102245000D01*
X121065000Y-111115000D02*
X121065000Y-111050000D01*
X125185000Y-102245000D02*
X125185000Y-102310000D01*
X125185000Y-111050000D02*
X125185000Y-111115000D01*
X125185000Y-111115000D02*
X121065000Y-111115000D01*
X120525000Y-102310000D02*
X120285000Y-101980000D01*
X120765000Y-101980000D01*
X120525000Y-102310000D01*
G36*
X120525000Y-102310000D02*
G01*
X120285000Y-101980000D01*
X120765000Y-101980000D01*
X120525000Y-102310000D01*
G37*
%TO.C,D3*%
X145450000Y-101730000D02*
X145450000Y-99770000D01*
X146650000Y-99770000D02*
X145450000Y-99770000D01*
X146650000Y-101730000D02*
X146650000Y-99770000D01*
%TO.C,D2*%
X131480000Y-99190000D02*
X131480000Y-97230000D01*
X132680000Y-97230000D02*
X131480000Y-97230000D01*
X132680000Y-99190000D02*
X132680000Y-97230000D01*
%TO.C,J1*%
X93870000Y-86250000D02*
X95250000Y-86250000D01*
X93870000Y-87630000D02*
X93870000Y-86250000D01*
X93870000Y-88900000D02*
X93870000Y-101710000D01*
X93870000Y-88900000D02*
X96630000Y-88900000D01*
X93870000Y-101710000D02*
X96630000Y-101710000D01*
X96630000Y-88900000D02*
X96630000Y-101710000D01*
%TO.C,R2*%
X121332258Y-79452500D02*
X120857742Y-79452500D01*
X121332258Y-80497500D02*
X120857742Y-80497500D01*
%TO.C,R5*%
X129332258Y-109967500D02*
X128857742Y-109967500D01*
X129332258Y-111012500D02*
X128857742Y-111012500D01*
%TO.C,R4*%
X129332258Y-103617500D02*
X128857742Y-103617500D01*
X129332258Y-104662500D02*
X128857742Y-104662500D01*
%TO.C,U7*%
X137575000Y-78115000D02*
X141695000Y-78115000D01*
X137575000Y-78180000D02*
X137575000Y-78115000D01*
X137575000Y-86985000D02*
X137575000Y-86920000D01*
X141695000Y-78115000D02*
X141695000Y-78180000D01*
X141695000Y-86920000D02*
X141695000Y-86985000D01*
X141695000Y-86985000D02*
X137575000Y-86985000D01*
X137035000Y-78180000D02*
X136795000Y-77850000D01*
X137275000Y-77850000D01*
X137035000Y-78180000D01*
G36*
X137035000Y-78180000D02*
G01*
X136795000Y-77850000D01*
X137275000Y-77850000D01*
X137035000Y-78180000D01*
G37*
%TO.C,U2*%
X121065000Y-90815000D02*
X125185000Y-90815000D01*
X121065000Y-90880000D02*
X121065000Y-90815000D01*
X121065000Y-99685000D02*
X121065000Y-99620000D01*
X125185000Y-90815000D02*
X125185000Y-90880000D01*
X125185000Y-99620000D02*
X125185000Y-99685000D01*
X125185000Y-99685000D02*
X121065000Y-99685000D01*
X120525000Y-90880000D02*
X120285000Y-90550000D01*
X120765000Y-90550000D01*
X120525000Y-90880000D01*
G36*
X120525000Y-90880000D02*
G01*
X120285000Y-90550000D01*
X120765000Y-90550000D01*
X120525000Y-90880000D01*
G37*
%TO.C,C2*%
X126999420Y-76925000D02*
X127280580Y-76925000D01*
X126999420Y-77945000D02*
X127280580Y-77945000D01*
%TO.C,R9*%
X112822258Y-94092500D02*
X112347742Y-94092500D01*
X112822258Y-95137500D02*
X112347742Y-95137500D01*
%TO.C,R8*%
X112822258Y-95997500D02*
X112347742Y-95997500D01*
X112822258Y-97042500D02*
X112347742Y-97042500D01*
%TO.C,U3*%
X104655000Y-78125000D02*
X108775000Y-78125000D01*
X104655000Y-78180000D02*
X104655000Y-78125000D01*
X104655000Y-88245000D02*
X104655000Y-88190000D01*
X108775000Y-78125000D02*
X108775000Y-78180000D01*
X108775000Y-88190000D02*
X108775000Y-88245000D01*
X108775000Y-88245000D02*
X104655000Y-88245000D01*
X109555000Y-88525000D02*
X109075000Y-88525000D01*
X109315000Y-88195000D01*
X109555000Y-88525000D01*
G36*
X109555000Y-88525000D02*
G01*
X109075000Y-88525000D01*
X109315000Y-88195000D01*
X109555000Y-88525000D01*
G37*
%TO.C,U10*%
X137575000Y-102245000D02*
X141695000Y-102245000D01*
X137575000Y-102310000D02*
X137575000Y-102245000D01*
X137575000Y-111115000D02*
X137575000Y-111050000D01*
X141695000Y-102245000D02*
X141695000Y-102310000D01*
X141695000Y-111050000D02*
X141695000Y-111115000D01*
X141695000Y-111115000D02*
X137575000Y-111115000D01*
X137035000Y-102310000D02*
X136795000Y-101980000D01*
X137275000Y-101980000D01*
X137035000Y-102310000D01*
G36*
X137035000Y-102310000D02*
G01*
X136795000Y-101980000D01*
X137275000Y-101980000D01*
X137035000Y-102310000D01*
G37*
%TO.C,R1*%
X123302500Y-79387258D02*
X123302500Y-78912742D01*
X124347500Y-79387258D02*
X124347500Y-78912742D01*
%TO.C,R16*%
X128857742Y-93457500D02*
X129332258Y-93457500D01*
X128857742Y-94502500D02*
X129332258Y-94502500D01*
%TO.C,U9*%
X104555000Y-102245000D02*
X108675000Y-102245000D01*
X104555000Y-102310000D02*
X104555000Y-102245000D01*
X104555000Y-111115000D02*
X104555000Y-111050000D01*
X108675000Y-102245000D02*
X108675000Y-102310000D01*
X108675000Y-111050000D02*
X108675000Y-111115000D01*
X108675000Y-111115000D02*
X104555000Y-111115000D01*
X104015000Y-102310000D02*
X103775000Y-101980000D01*
X104255000Y-101980000D01*
X104015000Y-102310000D01*
G36*
X104015000Y-102310000D02*
G01*
X103775000Y-101980000D01*
X104255000Y-101980000D01*
X104015000Y-102310000D01*
G37*
%TO.C,U6*%
X137575000Y-90815000D02*
X141695000Y-90815000D01*
X137575000Y-90880000D02*
X137575000Y-90815000D01*
X137575000Y-99685000D02*
X137575000Y-99620000D01*
X141695000Y-90815000D02*
X141695000Y-90880000D01*
X141695000Y-99620000D02*
X141695000Y-99685000D01*
X141695000Y-99685000D02*
X137575000Y-99685000D01*
X137035000Y-90880000D02*
X136795000Y-90550000D01*
X137275000Y-90550000D01*
X137035000Y-90880000D01*
G36*
X137035000Y-90880000D02*
G01*
X136795000Y-90550000D01*
X137275000Y-90550000D01*
X137035000Y-90880000D01*
G37*
%TO.C,R6*%
X100407742Y-92822500D02*
X100882258Y-92822500D01*
X100407742Y-93867500D02*
X100882258Y-93867500D01*
%TO.C,D1*%
X131480000Y-102870000D02*
X131480000Y-104830000D01*
X131480000Y-104830000D02*
X132680000Y-104830000D01*
X132680000Y-102870000D02*
X132680000Y-104830000D01*
%TO.C,C1*%
X127280580Y-79465000D02*
X126999420Y-79465000D01*
X127280580Y-80485000D02*
X126999420Y-80485000D01*
%TO.C,R12*%
X116412742Y-107427500D02*
X116887258Y-107427500D01*
X116412742Y-108472500D02*
X116887258Y-108472500D01*
%TO.C,R10*%
X116887258Y-103392500D02*
X116412742Y-103392500D01*
X116887258Y-102347500D02*
X116412742Y-102347500D01*
%TD*%
M02*
