%TF.GenerationSoftware,KiCad,Pcbnew,9.0.5*%
%TF.CreationDate,2025-10-13T21:35:54-05:00*%
%TF.ProjectId,jerry,6a657272-792e-46b6-9963-61645f706362,rev?*%
%TF.SameCoordinates,Original*%
%TF.FileFunction,Copper,L2,Bot*%
%TF.FilePolarity,Positive*%
%FSLAX46Y46*%
G04 Gerber Fmt 4.6, Leading zero omitted, Abs format (unit mm)*
G04 Created by KiCad (PCBNEW 9.0.5) date 2025-10-13 21:35:54*
%MOMM*%
%LPD*%
G01*
G04 APERTURE LIST*
G04 Aperture macros list*
%AMRoundRect*
0 Rectangle with rounded corners*
0 $1 Rounding radius*
0 $2 $3 $4 $5 $6 $7 $8 $9 X,Y pos of 4 corners*
0 Add a 4 corners polygon primitive as box body*
4,1,4,$2,$3,$4,$5,$6,$7,$8,$9,$2,$3,0*
0 Add four circle primitives for the rounded corners*
1,1,$1+$1,$2,$3*
1,1,$1+$1,$4,$5*
1,1,$1+$1,$6,$7*
1,1,$1+$1,$8,$9*
0 Add four rect primitives between the rounded corners*
20,1,$1+$1,$2,$3,$4,$5,0*
20,1,$1+$1,$4,$5,$6,$7,0*
20,1,$1+$1,$6,$7,$8,$9,0*
20,1,$1+$1,$8,$9,$2,$3,0*%
G04 Aperture macros list end*
%TA.AperFunction,ComponentPad*%
%ADD10R,1.700000X1.700000*%
%TD*%
%TA.AperFunction,ComponentPad*%
%ADD11C,1.700000*%
%TD*%
%TA.AperFunction,SMDPad,CuDef*%
%ADD12RoundRect,0.225000X0.225000X0.250000X-0.225000X0.250000X-0.225000X-0.250000X0.225000X-0.250000X0*%
%TD*%
%TA.AperFunction,SMDPad,CuDef*%
%ADD13RoundRect,0.200000X-0.200000X-0.275000X0.200000X-0.275000X0.200000X0.275000X-0.200000X0.275000X0*%
%TD*%
%TA.AperFunction,SMDPad,CuDef*%
%ADD14RoundRect,0.200000X0.275000X-0.200000X0.275000X0.200000X-0.275000X0.200000X-0.275000X-0.200000X0*%
%TD*%
%TA.AperFunction,SMDPad,CuDef*%
%ADD15RoundRect,0.150000X-0.150000X0.725000X-0.150000X-0.725000X0.150000X-0.725000X0.150000X0.725000X0*%
%TD*%
%TA.AperFunction,ViaPad*%
%ADD16C,0.600000*%
%TD*%
%TA.AperFunction,Conductor*%
%ADD17C,0.200000*%
%TD*%
%TA.AperFunction,Conductor*%
%ADD18C,2.540000*%
%TD*%
G04 APERTURE END LIST*
D10*
%TO.P,J1,1,Pin_1*%
%TO.N,GND*%
X95250000Y-87630000D03*
D11*
%TO.P,J1,2,Pin_2*%
%TO.N,Net-(J1-Pin_2)*%
X95250000Y-90170000D03*
%TO.P,J1,3,Pin_3*%
%TO.N,Net-(J1-Pin_3)*%
X95250000Y-92710000D03*
%TO.P,J1,4,Pin_4*%
%TO.N,Net-(J1-Pin_4)*%
X95250000Y-95250000D03*
%TO.P,J1,5,Pin_5*%
%TO.N,OUT*%
X95250000Y-97790000D03*
%TO.P,J1,6,Pin_6*%
%TO.N,VCC*%
X95250000Y-100330000D03*
%TD*%
D12*
%TO.P,C3,1*%
%TO.N,GND*%
X144990000Y-105480000D03*
%TO.P,C3,2*%
%TO.N,Net-(U8-CV)*%
X143440000Y-105480000D03*
%TD*%
D13*
%TO.P,R15,1*%
%TO.N,VCC*%
X136780000Y-107950000D03*
%TO.P,R15,2*%
%TO.N,Net-(U8-DIS)*%
X138430000Y-107950000D03*
%TD*%
D12*
%TO.P,C4,1*%
%TO.N,GND*%
X145060000Y-100330000D03*
%TO.P,C4,2*%
%TO.N,Net-(U8-TR)*%
X143510000Y-100330000D03*
%TD*%
D14*
%TO.P,R13,1*%
%TO.N,Net-(U8-DIS)*%
X134620000Y-103250000D03*
%TO.P,R13,2*%
%TO.N,Net-(U8-TR)*%
X134620000Y-101600000D03*
%TD*%
D15*
%TO.P,U8,1,GND*%
%TO.N,GND*%
X137160000Y-100330000D03*
%TO.P,U8,2,TR*%
%TO.N,Net-(U8-TR)*%
X138430000Y-100330000D03*
%TO.P,U8,3,Q*%
%TO.N,Net-(D3-K)*%
X139700000Y-100330000D03*
%TO.P,U8,4,R*%
%TO.N,VCC*%
X140970000Y-100330000D03*
%TO.P,U8,5,CV*%
%TO.N,Net-(U8-CV)*%
X140970000Y-105480000D03*
%TO.P,U8,6,THR*%
%TO.N,Net-(U8-THR)*%
X139700000Y-105480000D03*
%TO.P,U8,7,DIS*%
%TO.N,Net-(U8-DIS)*%
X138430000Y-105480000D03*
%TO.P,U8,8,VCC*%
%TO.N,VCC*%
X137160000Y-105480000D03*
%TD*%
D16*
%TO.N,GND*%
X127915000Y-78705000D03*
%TO.N,Net-(U2B-Q1)*%
X134620000Y-99695000D03*
X139700000Y-109220000D03*
%TO.N,Net-(U6-Pad13)*%
X140335000Y-86995000D03*
X140335000Y-92075000D03*
%TO.N,VCC*%
X146050000Y-89535000D03*
X144145000Y-91440000D03*
%TO.N,/CONN*%
X123825000Y-84455000D03*
X122555000Y-85725000D03*
%TO.N,Net-(U7-Pad13)*%
X146050000Y-80010000D03*
X144145000Y-80010000D03*
%TO.N,Net-(D1-K)*%
X128905000Y-108585000D03*
%TO.N,/HIGH_BIT_RST*%
X123825000Y-104140000D03*
X130175000Y-107950000D03*
%TO.N,Net-(U5B-D)*%
X130810000Y-92710000D03*
X127635000Y-105410000D03*
%TO.N,Net-(U5B-C)*%
X133985000Y-88900000D03*
X135255000Y-93345000D03*
%TO.N,Net-(U6-Pad6)*%
X135255000Y-83820000D03*
X139065000Y-96520000D03*
%TO.N,Net-(U6-Pad4)*%
X139065000Y-83185000D03*
X139065000Y-94615000D03*
%TO.N,/MS_CNTR_RST*%
X118745000Y-92710000D03*
X123825000Y-93980000D03*
%TO.N,Net-(U2B-Q1)*%
X133985000Y-97155000D03*
X128270000Y-96520000D03*
%TO.N,Net-(U2B-Q2)*%
X133985000Y-95885000D03*
X130810000Y-95885000D03*
%TO.N,Net-(D1-K)*%
X118745000Y-105410000D03*
X118745000Y-107950000D03*
%TO.N,Net-(R8-Pad2)*%
X110744000Y-96520000D03*
X106045000Y-106680000D03*
%TO.N,Net-(U9-Pad10)*%
X107315000Y-107950000D03*
X106045000Y-109220000D03*
%TO.N,Net-(R9-Pad2)*%
X106680000Y-99060000D03*
X102235000Y-107950000D03*
%TO.N,Net-(R7-Pad2)*%
X100965000Y-97155000D03*
X100965000Y-102235000D03*
%TO.N,Net-(R6-Pad2)*%
X104140000Y-101600000D03*
X102235000Y-93980000D03*
%TO.N,Net-(U3-QB)*%
X106045000Y-96520000D03*
X106045000Y-89535000D03*
%TO.N,Net-(U3-QC)*%
X107315000Y-98425000D03*
X106680000Y-87630000D03*
%TO.N,Net-(U3-QD)*%
X107315000Y-85725000D03*
X107315000Y-92075000D03*
%TO.N,OUT*%
X122555000Y-112395000D03*
X122555000Y-107950000D03*
%TO.N,GND*%
X118745000Y-99060000D03*
%TO.N,Net-(U2A-Q3)*%
X123190000Y-96520000D03*
X111125000Y-92710000D03*
%TO.N,Net-(U3-QA)*%
X102235000Y-91440000D03*
X102235000Y-86360000D03*
%TO.N,Net-(U5B-C)*%
X127635000Y-106680000D03*
X133350000Y-98425000D03*
%TO.N,Net-(U10-Pad1)*%
X133985000Y-107315000D03*
X133985000Y-104775000D03*
%TO.N,Net-(U8-THR)*%
X139700000Y-104140000D03*
%TO.N,Net-(D3-K)*%
X140335000Y-98425000D03*
%TO.N,GND*%
X135255000Y-99060000D03*
X135255000Y-86360000D03*
%TO.N,/MS_CNTR_RST*%
X132080000Y-96520000D03*
%TO.N,Net-(U2A-Q1)*%
X118745000Y-95250000D03*
X106045000Y-97790000D03*
%TO.N,Net-(U2A-Q0)*%
X106045000Y-92710000D03*
X118745000Y-93980000D03*
%TO.N,GND*%
X121285000Y-89535000D03*
X131445000Y-93980000D03*
%TO.N,VCC*%
X139700000Y-102870000D03*
%TO.N,GND*%
X131445000Y-110490000D03*
X118110000Y-110490000D03*
X102235000Y-110490000D03*
X102235000Y-99060000D03*
X102235000Y-83820000D03*
X111125000Y-78740000D03*
%TD*%
D17*
%TO.N,Net-(R7-Pad2)*%
X100965000Y-97155000D02*
X100965000Y-102235000D01*
%TO.N,Net-(R6-Pad2)*%
X104140000Y-101600000D02*
X103505000Y-100965000D01*
X103505000Y-100965000D02*
X103505000Y-95250000D01*
X103505000Y-95250000D02*
X102235000Y-93980000D01*
%TO.N,Net-(U2A-Q3)*%
X123190000Y-96520000D02*
X120015000Y-93345000D01*
X120015000Y-93345000D02*
X111760000Y-93345000D01*
X111760000Y-93345000D02*
X111125000Y-92710000D01*
%TO.N,Net-(U2A-Q0)*%
X106045000Y-92710000D02*
X107315000Y-93980000D01*
X107315000Y-93980000D02*
X118745000Y-93980000D01*
%TO.N,Net-(U2B-Q1)*%
X134620000Y-99695000D02*
X133844000Y-100471000D01*
X139299000Y-109621000D02*
X139700000Y-109220000D01*
X133844000Y-100471000D02*
X133844000Y-101106000D01*
X135088900Y-109621000D02*
X139299000Y-109621000D01*
X133844000Y-101106000D02*
X133350000Y-101600000D01*
X133350000Y-101600000D02*
X133350000Y-104492057D01*
X133384000Y-104526057D02*
X133384000Y-107916100D01*
X133350000Y-104492057D02*
X133384000Y-104526057D01*
X133384000Y-107916100D02*
X135088900Y-109621000D01*
%TO.N,Net-(U6-Pad13)*%
X140335000Y-92075000D02*
X140335000Y-86995000D01*
%TO.N,VCC*%
X146050000Y-89535000D02*
X144145000Y-91440000D01*
%TO.N,/CONN*%
X122555000Y-85725000D02*
X123825000Y-84455000D01*
%TO.N,Net-(U7-Pad13)*%
X144145000Y-80010000D02*
X146050000Y-80010000D01*
%TO.N,Net-(D1-K)*%
X128905000Y-108585000D02*
X125095000Y-108585000D01*
X125095000Y-108585000D02*
X121920000Y-105410000D01*
X121920000Y-105410000D02*
X118745000Y-105410000D01*
%TO.N,/HIGH_BIT_RST*%
X123825000Y-104140000D02*
X127635000Y-107950000D01*
X127635000Y-107950000D02*
X130175000Y-107950000D01*
%TO.N,Net-(U5B-D)*%
X130810000Y-92710000D02*
X130810000Y-95035057D01*
X134586000Y-95636057D02*
X134586000Y-97403943D01*
X128905000Y-104140000D02*
X127635000Y-105410000D01*
X130810000Y-95035057D02*
X133985000Y-95035057D01*
X133135057Y-97790000D02*
X128905000Y-102020057D01*
X133985000Y-95035057D02*
X134586000Y-95636057D01*
X134586000Y-97403943D02*
X134199943Y-97790000D01*
X134199943Y-97790000D02*
X133135057Y-97790000D01*
X128905000Y-102020057D02*
X128905000Y-104140000D01*
%TO.N,Net-(U5B-C)*%
X133985000Y-88900000D02*
X135255000Y-90170000D01*
X135255000Y-90170000D02*
X135255000Y-93345000D01*
%TO.N,Net-(U6-Pad6)*%
X138430000Y-86995000D02*
X135255000Y-83820000D01*
X139065000Y-96520000D02*
X138430000Y-95885000D01*
X138430000Y-95885000D02*
X138430000Y-86995000D01*
%TO.N,Net-(U6-Pad4)*%
X139065000Y-94615000D02*
X139065000Y-83185000D01*
%TO.N,/MS_CNTR_RST*%
X122555000Y-92710000D02*
X118745000Y-92710000D01*
X123825000Y-93980000D02*
X122555000Y-92710000D01*
X126579943Y-93980000D02*
X123825000Y-93980000D01*
X129119943Y-96520000D02*
X126579943Y-93980000D01*
X132080000Y-96520000D02*
X129119943Y-96520000D01*
%TO.N,Net-(U2B-Q1)*%
X128270000Y-96520000D02*
X128905000Y-97155000D01*
X128905000Y-97155000D02*
X133985000Y-97155000D01*
%TO.N,Net-(U2B-Q2)*%
X130810000Y-95885000D02*
X133985000Y-95885000D01*
%TO.N,Net-(U5B-C)*%
X133350000Y-98425000D02*
X133350000Y-100965000D01*
X133350000Y-100965000D02*
X127635000Y-106680000D01*
%TO.N,Net-(D1-K)*%
X118745000Y-105410000D02*
X118745000Y-107950000D01*
%TO.N,Net-(R8-Pad2)*%
X110744000Y-96520000D02*
X110744000Y-101981000D01*
X110744000Y-101981000D02*
X106045000Y-106680000D01*
%TO.N,Net-(U2A-Q1)*%
X106045000Y-97790000D02*
X108585000Y-95250000D01*
X108585000Y-95250000D02*
X118745000Y-95250000D01*
%TO.N,Net-(U9-Pad10)*%
X106045000Y-109220000D02*
X107315000Y-107950000D01*
%TO.N,Net-(R9-Pad2)*%
X106680000Y-99060000D02*
X106680000Y-102870000D01*
X106680000Y-102870000D02*
X102235000Y-107315000D01*
X102235000Y-107315000D02*
X102235000Y-107950000D01*
%TO.N,Net-(U3-QC)*%
X107315000Y-98425000D02*
X105410000Y-98425000D01*
X105410000Y-98425000D02*
X104140000Y-97155000D01*
X104140000Y-97155000D02*
X104140000Y-90170000D01*
X104140000Y-90170000D02*
X106680000Y-87630000D01*
%TO.N,Net-(U3-QB)*%
X106045000Y-89535000D02*
X105444000Y-90136000D01*
X105444000Y-90136000D02*
X105444000Y-95919000D01*
X105444000Y-95919000D02*
X106045000Y-96520000D01*
%TO.N,Net-(U3-QD)*%
X107315000Y-92075000D02*
X107315000Y-85725000D01*
%TO.N,OUT*%
X122555000Y-107950000D02*
X122555000Y-112395000D01*
%TO.N,Net-(U10-Pad1)*%
X133985000Y-107315000D02*
X133985000Y-104775000D01*
%TO.N,GND*%
X137160000Y-99060000D02*
X135255000Y-97155000D01*
X135255000Y-97155000D02*
X135255000Y-97790000D01*
X135255000Y-97790000D02*
X135255000Y-94615000D01*
X135255000Y-94615000D02*
X134620000Y-93980000D01*
X134620000Y-93980000D02*
X131445000Y-93980000D01*
%TO.N,Net-(U3-QA)*%
X102235000Y-86360000D02*
X102235000Y-91440000D01*
%TO.N,Net-(U8-TR)*%
X134620000Y-101600000D02*
X138034999Y-101600000D01*
X138034999Y-101600000D02*
X138430000Y-101204999D01*
X138430000Y-101204999D02*
X138430000Y-100330000D01*
%TO.N,Net-(U8-DIS)*%
X134620000Y-103250000D02*
X134620000Y-108585000D01*
X135255000Y-109220000D02*
X137795000Y-109220000D01*
X134620000Y-108585000D02*
X135255000Y-109220000D01*
X137795000Y-109220000D02*
X138430000Y-108585000D01*
X138430000Y-108585000D02*
X138430000Y-107950000D01*
%TO.N,Net-(U8-THR)*%
X139700000Y-104140000D02*
X139700000Y-105480000D01*
%TO.N,Net-(U8-DIS)*%
X138430000Y-107950000D02*
X138430000Y-105480000D01*
%TO.N,VCC*%
X137160000Y-105480000D02*
X137160000Y-107570000D01*
X137160000Y-107570000D02*
X136780000Y-107950000D01*
%TO.N,Net-(D3-K)*%
X139700000Y-99060000D02*
X140335000Y-98425000D01*
X139700000Y-100330000D02*
X139700000Y-99060000D01*
%TO.N,Net-(U8-TR)*%
X143510000Y-100330000D02*
X143510000Y-99060000D01*
X143510000Y-99060000D02*
X142240000Y-97790000D01*
X142240000Y-97790000D02*
X139580000Y-97790000D01*
X139580000Y-97790000D02*
X138430000Y-98940000D01*
X138430000Y-98940000D02*
X138430000Y-100330000D01*
%TO.N,GND*%
X135255000Y-99060000D02*
X135255000Y-97790000D01*
%TO.N,Net-(U8-CV)*%
X140970000Y-105480000D02*
X143440000Y-105480000D01*
X143440000Y-105480000D02*
X143510000Y-105410000D01*
%TO.N,VCC*%
X139700000Y-102870000D02*
X138430000Y-102870000D01*
X138430000Y-102870000D02*
X137160000Y-104140000D01*
X137160000Y-104140000D02*
X137160000Y-105480000D01*
X140970000Y-101600000D02*
X139700000Y-102870000D01*
X140970000Y-100330000D02*
X140970000Y-101600000D01*
%TO.N,GND*%
X145060000Y-100330000D02*
X145060000Y-99340000D01*
X145060000Y-99340000D02*
X142875000Y-97155000D01*
X137160000Y-99060000D02*
X137160000Y-100330000D01*
X142875000Y-97155000D02*
X139065000Y-97155000D01*
X139065000Y-97155000D02*
X137160000Y-99060000D01*
X145060000Y-105410000D02*
X145060000Y-100330000D01*
D18*
X95250000Y-87630000D02*
X99370000Y-87630000D01*
%TD*%
%TA.AperFunction,Conductor*%
%TO.N,GND*%
G36*
X148667539Y-76789685D02*
G01*
X148713294Y-76842489D01*
X148724500Y-76894000D01*
X148724500Y-88376000D01*
X148704815Y-88443039D01*
X148652011Y-88488794D01*
X148600500Y-88500000D01*
X141059500Y-88500000D01*
X140992461Y-88480315D01*
X140946706Y-88427511D01*
X140935500Y-88376000D01*
X140935500Y-87574765D01*
X140955185Y-87507726D01*
X140956398Y-87505874D01*
X141044390Y-87374185D01*
X141044390Y-87374184D01*
X141044394Y-87374179D01*
X141104737Y-87228497D01*
X141135500Y-87073842D01*
X141135500Y-86916158D01*
X141135500Y-86916155D01*
X141135499Y-86916153D01*
X141124381Y-86860261D01*
X141104737Y-86761503D01*
X141081726Y-86705949D01*
X141044397Y-86615827D01*
X141044390Y-86615814D01*
X140956789Y-86484711D01*
X140956786Y-86484707D01*
X140845292Y-86373213D01*
X140845288Y-86373210D01*
X140714185Y-86285609D01*
X140714172Y-86285602D01*
X140568501Y-86225264D01*
X140568489Y-86225261D01*
X140413845Y-86194500D01*
X140413842Y-86194500D01*
X140256158Y-86194500D01*
X140256155Y-86194500D01*
X140101510Y-86225261D01*
X140101498Y-86225264D01*
X139955827Y-86285602D01*
X139955814Y-86285609D01*
X139858391Y-86350706D01*
X139791713Y-86371584D01*
X139724333Y-86353099D01*
X139677643Y-86301121D01*
X139665500Y-86247604D01*
X139665500Y-83764765D01*
X139685185Y-83697726D01*
X139686398Y-83695874D01*
X139693490Y-83685261D01*
X139774394Y-83564179D01*
X139834737Y-83418497D01*
X139865500Y-83263842D01*
X139865500Y-83106158D01*
X139865500Y-83106155D01*
X139865499Y-83106153D01*
X139854381Y-83050261D01*
X139834737Y-82951503D01*
X139834735Y-82951498D01*
X139774397Y-82805827D01*
X139774390Y-82805814D01*
X139686789Y-82674711D01*
X139686786Y-82674707D01*
X139575292Y-82563213D01*
X139575288Y-82563210D01*
X139444185Y-82475609D01*
X139444172Y-82475602D01*
X139298501Y-82415264D01*
X139298489Y-82415261D01*
X139143845Y-82384500D01*
X139143842Y-82384500D01*
X138986158Y-82384500D01*
X138986155Y-82384500D01*
X138831510Y-82415261D01*
X138831498Y-82415264D01*
X138685827Y-82475602D01*
X138685814Y-82475609D01*
X138554711Y-82563210D01*
X138554707Y-82563213D01*
X138443213Y-82674707D01*
X138443210Y-82674711D01*
X138355609Y-82805814D01*
X138355602Y-82805827D01*
X138295264Y-82951498D01*
X138295261Y-82951510D01*
X138264500Y-83106153D01*
X138264500Y-83263846D01*
X138295261Y-83418489D01*
X138295264Y-83418501D01*
X138355602Y-83564172D01*
X138355609Y-83564185D01*
X138434595Y-83682395D01*
X138436510Y-83685261D01*
X138443602Y-83695874D01*
X138464480Y-83762551D01*
X138464500Y-83764765D01*
X138464500Y-85880903D01*
X138444815Y-85947942D01*
X138392011Y-85993697D01*
X138322853Y-86003641D01*
X138259297Y-85974616D01*
X138252819Y-85968584D01*
X136089574Y-83805339D01*
X136056089Y-83744016D01*
X136055638Y-83741849D01*
X136024738Y-83586510D01*
X136024737Y-83586503D01*
X136015487Y-83564172D01*
X135964397Y-83440827D01*
X135964390Y-83440814D01*
X135876789Y-83309711D01*
X135876786Y-83309707D01*
X135765292Y-83198213D01*
X135765288Y-83198210D01*
X135634185Y-83110609D01*
X135634172Y-83110602D01*
X135488501Y-83050264D01*
X135488489Y-83050261D01*
X135333845Y-83019500D01*
X135333842Y-83019500D01*
X135176158Y-83019500D01*
X135176155Y-83019500D01*
X135021510Y-83050261D01*
X135021498Y-83050264D01*
X134875827Y-83110602D01*
X134875814Y-83110609D01*
X134744711Y-83198210D01*
X134744707Y-83198213D01*
X134633213Y-83309707D01*
X134633210Y-83309711D01*
X134545609Y-83440814D01*
X134545602Y-83440827D01*
X134485264Y-83586498D01*
X134485261Y-83586510D01*
X134454500Y-83741153D01*
X134454500Y-83898846D01*
X134485261Y-84053489D01*
X134485264Y-84053501D01*
X134545602Y-84199172D01*
X134545609Y-84199185D01*
X134633210Y-84330288D01*
X134633213Y-84330292D01*
X134744707Y-84441786D01*
X134744711Y-84441789D01*
X134875814Y-84529390D01*
X134875827Y-84529397D01*
X135021498Y-84589735D01*
X135021503Y-84589737D01*
X135086147Y-84602595D01*
X135176849Y-84620638D01*
X135238760Y-84653023D01*
X135240339Y-84654574D01*
X137793181Y-87207416D01*
X137826666Y-87268739D01*
X137829500Y-87295097D01*
X137829500Y-88376000D01*
X137809815Y-88443039D01*
X137757011Y-88488794D01*
X137705500Y-88500000D01*
X134746761Y-88500000D01*
X134679722Y-88480315D01*
X134643658Y-88444890D01*
X134643554Y-88444735D01*
X134606789Y-88389711D01*
X134606787Y-88389708D01*
X134495292Y-88278213D01*
X134495288Y-88278210D01*
X134364185Y-88190609D01*
X134364172Y-88190602D01*
X134218501Y-88130264D01*
X134218489Y-88130261D01*
X134063845Y-88099500D01*
X134063842Y-88099500D01*
X133906158Y-88099500D01*
X133906155Y-88099500D01*
X133751510Y-88130261D01*
X133751498Y-88130264D01*
X133605827Y-88190602D01*
X133605814Y-88190609D01*
X133474711Y-88278210D01*
X133474707Y-88278213D01*
X133363212Y-88389708D01*
X133338104Y-88427284D01*
X133326446Y-88444735D01*
X133326342Y-88444890D01*
X133272730Y-88489696D01*
X133223239Y-88500000D01*
X133000000Y-88500000D01*
X133118531Y-94308029D01*
X133100220Y-94375454D01*
X133048360Y-94422277D01*
X132994558Y-94434557D01*
X131534500Y-94434557D01*
X131467461Y-94414872D01*
X131421706Y-94362068D01*
X131410500Y-94310557D01*
X131410500Y-93289765D01*
X131430185Y-93222726D01*
X131431398Y-93220874D01*
X131438490Y-93210261D01*
X131519394Y-93089179D01*
X131579737Y-92943497D01*
X131610500Y-92788842D01*
X131610500Y-92631158D01*
X131610500Y-92631155D01*
X131610499Y-92631153D01*
X131601376Y-92585288D01*
X131579737Y-92476503D01*
X131523728Y-92341284D01*
X131519397Y-92330827D01*
X131519390Y-92330814D01*
X131431789Y-92199711D01*
X131431786Y-92199707D01*
X131320292Y-92088213D01*
X131320288Y-92088210D01*
X131189185Y-92000609D01*
X131189172Y-92000602D01*
X131043501Y-91940264D01*
X131043489Y-91940261D01*
X130888845Y-91909500D01*
X130888842Y-91909500D01*
X130731158Y-91909500D01*
X130731155Y-91909500D01*
X130576510Y-91940261D01*
X130576498Y-91940264D01*
X130430827Y-92000602D01*
X130430814Y-92000609D01*
X130299711Y-92088210D01*
X130299707Y-92088213D01*
X130188213Y-92199707D01*
X130188210Y-92199711D01*
X130100609Y-92330814D01*
X130100602Y-92330827D01*
X130040264Y-92476498D01*
X130040261Y-92476510D01*
X130009500Y-92631153D01*
X130009500Y-92788846D01*
X130040261Y-92943489D01*
X130040264Y-92943501D01*
X130100602Y-93089172D01*
X130100609Y-93089185D01*
X130165707Y-93186609D01*
X130181510Y-93210261D01*
X130188602Y-93220874D01*
X130209480Y-93287551D01*
X130209500Y-93289765D01*
X130209500Y-94956000D01*
X130209500Y-95114114D01*
X130241542Y-95233700D01*
X130239880Y-95303547D01*
X130209451Y-95353471D01*
X130188208Y-95374714D01*
X130100609Y-95505814D01*
X130100602Y-95505827D01*
X130040264Y-95651498D01*
X130040261Y-95651510D01*
X130009501Y-95806146D01*
X130009354Y-95807646D01*
X130009057Y-95808381D01*
X130008311Y-95812132D01*
X130007599Y-95811990D01*
X129983197Y-95872435D01*
X129926165Y-95912798D01*
X129885950Y-95919500D01*
X129420040Y-95919500D01*
X129353001Y-95899815D01*
X129332359Y-95883181D01*
X127067533Y-93618355D01*
X127067531Y-93618352D01*
X126948660Y-93499481D01*
X126948659Y-93499480D01*
X126861847Y-93449360D01*
X126861847Y-93449359D01*
X126861843Y-93449358D01*
X126811728Y-93420423D01*
X126659000Y-93379499D01*
X126500886Y-93379499D01*
X126493290Y-93379499D01*
X126493274Y-93379500D01*
X124404766Y-93379500D01*
X124337727Y-93359815D01*
X124335875Y-93358602D01*
X124204185Y-93270609D01*
X124204172Y-93270602D01*
X124058501Y-93210264D01*
X124058491Y-93210261D01*
X123903149Y-93179361D01*
X123841238Y-93146976D01*
X123839660Y-93145425D01*
X123042590Y-92348355D01*
X123042588Y-92348352D01*
X122923717Y-92229481D01*
X122923716Y-92229480D01*
X122836904Y-92179360D01*
X122836904Y-92179359D01*
X122836900Y-92179358D01*
X122786785Y-92150423D01*
X122634057Y-92109499D01*
X122475943Y-92109499D01*
X122468347Y-92109499D01*
X122468331Y-92109500D01*
X119324766Y-92109500D01*
X119257727Y-92089815D01*
X119255875Y-92088602D01*
X119124185Y-92000609D01*
X119124172Y-92000602D01*
X118978501Y-91940264D01*
X118978489Y-91940261D01*
X118823845Y-91909500D01*
X118823842Y-91909500D01*
X118666158Y-91909500D01*
X118666155Y-91909500D01*
X118511510Y-91940261D01*
X118511498Y-91940264D01*
X118365827Y-92000602D01*
X118365814Y-92000609D01*
X118234711Y-92088210D01*
X118234707Y-92088213D01*
X118123213Y-92199707D01*
X118123210Y-92199711D01*
X118035609Y-92330814D01*
X118035602Y-92330827D01*
X117975264Y-92476498D01*
X117975261Y-92476510D01*
X117944501Y-92631146D01*
X117944354Y-92632646D01*
X117944057Y-92633381D01*
X117943311Y-92637132D01*
X117942599Y-92636990D01*
X117918197Y-92697435D01*
X117861165Y-92737798D01*
X117820950Y-92744500D01*
X112060098Y-92744500D01*
X112030657Y-92735855D01*
X112000671Y-92729332D01*
X111995655Y-92725577D01*
X111993059Y-92724815D01*
X111972417Y-92708181D01*
X111959573Y-92695337D01*
X111926088Y-92634014D01*
X111925637Y-92631847D01*
X111925498Y-92631146D01*
X111894737Y-92476503D01*
X111838728Y-92341284D01*
X111834397Y-92330827D01*
X111834390Y-92330814D01*
X111746789Y-92199711D01*
X111746786Y-92199707D01*
X111635292Y-92088213D01*
X111635288Y-92088210D01*
X111504185Y-92000609D01*
X111504172Y-92000602D01*
X111358501Y-91940264D01*
X111358489Y-91940261D01*
X111203845Y-91909500D01*
X111203842Y-91909500D01*
X111046158Y-91909500D01*
X111046155Y-91909500D01*
X110891510Y-91940261D01*
X110891498Y-91940264D01*
X110745827Y-92000602D01*
X110745814Y-92000609D01*
X110614711Y-92088210D01*
X110614707Y-92088213D01*
X110503213Y-92199707D01*
X110503210Y-92199711D01*
X110415609Y-92330814D01*
X110415602Y-92330827D01*
X110355264Y-92476498D01*
X110355261Y-92476510D01*
X110324500Y-92631153D01*
X110324500Y-92788846D01*
X110355261Y-92943489D01*
X110355264Y-92943501D01*
X110415602Y-93089172D01*
X110415609Y-93089185D01*
X110480706Y-93186609D01*
X110501584Y-93253287D01*
X110483099Y-93320667D01*
X110431121Y-93367357D01*
X110377604Y-93379500D01*
X107615097Y-93379500D01*
X107548058Y-93359815D01*
X107527416Y-93343181D01*
X107271416Y-93087181D01*
X107237931Y-93025858D01*
X107242915Y-92956166D01*
X107284787Y-92900233D01*
X107350251Y-92875816D01*
X107359097Y-92875500D01*
X107393844Y-92875500D01*
X107393845Y-92875499D01*
X107548497Y-92844737D01*
X107683436Y-92788844D01*
X107694172Y-92784397D01*
X107694172Y-92784396D01*
X107694179Y-92784394D01*
X107825289Y-92696789D01*
X107936789Y-92585289D01*
X108024394Y-92454179D01*
X108084737Y-92308497D01*
X108115500Y-92153842D01*
X108115500Y-91996158D01*
X108115500Y-91996155D01*
X108115499Y-91996153D01*
X108099072Y-91913570D01*
X108084737Y-91841503D01*
X108084735Y-91841498D01*
X108024397Y-91695827D01*
X108024390Y-91695814D01*
X107936398Y-91564125D01*
X107915520Y-91497447D01*
X107915500Y-91495234D01*
X107915500Y-86304765D01*
X107935185Y-86237726D01*
X107936398Y-86235874D01*
X107943490Y-86225261D01*
X108024394Y-86104179D01*
X108084737Y-85958497D01*
X108115500Y-85803842D01*
X108115500Y-85646158D01*
X108115500Y-85646155D01*
X108115499Y-85646153D01*
X121754500Y-85646153D01*
X121754500Y-85803846D01*
X121785261Y-85958489D01*
X121785264Y-85958501D01*
X121845602Y-86104172D01*
X121845609Y-86104185D01*
X121933210Y-86235288D01*
X121933213Y-86235292D01*
X122044707Y-86346786D01*
X122044711Y-86346789D01*
X122175814Y-86434390D01*
X122175827Y-86434397D01*
X122297288Y-86484707D01*
X122321503Y-86494737D01*
X122476153Y-86525499D01*
X122476156Y-86525500D01*
X122476158Y-86525500D01*
X122633844Y-86525500D01*
X122633845Y-86525499D01*
X122788497Y-86494737D01*
X122923436Y-86438844D01*
X122934172Y-86434397D01*
X122934172Y-86434396D01*
X122934179Y-86434394D01*
X123065289Y-86346789D01*
X123176789Y-86235289D01*
X123264394Y-86104179D01*
X123324737Y-85958497D01*
X123346377Y-85849707D01*
X123355638Y-85803150D01*
X123388023Y-85741239D01*
X123389518Y-85739716D01*
X123839662Y-85289572D01*
X123900983Y-85256089D01*
X123903150Y-85255638D01*
X123961085Y-85244113D01*
X124058497Y-85224737D01*
X124204179Y-85164394D01*
X124335289Y-85076789D01*
X124446789Y-84965289D01*
X124534394Y-84834179D01*
X124594737Y-84688497D01*
X124625500Y-84533842D01*
X124625500Y-84376158D01*
X124625500Y-84376155D01*
X124625499Y-84376153D01*
X124594738Y-84221510D01*
X124594738Y-84221508D01*
X124594737Y-84221503D01*
X124585487Y-84199172D01*
X124534397Y-84075827D01*
X124534390Y-84075814D01*
X124446789Y-83944711D01*
X124446786Y-83944707D01*
X124335292Y-83833213D01*
X124335288Y-83833210D01*
X124204185Y-83745609D01*
X124204172Y-83745602D01*
X124058501Y-83685264D01*
X124058489Y-83685261D01*
X123903845Y-83654500D01*
X123903842Y-83654500D01*
X123746158Y-83654500D01*
X123746155Y-83654500D01*
X123591510Y-83685261D01*
X123591498Y-83685264D01*
X123445827Y-83745602D01*
X123445814Y-83745609D01*
X123314711Y-83833210D01*
X123314707Y-83833213D01*
X123203213Y-83944707D01*
X123203210Y-83944711D01*
X123115609Y-84075814D01*
X123115602Y-84075827D01*
X123055264Y-84221498D01*
X123055261Y-84221508D01*
X123024361Y-84376850D01*
X122991976Y-84438761D01*
X122990425Y-84440339D01*
X122540339Y-84890425D01*
X122479016Y-84923910D01*
X122476850Y-84924361D01*
X122321508Y-84955261D01*
X122321498Y-84955264D01*
X122175827Y-85015602D01*
X122175814Y-85015609D01*
X122044711Y-85103210D01*
X122044707Y-85103213D01*
X121933213Y-85214707D01*
X121933210Y-85214711D01*
X121845609Y-85345814D01*
X121845602Y-85345827D01*
X121785264Y-85491498D01*
X121785261Y-85491510D01*
X121754500Y-85646153D01*
X108115499Y-85646153D01*
X108104381Y-85590261D01*
X108084737Y-85491503D01*
X108084735Y-85491498D01*
X108024397Y-85345827D01*
X108024390Y-85345814D01*
X107936789Y-85214711D01*
X107936786Y-85214707D01*
X107825292Y-85103213D01*
X107825288Y-85103210D01*
X107694185Y-85015609D01*
X107694172Y-85015602D01*
X107548501Y-84955264D01*
X107548489Y-84955261D01*
X107393845Y-84924500D01*
X107393842Y-84924500D01*
X107236158Y-84924500D01*
X107236155Y-84924500D01*
X107081510Y-84955261D01*
X107081498Y-84955264D01*
X106935827Y-85015602D01*
X106935814Y-85015609D01*
X106804711Y-85103210D01*
X106804707Y-85103213D01*
X106693213Y-85214707D01*
X106693210Y-85214711D01*
X106605609Y-85345814D01*
X106605602Y-85345827D01*
X106545264Y-85491498D01*
X106545261Y-85491510D01*
X106514500Y-85646153D01*
X106514500Y-85803846D01*
X106545261Y-85958489D01*
X106545264Y-85958501D01*
X106605602Y-86104172D01*
X106605609Y-86104185D01*
X106684595Y-86222395D01*
X106686510Y-86225261D01*
X106693602Y-86235874D01*
X106714480Y-86302551D01*
X106714500Y-86304765D01*
X106714500Y-86705949D01*
X106694815Y-86772988D01*
X106642011Y-86818743D01*
X106607100Y-86828154D01*
X106607132Y-86828311D01*
X106604796Y-86828775D01*
X106602662Y-86829351D01*
X106601158Y-86829499D01*
X106446510Y-86860261D01*
X106446498Y-86860264D01*
X106300827Y-86920602D01*
X106300814Y-86920609D01*
X106169711Y-87008210D01*
X106169707Y-87008213D01*
X106058213Y-87119707D01*
X106058210Y-87119711D01*
X105970609Y-87250814D01*
X105970602Y-87250827D01*
X105910264Y-87396498D01*
X105910261Y-87396508D01*
X105879361Y-87551850D01*
X105846976Y-87613761D01*
X105845425Y-87615339D01*
X103659481Y-89801282D01*
X103659479Y-89801285D01*
X103609361Y-89888094D01*
X103609359Y-89888096D01*
X103580425Y-89938209D01*
X103580424Y-89938210D01*
X103570865Y-89973884D01*
X103539499Y-90090943D01*
X103539499Y-90090945D01*
X103539499Y-90259046D01*
X103539500Y-90259059D01*
X103539500Y-94135903D01*
X103519815Y-94202942D01*
X103467011Y-94248697D01*
X103397853Y-94258641D01*
X103334297Y-94229616D01*
X103327819Y-94223584D01*
X103069574Y-93965339D01*
X103036089Y-93904016D01*
X103035638Y-93901849D01*
X103017595Y-93811147D01*
X103004737Y-93746503D01*
X102948728Y-93611284D01*
X102944397Y-93600827D01*
X102944390Y-93600814D01*
X102856789Y-93469711D01*
X102856786Y-93469707D01*
X102745292Y-93358213D01*
X102745288Y-93358210D01*
X102614185Y-93270609D01*
X102614172Y-93270602D01*
X102468501Y-93210264D01*
X102468489Y-93210261D01*
X102313845Y-93179500D01*
X102313842Y-93179500D01*
X102156158Y-93179500D01*
X102156155Y-93179500D01*
X102001510Y-93210261D01*
X102001498Y-93210264D01*
X101855827Y-93270602D01*
X101855814Y-93270609D01*
X101724711Y-93358210D01*
X101724707Y-93358213D01*
X101613213Y-93469707D01*
X101613210Y-93469711D01*
X101525609Y-93600814D01*
X101525602Y-93600827D01*
X101465264Y-93746498D01*
X101465261Y-93746510D01*
X101434500Y-93901153D01*
X101434500Y-94058846D01*
X101465261Y-94213489D01*
X101465264Y-94213501D01*
X101525602Y-94359172D01*
X101525609Y-94359185D01*
X101613210Y-94490288D01*
X101613213Y-94490292D01*
X101724707Y-94601786D01*
X101724711Y-94601789D01*
X101855814Y-94689390D01*
X101855827Y-94689397D01*
X101934894Y-94722147D01*
X102001503Y-94749737D01*
X102066147Y-94762595D01*
X102156849Y-94780638D01*
X102218760Y-94813023D01*
X102220339Y-94814574D01*
X102868181Y-95462416D01*
X102901666Y-95523739D01*
X102904500Y-95550097D01*
X102904500Y-100878330D01*
X102904499Y-100878348D01*
X102904499Y-101044054D01*
X102904498Y-101044054D01*
X102945424Y-101196789D01*
X102945425Y-101196790D01*
X102965340Y-101231283D01*
X102965341Y-101231284D01*
X103024477Y-101333712D01*
X103024481Y-101333717D01*
X103143349Y-101452585D01*
X103143355Y-101452590D01*
X103305425Y-101614660D01*
X103338910Y-101675983D01*
X103339361Y-101678149D01*
X103370261Y-101833491D01*
X103370264Y-101833501D01*
X103430602Y-101979172D01*
X103430609Y-101979185D01*
X103518210Y-102110288D01*
X103518213Y-102110292D01*
X103629707Y-102221786D01*
X103629711Y-102221789D01*
X103760814Y-102309390D01*
X103760827Y-102309397D01*
X103858170Y-102349717D01*
X103906503Y-102369737D01*
X104061153Y-102400499D01*
X104061156Y-102400500D01*
X104061158Y-102400500D01*
X104218844Y-102400500D01*
X104218845Y-102400499D01*
X104373497Y-102369737D01*
X104508436Y-102313844D01*
X104519172Y-102309397D01*
X104519172Y-102309396D01*
X104519179Y-102309394D01*
X104650289Y-102221789D01*
X104761789Y-102110289D01*
X104849394Y-101979179D01*
X104909737Y-101833497D01*
X104940500Y-101678842D01*
X104940500Y-101521158D01*
X104940500Y-101521155D01*
X104940499Y-101521153D01*
X104909737Y-101366503D01*
X104884469Y-101305499D01*
X104849397Y-101220827D01*
X104849390Y-101220814D01*
X104761789Y-101089711D01*
X104761786Y-101089707D01*
X104650292Y-100978213D01*
X104650288Y-100978210D01*
X104519185Y-100890609D01*
X104519172Y-100890602D01*
X104373501Y-100830264D01*
X104373491Y-100830261D01*
X104218151Y-100799362D01*
X104201393Y-100790595D01*
X104182912Y-100786575D01*
X104157876Y-100767832D01*
X104156241Y-100766977D01*
X104154658Y-100765423D01*
X104141815Y-100752579D01*
X104108333Y-100691254D01*
X104105500Y-100664901D01*
X104105500Y-98269097D01*
X104125185Y-98202058D01*
X104177989Y-98156303D01*
X104247147Y-98146359D01*
X104310703Y-98175384D01*
X104317181Y-98181416D01*
X104925139Y-98789374D01*
X104925149Y-98789385D01*
X104929479Y-98793715D01*
X104929480Y-98793716D01*
X105041284Y-98905520D01*
X105126121Y-98954500D01*
X105178215Y-98984577D01*
X105330942Y-99025500D01*
X105330943Y-99025500D01*
X105755950Y-99025500D01*
X105822989Y-99045185D01*
X105868744Y-99097989D01*
X105878153Y-99132899D01*
X105878311Y-99132868D01*
X105878778Y-99135220D01*
X105879354Y-99137354D01*
X105879501Y-99138853D01*
X105910261Y-99293489D01*
X105910264Y-99293501D01*
X105970602Y-99439172D01*
X105970609Y-99439185D01*
X106058602Y-99570874D01*
X106079480Y-99637551D01*
X106079500Y-99639765D01*
X106079500Y-102569902D01*
X106059815Y-102636941D01*
X106043181Y-102657583D01*
X101754481Y-106946282D01*
X101754475Y-106946290D01*
X101717450Y-107010421D01*
X101717450Y-107010423D01*
X101675423Y-107083214D01*
X101675423Y-107083215D01*
X101634499Y-107235943D01*
X101634499Y-107235945D01*
X101634499Y-107370235D01*
X101614814Y-107437274D01*
X101613601Y-107439126D01*
X101525609Y-107570814D01*
X101525602Y-107570827D01*
X101465264Y-107716498D01*
X101465261Y-107716510D01*
X101434500Y-107871153D01*
X101434500Y-108028846D01*
X101458179Y-108147885D01*
X101465263Y-108183497D01*
X101465264Y-108183499D01*
X101525602Y-108329172D01*
X101525609Y-108329185D01*
X101613210Y-108460288D01*
X101613213Y-108460292D01*
X101724707Y-108571786D01*
X101724711Y-108571789D01*
X101855814Y-108659390D01*
X101855827Y-108659397D01*
X101977288Y-108709707D01*
X102001503Y-108719737D01*
X102156153Y-108750499D01*
X102156156Y-108750500D01*
X102156158Y-108750500D01*
X102313844Y-108750500D01*
X102313845Y-108750499D01*
X102468497Y-108719737D01*
X102581166Y-108673067D01*
X102614172Y-108659397D01*
X102614172Y-108659396D01*
X102614179Y-108659394D01*
X102745289Y-108571789D01*
X102856789Y-108460289D01*
X102944394Y-108329179D01*
X103004737Y-108183497D01*
X103035500Y-108028842D01*
X103035500Y-107871158D01*
X103035500Y-107871155D01*
X103035499Y-107871153D01*
X103004738Y-107716510D01*
X103004738Y-107716508D01*
X103004737Y-107716503D01*
X102944394Y-107570821D01*
X102944392Y-107570818D01*
X102942130Y-107565357D01*
X102934661Y-107495887D01*
X102965936Y-107433408D01*
X102968982Y-107430251D01*
X107048713Y-103350521D01*
X107048716Y-103350520D01*
X107160520Y-103238716D01*
X107210639Y-103151904D01*
X107239577Y-103101785D01*
X107280500Y-102949058D01*
X107280500Y-102790943D01*
X107280500Y-99639765D01*
X107300185Y-99572726D01*
X107301398Y-99570874D01*
X107389390Y-99439185D01*
X107389390Y-99439184D01*
X107389394Y-99439179D01*
X107449737Y-99293497D01*
X107449956Y-99292391D01*
X107450230Y-99291867D01*
X107451506Y-99287664D01*
X107452302Y-99287905D01*
X107482335Y-99230481D01*
X107543047Y-99195901D01*
X107547330Y-99194968D01*
X107548497Y-99194737D01*
X107683414Y-99138853D01*
X107694172Y-99134397D01*
X107694172Y-99134396D01*
X107694179Y-99134394D01*
X107825289Y-99046789D01*
X107936789Y-98935289D01*
X108024394Y-98804179D01*
X108084737Y-98658497D01*
X108115500Y-98503842D01*
X108115500Y-98346158D01*
X108115500Y-98346155D01*
X108115499Y-98346153D01*
X108110424Y-98320639D01*
X108084737Y-98191503D01*
X108066038Y-98146359D01*
X108024397Y-98045827D01*
X108024390Y-98045814D01*
X107936789Y-97914711D01*
X107936786Y-97914707D01*
X107825292Y-97803213D01*
X107825288Y-97803210D01*
X107694185Y-97715609D01*
X107694172Y-97715602D01*
X107548501Y-97655264D01*
X107548489Y-97655261D01*
X107393845Y-97624500D01*
X107393842Y-97624500D01*
X107359096Y-97624500D01*
X107292057Y-97604815D01*
X107246302Y-97552011D01*
X107236358Y-97482853D01*
X107265383Y-97419297D01*
X107271415Y-97412819D01*
X107930734Y-96753501D01*
X108797416Y-95886819D01*
X108858739Y-95853334D01*
X108885097Y-95850500D01*
X109996604Y-95850500D01*
X110063643Y-95870185D01*
X110109398Y-95922989D01*
X110119342Y-95992147D01*
X110099706Y-96043391D01*
X110034609Y-96140814D01*
X110034602Y-96140827D01*
X109974264Y-96286498D01*
X109974261Y-96286510D01*
X109943500Y-96441153D01*
X109943500Y-96598846D01*
X109974261Y-96753489D01*
X109974264Y-96753501D01*
X110034602Y-96899172D01*
X110034609Y-96899185D01*
X110122602Y-97030874D01*
X110143480Y-97097551D01*
X110143500Y-97099765D01*
X110143500Y-101680902D01*
X110123815Y-101747941D01*
X110107181Y-101768583D01*
X106030339Y-105845425D01*
X105969016Y-105878910D01*
X105966850Y-105879361D01*
X105811508Y-105910261D01*
X105811498Y-105910264D01*
X105665827Y-105970602D01*
X105665814Y-105970609D01*
X105534711Y-106058210D01*
X105534707Y-106058213D01*
X105423213Y-106169707D01*
X105423210Y-106169711D01*
X105335609Y-106300814D01*
X105335602Y-106300827D01*
X105275264Y-106446498D01*
X105275261Y-106446510D01*
X105244500Y-106601153D01*
X105244500Y-106758846D01*
X105275261Y-106913489D01*
X105275264Y-106913501D01*
X105335602Y-107059172D01*
X105335609Y-107059185D01*
X105423210Y-107190288D01*
X105423213Y-107190292D01*
X105534707Y-107301786D01*
X105534711Y-107301789D01*
X105665814Y-107389390D01*
X105665827Y-107389397D01*
X105787288Y-107439707D01*
X105811503Y-107449737D01*
X105966153Y-107480499D01*
X105966156Y-107480500D01*
X105966158Y-107480500D01*
X106123844Y-107480500D01*
X106123845Y-107480499D01*
X106278497Y-107449737D01*
X106412914Y-107394060D01*
X106424172Y-107389397D01*
X106424172Y-107389396D01*
X106424179Y-107389394D01*
X106452607Y-107370398D01*
X106519283Y-107349520D01*
X106586664Y-107368003D01*
X106633355Y-107419981D01*
X106644533Y-107488951D01*
X106624602Y-107542389D01*
X106605611Y-107570811D01*
X106605602Y-107570827D01*
X106545264Y-107716498D01*
X106545261Y-107716508D01*
X106514361Y-107871850D01*
X106481976Y-107933761D01*
X106480425Y-107935339D01*
X106030339Y-108385425D01*
X105969016Y-108418910D01*
X105966850Y-108419361D01*
X105811508Y-108450261D01*
X105811498Y-108450264D01*
X105665827Y-108510602D01*
X105665814Y-108510609D01*
X105534711Y-108598210D01*
X105534707Y-108598213D01*
X105423213Y-108709707D01*
X105423210Y-108709711D01*
X105335609Y-108840814D01*
X105335602Y-108840827D01*
X105275264Y-108986498D01*
X105275261Y-108986510D01*
X105244500Y-109141153D01*
X105244500Y-109298846D01*
X105275261Y-109453489D01*
X105275264Y-109453501D01*
X105335602Y-109599172D01*
X105335609Y-109599185D01*
X105423210Y-109730288D01*
X105423213Y-109730292D01*
X105534707Y-109841786D01*
X105534711Y-109841789D01*
X105665814Y-109929390D01*
X105665827Y-109929397D01*
X105811498Y-109989735D01*
X105811503Y-109989737D01*
X105966153Y-110020499D01*
X105966156Y-110020500D01*
X105966158Y-110020500D01*
X106123844Y-110020500D01*
X106123845Y-110020499D01*
X106278497Y-109989737D01*
X106424179Y-109929394D01*
X106555289Y-109841789D01*
X106666789Y-109730289D01*
X106754394Y-109599179D01*
X106814737Y-109453497D01*
X106834382Y-109354735D01*
X106845638Y-109298150D01*
X106878023Y-109236239D01*
X106879518Y-109234716D01*
X107329662Y-108784572D01*
X107390983Y-108751089D01*
X107393150Y-108750638D01*
X107451085Y-108739113D01*
X107548497Y-108719737D01*
X107661166Y-108673067D01*
X107694172Y-108659397D01*
X107694172Y-108659396D01*
X107694179Y-108659394D01*
X107825289Y-108571789D01*
X107936789Y-108460289D01*
X108024394Y-108329179D01*
X108084737Y-108183497D01*
X108115500Y-108028842D01*
X108115500Y-107871158D01*
X108115500Y-107871155D01*
X108115499Y-107871153D01*
X108084738Y-107716510D01*
X108084738Y-107716508D01*
X108084737Y-107716503D01*
X108084735Y-107716498D01*
X108024397Y-107570827D01*
X108024390Y-107570814D01*
X107936789Y-107439711D01*
X107936786Y-107439707D01*
X107825292Y-107328213D01*
X107825288Y-107328210D01*
X107694185Y-107240609D01*
X107694172Y-107240602D01*
X107548501Y-107180264D01*
X107548489Y-107180261D01*
X107393845Y-107149500D01*
X107393842Y-107149500D01*
X107236158Y-107149500D01*
X107236155Y-107149500D01*
X107081510Y-107180261D01*
X107081498Y-107180264D01*
X106935827Y-107240602D01*
X106935811Y-107240611D01*
X106907389Y-107259602D01*
X106840712Y-107280479D01*
X106773332Y-107261994D01*
X106726642Y-107210014D01*
X106715467Y-107141044D01*
X106735398Y-107087608D01*
X106754394Y-107059179D01*
X106814737Y-106913497D01*
X106835972Y-106806744D01*
X106845638Y-106758150D01*
X106878023Y-106696239D01*
X106879518Y-106694716D01*
X111224520Y-102349716D01*
X111303577Y-102212784D01*
X111344501Y-102060057D01*
X111344501Y-101901942D01*
X111344501Y-101894347D01*
X111344500Y-101894329D01*
X111344500Y-97099765D01*
X111364185Y-97032726D01*
X111365398Y-97030874D01*
X111453390Y-96899185D01*
X111453390Y-96899184D01*
X111453394Y-96899179D01*
X111513737Y-96753497D01*
X111544500Y-96598842D01*
X111544500Y-96441158D01*
X111544500Y-96441155D01*
X111544499Y-96441153D01*
X111529455Y-96365521D01*
X111513737Y-96286503D01*
X111476098Y-96195633D01*
X111453397Y-96140827D01*
X111453390Y-96140814D01*
X111388294Y-96043391D01*
X111367416Y-95976713D01*
X111385901Y-95909333D01*
X111437879Y-95862643D01*
X111491396Y-95850500D01*
X118165234Y-95850500D01*
X118232273Y-95870185D01*
X118234125Y-95871398D01*
X118365814Y-95959390D01*
X118365827Y-95959397D01*
X118487298Y-96009711D01*
X118511503Y-96019737D01*
X118630419Y-96043391D01*
X118666153Y-96050499D01*
X118666156Y-96050500D01*
X118666158Y-96050500D01*
X118823844Y-96050500D01*
X118823845Y-96050499D01*
X118978497Y-96019737D01*
X119091166Y-95973067D01*
X119124172Y-95959397D01*
X119124172Y-95959396D01*
X119124179Y-95959394D01*
X119255289Y-95871789D01*
X119366789Y-95760289D01*
X119454394Y-95629179D01*
X119514737Y-95483497D01*
X119545500Y-95328842D01*
X119545500Y-95171158D01*
X119545500Y-95171155D01*
X119545499Y-95171153D01*
X119534153Y-95114114D01*
X119514737Y-95016503D01*
X119458728Y-94881284D01*
X119454397Y-94870827D01*
X119454390Y-94870814D01*
X119366789Y-94739711D01*
X119366786Y-94739707D01*
X119329760Y-94702681D01*
X119296275Y-94641358D01*
X119301259Y-94571666D01*
X119329760Y-94527319D01*
X119366786Y-94490292D01*
X119366789Y-94490289D01*
X119454394Y-94359179D01*
X119514737Y-94213497D01*
X119545500Y-94058842D01*
X119545500Y-94058832D01*
X119545646Y-94057354D01*
X119545942Y-94056618D01*
X119546554Y-94053542D01*
X119546312Y-94051853D01*
X119559720Y-94022492D01*
X119571803Y-93992565D01*
X119574144Y-93990907D01*
X119575337Y-93988297D01*
X119602490Y-93970846D01*
X119628835Y-93952202D01*
X119632436Y-93951601D01*
X119634115Y-93950523D01*
X119669050Y-93945500D01*
X119714903Y-93945500D01*
X119781942Y-93965185D01*
X119802584Y-93981819D01*
X122355425Y-96534660D01*
X122388910Y-96595983D01*
X122389361Y-96598149D01*
X122420261Y-96753491D01*
X122420264Y-96753501D01*
X122480602Y-96899172D01*
X122480609Y-96899185D01*
X122568210Y-97030288D01*
X122568213Y-97030292D01*
X122679707Y-97141786D01*
X122679711Y-97141789D01*
X122810814Y-97229390D01*
X122810827Y-97229397D01*
X122932298Y-97279711D01*
X122956503Y-97289737D01*
X123111153Y-97320499D01*
X123111156Y-97320500D01*
X123111158Y-97320500D01*
X123268844Y-97320500D01*
X123268845Y-97320499D01*
X123423497Y-97289737D01*
X123558436Y-97233844D01*
X123569172Y-97229397D01*
X123569172Y-97229396D01*
X123569179Y-97229394D01*
X123700289Y-97141789D01*
X123811789Y-97030289D01*
X123899394Y-96899179D01*
X123959737Y-96753497D01*
X123990500Y-96598842D01*
X123990500Y-96441158D01*
X123990500Y-96441155D01*
X123990499Y-96441153D01*
X123975455Y-96365521D01*
X123959737Y-96286503D01*
X123922098Y-96195633D01*
X123899397Y-96140827D01*
X123899390Y-96140814D01*
X123811789Y-96009711D01*
X123811786Y-96009707D01*
X123700292Y-95898213D01*
X123700288Y-95898210D01*
X123569185Y-95810609D01*
X123569172Y-95810602D01*
X123423501Y-95750264D01*
X123423491Y-95750261D01*
X123268149Y-95719361D01*
X123206238Y-95686976D01*
X123204660Y-95685425D01*
X121041416Y-93522181D01*
X121007931Y-93460858D01*
X121012915Y-93391166D01*
X121054787Y-93335233D01*
X121120251Y-93310816D01*
X121129097Y-93310500D01*
X122254903Y-93310500D01*
X122321942Y-93330185D01*
X122342584Y-93346819D01*
X122990425Y-93994660D01*
X123023910Y-94055983D01*
X123024361Y-94058149D01*
X123055261Y-94213491D01*
X123055264Y-94213501D01*
X123115602Y-94359172D01*
X123115609Y-94359185D01*
X123203210Y-94490288D01*
X123203213Y-94490292D01*
X123314707Y-94601786D01*
X123314711Y-94601789D01*
X123445814Y-94689390D01*
X123445827Y-94689397D01*
X123524894Y-94722147D01*
X123591503Y-94749737D01*
X123746153Y-94780499D01*
X123746156Y-94780500D01*
X123746158Y-94780500D01*
X123903844Y-94780500D01*
X123903845Y-94780499D01*
X124058497Y-94749737D01*
X124189066Y-94695654D01*
X124204172Y-94689397D01*
X124204172Y-94689396D01*
X124204179Y-94689394D01*
X124238680Y-94666341D01*
X124335875Y-94601398D01*
X124402553Y-94580520D01*
X124404766Y-94580500D01*
X126279846Y-94580500D01*
X126346885Y-94600185D01*
X126367527Y-94616819D01*
X127621196Y-95870488D01*
X127654681Y-95931811D01*
X127649697Y-96001503D01*
X127636618Y-96027059D01*
X127560608Y-96140816D01*
X127560602Y-96140827D01*
X127500264Y-96286498D01*
X127500261Y-96286510D01*
X127469500Y-96441153D01*
X127469500Y-96598846D01*
X127500261Y-96753489D01*
X127500264Y-96753501D01*
X127560602Y-96899172D01*
X127560609Y-96899185D01*
X127648210Y-97030288D01*
X127648213Y-97030292D01*
X127759707Y-97141786D01*
X127759711Y-97141789D01*
X127890814Y-97229390D01*
X127890827Y-97229397D01*
X128012298Y-97279711D01*
X128036503Y-97289737D01*
X128191158Y-97320500D01*
X128191847Y-97320637D01*
X128253758Y-97353022D01*
X128255337Y-97354573D01*
X128536284Y-97635520D01*
X128536286Y-97635521D01*
X128536290Y-97635524D01*
X128634816Y-97692407D01*
X128673216Y-97714577D01*
X128825943Y-97755501D01*
X128825945Y-97755501D01*
X128991654Y-97755501D01*
X128991670Y-97755500D01*
X132020960Y-97755500D01*
X132087999Y-97775185D01*
X132133754Y-97827989D01*
X132143698Y-97897147D01*
X132114673Y-97960703D01*
X132108641Y-97967181D01*
X128536286Y-101539535D01*
X128424481Y-101651339D01*
X128424475Y-101651347D01*
X128382120Y-101724710D01*
X128382120Y-101724711D01*
X128345423Y-101788272D01*
X128304499Y-101941000D01*
X128304499Y-101941002D01*
X128304499Y-102109103D01*
X128304500Y-102109116D01*
X128304500Y-103839903D01*
X128284815Y-103906942D01*
X128268181Y-103927584D01*
X127620339Y-104575425D01*
X127559016Y-104608910D01*
X127556850Y-104609361D01*
X127401508Y-104640261D01*
X127401498Y-104640264D01*
X127255827Y-104700602D01*
X127255814Y-104700609D01*
X127124711Y-104788210D01*
X127124707Y-104788213D01*
X127013213Y-104899707D01*
X127013210Y-104899711D01*
X126925609Y-105030814D01*
X126925602Y-105030827D01*
X126865264Y-105176498D01*
X126865261Y-105176510D01*
X126834500Y-105331153D01*
X126834500Y-105488846D01*
X126865261Y-105643489D01*
X126865264Y-105643501D01*
X126925602Y-105789172D01*
X126925609Y-105789185D01*
X127013210Y-105920288D01*
X127013213Y-105920292D01*
X127050240Y-105957319D01*
X127051217Y-105959109D01*
X127052976Y-105960143D01*
X127067888Y-105989639D01*
X127083725Y-106018642D01*
X127083579Y-106020676D01*
X127084500Y-106022497D01*
X127081099Y-106055361D01*
X127078741Y-106088334D01*
X127077451Y-106090609D01*
X127077308Y-106091995D01*
X127072968Y-106098517D01*
X127059420Y-106122420D01*
X127055111Y-106127810D01*
X127013211Y-106169711D01*
X126970352Y-106233853D01*
X126967038Y-106238000D01*
X126942580Y-106255125D01*
X126919665Y-106274277D01*
X126914262Y-106274955D01*
X126909805Y-106278077D01*
X126879969Y-106279262D01*
X126850340Y-106282983D01*
X126845430Y-106280633D01*
X126839991Y-106280850D01*
X126814248Y-106265714D01*
X126787313Y-106252827D01*
X126782496Y-106248261D01*
X124659573Y-104125337D01*
X124626088Y-104064014D01*
X124625637Y-104061847D01*
X124598930Y-103927584D01*
X124594737Y-103906503D01*
X124543195Y-103782068D01*
X124534397Y-103760827D01*
X124534390Y-103760814D01*
X124446789Y-103629711D01*
X124446786Y-103629707D01*
X124335292Y-103518213D01*
X124335288Y-103518210D01*
X124204185Y-103430609D01*
X124204172Y-103430602D01*
X124058501Y-103370264D01*
X124058489Y-103370261D01*
X123903845Y-103339500D01*
X123903842Y-103339500D01*
X123746158Y-103339500D01*
X123746155Y-103339500D01*
X123591510Y-103370261D01*
X123591498Y-103370264D01*
X123445827Y-103430602D01*
X123445814Y-103430609D01*
X123314711Y-103518210D01*
X123314707Y-103518213D01*
X123203213Y-103629707D01*
X123203210Y-103629711D01*
X123115609Y-103760814D01*
X123115602Y-103760827D01*
X123055264Y-103906498D01*
X123055261Y-103906510D01*
X123024500Y-104061153D01*
X123024500Y-104218846D01*
X123055261Y-104373489D01*
X123055264Y-104373501D01*
X123115602Y-104519172D01*
X123115609Y-104519185D01*
X123203210Y-104650288D01*
X123203213Y-104650292D01*
X123314707Y-104761786D01*
X123314711Y-104761789D01*
X123445814Y-104849390D01*
X123445827Y-104849397D01*
X123567288Y-104899707D01*
X123591503Y-104909737D01*
X123649649Y-104921303D01*
X123746849Y-104940638D01*
X123808760Y-104973023D01*
X123810339Y-104974574D01*
X126608583Y-107772819D01*
X126642068Y-107834142D01*
X126637084Y-107903834D01*
X126595212Y-107959767D01*
X126529748Y-107984184D01*
X126520902Y-107984500D01*
X125395097Y-107984500D01*
X125328058Y-107964815D01*
X125307416Y-107948181D01*
X122407590Y-105048355D01*
X122407588Y-105048352D01*
X122288717Y-104929481D01*
X122288716Y-104929480D01*
X122201904Y-104879360D01*
X122201904Y-104879359D01*
X122201900Y-104879358D01*
X122151785Y-104850423D01*
X121999057Y-104809499D01*
X121840943Y-104809499D01*
X121833347Y-104809499D01*
X121833331Y-104809500D01*
X119324766Y-104809500D01*
X119257727Y-104789815D01*
X119255875Y-104788602D01*
X119124185Y-104700609D01*
X119124172Y-104700602D01*
X118978501Y-104640264D01*
X118978489Y-104640261D01*
X118823845Y-104609500D01*
X118823842Y-104609500D01*
X118666158Y-104609500D01*
X118666155Y-104609500D01*
X118511510Y-104640261D01*
X118511498Y-104640264D01*
X118365827Y-104700602D01*
X118365814Y-104700609D01*
X118234711Y-104788210D01*
X118234707Y-104788213D01*
X118123213Y-104899707D01*
X118123210Y-104899711D01*
X118035609Y-105030814D01*
X118035602Y-105030827D01*
X117975264Y-105176498D01*
X117975261Y-105176510D01*
X117944500Y-105331153D01*
X117944500Y-105488846D01*
X117975261Y-105643489D01*
X117975264Y-105643501D01*
X118035602Y-105789172D01*
X118035609Y-105789185D01*
X118114595Y-105907395D01*
X118116510Y-105910261D01*
X118123602Y-105920874D01*
X118144480Y-105987551D01*
X118144500Y-105989765D01*
X118144500Y-107370234D01*
X118124815Y-107437273D01*
X118123602Y-107439125D01*
X118035609Y-107570814D01*
X118035602Y-107570827D01*
X117975264Y-107716498D01*
X117975261Y-107716510D01*
X117944500Y-107871153D01*
X117944500Y-108028846D01*
X117968179Y-108147885D01*
X117975263Y-108183497D01*
X117975264Y-108183499D01*
X118035602Y-108329172D01*
X118035609Y-108329185D01*
X118123210Y-108460288D01*
X118123213Y-108460292D01*
X118234707Y-108571786D01*
X118234711Y-108571789D01*
X118365814Y-108659390D01*
X118365827Y-108659397D01*
X118487288Y-108709707D01*
X118511503Y-108719737D01*
X118666153Y-108750499D01*
X118666156Y-108750500D01*
X118666158Y-108750500D01*
X118823844Y-108750500D01*
X118823845Y-108750499D01*
X118978497Y-108719737D01*
X119091166Y-108673067D01*
X119124172Y-108659397D01*
X119124172Y-108659396D01*
X119124179Y-108659394D01*
X119255289Y-108571789D01*
X119366789Y-108460289D01*
X119454394Y-108329179D01*
X119514737Y-108183497D01*
X119545500Y-108028842D01*
X119545500Y-107871158D01*
X119545500Y-107871155D01*
X119545499Y-107871153D01*
X119514738Y-107716510D01*
X119514738Y-107716508D01*
X119514737Y-107716503D01*
X119514735Y-107716498D01*
X119454397Y-107570827D01*
X119454390Y-107570814D01*
X119366398Y-107439125D01*
X119345520Y-107372447D01*
X119345500Y-107370234D01*
X119345500Y-106134500D01*
X119365185Y-106067461D01*
X119417989Y-106021706D01*
X119469500Y-106010500D01*
X121619903Y-106010500D01*
X121686942Y-106030185D01*
X121707584Y-106046819D01*
X122598584Y-106937819D01*
X122632069Y-106999142D01*
X122627085Y-107068834D01*
X122585213Y-107124767D01*
X122519749Y-107149184D01*
X122510903Y-107149500D01*
X122476155Y-107149500D01*
X122321510Y-107180261D01*
X122321498Y-107180264D01*
X122175827Y-107240602D01*
X122175814Y-107240609D01*
X122044711Y-107328210D01*
X122044707Y-107328213D01*
X121933213Y-107439707D01*
X121933210Y-107439711D01*
X121845609Y-107570814D01*
X121845602Y-107570827D01*
X121785264Y-107716498D01*
X121785261Y-107716510D01*
X121754500Y-107871153D01*
X121754500Y-108028846D01*
X121778179Y-108147885D01*
X121785263Y-108183497D01*
X121785264Y-108183499D01*
X121845602Y-108329172D01*
X121845609Y-108329185D01*
X121924595Y-108447395D01*
X121926510Y-108450261D01*
X121933602Y-108460874D01*
X121954480Y-108527551D01*
X121954500Y-108529765D01*
X121954500Y-111815234D01*
X121934815Y-111882273D01*
X121933602Y-111884125D01*
X121845609Y-112015814D01*
X121845602Y-112015827D01*
X121785264Y-112161498D01*
X121785261Y-112161510D01*
X121754500Y-112316153D01*
X121754500Y-112473846D01*
X121785261Y-112628489D01*
X121785264Y-112628501D01*
X121845602Y-112774172D01*
X121845609Y-112774185D01*
X121933210Y-112905288D01*
X121933213Y-112905292D01*
X122044707Y-113016786D01*
X122044711Y-113016789D01*
X122175814Y-113104390D01*
X122175827Y-113104397D01*
X122321498Y-113164735D01*
X122321503Y-113164737D01*
X122476153Y-113195499D01*
X122476156Y-113195500D01*
X122476158Y-113195500D01*
X122633844Y-113195500D01*
X122633845Y-113195499D01*
X122788497Y-113164737D01*
X122934179Y-113104394D01*
X123065289Y-113016789D01*
X123176789Y-112905289D01*
X123264394Y-112774179D01*
X123324737Y-112628497D01*
X123355500Y-112473842D01*
X123355500Y-112316158D01*
X123355500Y-112316155D01*
X123355499Y-112316153D01*
X123324738Y-112161510D01*
X123324737Y-112161503D01*
X123324735Y-112161498D01*
X123264397Y-112015827D01*
X123264390Y-112015814D01*
X123176398Y-111884125D01*
X123155520Y-111817447D01*
X123155500Y-111815234D01*
X123155500Y-108529765D01*
X123175185Y-108462726D01*
X123176398Y-108460874D01*
X123183490Y-108450261D01*
X123264394Y-108329179D01*
X123324737Y-108183497D01*
X123355500Y-108028842D01*
X123355500Y-107994097D01*
X123375185Y-107927058D01*
X123427989Y-107881303D01*
X123497147Y-107871359D01*
X123560703Y-107900384D01*
X123567181Y-107906416D01*
X124610139Y-108949374D01*
X124610149Y-108949385D01*
X124614479Y-108953715D01*
X124614480Y-108953716D01*
X124726284Y-109065520D01*
X124777845Y-109095288D01*
X124813095Y-109115639D01*
X124813097Y-109115641D01*
X124851151Y-109137611D01*
X124863215Y-109144577D01*
X125015943Y-109185500D01*
X125174057Y-109185500D01*
X128325234Y-109185500D01*
X128392273Y-109205185D01*
X128394125Y-109206398D01*
X128525814Y-109294390D01*
X128525827Y-109294397D01*
X128671498Y-109354735D01*
X128671503Y-109354737D01*
X128826153Y-109385499D01*
X128826156Y-109385500D01*
X128826158Y-109385500D01*
X128983844Y-109385500D01*
X128983845Y-109385499D01*
X129138497Y-109354737D01*
X129273431Y-109298846D01*
X129284172Y-109294397D01*
X129284172Y-109294396D01*
X129284179Y-109294394D01*
X129415289Y-109206789D01*
X129526789Y-109095289D01*
X129614394Y-108964179D01*
X129674737Y-108818497D01*
X129683716Y-108773359D01*
X129716101Y-108711448D01*
X129776816Y-108676874D01*
X129846586Y-108680613D01*
X129852770Y-108682982D01*
X129941503Y-108719737D01*
X130096153Y-108750499D01*
X130096156Y-108750500D01*
X130096158Y-108750500D01*
X130253844Y-108750500D01*
X130253845Y-108750499D01*
X130408497Y-108719737D01*
X130521166Y-108673067D01*
X130554172Y-108659397D01*
X130554172Y-108659396D01*
X130554179Y-108659394D01*
X130685289Y-108571789D01*
X130796789Y-108460289D01*
X130884394Y-108329179D01*
X130944737Y-108183497D01*
X130975500Y-108028842D01*
X130975500Y-107871158D01*
X130975500Y-107871155D01*
X130975499Y-107871153D01*
X130944738Y-107716510D01*
X130944738Y-107716508D01*
X130944737Y-107716503D01*
X130944735Y-107716498D01*
X130884397Y-107570827D01*
X130884390Y-107570814D01*
X130796789Y-107439711D01*
X130796786Y-107439707D01*
X130685292Y-107328213D01*
X130685288Y-107328210D01*
X130554185Y-107240609D01*
X130554172Y-107240602D01*
X130408501Y-107180264D01*
X130408489Y-107180261D01*
X130253845Y-107149500D01*
X130253842Y-107149500D01*
X130096158Y-107149500D01*
X130096155Y-107149500D01*
X129941510Y-107180261D01*
X129941498Y-107180264D01*
X129795827Y-107240602D01*
X129795814Y-107240609D01*
X129664125Y-107328602D01*
X129597447Y-107349480D01*
X129595234Y-107349500D01*
X128382396Y-107349500D01*
X128315357Y-107329815D01*
X128269602Y-107277011D01*
X128259658Y-107207853D01*
X128279294Y-107156609D01*
X128344390Y-107059185D01*
X128344390Y-107059184D01*
X128344394Y-107059179D01*
X128404737Y-106913497D01*
X128425972Y-106806744D01*
X128435638Y-106758150D01*
X128468023Y-106696239D01*
X128469518Y-106694716D01*
X132537819Y-102626416D01*
X132599142Y-102592931D01*
X132668834Y-102597915D01*
X132724767Y-102639787D01*
X132749184Y-102705251D01*
X132749500Y-102714097D01*
X132749500Y-104405387D01*
X132749499Y-104405405D01*
X132749499Y-104413000D01*
X132749499Y-104571114D01*
X132770715Y-104650292D01*
X132779275Y-104682237D01*
X132783500Y-104714331D01*
X132783500Y-107829430D01*
X132783499Y-107829448D01*
X132783499Y-107995154D01*
X132783498Y-107995154D01*
X132792525Y-108028844D01*
X132824423Y-108147885D01*
X132844984Y-108183497D01*
X132903479Y-108284814D01*
X132903481Y-108284817D01*
X133022349Y-108403685D01*
X133022355Y-108403690D01*
X133378918Y-108760254D01*
X133412403Y-108821577D01*
X133415211Y-108845405D01*
X133536296Y-114778470D01*
X133517984Y-114845897D01*
X133466124Y-114892720D01*
X133412322Y-114905000D01*
X99147758Y-114905000D01*
X99080719Y-114885315D01*
X99034964Y-114832511D01*
X99023769Y-114782653D01*
X98787682Y-97076153D01*
X100164500Y-97076153D01*
X100164500Y-97233846D01*
X100195261Y-97388489D01*
X100195264Y-97388501D01*
X100255602Y-97534172D01*
X100255609Y-97534185D01*
X100323459Y-97635728D01*
X100336510Y-97655261D01*
X100343602Y-97665874D01*
X100364480Y-97732551D01*
X100364500Y-97734765D01*
X100364500Y-101655234D01*
X100344815Y-101722273D01*
X100343602Y-101724125D01*
X100255609Y-101855814D01*
X100255602Y-101855827D01*
X100195264Y-102001498D01*
X100195261Y-102001510D01*
X100164500Y-102156153D01*
X100164500Y-102313846D01*
X100195261Y-102468489D01*
X100195264Y-102468501D01*
X100255602Y-102614172D01*
X100255609Y-102614185D01*
X100343210Y-102745288D01*
X100343213Y-102745292D01*
X100454707Y-102856786D01*
X100454711Y-102856789D01*
X100585814Y-102944390D01*
X100585827Y-102944397D01*
X100704094Y-102993384D01*
X100731503Y-103004737D01*
X100886153Y-103035499D01*
X100886156Y-103035500D01*
X100886158Y-103035500D01*
X101043844Y-103035500D01*
X101043845Y-103035499D01*
X101198497Y-103004737D01*
X101332919Y-102949058D01*
X101344172Y-102944397D01*
X101344172Y-102944396D01*
X101344179Y-102944394D01*
X101475289Y-102856789D01*
X101586789Y-102745289D01*
X101674394Y-102614179D01*
X101734737Y-102468497D01*
X101765500Y-102313842D01*
X101765500Y-102156158D01*
X101765500Y-102156155D01*
X101765499Y-102156153D01*
X101750455Y-102080521D01*
X101734737Y-102001503D01*
X101721156Y-101968716D01*
X101674397Y-101855827D01*
X101674390Y-101855814D01*
X101586398Y-101724125D01*
X101565520Y-101657447D01*
X101565500Y-101655234D01*
X101565500Y-97734765D01*
X101585185Y-97667726D01*
X101586398Y-97665874D01*
X101593490Y-97655261D01*
X101674394Y-97534179D01*
X101734737Y-97388497D01*
X101765500Y-97233842D01*
X101765500Y-97076158D01*
X101765500Y-97076155D01*
X101765499Y-97076153D01*
X101734738Y-96921510D01*
X101734737Y-96921503D01*
X101725487Y-96899172D01*
X101674397Y-96775827D01*
X101674390Y-96775814D01*
X101586789Y-96644711D01*
X101586786Y-96644707D01*
X101475292Y-96533213D01*
X101475288Y-96533210D01*
X101344185Y-96445609D01*
X101344172Y-96445602D01*
X101198501Y-96385264D01*
X101198489Y-96385261D01*
X101043845Y-96354500D01*
X101043842Y-96354500D01*
X100886158Y-96354500D01*
X100886155Y-96354500D01*
X100731510Y-96385261D01*
X100731498Y-96385264D01*
X100585827Y-96445602D01*
X100585814Y-96445609D01*
X100454711Y-96533210D01*
X100454707Y-96533213D01*
X100343213Y-96644707D01*
X100343210Y-96644711D01*
X100255609Y-96775814D01*
X100255602Y-96775827D01*
X100195264Y-96921498D01*
X100195261Y-96921510D01*
X100164500Y-97076153D01*
X98787682Y-97076153D01*
X98787623Y-97071719D01*
X98720008Y-92000602D01*
X98643748Y-86281153D01*
X101434500Y-86281153D01*
X101434500Y-86438846D01*
X101465261Y-86593489D01*
X101465264Y-86593501D01*
X101525602Y-86739172D01*
X101525609Y-86739185D01*
X101604595Y-86857395D01*
X101606510Y-86860261D01*
X101613602Y-86870874D01*
X101634480Y-86937551D01*
X101634500Y-86939765D01*
X101634500Y-90860234D01*
X101614815Y-90927273D01*
X101613602Y-90929125D01*
X101525609Y-91060814D01*
X101525602Y-91060827D01*
X101465264Y-91206498D01*
X101465261Y-91206510D01*
X101434500Y-91361153D01*
X101434500Y-91518846D01*
X101465261Y-91673489D01*
X101465264Y-91673501D01*
X101525602Y-91819172D01*
X101525609Y-91819185D01*
X101613210Y-91950288D01*
X101613213Y-91950292D01*
X101724707Y-92061786D01*
X101724711Y-92061789D01*
X101855814Y-92149390D01*
X101855827Y-92149397D01*
X101977288Y-92199707D01*
X102001503Y-92209737D01*
X102156153Y-92240499D01*
X102156156Y-92240500D01*
X102156158Y-92240500D01*
X102313844Y-92240500D01*
X102313845Y-92240499D01*
X102468497Y-92209737D01*
X102603436Y-92153844D01*
X102614172Y-92149397D01*
X102614172Y-92149396D01*
X102614179Y-92149394D01*
X102745289Y-92061789D01*
X102856789Y-91950289D01*
X102944394Y-91819179D01*
X103004737Y-91673497D01*
X103035500Y-91518842D01*
X103035500Y-91361158D01*
X103035500Y-91361155D01*
X103035499Y-91361153D01*
X103004738Y-91206510D01*
X103004737Y-91206503D01*
X103004735Y-91206498D01*
X102944397Y-91060827D01*
X102944390Y-91060814D01*
X102856398Y-90929125D01*
X102835520Y-90862447D01*
X102835500Y-90860234D01*
X102835500Y-86939765D01*
X102855185Y-86872726D01*
X102856398Y-86870874D01*
X102863490Y-86860261D01*
X102944394Y-86739179D01*
X103004737Y-86593497D01*
X103035500Y-86438842D01*
X103035500Y-86281158D01*
X103035500Y-86281155D01*
X103035499Y-86281153D01*
X103024381Y-86225261D01*
X103004737Y-86126503D01*
X102995487Y-86104172D01*
X102944397Y-85980827D01*
X102944390Y-85980814D01*
X102856789Y-85849711D01*
X102856786Y-85849707D01*
X102745292Y-85738213D01*
X102745288Y-85738210D01*
X102614185Y-85650609D01*
X102614172Y-85650602D01*
X102468501Y-85590264D01*
X102468489Y-85590261D01*
X102313845Y-85559500D01*
X102313842Y-85559500D01*
X102156158Y-85559500D01*
X102156155Y-85559500D01*
X102001510Y-85590261D01*
X102001498Y-85590264D01*
X101855827Y-85650602D01*
X101855814Y-85650609D01*
X101724711Y-85738210D01*
X101724707Y-85738213D01*
X101613213Y-85849707D01*
X101613210Y-85849711D01*
X101525609Y-85980814D01*
X101525602Y-85980827D01*
X101465264Y-86126498D01*
X101465261Y-86126510D01*
X101434500Y-86281153D01*
X98643748Y-86281153D01*
X98559081Y-79931153D01*
X143344500Y-79931153D01*
X143344500Y-80088846D01*
X143375261Y-80243489D01*
X143375264Y-80243501D01*
X143435602Y-80389172D01*
X143435609Y-80389185D01*
X143523210Y-80520288D01*
X143523213Y-80520292D01*
X143634707Y-80631786D01*
X143634711Y-80631789D01*
X143765814Y-80719390D01*
X143765827Y-80719397D01*
X143911498Y-80779735D01*
X143911503Y-80779737D01*
X144066153Y-80810499D01*
X144066156Y-80810500D01*
X144066158Y-80810500D01*
X144223844Y-80810500D01*
X144223845Y-80810499D01*
X144378497Y-80779737D01*
X144524179Y-80719394D01*
X144524185Y-80719390D01*
X144655875Y-80631398D01*
X144722553Y-80610520D01*
X144724766Y-80610500D01*
X145470234Y-80610500D01*
X145537273Y-80630185D01*
X145539125Y-80631398D01*
X145670814Y-80719390D01*
X145670827Y-80719397D01*
X145816498Y-80779735D01*
X145816503Y-80779737D01*
X145971153Y-80810499D01*
X145971156Y-80810500D01*
X145971158Y-80810500D01*
X146128844Y-80810500D01*
X146128845Y-80810499D01*
X146283497Y-80779737D01*
X146429179Y-80719394D01*
X146560289Y-80631789D01*
X146671789Y-80520289D01*
X146759394Y-80389179D01*
X146819737Y-80243497D01*
X146850500Y-80088842D01*
X146850500Y-79931158D01*
X146850500Y-79931155D01*
X146850499Y-79931153D01*
X146819738Y-79776510D01*
X146819737Y-79776503D01*
X146819735Y-79776498D01*
X146759397Y-79630827D01*
X146759390Y-79630814D01*
X146671789Y-79499711D01*
X146671786Y-79499707D01*
X146560292Y-79388213D01*
X146560288Y-79388210D01*
X146429185Y-79300609D01*
X146429172Y-79300602D01*
X146283501Y-79240264D01*
X146283489Y-79240261D01*
X146128845Y-79209500D01*
X146128842Y-79209500D01*
X145971158Y-79209500D01*
X145971155Y-79209500D01*
X145816510Y-79240261D01*
X145816498Y-79240264D01*
X145670827Y-79300602D01*
X145670814Y-79300609D01*
X145539125Y-79388602D01*
X145472447Y-79409480D01*
X145470234Y-79409500D01*
X144724766Y-79409500D01*
X144657727Y-79389815D01*
X144655875Y-79388602D01*
X144524185Y-79300609D01*
X144524172Y-79300602D01*
X144378501Y-79240264D01*
X144378489Y-79240261D01*
X144223845Y-79209500D01*
X144223842Y-79209500D01*
X144066158Y-79209500D01*
X144066155Y-79209500D01*
X143911510Y-79240261D01*
X143911498Y-79240264D01*
X143765827Y-79300602D01*
X143765814Y-79300609D01*
X143634711Y-79388210D01*
X143634707Y-79388213D01*
X143523213Y-79499707D01*
X143523210Y-79499711D01*
X143435609Y-79630814D01*
X143435602Y-79630827D01*
X143375264Y-79776498D01*
X143375261Y-79776510D01*
X143344500Y-79931153D01*
X98559081Y-79931153D01*
X98518608Y-76895651D01*
X98537397Y-76828357D01*
X98589586Y-76781902D01*
X98642597Y-76770000D01*
X148600500Y-76770000D01*
X148667539Y-76789685D01*
G37*
%TD.AperFunction*%
%TD*%
M02*
