%TF.GenerationSoftware,KiCad,Pcbnew,9.0.5*%
%TF.CreationDate,2025-11-21T22:33:29-06:00*%
%TF.ProjectId,clk-proto,636c6b2d-7072-46f7-946f-2e6b69636164,rev?*%
%TF.SameCoordinates,Original*%
%TF.FileFunction,Copper,L1,Top*%
%TF.FilePolarity,Positive*%
%FSLAX46Y46*%
G04 Gerber Fmt 4.6, Leading zero omitted, Abs format (unit mm)*
G04 Created by KiCad (PCBNEW 9.0.5) date 2025-11-21 22:33:29*
%MOMM*%
%LPD*%
G01*
G04 APERTURE LIST*
G04 Aperture macros list*
%AMRoundRect*
0 Rectangle with rounded corners*
0 $1 Rounding radius*
0 $2 $3 $4 $5 $6 $7 $8 $9 X,Y pos of 4 corners*
0 Add a 4 corners polygon primitive as box body*
4,1,4,$2,$3,$4,$5,$6,$7,$8,$9,$2,$3,0*
0 Add four circle primitives for the rounded corners*
1,1,$1+$1,$2,$3*
1,1,$1+$1,$4,$5*
1,1,$1+$1,$6,$7*
1,1,$1+$1,$8,$9*
0 Add four rect primitives between the rounded corners*
20,1,$1+$1,$2,$3,$4,$5,0*
20,1,$1+$1,$4,$5,$6,$7,0*
20,1,$1+$1,$6,$7,$8,$9,0*
20,1,$1+$1,$8,$9,$2,$3,0*%
G04 Aperture macros list end*
%TA.AperFunction,SMDPad,CuDef*%
%ADD10RoundRect,0.225000X-0.250000X0.225000X-0.250000X-0.225000X0.250000X-0.225000X0.250000X0.225000X0*%
%TD*%
%TA.AperFunction,SMDPad,CuDef*%
%ADD11R,0.500000X0.750000*%
%TD*%
%TA.AperFunction,ComponentPad*%
%ADD12R,1.700000X1.700000*%
%TD*%
%TA.AperFunction,ComponentPad*%
%ADD13C,1.700000*%
%TD*%
%TA.AperFunction,SMDPad,CuDef*%
%ADD14RoundRect,0.200000X-0.275000X0.200000X-0.275000X-0.200000X0.275000X-0.200000X0.275000X0.200000X0*%
%TD*%
%TA.AperFunction,Conductor*%
%ADD15C,0.750000*%
%TD*%
G04 APERTURE END LIST*
D10*
%TO.P,C1,1*%
%TO.N,GND*%
X138684000Y-90398000D03*
%TO.P,C1,2*%
%TO.N,VDD*%
X138684000Y-91948000D03*
%TD*%
D11*
%TO.P,Y1,1,INH*%
%TO.N,Net-(Y1-INH)*%
X137668000Y-93596000D03*
%TO.P,Y1,2,GND*%
%TO.N,GND*%
X137668000Y-94996000D03*
%TO.P,Y1,3,CLK*%
%TO.N,Net-(J1-Pin_3)*%
X138668000Y-94996000D03*
%TO.P,Y1,4,VCC*%
%TO.N,VDD*%
X138668000Y-93596000D03*
%TD*%
D12*
%TO.P,J1,1,Pin_1*%
%TO.N,GND*%
X141224000Y-89916000D03*
D13*
%TO.P,J1,2,Pin_2*%
%TO.N,VDD*%
X141224000Y-92456000D03*
%TO.P,J1,3,Pin_3*%
%TO.N,Net-(J1-Pin_3)*%
X141224000Y-94996000D03*
%TD*%
D14*
%TO.P,R1,1*%
%TO.N,VDD*%
X136144000Y-91948000D03*
%TO.P,R1,2*%
%TO.N,Net-(Y1-INH)*%
X136144000Y-93598000D03*
%TD*%
D15*
%TO.N,Net-(Y1-INH)*%
X136144000Y-93598000D02*
X137666000Y-93598000D01*
X137666000Y-93598000D02*
X137668000Y-93596000D01*
%TO.N,Net-(J1-Pin_3)*%
X138668000Y-94996000D02*
X141224000Y-94996000D01*
%TD*%
%TA.AperFunction,Conductor*%
%TO.N,VDD*%
G36*
X141747205Y-91175769D02*
G01*
X141852517Y-91189465D01*
X141883823Y-91197805D01*
X141974406Y-91235190D01*
X142002481Y-91251358D01*
X142080273Y-91310927D01*
X142103207Y-91333822D01*
X142162911Y-91411516D01*
X142179130Y-91439570D01*
X142216665Y-91530077D01*
X142225061Y-91561376D01*
X142238937Y-91666654D01*
X142240000Y-91682857D01*
X142240000Y-93217874D01*
X142238939Y-93234060D01*
X142225093Y-93339224D01*
X142216715Y-93370491D01*
X142179259Y-93460918D01*
X142163074Y-93488951D01*
X142103491Y-93566601D01*
X142080601Y-93589491D01*
X142002951Y-93649074D01*
X141974918Y-93665259D01*
X141884491Y-93702715D01*
X141853224Y-93711093D01*
X141759398Y-93723446D01*
X141748058Y-93724939D01*
X141731874Y-93726000D01*
X139446000Y-93726000D01*
X139446000Y-93967787D01*
X139443617Y-93991980D01*
X139431476Y-94053012D01*
X139412962Y-94097708D01*
X139385309Y-94139095D01*
X139351095Y-94173309D01*
X139309708Y-94200962D01*
X139265012Y-94219476D01*
X139216989Y-94229029D01*
X139203978Y-94231617D01*
X139179788Y-94234000D01*
X138684126Y-94234000D01*
X138667941Y-94232939D01*
X138654917Y-94231224D01*
X138562775Y-94219093D01*
X138531508Y-94210715D01*
X138441081Y-94173259D01*
X138413048Y-94157074D01*
X138335398Y-94097491D01*
X138312508Y-94074601D01*
X138252925Y-93996951D01*
X138236740Y-93968918D01*
X138208606Y-93900997D01*
X138201137Y-93831528D01*
X138203392Y-93821451D01*
X138204280Y-93818136D01*
X138204281Y-93818135D01*
X138243500Y-93671767D01*
X138243500Y-93520234D01*
X138204281Y-93373866D01*
X138204280Y-93373864D01*
X138192612Y-93353654D01*
X138176000Y-93291655D01*
X138176000Y-92710000D01*
X137676000Y-92710000D01*
X135890126Y-92710000D01*
X135873941Y-92708939D01*
X135860917Y-92707224D01*
X135768775Y-92695093D01*
X135737508Y-92686715D01*
X135647081Y-92649259D01*
X135619048Y-92633074D01*
X135541398Y-92573491D01*
X135518508Y-92550601D01*
X135458925Y-92472951D01*
X135442740Y-92444918D01*
X135405284Y-92354491D01*
X135396906Y-92323223D01*
X135383061Y-92218059D01*
X135382000Y-92201874D01*
X135382000Y-91692836D01*
X135383058Y-91676669D01*
X135396874Y-91571608D01*
X135405232Y-91540376D01*
X135442615Y-91450018D01*
X135458757Y-91422024D01*
X135518231Y-91344401D01*
X135541065Y-91321528D01*
X135618584Y-91261924D01*
X135646561Y-91245728D01*
X135736847Y-91208195D01*
X135768064Y-91199782D01*
X135873100Y-91185786D01*
X135889260Y-91184701D01*
X138490342Y-91180263D01*
X141731028Y-91174734D01*
X141747205Y-91175769D01*
G37*
%TD.AperFunction*%
%TD*%
%TA.AperFunction,Conductor*%
%TO.N,GND*%
G36*
X142372922Y-88385280D02*
G01*
X142463266Y-88395459D01*
X142490331Y-88401636D01*
X142569540Y-88429352D01*
X142594553Y-88441398D01*
X142665606Y-88486043D01*
X142687313Y-88503355D01*
X142746644Y-88562686D01*
X142763957Y-88584395D01*
X142808600Y-88655444D01*
X142820648Y-88680462D01*
X142848362Y-88759666D01*
X142854540Y-88786735D01*
X142864720Y-88877076D01*
X142865500Y-88890961D01*
X142865500Y-95877038D01*
X142864720Y-95890922D01*
X142864720Y-95890923D01*
X142854540Y-95981264D01*
X142848362Y-96008333D01*
X142820648Y-96087537D01*
X142808600Y-96112555D01*
X142763957Y-96183604D01*
X142746644Y-96205313D01*
X142687313Y-96264644D01*
X142665604Y-96281957D01*
X142594555Y-96326600D01*
X142569537Y-96338648D01*
X142490333Y-96366362D01*
X142463264Y-96372540D01*
X142383075Y-96381576D01*
X142372921Y-96382720D01*
X142359038Y-96383500D01*
X135372962Y-96383500D01*
X135359078Y-96382720D01*
X135346553Y-96381308D01*
X135268735Y-96372540D01*
X135241666Y-96366362D01*
X135162462Y-96338648D01*
X135137444Y-96326600D01*
X135066395Y-96281957D01*
X135044686Y-96264644D01*
X134985355Y-96205313D01*
X134968042Y-96183604D01*
X134923399Y-96112555D01*
X134911351Y-96087537D01*
X134889561Y-96025264D01*
X134883636Y-96008331D01*
X134877459Y-95981263D01*
X134867280Y-95890922D01*
X134866500Y-95877038D01*
X134866500Y-91692839D01*
X135176500Y-91692839D01*
X135176500Y-92201860D01*
X135176940Y-92215319D01*
X135178001Y-92231501D01*
X135179320Y-92244894D01*
X135193163Y-92350043D01*
X135198407Y-92376407D01*
X135206778Y-92407651D01*
X135206787Y-92407680D01*
X135215426Y-92433131D01*
X135252886Y-92523567D01*
X135252887Y-92523569D01*
X135264754Y-92547635D01*
X135264777Y-92547678D01*
X135280953Y-92575696D01*
X135280956Y-92575701D01*
X135280957Y-92575702D01*
X135295891Y-92598052D01*
X135355474Y-92675702D01*
X135373198Y-92695911D01*
X135396088Y-92718801D01*
X135416297Y-92736525D01*
X135493947Y-92796108D01*
X135516297Y-92811042D01*
X135544330Y-92827227D01*
X135544345Y-92827234D01*
X135544363Y-92827244D01*
X135568427Y-92839110D01*
X135568432Y-92839112D01*
X135568440Y-92839116D01*
X135605853Y-92854613D01*
X135660256Y-92898453D01*
X135682322Y-92964746D01*
X135665044Y-93032446D01*
X135637349Y-93062840D01*
X135637558Y-93063049D01*
X135633078Y-93067528D01*
X135631294Y-93069487D01*
X135630657Y-93069949D01*
X135540954Y-93159652D01*
X135540951Y-93159657D01*
X135483352Y-93272698D01*
X135468500Y-93366475D01*
X135468500Y-93829517D01*
X135472555Y-93855117D01*
X135483354Y-93923304D01*
X135540950Y-94036342D01*
X135540952Y-94036344D01*
X135540954Y-94036347D01*
X135630652Y-94126045D01*
X135630654Y-94126046D01*
X135630658Y-94126050D01*
X135737777Y-94180630D01*
X135743698Y-94183647D01*
X135837475Y-94198499D01*
X135837481Y-94198500D01*
X136450518Y-94198499D01*
X136544304Y-94183646D01*
X136544309Y-94183643D01*
X136553587Y-94180630D01*
X136554361Y-94183013D01*
X136593986Y-94173500D01*
X137741763Y-94173500D01*
X137741766Y-94173500D01*
X137741768Y-94173499D01*
X137748894Y-94172561D01*
X137765082Y-94171500D01*
X137937750Y-94171500D01*
X137937751Y-94171499D01*
X137996231Y-94159867D01*
X137996235Y-94159864D01*
X138001411Y-94157721D01*
X138070880Y-94150251D01*
X138133035Y-94181222D01*
X138140804Y-94188403D01*
X138149474Y-94199702D01*
X138167198Y-94219911D01*
X138190088Y-94242801D01*
X138210297Y-94260525D01*
X138260536Y-94299074D01*
X138264709Y-94302932D01*
X138279845Y-94328234D01*
X138297230Y-94352043D01*
X138297577Y-94357876D01*
X138300578Y-94362892D01*
X138299631Y-94392361D01*
X138301385Y-94421789D01*
X138298521Y-94426961D01*
X138298336Y-94432726D01*
X138283022Y-94454952D01*
X138277685Y-94464590D01*
X138280233Y-94466293D01*
X138229132Y-94542769D01*
X138229131Y-94542770D01*
X138217499Y-94601252D01*
X138217269Y-94603588D01*
X138216653Y-94605502D01*
X138216311Y-94607226D01*
X138216112Y-94607186D01*
X138201254Y-94653426D01*
X138131720Y-94773861D01*
X138131720Y-94773862D01*
X138092500Y-94920234D01*
X138092500Y-95071765D01*
X138131720Y-95218137D01*
X138131720Y-95218138D01*
X138201254Y-95338573D01*
X138216112Y-95384813D01*
X138216311Y-95384774D01*
X138216653Y-95386497D01*
X138217269Y-95388412D01*
X138217499Y-95390747D01*
X138229131Y-95449229D01*
X138229132Y-95449230D01*
X138273447Y-95515552D01*
X138339769Y-95559867D01*
X138339770Y-95559868D01*
X138398247Y-95571499D01*
X138398250Y-95571500D01*
X138398252Y-95571500D01*
X138592234Y-95571500D01*
X139475091Y-95571500D01*
X139510960Y-95576801D01*
X140289213Y-95811977D01*
X140879465Y-95990342D01*
X140917580Y-96006130D01*
X140958925Y-96014353D01*
X140964697Y-96016098D01*
X140986398Y-96022656D01*
X140988907Y-96023349D01*
X140995830Y-96025262D01*
X140996918Y-96025535D01*
X141007164Y-96025794D01*
X141028218Y-96028136D01*
X141084694Y-96039370D01*
X141120534Y-96046500D01*
X141120535Y-96046500D01*
X141327466Y-96046500D01*
X141327467Y-96046499D01*
X141530420Y-96006130D01*
X141721598Y-95926941D01*
X141893655Y-95811977D01*
X142039977Y-95665655D01*
X142154941Y-95493598D01*
X142234130Y-95302420D01*
X142274500Y-95099465D01*
X142274500Y-94892535D01*
X142234130Y-94689580D01*
X142154941Y-94498402D01*
X142039977Y-94326345D01*
X142039975Y-94326342D01*
X141893655Y-94180022D01*
X141833607Y-94139900D01*
X141788802Y-94086288D01*
X141780095Y-94016963D01*
X141810249Y-93953936D01*
X141869692Y-93917216D01*
X141878312Y-93915180D01*
X141880043Y-93914835D01*
X141880048Y-93914835D01*
X141906412Y-93909591D01*
X141937679Y-93901213D01*
X141963132Y-93892572D01*
X142053559Y-93855116D01*
X142077669Y-93843227D01*
X142105702Y-93827042D01*
X142128052Y-93812108D01*
X142205702Y-93752525D01*
X142225911Y-93734801D01*
X142248801Y-93711911D01*
X142266525Y-93691702D01*
X142326108Y-93614052D01*
X142341042Y-93591702D01*
X142357227Y-93563669D01*
X142369116Y-93539559D01*
X142406572Y-93449132D01*
X142415213Y-93423679D01*
X142423591Y-93392412D01*
X142428835Y-93366049D01*
X142442681Y-93260885D01*
X142443999Y-93247502D01*
X142445060Y-93231316D01*
X142445500Y-93217874D01*
X142445500Y-91682857D01*
X142445387Y-91679416D01*
X142445060Y-91669420D01*
X142444655Y-91663249D01*
X142443996Y-91653201D01*
X142442675Y-91639801D01*
X142428799Y-91534523D01*
X142423544Y-91508133D01*
X142415148Y-91476834D01*
X142406488Y-91451354D01*
X142368953Y-91360847D01*
X142357038Y-91336715D01*
X142340819Y-91308661D01*
X142325857Y-91286300D01*
X142266153Y-91208606D01*
X142248394Y-91188388D01*
X142225460Y-91165493D01*
X142225454Y-91165488D01*
X142225445Y-91165479D01*
X142205220Y-91147776D01*
X142205221Y-91147776D01*
X142205211Y-91147768D01*
X142127419Y-91088199D01*
X142119958Y-91083225D01*
X142105045Y-91073283D01*
X142105032Y-91073275D01*
X142076965Y-91057112D01*
X142076966Y-91057112D01*
X142076960Y-91057109D01*
X142052804Y-91045232D01*
X142052802Y-91045231D01*
X141962238Y-91007853D01*
X141962224Y-91007848D01*
X141962221Y-91007847D01*
X141936724Y-90999231D01*
X141905418Y-90990891D01*
X141900138Y-90989849D01*
X141879023Y-90985681D01*
X141773725Y-90971986D01*
X141760329Y-90970688D01*
X141744136Y-90969652D01*
X141730689Y-90969234D01*
X141730677Y-90969234D01*
X135888909Y-90979201D01*
X135875494Y-90979663D01*
X135875465Y-90979664D01*
X135859344Y-90980746D01*
X135845972Y-90982084D01*
X135740926Y-90996081D01*
X135714579Y-91001363D01*
X135683371Y-91009774D01*
X135657969Y-91018435D01*
X135657950Y-91018442D01*
X135567683Y-91055967D01*
X135543600Y-91067881D01*
X135515635Y-91084070D01*
X135515629Y-91084074D01*
X135493333Y-91099006D01*
X135493300Y-91099029D01*
X135415816Y-91158606D01*
X135415800Y-91158620D01*
X135395637Y-91176336D01*
X135395631Y-91176341D01*
X135395631Y-91176342D01*
X135372797Y-91199215D01*
X135355107Y-91219417D01*
X135355100Y-91219425D01*
X135355093Y-91219434D01*
X135295649Y-91297016D01*
X135295633Y-91297039D01*
X135280734Y-91319368D01*
X135264593Y-91347359D01*
X135264586Y-91347374D01*
X135252727Y-91371450D01*
X135252724Y-91371457D01*
X135215340Y-91461817D01*
X135206721Y-91487237D01*
X135206709Y-91487278D01*
X135198360Y-91518475D01*
X135193130Y-91544801D01*
X135179311Y-91649882D01*
X135177996Y-91663260D01*
X135176939Y-91679407D01*
X135176500Y-91692839D01*
X134866500Y-91692839D01*
X134866500Y-88890961D01*
X134867280Y-88877077D01*
X134867280Y-88877076D01*
X134877459Y-88786731D01*
X134883635Y-88759670D01*
X134911353Y-88680456D01*
X134923396Y-88655450D01*
X134968046Y-88584389D01*
X134985351Y-88562690D01*
X135044690Y-88503351D01*
X135066389Y-88486046D01*
X135137450Y-88441396D01*
X135162456Y-88429353D01*
X135241670Y-88401635D01*
X135268733Y-88395459D01*
X135331419Y-88388396D01*
X135359079Y-88385280D01*
X135372962Y-88384500D01*
X135431892Y-88384500D01*
X142300108Y-88384500D01*
X142359038Y-88384500D01*
X142372922Y-88385280D01*
G37*
%TD.AperFunction*%
%TD*%
%TA.AperFunction,Conductor*%
%TO.N,Net-(J1-Pin_3)*%
G36*
X141054753Y-94166945D02*
G01*
X141060427Y-94173874D01*
X141060700Y-94174962D01*
X141224540Y-94993704D01*
X141224540Y-94998296D01*
X141060700Y-95817037D01*
X141055716Y-95824477D01*
X141046931Y-95826214D01*
X141045843Y-95825941D01*
X139548649Y-95373512D01*
X139541720Y-95367838D01*
X139540333Y-95362312D01*
X139540333Y-94629687D01*
X139543760Y-94621414D01*
X139548649Y-94618487D01*
X141045845Y-94166058D01*
X141054753Y-94166945D01*
G37*
%TD.AperFunction*%
%TD*%
M02*
