%TF.GenerationSoftware,KiCad,Pcbnew,9.0.5*%
%TF.CreationDate,2025-11-21T22:33:29-06:00*%
%TF.ProjectId,clk-proto,636c6b2d-7072-46f7-946f-2e6b69636164,rev?*%
%TF.SameCoordinates,Original*%
%TF.FileFunction,Legend,Top*%
%TF.FilePolarity,Positive*%
%FSLAX46Y46*%
G04 Gerber Fmt 4.6, Leading zero omitted, Abs format (unit mm)*
G04 Created by KiCad (PCBNEW 9.0.5) date 2025-11-21 22:33:29*
%MOMM*%
%LPD*%
G01*
G04 APERTURE LIST*
%ADD10C,0.080000*%
%ADD11C,0.150000*%
%ADD12C,0.120000*%
G04 APERTURE END LIST*
D10*
X142352030Y-90525523D02*
X142313935Y-90601713D01*
X142313935Y-90601713D02*
X142313935Y-90715999D01*
X142313935Y-90715999D02*
X142352030Y-90830285D01*
X142352030Y-90830285D02*
X142428220Y-90906475D01*
X142428220Y-90906475D02*
X142504411Y-90944570D01*
X142504411Y-90944570D02*
X142656792Y-90982666D01*
X142656792Y-90982666D02*
X142771078Y-90982666D01*
X142771078Y-90982666D02*
X142923459Y-90944570D01*
X142923459Y-90944570D02*
X142999649Y-90906475D01*
X142999649Y-90906475D02*
X143075840Y-90830285D01*
X143075840Y-90830285D02*
X143113935Y-90715999D01*
X143113935Y-90715999D02*
X143113935Y-90639808D01*
X143113935Y-90639808D02*
X143075840Y-90525523D01*
X143075840Y-90525523D02*
X143037744Y-90487427D01*
X143037744Y-90487427D02*
X142771078Y-90487427D01*
X142771078Y-90487427D02*
X142771078Y-90639808D01*
X143113935Y-90144570D02*
X142313935Y-90144570D01*
X142313935Y-90144570D02*
X143113935Y-89687427D01*
X143113935Y-89687427D02*
X142313935Y-89687427D01*
X143113935Y-89306475D02*
X142313935Y-89306475D01*
X142313935Y-89306475D02*
X142313935Y-89115999D01*
X142313935Y-89115999D02*
X142352030Y-89001713D01*
X142352030Y-89001713D02*
X142428220Y-88925523D01*
X142428220Y-88925523D02*
X142504411Y-88887428D01*
X142504411Y-88887428D02*
X142656792Y-88849332D01*
X142656792Y-88849332D02*
X142771078Y-88849332D01*
X142771078Y-88849332D02*
X142923459Y-88887428D01*
X142923459Y-88887428D02*
X142999649Y-88925523D01*
X142999649Y-88925523D02*
X143075840Y-89001713D01*
X143075840Y-89001713D02*
X143113935Y-89115999D01*
X143113935Y-89115999D02*
X143113935Y-89306475D01*
X143037744Y-95472189D02*
X143075840Y-95510285D01*
X143075840Y-95510285D02*
X143113935Y-95624570D01*
X143113935Y-95624570D02*
X143113935Y-95700761D01*
X143113935Y-95700761D02*
X143075840Y-95815047D01*
X143075840Y-95815047D02*
X142999649Y-95891237D01*
X142999649Y-95891237D02*
X142923459Y-95929332D01*
X142923459Y-95929332D02*
X142771078Y-95967428D01*
X142771078Y-95967428D02*
X142656792Y-95967428D01*
X142656792Y-95967428D02*
X142504411Y-95929332D01*
X142504411Y-95929332D02*
X142428220Y-95891237D01*
X142428220Y-95891237D02*
X142352030Y-95815047D01*
X142352030Y-95815047D02*
X142313935Y-95700761D01*
X142313935Y-95700761D02*
X142313935Y-95624570D01*
X142313935Y-95624570D02*
X142352030Y-95510285D01*
X142352030Y-95510285D02*
X142390125Y-95472189D01*
X143113935Y-94748380D02*
X143113935Y-95129332D01*
X143113935Y-95129332D02*
X142313935Y-95129332D01*
X143113935Y-94481713D02*
X142313935Y-94481713D01*
X143113935Y-94024570D02*
X142656792Y-94367428D01*
X142313935Y-94024570D02*
X142771078Y-94481713D01*
X142313935Y-93522666D02*
X143113935Y-93255999D01*
X143113935Y-93255999D02*
X142313935Y-92989333D01*
X143113935Y-92722666D02*
X142313935Y-92722666D01*
X142313935Y-92722666D02*
X142313935Y-92532190D01*
X142313935Y-92532190D02*
X142352030Y-92417904D01*
X142352030Y-92417904D02*
X142428220Y-92341714D01*
X142428220Y-92341714D02*
X142504411Y-92303619D01*
X142504411Y-92303619D02*
X142656792Y-92265523D01*
X142656792Y-92265523D02*
X142771078Y-92265523D01*
X142771078Y-92265523D02*
X142923459Y-92303619D01*
X142923459Y-92303619D02*
X142999649Y-92341714D01*
X142999649Y-92341714D02*
X143075840Y-92417904D01*
X143075840Y-92417904D02*
X143113935Y-92532190D01*
X143113935Y-92532190D02*
X143113935Y-92722666D01*
X143113935Y-91922666D02*
X142313935Y-91922666D01*
X142313935Y-91922666D02*
X142313935Y-91732190D01*
X142313935Y-91732190D02*
X142352030Y-91617904D01*
X142352030Y-91617904D02*
X142428220Y-91541714D01*
X142428220Y-91541714D02*
X142504411Y-91503619D01*
X142504411Y-91503619D02*
X142656792Y-91465523D01*
X142656792Y-91465523D02*
X142771078Y-91465523D01*
X142771078Y-91465523D02*
X142923459Y-91503619D01*
X142923459Y-91503619D02*
X142999649Y-91541714D01*
X142999649Y-91541714D02*
X143075840Y-91617904D01*
X143075840Y-91617904D02*
X143113935Y-91732190D01*
X143113935Y-91732190D02*
X143113935Y-91922666D01*
D11*
X137773580Y-91352666D02*
X137821200Y-91400285D01*
X137821200Y-91400285D02*
X137868819Y-91543142D01*
X137868819Y-91543142D02*
X137868819Y-91638380D01*
X137868819Y-91638380D02*
X137821200Y-91781237D01*
X137821200Y-91781237D02*
X137725961Y-91876475D01*
X137725961Y-91876475D02*
X137630723Y-91924094D01*
X137630723Y-91924094D02*
X137440247Y-91971713D01*
X137440247Y-91971713D02*
X137297390Y-91971713D01*
X137297390Y-91971713D02*
X137106914Y-91924094D01*
X137106914Y-91924094D02*
X137011676Y-91876475D01*
X137011676Y-91876475D02*
X136916438Y-91781237D01*
X136916438Y-91781237D02*
X136868819Y-91638380D01*
X136868819Y-91638380D02*
X136868819Y-91543142D01*
X136868819Y-91543142D02*
X136916438Y-91400285D01*
X136916438Y-91400285D02*
X136964057Y-91352666D01*
X137868819Y-90400285D02*
X137868819Y-90971713D01*
X137868819Y-90685999D02*
X136868819Y-90685999D01*
X136868819Y-90685999D02*
X137011676Y-90781237D01*
X137011676Y-90781237D02*
X137106914Y-90876475D01*
X137106914Y-90876475D02*
X137154533Y-90971713D01*
X136598819Y-95162666D02*
X136122628Y-95495999D01*
X136598819Y-95734094D02*
X135598819Y-95734094D01*
X135598819Y-95734094D02*
X135598819Y-95353142D01*
X135598819Y-95353142D02*
X135646438Y-95257904D01*
X135646438Y-95257904D02*
X135694057Y-95210285D01*
X135694057Y-95210285D02*
X135789295Y-95162666D01*
X135789295Y-95162666D02*
X135932152Y-95162666D01*
X135932152Y-95162666D02*
X136027390Y-95210285D01*
X136027390Y-95210285D02*
X136075009Y-95257904D01*
X136075009Y-95257904D02*
X136122628Y-95353142D01*
X136122628Y-95353142D02*
X136122628Y-95734094D01*
X136598819Y-94210285D02*
X136598819Y-94781713D01*
X136598819Y-94495999D02*
X135598819Y-94495999D01*
X135598819Y-94495999D02*
X135741676Y-94591237D01*
X135741676Y-94591237D02*
X135836914Y-94686475D01*
X135836914Y-94686475D02*
X135884533Y-94781713D01*
D12*
%TO.C,C1*%
X138174000Y-91032420D02*
X138174000Y-91313580D01*
X139194000Y-91032420D02*
X139194000Y-91313580D01*
%TO.C,Y1*%
X137168000Y-93046000D02*
X139168000Y-93046000D01*
X137168000Y-93546000D02*
X137168000Y-93046000D01*
X139168000Y-95546000D02*
X137168000Y-95546000D01*
%TO.C,J1*%
X139844000Y-88536000D02*
X141224000Y-88536000D01*
X139844000Y-89916000D02*
X139844000Y-88536000D01*
%TO.C,R1*%
X135621500Y-92535742D02*
X135621500Y-93010258D01*
X136666500Y-92535742D02*
X136666500Y-93010258D01*
%TD*%
M02*
